<svg width="106" height="77" viewBox="0 0 106 77" fill="none" xmlns="http://www.w3.org/2000/svg">
<mask id="mask0_841_1005" style="mask-type:alpha" maskUnits="userSpaceOnUse" x="0" y="0" width="106" height="77">
<rect width="106" height="77" fill="#D9D9D9"/>
</mask>
<g mask="url(#mask0_841_1005)">
<rect x="-0.76123" y="-24.1575" width="149.037" height="20.0755" transform="rotate(34.7449 -0.76123 -24.1575)" fill="#008000"/>
<path d="M38.8254 9.60101L41.3332 11.3404L38.268 21.3113L35.9903 19.7315L36.6047 17.7894L34.4305 16.2814L32.8383 17.5453L30.549 15.9575L38.8254 9.60101ZM37.2853 16.0465L38.5553 12.6679L35.8014 15.0173L37.2853 16.0465Z" fill="white"/>
<path d="M39.4068 22.1012L45.0719 13.9335L48.2124 16.1118C49.1174 16.7394 49.7451 17.4474 50.0956 18.2358C50.4592 19.0218 50.5789 19.8318 50.4548 20.6657C50.3437 21.4974 50.0275 22.289 49.5062 23.0406C48.9317 23.8688 48.2591 24.47 47.4885 24.8442C46.7255 25.2237 45.9164 25.3667 45.0611 25.2733C44.2135 25.1852 43.3756 24.8539 42.5473 24.2794L39.4068 22.1012ZM47.2285 21.4607C47.521 21.0389 47.7035 20.6203 47.7759 20.2048C47.8536 19.7816 47.8155 19.3861 47.6618 19.0182C47.508 18.6503 47.2394 18.3334 46.856 18.0674L45.9587 17.445L43.0065 21.7014L43.9038 22.3238C44.2949 22.5951 44.6885 22.7318 45.0846 22.7339C45.4883 22.7413 45.8748 22.6345 46.2439 22.4135C46.6183 22.1848 46.9465 21.8672 47.2285 21.4607Z" fill="white"/>
<path d="M55.2789 30.2135L53.9225 32.1692L48.1016 28.1318L53.7666 19.9642L59.484 23.9297L58.1276 25.8853L54.6535 23.4757L53.8556 24.6261L56.8235 26.6846L55.5629 28.5022L52.5949 26.4437L51.7013 27.7321L55.2789 30.2135Z" fill="white"/>
<path d="M60.4537 30.7529L57.669 34.7677L55.4258 33.2119L61.0909 25.0442L62.8394 26.257L63.2376 32.6838L66.118 28.531L68.3612 30.0869L62.6962 38.2545L60.9131 37.0178L60.4537 30.7529Z" fill="white"/>
<path d="M75.2289 37.7467L72.8822 36.119L68.5735 42.331L66.3303 40.7751L70.6389 34.5631L68.2806 32.9274L69.6371 30.9718L76.5853 35.7911L75.2289 37.7467Z" fill="white"/>
<path d="M72.1975 44.8446L77.8625 36.6769L81.6128 39.278C82.0116 39.5546 82.3238 39.8905 82.5496 40.2856C82.7753 40.6807 82.9151 41.1014 82.969 41.5477C83.0283 41.9863 83.0061 42.4196 82.9024 42.8475C82.8064 43.2807 82.6387 43.6698 82.3993 44.0149C82.1812 44.3294 81.9251 44.6004 81.631 44.828C81.3368 45.0556 81.0164 45.2309 80.6698 45.354C80.3285 45.4694 79.974 45.5302 79.6062 45.5363L79.2493 49.7357L76.7875 48.0282L77.0889 44.523L76.1801 43.8926L74.4407 46.4005L72.1975 44.8446ZM77.5365 41.937L78.9515 42.9184C79.0435 42.9822 79.1557 43.0089 79.2879 42.9984C79.4201 42.9879 79.5583 42.9361 79.7024 42.8429C79.8542 42.7551 79.9939 42.6192 80.1216 42.4351C80.2546 42.2434 80.3291 42.0622 80.3452 41.8916C80.3743 41.7187 80.3629 41.5632 80.3111 41.425C80.2669 41.2921 80.1988 41.1938 80.1068 41.13L78.7493 40.1884L77.5365 41.937Z" fill="white"/>
<path d="M83.9527 53.1001C83.3314 52.6693 82.8476 52.1632 82.501 51.5821C82.1597 50.9933 81.9406 50.3756 81.8438 49.7292C81.76 49.0804 81.7886 48.4414 81.9296 47.8123C82.0836 47.1808 82.3441 46.6005 82.7112 46.0713C83.0888 45.5268 83.5514 45.0809 84.0989 44.7337C84.6464 44.3865 85.2372 44.1489 85.8713 44.0207C86.5184 43.8902 87.1721 43.8893 87.8326 44.018C88.5007 44.152 89.1376 44.4291 89.7435 44.8493C90.3647 45.2802 90.8459 45.79 91.1872 46.3788C91.5338 46.96 91.749 47.575 91.8329 48.2238C91.9167 48.8726 91.8816 49.5127 91.7276 50.1442C91.5866 50.7733 91.3352 51.3486 90.9735 51.8701C90.6011 52.407 90.1412 52.849 89.5937 53.1962C89.0539 53.5487 88.4604 53.7902 87.8133 53.9207C87.1792 54.0489 86.5293 54.0524 85.8636 53.9314C85.2032 53.8028 84.5662 53.5257 83.9527 53.1001ZM84.973 47.6742C84.7815 47.9502 84.6336 48.2453 84.5295 48.5592C84.4306 48.8655 84.3861 49.1753 84.3959 49.4888C84.4109 49.7946 84.491 50.0886 84.6359 50.3709C84.7939 50.6508 85.0339 50.9025 85.356 51.1259C85.6781 51.3493 86.0006 51.4821 86.3235 51.5243C86.6463 51.5665 86.9524 51.5346 87.2417 51.4286C87.5441 51.3203 87.8175 51.1635 88.0621 50.9583C88.3196 50.7507 88.5415 50.5127 88.7276 50.2443C88.9191 49.9682 89.0643 49.677 89.1632 49.3707C89.262 49.0645 89.3039 48.7584 89.2888 48.4527C89.279 48.1392 89.1952 47.8425 89.0372 47.5626C88.8793 47.2826 88.6431 47.0336 88.3286 46.8155C88.0065 46.5921 87.684 46.4593 87.3612 46.4171C87.046 46.3803 86.7399 46.4122 86.4429 46.5128C86.1512 46.6059 85.8766 46.7561 85.6191 46.9637C85.3745 47.1689 85.1591 47.4057 84.973 47.6742Z" fill="white"/>
</g>
</svg>
