<svg width="171" height="191" viewBox="0 0 171 191" fill="none" xmlns="http://www.w3.org/2000/svg">
<g clip-path="url(#clip0_804_6710)">
<path d="M170.383 190.417H0V0H170.383V190.417ZM5.15784 185.259H165.236V5.15784H5.15784V185.27V185.259Z" fill="white"/>
<path d="M18.2529 26.7773H32.6623V31.8157H24.3446V35.5837H31.7068V40.7198H24.3446V44.9872H32.6623V49.9605H18.2529V26.7665V26.7773Z" fill="white"/>
<path d="M35.9093 42.8915H42.0878C42.0878 43.8797 42.9891 44.6832 44.3464 44.6832C45.5843 44.6832 46.5399 43.9774 46.5399 42.8915C46.5399 41.7514 45.4866 41.0673 44.2813 41.0673C39.7967 41.0673 35.931 37.8857 35.931 33.9223C35.931 29.9589 39.4275 26.7773 44.3356 26.7773C48.9722 26.7773 52.7184 29.9263 52.7184 33.8897H46.5616C46.5616 32.9342 45.606 32.0981 44.3356 32.0981C43.0651 32.0981 42.1096 32.8039 42.1096 33.8897C42.1096 34.9756 43.0108 35.714 44.3356 35.714C49.0699 35.714 52.7184 38.9281 52.7184 42.859C52.7184 46.7898 49.0699 49.9714 44.4333 49.9714C39.3623 49.9714 35.8984 46.6595 35.8984 42.8915H35.9093Z" fill="white"/>
<path d="M56.1499 38.3743C56.1499 31.9786 61.3403 26.7773 67.7469 26.7773C70.9285 26.7773 73.806 28.0478 75.9126 30.1435L71.6452 34.4435C70.6244 33.4554 69.2997 32.9233 67.7469 32.9233C64.5979 32.9233 62.3067 35.2145 62.3067 38.3635C62.3067 41.5125 64.5979 43.8037 67.7469 43.8037C69.3214 43.8037 70.6787 43.2499 71.6452 42.2617L75.9777 46.5292C73.8169 48.69 70.7547 49.9605 67.7578 49.9605C61.362 49.9605 56.1608 44.7701 56.1608 38.3635L56.1499 38.3743Z" fill="white"/>
<path d="M89.1169 26.7773H91.8425L102.755 49.9714H96.6637L95.2412 46.9418H85.7508L84.3609 49.9714H78.3018L89.1278 26.7773H89.1169ZM92.8632 41.8057L90.5177 36.7021L88.1397 41.8057H92.874H92.8632Z" fill="white"/>
<path d="M106.013 26.7773H108.488L119.467 37.7228V26.7773H125.558V49.9713H123.05L112.104 38.9933V49.9713H106.013V26.7773ZM109.596 24.3341C110.248 21.5869 111.301 20.1862 113.397 20.1644C115.036 20.1319 115.959 21.3372 117.165 21.3372C117.968 21.3372 118.435 20.7834 118.772 19.9473L121.465 20.6856C120.813 23.6283 119.738 24.8011 117.697 24.8011C115.84 24.8011 115.188 23.6609 113.896 23.6935C113.158 23.7261 112.81 24.1604 112.408 25.116L109.596 24.345V24.3341Z" fill="white"/>
<path d="M141.303 49.9714C134.907 49.9714 129.739 44.8027 129.739 38.4069C129.739 32.0112 134.907 26.7773 141.303 26.7773C147.699 26.7773 152.9 32.0003 152.9 38.4069C152.9 44.8135 147.71 49.9714 141.303 49.9714ZM141.303 32.8473C138.274 32.8473 135.798 35.3231 135.798 38.3852C135.798 41.4473 138.274 43.9231 141.303 43.9231C144.333 43.9231 146.841 41.4148 146.841 38.3852C146.841 35.3557 144.365 32.8473 141.303 32.8473Z" fill="white"/>
<path d="M51.9689 102.549V122.453C57.3657 123.321 61.5137 127.969 61.5137 133.604C61.5137 139.989 56.4318 145.071 50.1773 145.071C43.9227 145.071 38.7106 140.12 38.7106 133.735H18.2529V134.386C18.2529 151.977 32.5863 166.311 50.1773 166.311C67.7682 166.311 82.1016 151.977 82.1016 134.386C82.1016 116.795 68.7238 103.494 51.9689 102.549Z" fill="white"/>
<path d="M38.8409 89.3013H49.428H51.9689H79.8865V68.583H18.2529V89.3013H38.8409Z" fill="white"/>
<path d="M38.8409 102.462V102.44H18.2529V122.268H38.8409V102.462Z" fill="white"/>
<path d="M109.379 143.833H119.966H122.518H152.889V164.551H88.791V143.833H109.379Z" fill="white"/>
<path d="M120.715 67.8989C103.125 67.8989 88.7911 82.2323 88.7911 99.8233V100.475H109.249C109.249 94.0899 114.331 89.1384 120.715 89.1384C127.1 89.1384 132.052 94.2202 132.052 100.605C132.052 106.241 127.904 110.888 122.507 111.757H88.7803V131.661H122.507C139.262 130.716 152.64 116.806 152.64 99.8233C152.64 82.8404 138.306 67.8989 120.715 67.8989Z" fill="white"/>
</g>
<defs>
<clipPath id="clip0_804_6710">
<rect width="170.383" height="190.417" fill="white"/>
</clipPath>
</defs>
</svg>
