<svg width="584" height="171" viewBox="0 0 584 171" fill="none" xmlns="http://www.w3.org/2000/svg">
<path d="M9.60115 164.262C8.60265 164.262 7.73553 164.07 6.99979 163.684C6.26405 163.281 5.69473 162.703 5.29183 161.95V169.596H0.299316V150.178H4.63492V152.254C5.12541 151.501 5.72977 150.923 6.44799 150.52C7.18372 150.117 8.06836 149.915 9.1019 149.915C10.0303 149.915 10.8799 150.09 11.6507 150.441C12.4215 150.791 13.0959 151.29 13.674 151.939C14.2521 152.587 14.6988 153.34 15.0141 154.198C15.3294 155.057 15.4871 156.003 15.4871 157.036C15.4871 158.42 15.2331 159.655 14.725 160.741C14.217 161.827 13.5163 162.686 12.6229 163.316C11.7471 163.947 10.7398 164.262 9.60115 164.262ZM7.86691 160.058C8.23478 160.058 8.56762 159.979 8.86541 159.822C9.18073 159.664 9.45225 159.445 9.67998 159.165C9.90771 158.884 10.0829 158.56 10.2055 158.192C10.3281 157.824 10.3894 157.43 10.3894 157.01C10.3894 156.572 10.3194 156.178 10.1792 155.827C10.0566 155.477 9.87268 155.179 9.62743 154.934C9.38218 154.671 9.09314 154.47 8.76031 154.33C8.42747 154.19 8.0596 154.12 7.6567 154.12C7.42897 154.12 7.20124 154.155 6.97351 154.225C6.7633 154.277 6.56185 154.365 6.36916 154.487C6.17647 154.593 5.98377 154.733 5.79108 154.908C5.6159 155.083 5.44949 155.293 5.29183 155.538V157.93C5.44949 158.333 5.6597 158.7 5.92246 159.033C6.20274 159.349 6.5093 159.603 6.84213 159.795C7.17497 159.97 7.51656 160.058 7.86691 160.058Z" fill="black"/>
<path d="M24.6433 164.262C23.4171 164.262 22.331 164.07 21.3851 163.684C20.4391 163.299 19.6421 162.773 18.9939 162.108C18.3633 161.424 17.8816 160.654 17.5487 159.795C17.2334 158.937 17.0758 158.035 17.0758 157.089C17.0758 156.143 17.2334 155.241 17.5487 154.382C17.8816 153.506 18.3633 152.736 18.9939 152.07C19.6421 151.404 20.4391 150.879 21.3851 150.493C22.331 150.108 23.4171 149.915 24.6433 149.915C25.8871 149.915 26.9732 150.108 27.9016 150.493C28.8476 150.879 29.6359 151.404 30.2665 152.07C30.9146 152.736 31.3964 153.506 31.7117 154.382C32.0445 155.241 32.2109 156.143 32.2109 157.089C32.2109 158.035 32.0445 158.937 31.7117 159.795C31.3964 160.654 30.9146 161.424 30.2665 162.108C29.6359 162.773 28.8476 163.299 27.9016 163.684C26.9732 164.07 25.8871 164.262 24.6433 164.262ZM22.1996 157.089C22.1996 157.702 22.3048 158.236 22.515 158.692C22.7252 159.13 23.0142 159.471 23.3821 159.716C23.75 159.944 24.1704 160.058 24.6433 160.058C25.1163 160.058 25.5367 159.944 25.9046 159.716C26.2725 159.471 26.5615 159.13 26.7717 158.692C26.9819 158.236 27.0871 157.702 27.0871 157.089C27.0871 156.476 26.9819 155.95 26.7717 155.512C26.5615 155.057 26.2725 154.715 25.9046 154.487C25.5367 154.242 25.1163 154.12 24.6433 154.12C24.1704 154.12 23.75 154.242 23.3821 154.487C23.0142 154.715 22.7252 155.057 22.515 155.512C22.3048 155.95 22.1996 156.476 22.1996 157.089Z" fill="black"/>
<path d="M43.8844 154.435C42.921 154.435 42.0451 154.54 41.2568 154.75C40.4685 154.96 39.8817 155.311 39.4963 155.801V163.999H34.5038V150.178H39.0758V152.806C39.5663 151.877 40.1795 151.168 40.9152 150.677C41.6509 150.169 42.4305 149.915 43.2538 149.915C43.4465 149.915 43.5779 149.915 43.6479 149.915C43.7355 149.915 43.8144 149.924 43.8844 149.942V154.435Z" fill="black"/>
<path d="M51.7698 144.818H56.7623V158.508C56.7623 159.016 56.8674 159.41 57.0776 159.69C57.3054 159.953 57.6294 160.084 58.0498 160.084C58.2601 160.084 58.4878 160.049 58.733 159.979C58.9783 159.909 59.206 159.813 59.4162 159.69L60.0469 163.369C59.4513 163.649 58.7768 163.868 58.0236 164.026C57.2878 164.183 56.5871 164.262 55.9215 164.262C54.5901 164.262 53.5653 163.921 52.8471 163.237C52.1289 162.537 51.7698 161.547 51.7698 160.268V144.818Z" fill="black"/>
<path d="M60.9788 159.822C60.9788 158.893 61.2329 158.079 61.7409 157.378C62.2489 156.66 62.9496 156.099 63.843 155.696C64.7539 155.293 65.7874 155.092 66.9436 155.092C67.4866 155.092 67.9946 155.136 68.4676 155.223C68.9581 155.311 69.3785 155.442 69.7289 155.617V155.197C69.7289 154.549 69.5362 154.067 69.1508 153.752C68.7829 153.436 68.1786 153.279 67.3377 153.279C66.5669 153.279 65.84 153.41 65.1568 153.673C64.4911 153.918 63.7904 154.286 63.0547 154.776L61.6095 151.676C62.5379 151.08 63.5101 150.642 64.5262 150.362C65.5597 150.064 66.6633 149.915 67.837 149.915C70.0267 149.915 71.7171 150.415 72.9083 151.413C74.117 152.394 74.7214 153.857 74.7214 155.801V158.481C74.7214 158.954 74.7915 159.287 74.9316 159.48C75.0717 159.655 75.317 159.76 75.6673 159.795V163.999C75.2644 164.087 74.8791 164.148 74.5112 164.183C74.1608 164.236 73.8455 164.262 73.5652 164.262C72.6718 164.262 71.9886 164.105 71.5157 163.789C71.0602 163.456 70.7624 162.975 70.6223 162.344L70.5172 161.845C69.9041 162.633 69.1946 163.237 68.3888 163.658C67.583 164.061 66.7246 164.262 65.8137 164.262C64.9028 164.262 64.0795 164.07 63.3437 163.684C62.608 163.299 62.0299 162.773 61.6095 162.108C61.1891 161.424 60.9788 160.662 60.9788 159.822ZM69.072 160.163C69.2647 160.023 69.4223 159.874 69.5449 159.716C69.6676 159.541 69.7289 159.366 69.7289 159.191V158.166C69.4486 158.061 69.1245 157.973 68.7567 157.903C68.4063 157.833 68.091 157.798 67.8107 157.798C67.2151 157.798 66.7071 157.947 66.2867 158.245C65.8838 158.543 65.6823 158.919 65.6823 159.375C65.6823 159.62 65.7524 159.848 65.8925 160.058C66.0327 160.251 66.2254 160.408 66.4706 160.531C66.7159 160.636 66.9961 160.689 67.3114 160.689C67.6092 160.689 67.9158 160.645 68.2311 160.557C68.564 160.452 68.8442 160.321 69.072 160.163Z" fill="black"/>
<path d="M83.688 157.062C83.688 155.696 83.942 154.479 84.45 153.41C84.9755 152.324 85.6938 151.474 86.6047 150.861C87.5156 150.231 88.5579 149.915 89.7316 149.915C90.6249 149.915 91.4483 150.126 92.2015 150.546C92.9548 150.949 93.5241 151.509 93.9095 152.228V144.818H98.902V158.481C98.902 158.954 98.9721 159.287 99.1122 159.48C99.2524 159.655 99.4976 159.76 99.848 159.795V163.999C98.9896 164.175 98.2889 164.262 97.7458 164.262C96.905 164.262 96.2393 164.105 95.7488 163.789C95.2583 163.474 94.943 162.992 94.8029 162.344L94.6978 161.845C94.2248 162.686 93.5854 163.299 92.7796 163.684C91.9738 164.07 91.1154 164.262 90.2045 164.262C89.2586 164.262 88.3827 164.087 87.5769 163.737C86.7886 163.386 86.0967 162.896 85.5011 162.265C84.923 161.617 84.4763 160.855 84.161 159.979C83.8456 159.086 83.688 158.114 83.688 157.062ZM93.9358 158.639V156.169C93.7781 155.766 93.5592 155.416 93.2789 155.118C93.0161 154.803 92.7183 154.557 92.3855 154.382C92.0526 154.207 91.711 154.12 91.3607 154.12C90.9928 154.12 90.6512 154.198 90.3359 154.356C90.0381 154.514 89.7754 154.733 89.5476 155.013C89.3199 155.293 89.1447 155.617 89.0221 155.985C88.8995 156.353 88.8382 156.747 88.8382 157.168C88.8382 157.606 88.8995 158 89.0221 158.35C89.1622 158.7 89.3549 159.007 89.6002 159.27C89.8454 159.515 90.1345 159.708 90.4673 159.848C90.8001 159.988 91.168 160.058 91.5709 160.058C91.8162 160.058 92.0439 160.032 92.2541 159.979C92.4643 159.909 92.6658 159.822 92.8584 159.716C93.0511 159.594 93.2351 159.445 93.4102 159.27C93.6029 159.077 93.7781 158.867 93.9358 158.639Z" fill="black"/>
<path d="M109.23 164.262C108.021 164.262 106.944 164.078 105.998 163.71C105.052 163.325 104.255 162.808 103.607 162.16C102.976 161.512 102.494 160.767 102.161 159.927C101.828 159.086 101.662 158.201 101.662 157.273C101.662 155.941 101.951 154.724 102.529 153.62C103.107 152.499 103.957 151.606 105.078 150.94C106.199 150.257 107.583 149.915 109.23 149.915C110.876 149.915 112.26 150.248 113.381 150.914C114.502 151.579 115.352 152.455 115.93 153.541C116.508 154.628 116.797 155.81 116.797 157.089C116.797 157.352 116.78 157.623 116.745 157.903C116.727 158.166 116.701 158.403 116.666 158.613H106.97C107.005 159.103 107.136 159.506 107.364 159.822C107.609 160.119 107.907 160.338 108.257 160.478C108.625 160.619 109.002 160.689 109.387 160.689C109.93 160.689 110.438 160.566 110.911 160.321C111.402 160.076 111.726 159.734 111.884 159.296L116.114 160.505C115.746 161.24 115.229 161.889 114.564 162.449C113.916 163.01 113.145 163.456 112.251 163.789C111.358 164.105 110.351 164.262 109.23 164.262ZM106.865 155.617H111.437C111.384 155.162 111.253 154.776 111.043 154.461C110.85 154.146 110.587 153.901 110.254 153.725C109.939 153.55 109.571 153.463 109.151 153.463C108.73 153.463 108.354 153.55 108.021 153.725C107.706 153.901 107.443 154.146 107.233 154.461C107.04 154.776 106.917 155.162 106.865 155.617Z" fill="black"/>
<path d="M119.934 163.999V155.538H118.226V151.781H119.934V150.283C119.934 149.127 120.144 148.12 120.565 147.261C120.985 146.403 121.572 145.737 122.325 145.264C123.096 144.791 123.989 144.555 125.005 144.555C125.601 144.555 126.214 144.625 126.845 144.765C127.475 144.888 128.141 145.08 128.842 145.343L128.001 149.127C127.721 149.022 127.405 148.934 127.055 148.864C126.705 148.794 126.398 148.759 126.135 148.759C125.732 148.759 125.426 148.873 125.216 149.101C125.023 149.311 124.926 149.644 124.926 150.099V151.781H127.948V155.538H124.926V163.999H119.934Z" fill="black"/>
<path d="M136.865 164.262C135.656 164.262 134.579 164.078 133.633 163.71C132.687 163.325 131.89 162.808 131.242 162.16C130.611 161.512 130.129 160.767 129.797 159.927C129.464 159.086 129.297 158.201 129.297 157.273C129.297 155.941 129.586 154.724 130.165 153.62C130.743 152.499 131.592 151.606 132.713 150.94C133.834 150.257 135.218 149.915 136.865 149.915C138.512 149.915 139.896 150.248 141.017 150.914C142.138 151.579 142.987 152.455 143.565 153.541C144.144 154.628 144.433 155.81 144.433 157.089C144.433 157.352 144.415 157.623 144.38 157.903C144.363 158.166 144.336 158.403 144.301 158.613H134.605C134.64 159.103 134.772 159.506 134.999 159.822C135.245 160.119 135.542 160.338 135.893 160.478C136.261 160.619 136.637 160.689 137.023 160.689C137.566 160.689 138.074 160.566 138.547 160.321C139.037 160.076 139.361 159.734 139.519 159.296L143.749 160.505C143.382 161.24 142.865 161.889 142.199 162.449C141.551 163.01 140.78 163.456 139.887 163.789C138.993 164.105 137.986 164.262 136.865 164.262ZM134.5 155.617H139.072C139.02 155.162 138.888 154.776 138.678 154.461C138.485 154.146 138.223 153.901 137.89 153.725C137.574 153.55 137.207 153.463 136.786 153.463C136.366 153.463 135.989 153.55 135.656 153.725C135.341 153.901 135.078 154.146 134.868 154.461C134.675 154.776 134.553 155.162 134.5 155.617Z" fill="black"/>
<path d="M160.497 163.999H155.505V156.222C155.505 155.538 155.347 155.048 155.032 154.75C154.734 154.435 154.384 154.277 153.981 154.277C153.7 154.277 153.403 154.365 153.087 154.54C152.772 154.698 152.483 154.925 152.22 155.223C151.957 155.521 151.747 155.863 151.59 156.248V163.999H146.597V150.178H151.09V152.228C151.423 151.72 151.844 151.299 152.352 150.966C152.86 150.616 153.446 150.353 154.112 150.178C154.778 150.003 155.505 149.915 156.293 149.915C157.239 149.915 157.992 150.082 158.553 150.415C159.113 150.747 159.534 151.177 159.814 151.702C160.094 152.228 160.278 152.779 160.366 153.358C160.454 153.918 160.497 154.435 160.497 154.908V163.999Z" fill="black"/>
<path d="M168.987 164.262C167.778 164.262 166.587 164.07 165.413 163.684C164.257 163.281 163.276 162.703 162.471 161.95L164.178 158.876C165.037 159.436 165.86 159.874 166.648 160.189C167.454 160.505 168.181 160.662 168.829 160.662C169.197 160.662 169.469 160.619 169.644 160.531C169.819 160.426 169.907 160.259 169.907 160.032C169.907 159.874 169.845 159.743 169.723 159.638C169.6 159.532 169.399 159.427 169.118 159.322C168.856 159.217 168.514 159.103 168.094 158.981C167.008 158.595 166.097 158.236 165.361 157.903C164.643 157.57 164.1 157.168 163.732 156.695C163.381 156.204 163.206 155.556 163.206 154.75C163.206 153.804 163.443 152.972 163.916 152.254C164.389 151.518 165.063 150.94 165.939 150.52C166.832 150.099 167.901 149.889 169.145 149.889C170.073 149.889 171.002 150.038 171.93 150.336C172.876 150.616 173.787 151.133 174.663 151.886L172.771 154.934C171.895 154.391 171.15 154.006 170.537 153.778C169.942 153.55 169.407 153.436 168.934 153.436C168.707 153.436 168.505 153.463 168.33 153.515C168.172 153.568 168.05 153.647 167.962 153.752C167.875 153.857 167.831 153.997 167.831 154.172C167.831 154.347 167.892 154.496 168.015 154.619C168.137 154.724 168.33 154.829 168.593 154.934C168.856 155.022 169.188 155.127 169.591 155.249C170.783 155.6 171.755 155.959 172.508 156.327C173.261 156.677 173.813 157.106 174.163 157.614C174.531 158.122 174.715 158.788 174.715 159.611C174.715 161.065 174.199 162.204 173.165 163.027C172.149 163.851 170.756 164.262 168.987 164.262Z" fill="black"/>
<path d="M176.37 159.822C176.37 158.893 176.624 158.079 177.132 157.378C177.64 156.66 178.341 156.099 179.234 155.696C180.145 155.293 181.179 155.092 182.335 155.092C182.878 155.092 183.386 155.136 183.859 155.223C184.349 155.311 184.77 155.442 185.12 155.617V155.197C185.12 154.549 184.927 154.067 184.542 153.752C184.174 153.436 183.57 153.279 182.729 153.279C181.958 153.279 181.231 153.41 180.548 153.673C179.882 153.918 179.182 154.286 178.446 154.776L177.001 151.676C177.929 151.08 178.901 150.642 179.917 150.362C180.951 150.064 182.055 149.915 183.228 149.915C185.418 149.915 187.108 150.415 188.3 151.413C189.508 152.394 190.113 153.857 190.113 155.801V158.481C190.113 158.954 190.183 159.287 190.323 159.48C190.463 159.655 190.708 159.76 191.059 159.795V163.999C190.656 164.087 190.27 164.148 189.902 164.183C189.552 164.236 189.237 164.262 188.956 164.262C188.063 164.262 187.38 164.105 186.907 163.789C186.451 163.456 186.154 162.975 186.014 162.344L185.908 161.845C185.295 162.633 184.586 163.237 183.78 163.658C182.974 164.061 182.116 164.262 181.205 164.262C180.294 164.262 179.471 164.07 178.735 163.684C177.999 163.299 177.421 162.773 177.001 162.108C176.58 161.424 176.37 160.662 176.37 159.822ZM184.463 160.163C184.656 160.023 184.814 159.874 184.936 159.716C185.059 159.541 185.12 159.366 185.12 159.191V158.166C184.84 158.061 184.516 157.973 184.148 157.903C183.798 157.833 183.482 157.798 183.202 157.798C182.606 157.798 182.098 157.947 181.678 158.245C181.275 158.543 181.074 158.919 181.074 159.375C181.074 159.62 181.144 159.848 181.284 160.058C181.424 160.251 181.617 160.408 181.862 160.531C182.107 160.636 182.387 160.689 182.703 160.689C183 160.689 183.307 160.645 183.622 160.557C183.955 160.452 184.235 160.321 184.463 160.163Z" fill="black"/>
<path d="M199.079 157.062C199.079 155.696 199.333 154.479 199.841 153.41C200.367 152.324 201.085 151.474 201.996 150.861C202.907 150.231 203.949 149.915 205.123 149.915C206.016 149.915 206.84 150.126 207.593 150.546C208.346 150.949 208.915 151.509 209.301 152.228V144.818H214.293V158.481C214.293 158.954 214.363 159.287 214.503 159.48C214.644 159.655 214.889 159.76 215.239 159.795V163.999C214.381 164.175 213.68 164.262 213.137 164.262C212.296 164.262 211.631 164.105 211.14 163.789C210.65 163.474 210.334 162.992 210.194 162.344L210.089 161.845C209.616 162.686 208.977 163.299 208.171 163.684C207.365 164.07 206.507 164.262 205.596 164.262C204.65 164.262 203.774 164.087 202.968 163.737C202.18 163.386 201.488 162.896 200.892 162.265C200.314 161.617 199.868 160.855 199.552 159.979C199.237 159.086 199.079 158.114 199.079 157.062ZM209.327 158.639V156.169C209.169 155.766 208.95 155.416 208.67 155.118C208.407 154.803 208.11 154.557 207.777 154.382C207.444 154.207 207.102 154.12 206.752 154.12C206.384 154.12 206.042 154.198 205.727 154.356C205.429 154.514 205.167 154.733 204.939 155.013C204.711 155.293 204.536 155.617 204.413 155.985C204.291 156.353 204.229 156.747 204.229 157.168C204.229 157.606 204.291 158 204.413 158.35C204.553 158.7 204.746 159.007 204.991 159.27C205.237 159.515 205.526 159.708 205.859 159.848C206.191 159.988 206.559 160.058 206.962 160.058C207.207 160.058 207.435 160.032 207.645 159.979C207.856 159.909 208.057 159.822 208.25 159.716C208.442 159.594 208.626 159.445 208.801 159.27C208.994 159.077 209.169 158.867 209.327 158.639Z" fill="black"/>
<path d="M224.621 164.262C223.412 164.262 222.335 164.078 221.389 163.71C220.443 163.325 219.646 162.808 218.998 162.16C218.367 161.512 217.885 160.767 217.553 159.927C217.22 159.086 217.053 158.201 217.053 157.273C217.053 155.941 217.342 154.724 217.92 153.62C218.499 152.499 219.348 151.606 220.469 150.94C221.59 150.257 222.974 149.915 224.621 149.915C226.268 149.915 227.651 150.248 228.773 150.914C229.894 151.579 230.743 152.455 231.321 153.541C231.899 154.628 232.188 155.81 232.188 157.089C232.188 157.352 232.171 157.623 232.136 157.903C232.118 158.166 232.092 158.403 232.057 158.613H222.361C222.396 159.103 222.528 159.506 222.755 159.822C223.001 160.119 223.298 160.338 223.649 160.478C224.017 160.619 224.393 160.689 224.779 160.689C225.322 160.689 225.83 160.566 226.303 160.321C226.793 160.076 227.117 159.734 227.275 159.296L231.505 160.505C231.137 161.24 230.621 161.889 229.955 162.449C229.307 163.01 228.536 163.456 227.643 163.789C226.749 164.105 225.742 164.262 224.621 164.262ZM222.256 155.617H226.828C226.776 155.162 226.644 154.776 226.434 154.461C226.241 154.146 225.979 153.901 225.646 153.725C225.33 153.55 224.962 153.463 224.542 153.463C224.122 153.463 223.745 153.55 223.412 153.725C223.097 153.901 222.834 154.146 222.624 154.461C222.431 154.776 222.309 155.162 222.256 155.617Z" fill="black"/>
<path d="M240.675 144.818H245.668V158.508C245.668 159.016 245.773 159.41 245.983 159.69C246.211 159.953 246.535 160.084 246.955 160.084C247.166 160.084 247.393 160.049 247.639 159.979C247.884 159.909 248.112 159.813 248.322 159.69L248.952 163.369C248.357 163.649 247.682 163.868 246.929 164.026C246.193 164.183 245.493 164.262 244.827 164.262C243.496 164.262 242.471 163.921 241.753 163.237C241.034 162.537 240.675 161.547 240.675 160.268V144.818Z" fill="black"/>
<path d="M249.884 159.822C249.884 158.893 250.138 158.079 250.646 157.378C251.154 156.66 251.855 156.099 252.749 155.696C253.659 155.293 254.693 155.092 255.849 155.092C256.392 155.092 256.9 155.136 257.373 155.223C257.864 155.311 258.284 155.442 258.634 155.617V155.197C258.634 154.549 258.442 154.067 258.056 153.752C257.688 153.436 257.084 153.279 256.243 153.279C255.472 153.279 254.746 153.41 254.062 153.673C253.397 153.918 252.696 154.286 251.96 154.776L250.515 151.676C251.443 151.08 252.416 150.642 253.432 150.362C254.465 150.064 255.569 149.915 256.743 149.915C258.932 149.915 260.623 150.415 261.814 151.413C263.023 152.394 263.627 153.857 263.627 155.801V158.481C263.627 158.954 263.697 159.287 263.837 159.48C263.977 159.655 264.223 159.76 264.573 159.795V163.999C264.17 164.087 263.785 164.148 263.417 164.183C263.066 164.236 262.751 164.262 262.471 164.262C261.577 164.262 260.894 164.105 260.421 163.789C259.966 163.456 259.668 162.975 259.528 162.344L259.423 161.845C258.81 162.633 258.1 163.237 257.294 163.658C256.489 164.061 255.63 164.262 254.719 164.262C253.808 164.262 252.985 164.07 252.249 163.684C251.514 163.299 250.935 162.773 250.515 162.108C250.095 161.424 249.884 160.662 249.884 159.822ZM257.978 160.163C258.17 160.023 258.328 159.874 258.45 159.716C258.573 159.541 258.634 159.366 258.634 159.191V158.166C258.354 158.061 258.03 157.973 257.662 157.903C257.312 157.833 256.997 157.798 256.716 157.798C256.121 157.798 255.613 157.947 255.192 158.245C254.789 158.543 254.588 158.919 254.588 159.375C254.588 159.62 254.658 159.848 254.798 160.058C254.938 160.251 255.131 160.408 255.376 160.531C255.621 160.636 255.902 160.689 256.217 160.689C256.515 160.689 256.821 160.645 257.137 160.557C257.469 160.452 257.75 160.321 257.978 160.163Z" fill="black"/>
<path d="M273.671 163.999V145.343H280.844C282.911 145.343 284.637 145.764 286.021 146.604C287.422 147.428 288.473 148.549 289.174 149.968C289.892 151.369 290.251 152.928 290.251 154.645C290.251 156.537 289.857 158.184 289.069 159.585C288.298 160.986 287.203 162.073 285.784 162.843C284.383 163.614 282.736 163.999 280.844 163.999H273.671ZM285.049 154.645C285.049 153.682 284.882 152.841 284.549 152.123C284.216 151.387 283.735 150.817 283.104 150.415C282.473 150.012 281.72 149.81 280.844 149.81H278.795V159.532H280.844C281.738 159.532 282.491 159.322 283.104 158.902C283.735 158.481 284.216 157.903 284.549 157.168C284.882 156.414 285.049 155.573 285.049 154.645Z" fill="black"/>
<path d="M299.47 164.262C298.261 164.262 297.183 164.078 296.238 163.71C295.292 163.325 294.495 162.808 293.846 162.16C293.216 161.512 292.734 160.767 292.401 159.927C292.068 159.086 291.902 158.201 291.902 157.273C291.902 155.941 292.191 154.724 292.769 153.62C293.347 152.499 294.197 151.606 295.318 150.94C296.439 150.257 297.823 149.915 299.47 149.915C301.116 149.915 302.5 150.248 303.621 150.914C304.742 151.579 305.592 152.455 306.17 153.541C306.748 154.628 307.037 155.81 307.037 157.089C307.037 157.352 307.02 157.623 306.985 157.903C306.967 158.166 306.941 158.403 306.906 158.613H297.21C297.245 159.103 297.376 159.506 297.604 159.822C297.849 160.119 298.147 160.338 298.497 160.478C298.865 160.619 299.242 160.689 299.627 160.689C300.17 160.689 300.678 160.566 301.151 160.321C301.642 160.076 301.966 159.734 302.123 159.296L306.354 160.505C305.986 161.24 305.469 161.889 304.804 162.449C304.155 163.01 303.385 163.456 302.491 163.789C301.598 164.105 300.591 164.262 299.47 164.262ZM297.105 155.617H301.677C301.624 155.162 301.493 154.776 301.283 154.461C301.09 154.146 300.827 153.901 300.494 153.725C300.179 153.55 299.811 153.463 299.391 153.463C298.97 153.463 298.594 153.55 298.261 153.725C297.945 153.901 297.683 154.146 297.473 154.461C297.28 154.776 297.157 155.162 297.105 155.617Z" fill="black"/>
<path d="M331.484 163.999H326.492V156.222C326.492 155.538 326.351 155.048 326.071 154.75C325.808 154.435 325.484 154.277 325.099 154.277C324.713 154.277 324.293 154.461 323.838 154.829C323.382 155.197 323.049 155.67 322.839 156.248V163.999H317.847V156.222C317.847 155.538 317.706 155.048 317.426 154.75C317.163 154.435 316.839 154.277 316.454 154.277C316.069 154.277 315.648 154.461 315.193 154.829C314.737 155.197 314.404 155.67 314.194 156.248V163.999H309.202V150.178H313.695V152.228C314.185 151.474 314.86 150.905 315.718 150.52C316.577 150.117 317.593 149.915 318.766 149.915C319.905 149.915 320.763 150.161 321.341 150.651C321.919 151.142 322.305 151.693 322.497 152.306C322.988 151.553 323.662 150.966 324.521 150.546C325.379 150.126 326.343 149.915 327.411 149.915C328.322 149.915 329.049 150.082 329.592 150.415C330.135 150.747 330.538 151.177 330.801 151.702C331.081 152.228 331.265 152.779 331.353 153.358C331.44 153.918 331.484 154.435 331.484 154.908V163.999Z" fill="black"/>
<path d="M341.244 164.262C340.018 164.262 338.932 164.07 337.986 163.684C337.04 163.299 336.243 162.773 335.594 162.108C334.964 161.424 334.482 160.654 334.149 159.795C333.834 158.937 333.676 158.035 333.676 157.089C333.676 156.143 333.834 155.241 334.149 154.382C334.482 153.506 334.964 152.736 335.594 152.07C336.243 151.404 337.04 150.879 337.986 150.493C338.932 150.108 340.018 149.915 341.244 149.915C342.488 149.915 343.574 150.108 344.502 150.493C345.448 150.879 346.236 151.404 346.867 152.07C347.515 152.736 347.997 153.506 348.312 154.382C348.645 155.241 348.811 156.143 348.811 157.089C348.811 158.035 348.645 158.937 348.312 159.795C347.997 160.654 347.515 161.424 346.867 162.108C346.236 162.773 345.448 163.299 344.502 163.684C343.574 164.07 342.488 164.262 341.244 164.262ZM338.8 157.089C338.8 157.702 338.905 158.236 339.115 158.692C339.326 159.13 339.615 159.471 339.983 159.716C340.35 159.944 340.771 160.058 341.244 160.058C341.717 160.058 342.137 159.944 342.505 159.716C342.873 159.471 343.162 159.13 343.372 158.692C343.582 158.236 343.688 157.702 343.688 157.089C343.688 156.476 343.582 155.95 343.372 155.512C343.162 155.057 342.873 154.715 342.505 154.487C342.137 154.242 341.717 154.12 341.244 154.12C340.771 154.12 340.35 154.242 339.983 154.487C339.615 154.715 339.326 155.057 339.115 155.512C338.905 155.95 338.8 156.476 338.8 157.089Z" fill="black"/>
<path d="M357.936 164.262C356.71 164.262 355.624 164.07 354.678 163.684C353.749 163.299 352.961 162.773 352.313 162.108C351.665 161.424 351.174 160.654 350.841 159.795C350.509 158.937 350.342 158.035 350.342 157.089C350.342 155.827 350.631 154.654 351.209 153.568C351.805 152.464 352.663 151.579 353.784 150.914C354.923 150.248 356.307 149.915 357.936 149.915C359.6 149.915 361.002 150.266 362.14 150.966C363.279 151.667 364.129 152.569 364.689 153.673L359.828 155.144C359.6 154.811 359.32 154.557 358.987 154.382C358.672 154.207 358.313 154.12 357.91 154.12C357.454 154.12 357.043 154.242 356.675 154.487C356.307 154.715 356.009 155.048 355.781 155.486C355.571 155.924 355.466 156.458 355.466 157.089C355.466 157.702 355.571 158.236 355.781 158.692C356.009 159.13 356.307 159.471 356.675 159.716C357.043 159.944 357.454 160.058 357.91 160.058C358.19 160.058 358.444 160.023 358.672 159.953C358.9 159.865 359.11 159.743 359.302 159.585C359.513 159.427 359.688 159.243 359.828 159.033L364.689 160.505C364.321 161.24 363.813 161.889 363.165 162.449C362.534 163.01 361.781 163.456 360.905 163.789C360.047 164.105 359.057 164.262 357.936 164.262Z" fill="black"/>
<path d="M376.176 154.435C375.212 154.435 374.336 154.54 373.548 154.75C372.76 154.96 372.173 155.311 371.788 155.801V163.999H366.795V150.178H371.367V152.806C371.858 151.877 372.471 151.168 373.207 150.677C373.942 150.169 374.722 149.915 375.545 149.915C375.738 149.915 375.869 149.915 375.939 149.915C376.027 149.915 376.106 149.924 376.176 149.942V154.435Z" fill="black"/>
<path d="M377.336 159.822C377.336 158.893 377.59 158.079 378.098 157.378C378.606 156.66 379.307 156.099 380.2 155.696C381.111 155.293 382.145 155.092 383.301 155.092C383.844 155.092 384.352 155.136 384.825 155.223C385.315 155.311 385.736 155.442 386.086 155.617V155.197C386.086 154.549 385.893 154.067 385.508 153.752C385.14 153.436 384.536 153.279 383.695 153.279C382.924 153.279 382.197 153.41 381.514 153.673C380.848 153.918 380.148 154.286 379.412 154.776L377.967 151.676C378.895 151.08 379.867 150.642 380.883 150.362C381.917 150.064 383.021 149.915 384.194 149.915C386.384 149.915 388.074 150.415 389.266 151.413C390.474 152.394 391.079 153.857 391.079 155.801V158.481C391.079 158.954 391.149 159.287 391.289 159.48C391.429 159.655 391.674 159.76 392.025 159.795V163.999C391.622 164.087 391.236 164.148 390.868 164.183C390.518 164.236 390.203 164.262 389.922 164.262C389.029 164.262 388.346 164.105 387.873 163.789C387.417 163.456 387.12 162.975 386.979 162.344L386.874 161.845C386.261 162.633 385.552 163.237 384.746 163.658C383.94 164.061 383.082 164.262 382.171 164.262C381.26 164.262 380.437 164.07 379.701 163.684C378.965 163.299 378.387 162.773 377.967 162.108C377.546 161.424 377.336 160.662 377.336 159.822ZM385.429 160.163C385.622 160.023 385.78 159.874 385.902 159.716C386.025 159.541 386.086 159.366 386.086 159.191V158.166C385.806 158.061 385.482 157.973 385.114 157.903C384.764 157.833 384.448 157.798 384.168 157.798C383.572 157.798 383.064 157.947 382.644 158.245C382.241 158.543 382.04 158.919 382.04 159.375C382.04 159.62 382.11 159.848 382.25 160.058C382.39 160.251 382.583 160.408 382.828 160.531C383.073 160.636 383.353 160.689 383.669 160.689C383.966 160.689 384.273 160.645 384.588 160.557C384.921 160.452 385.201 160.321 385.429 160.163Z" fill="black"/>
<path d="M401.185 164.262C399.959 164.262 398.873 164.07 397.927 163.684C396.999 163.299 396.21 162.773 395.562 162.108C394.914 161.424 394.424 160.654 394.091 159.795C393.758 158.937 393.591 158.035 393.591 157.089C393.591 155.827 393.881 154.654 394.459 153.568C395.054 152.464 395.913 151.579 397.034 150.914C398.172 150.248 399.556 149.915 401.185 149.915C402.85 149.915 404.251 150.266 405.39 150.966C406.528 151.667 407.378 152.569 407.938 153.673L403.077 155.144C402.85 154.811 402.569 154.557 402.236 154.382C401.921 154.207 401.562 154.12 401.159 154.12C400.704 154.12 400.292 154.242 399.924 154.487C399.556 154.715 399.258 155.048 399.031 155.486C398.82 155.924 398.715 156.458 398.715 157.089C398.715 157.702 398.82 158.236 399.031 158.692C399.258 159.13 399.556 159.471 399.924 159.716C400.292 159.944 400.704 160.058 401.159 160.058C401.439 160.058 401.693 160.023 401.921 159.953C402.149 159.865 402.359 159.743 402.552 159.585C402.762 159.427 402.937 159.243 403.077 159.033L407.938 160.505C407.571 161.24 407.063 161.889 406.414 162.449C405.784 163.01 405.03 163.456 404.155 163.789C403.296 164.105 402.306 164.262 401.185 164.262Z" fill="black"/>
<path d="M410.044 163.999V150.178H415.037V163.999H410.044ZM410.044 149.022V144.818H415.037V149.022H410.044Z" fill="black"/>
<path d="M417.326 159.822C417.326 158.893 417.58 158.079 418.088 157.378C418.596 156.66 419.297 156.099 420.191 155.696C421.101 155.293 422.135 155.092 423.291 155.092C423.834 155.092 424.342 155.136 424.815 155.223C425.306 155.311 425.726 155.442 426.076 155.617V155.197C426.076 154.549 425.884 154.067 425.498 153.752C425.131 153.436 424.526 153.279 423.685 153.279C422.915 153.279 422.188 153.41 421.504 153.673C420.839 153.918 420.138 154.286 419.402 154.776L417.957 151.676C418.885 151.08 419.858 150.642 420.874 150.362C421.907 150.064 423.011 149.915 424.185 149.915C426.374 149.915 428.065 150.415 429.256 151.413C430.465 152.394 431.069 153.857 431.069 155.801V158.481C431.069 158.954 431.139 159.287 431.279 159.48C431.419 159.655 431.665 159.76 432.015 159.795V163.999C431.612 164.087 431.227 164.148 430.859 164.183C430.508 164.236 430.193 164.262 429.913 164.262C429.019 164.262 428.336 164.105 427.863 163.789C427.408 163.456 427.11 162.975 426.97 162.344L426.865 161.845C426.252 162.633 425.542 163.237 424.736 163.658C423.931 164.061 423.072 164.262 422.161 164.262C421.25 164.262 420.427 164.07 419.691 163.684C418.956 163.299 418.377 162.773 417.957 162.108C417.537 161.424 417.326 160.662 417.326 159.822ZM425.42 160.163C425.612 160.023 425.77 159.874 425.893 159.716C426.015 159.541 426.076 159.366 426.076 159.191V158.166C425.796 158.061 425.472 157.973 425.104 157.903C424.754 157.833 424.439 157.798 424.158 157.798C423.563 157.798 423.055 157.947 422.634 158.245C422.231 158.543 422.03 158.919 422.03 159.375C422.03 159.62 422.1 159.848 422.24 160.058C422.38 160.251 422.573 160.408 422.818 160.531C423.063 160.636 423.344 160.689 423.659 160.689C423.957 160.689 424.263 160.645 424.579 160.557C424.912 160.452 425.192 160.321 425.42 160.163Z" fill="black"/>
<path d="M439.948 165.392C440.351 165.532 440.718 165.637 441.051 165.707C441.402 165.795 441.717 165.839 441.997 165.839C442.365 165.839 442.672 165.769 442.917 165.629C443.162 165.506 443.355 165.305 443.495 165.024C443.635 164.744 443.723 164.402 443.758 163.999L438.739 150.178H443.863L446.491 158.876L448.619 150.178H453.27L448.593 165.655C448.33 166.548 447.901 167.328 447.305 167.993C446.71 168.677 446 169.202 445.177 169.57C444.353 169.955 443.469 170.148 442.523 170.148C442.085 170.148 441.647 170.104 441.209 170.017C440.789 169.947 440.368 169.824 439.948 169.649V165.392Z" fill="black"/>
<path d="M460.86 144.818H465.853V158.508C465.853 159.016 465.958 159.41 466.168 159.69C466.396 159.953 466.72 160.084 467.14 160.084C467.35 160.084 467.578 160.049 467.823 159.979C468.068 159.909 468.296 159.813 468.506 159.69L469.137 163.369C468.541 163.649 467.867 163.868 467.114 164.026C466.378 164.183 465.677 164.262 465.012 164.262C463.68 164.262 462.656 163.921 461.937 163.237C461.219 162.537 460.86 161.547 460.86 160.268V144.818Z" fill="black"/>
<path d="M477.637 164.262C476.41 164.262 475.324 164.07 474.378 163.684C473.432 163.299 472.635 162.773 471.987 162.108C471.357 161.424 470.875 160.654 470.542 159.795C470.227 158.937 470.069 158.035 470.069 157.089C470.069 156.143 470.227 155.241 470.542 154.382C470.875 153.506 471.357 152.736 471.987 152.07C472.635 151.404 473.432 150.879 474.378 150.493C475.324 150.108 476.41 149.915 477.637 149.915C478.88 149.915 479.966 150.108 480.895 150.493C481.841 150.879 482.629 151.404 483.26 152.07C483.908 152.736 484.39 153.506 484.705 154.382C485.038 155.241 485.204 156.143 485.204 157.089C485.204 158.035 485.038 158.937 484.705 159.795C484.39 160.654 483.908 161.424 483.26 162.108C482.629 162.773 481.841 163.299 480.895 163.684C479.966 164.07 478.88 164.262 477.637 164.262ZM475.193 157.089C475.193 157.702 475.298 158.236 475.508 158.692C475.718 159.13 476.008 159.471 476.375 159.716C476.743 159.944 477.164 160.058 477.637 160.058C478.11 160.058 478.53 159.944 478.898 159.716C479.266 159.471 479.555 159.13 479.765 158.692C479.975 158.236 480.08 157.702 480.08 157.089C480.08 156.476 479.975 155.95 479.765 155.512C479.555 155.057 479.266 154.715 478.898 154.487C478.53 154.242 478.11 154.12 477.637 154.12C477.164 154.12 476.743 154.242 476.375 154.487C476.008 154.715 475.718 155.057 475.508 155.512C475.298 155.95 475.193 156.476 475.193 157.089Z" fill="black"/>
<path d="M493.041 164.262C491.833 164.262 490.641 164.07 489.468 163.684C488.312 163.281 487.331 162.703 486.525 161.95L488.233 158.876C489.091 159.436 489.914 159.874 490.703 160.189C491.509 160.505 492.236 160.662 492.884 160.662C493.252 160.662 493.523 160.619 493.698 160.531C493.873 160.426 493.961 160.259 493.961 160.032C493.961 159.874 493.9 159.743 493.777 159.638C493.654 159.532 493.453 159.427 493.173 159.322C492.91 159.217 492.568 159.103 492.148 158.981C491.062 158.595 490.151 158.236 489.415 157.903C488.697 157.57 488.154 157.168 487.786 156.695C487.436 156.204 487.261 155.556 487.261 154.75C487.261 153.804 487.497 152.972 487.97 152.254C488.443 151.518 489.117 150.94 489.993 150.52C490.887 150.099 491.955 149.889 493.199 149.889C494.127 149.889 495.056 150.038 495.984 150.336C496.93 150.616 497.841 151.133 498.717 151.886L496.825 154.934C495.949 154.391 495.205 154.006 494.592 153.778C493.996 153.55 493.462 153.436 492.989 153.436C492.761 153.436 492.56 153.463 492.384 153.515C492.227 153.568 492.104 153.647 492.017 153.752C491.929 153.857 491.885 153.997 491.885 154.172C491.885 154.347 491.947 154.496 492.069 154.619C492.192 154.724 492.384 154.829 492.647 154.934C492.91 155.022 493.243 155.127 493.646 155.249C494.837 155.6 495.809 155.959 496.562 156.327C497.316 156.677 497.867 157.106 498.218 157.614C498.586 158.122 498.77 158.788 498.77 159.611C498.77 161.065 498.253 162.204 497.219 163.027C496.203 163.851 494.811 164.262 493.041 164.262Z" fill="black"/>
<path d="M507.955 163.999V145.343H515.129C517.196 145.343 518.921 145.764 520.305 146.604C521.707 147.428 522.758 148.549 523.458 149.968C524.177 151.369 524.536 152.928 524.536 154.645C524.536 156.537 524.142 158.184 523.353 159.585C522.583 160.986 521.488 162.073 520.069 162.843C518.667 163.614 517.021 163.999 515.129 163.999H507.955ZM519.333 154.645C519.333 153.682 519.167 152.841 518.834 152.123C518.501 151.387 518.019 150.817 517.389 150.415C516.758 150.012 516.005 149.81 515.129 149.81H513.079V159.532H515.129C516.022 159.532 516.776 159.322 517.389 158.902C518.019 158.481 518.501 157.903 518.834 157.168C519.167 156.414 519.333 155.573 519.333 154.645Z" fill="black"/>
<path d="M527.29 163.999V145.343H534.464C536.531 145.343 538.256 145.764 539.64 146.604C541.041 147.428 542.093 148.549 542.793 149.968C543.511 151.369 543.871 152.928 543.871 154.645C543.871 156.537 543.476 158.184 542.688 159.585C541.917 160.986 540.822 162.073 539.404 162.843C538.002 163.614 536.356 163.999 534.464 163.999H527.29ZM538.668 154.645C538.668 153.682 538.501 152.841 538.169 152.123C537.836 151.387 537.354 150.817 536.723 150.415C536.093 150.012 535.34 149.81 534.464 149.81H532.414V159.532H534.464C535.357 159.532 536.11 159.322 536.723 158.902C537.354 158.481 537.836 157.903 538.169 157.168C538.501 156.414 538.668 155.573 538.668 154.645Z" fill="black"/>
<path d="M563.126 145.343V163.999H558.003V156.695H551.749V163.999H546.625V145.343H551.749V152.228H558.003V145.343H563.126Z" fill="black"/>
<path d="M583.359 145.343V163.999H578.235V156.695H571.982V163.999H566.858V145.343H571.982V152.228H578.235V145.343H583.359Z" fill="black"/>
<rect x="181" y="40.9995" width="222.135" height="32.7176" fill="#AB47BC"/>
<path d="M151.876 123.999V90.5287H161.068V123.999H151.876Z" fill="black"/>
<path d="M176.973 107.547V123.999H167.781V90.5287H174.946L188.381 107.547V90.5287H197.574V123.999H190.267L176.973 107.547Z" fill="black"/>
<path d="M204.264 123.999V90.5287H213.456V123.999H204.264Z" fill="black"/>
<path d="M218.33 106.981C218.33 104.938 218.707 102.943 219.461 100.994C220.247 99.0142 221.379 97.2228 222.856 95.62C224.333 94.0172 226.124 92.7444 228.23 91.8015C230.367 90.8273 232.771 90.3401 235.442 90.3401C238.648 90.3401 241.445 91.0158 243.834 92.3672C246.222 93.6872 247.998 95.4471 249.161 97.6471L242.137 102.644C241.728 101.544 241.131 100.696 240.345 100.098C239.591 99.5013 238.758 99.0928 237.847 98.8728C236.967 98.6214 236.102 98.4956 235.254 98.4956C233.934 98.4956 232.787 98.7628 231.813 99.2971C230.87 99.7999 230.084 100.476 229.455 101.324C228.858 102.173 228.403 103.116 228.088 104.153C227.806 105.19 227.664 106.227 227.664 107.264C227.664 108.427 227.837 109.543 228.183 110.611C228.528 111.68 229.031 112.638 229.691 113.487C230.351 114.304 231.153 114.948 232.095 115.42C233.07 115.891 234.154 116.127 235.348 116.127C236.197 116.127 237.061 116.001 237.941 115.75C238.821 115.467 239.622 115.027 240.345 114.43C241.068 113.832 241.618 113.031 241.995 112.025L249.491 116.504C248.831 118.138 247.731 119.537 246.191 120.699C244.651 121.862 242.907 122.758 240.958 123.386C239.01 123.984 237.077 124.282 235.16 124.282C232.677 124.282 230.398 123.795 228.324 122.821C226.281 121.815 224.506 120.495 222.997 118.861C221.52 117.195 220.373 115.341 219.556 113.298C218.739 111.224 218.33 109.118 218.33 106.981Z" fill="black"/>
<path d="M253.705 123.999V90.5287H262.898V123.999H253.705Z" fill="black"/>
<path d="M277.342 90.5287H287.618L298.272 123.999H288.938L286.911 117.447H278.001L276.022 123.999H266.64L277.342 90.5287ZM285.45 111.318L282.48 99.5328L279.369 111.318H285.45Z" fill="black"/>
<path d="M324.981 98.5428H315.364V123.999H306.172V98.5428H296.508V90.5287H324.981V98.5428Z" fill="black"/>
<path d="M329.272 123.999V90.5287H338.465V123.999H329.272Z" fill="black"/>
<path d="M351.635 90.5287L358.188 113.392L364.646 90.5287H374.31L362.761 123.999H353.615L341.924 90.5287H351.635Z" fill="black"/>
<path d="M382.808 90.5287H393.085L403.739 123.999H394.405L392.378 117.447H383.468L381.488 123.999H372.107L382.808 90.5287ZM390.917 111.318L387.947 99.5328L384.835 111.318H390.917Z" fill="black"/>
<path d="M427.366 101.466C427.366 101.466 427.098 101.308 426.564 100.994C426.03 100.68 425.323 100.334 424.443 99.957C423.563 99.5485 422.604 99.1871 421.567 98.8728C420.53 98.5585 419.509 98.4014 418.503 98.4014C417.717 98.4014 417.073 98.5271 416.57 98.7785C416.067 99.0299 415.816 99.4542 415.816 100.051C415.816 100.617 416.067 101.073 416.57 101.418C417.073 101.764 417.78 102.078 418.691 102.361C419.634 102.644 420.75 102.99 422.038 103.398C424.113 104.027 425.904 104.75 427.413 105.567C428.921 106.384 430.084 107.437 430.901 108.725C431.718 109.983 432.127 111.664 432.127 113.77C432.127 115.781 431.765 117.478 431.043 118.861C430.32 120.212 429.345 121.297 428.12 122.114C426.894 122.931 425.527 123.528 424.018 123.905C422.51 124.251 420.97 124.424 419.399 124.424C417.796 124.424 416.114 124.266 414.354 123.952C412.626 123.606 410.944 123.151 409.31 122.585C407.676 121.988 406.183 121.297 404.832 120.511L408.792 112.45C408.792 112.45 409.106 112.638 409.734 113.015C410.363 113.392 411.196 113.817 412.233 114.288C413.27 114.76 414.417 115.184 415.674 115.561C416.963 115.938 418.251 116.127 419.54 116.127C420.546 116.127 421.237 116.001 421.614 115.75C422.023 115.467 422.227 115.105 422.227 114.665C422.227 114.005 421.881 113.502 421.19 113.157C420.499 112.78 419.587 112.434 418.456 112.12C417.356 111.774 416.13 111.381 414.779 110.941C412.83 110.281 411.227 109.543 409.97 108.725C408.713 107.877 407.786 106.887 407.189 105.755C406.592 104.593 406.293 103.194 406.293 101.56C406.293 99.0771 406.875 97.0028 408.037 95.3372C409.2 93.6715 410.725 92.4144 412.61 91.5658C414.527 90.6858 416.586 90.2458 418.786 90.2458C420.42 90.2458 421.991 90.4501 423.5 90.8587C425.04 91.2358 426.47 91.7072 427.79 92.2729C429.141 92.8386 430.32 93.3729 431.325 93.8758L427.366 101.466Z" fill="black"/>
<path d="M199.517 54.4853C199.517 54.4853 199.392 54.4114 199.14 54.2636C198.889 54.1159 198.557 53.9533 198.143 53.776C197.729 53.5839 197.278 53.4139 196.791 53.2662C196.303 53.1184 195.823 53.0445 195.35 53.0445C194.981 53.0445 194.678 53.1036 194.441 53.2218C194.205 53.34 194.087 53.5395 194.087 53.8203C194.087 54.0863 194.205 54.3006 194.441 54.4631C194.678 54.6257 195.01 54.7735 195.439 54.9065C195.882 55.0395 196.407 55.202 197.012 55.3941C197.988 55.6897 198.83 56.0296 199.539 56.4138C200.249 56.798 200.796 57.293 201.18 57.8989C201.564 58.49 201.756 59.2806 201.756 60.2707C201.756 61.2165 201.586 62.0145 201.246 62.6647C200.906 63.3001 200.448 63.8099 199.872 64.1942C199.296 64.5784 198.653 64.8591 197.943 65.0365C197.234 65.199 196.51 65.2803 195.771 65.2803C195.017 65.2803 194.227 65.2064 193.399 65.0586C192.587 64.8961 191.796 64.6818 191.028 64.4158C190.259 64.135 189.557 63.8099 188.922 63.4405L190.784 59.6501C190.784 59.6501 190.931 59.7387 191.227 59.9161C191.523 60.0934 191.914 60.2929 192.402 60.5145C192.89 60.7362 193.429 60.9357 194.02 61.113C194.626 61.2904 195.232 61.379 195.838 61.379C196.311 61.379 196.636 61.3199 196.813 61.2017C197.005 61.0687 197.101 60.8988 197.101 60.6919C197.101 60.3815 196.939 60.1451 196.613 59.9826C196.288 59.8052 195.86 59.6427 195.328 59.4949C194.811 59.3323 194.234 59.1476 193.599 58.9407C192.683 58.6304 191.929 58.2831 191.338 57.8989C190.747 57.4999 190.311 57.0344 190.03 56.5024C189.749 55.9557 189.609 55.2981 189.609 54.5296C189.609 53.3622 189.882 52.3869 190.429 51.6037C190.976 50.8205 191.693 50.2294 192.579 49.8304C193.481 49.4166 194.449 49.2097 195.483 49.2097C196.251 49.2097 196.99 49.3058 197.7 49.4979C198.424 49.6752 199.096 49.8969 199.717 50.1629C200.352 50.4289 200.906 50.6801 201.379 50.9165L199.517 54.4853Z" fill="white"/>
<path d="M210.981 65.2138C209.725 65.2138 208.647 65.0069 207.745 64.5931C206.844 64.1794 206.105 63.6104 205.528 62.8863C204.967 62.1622 204.553 61.3347 204.287 60.4037C204.021 59.4579 203.888 58.4679 203.888 57.4334V49.3427H208.211V57.4334C208.211 57.9506 208.262 58.4457 208.366 58.9186C208.469 59.3914 208.632 59.8126 208.853 60.182C209.075 60.5515 209.356 60.847 209.696 61.0687C210.05 61.2756 210.479 61.379 210.981 61.379C211.499 61.379 211.935 61.2756 212.289 61.0687C212.644 60.847 212.925 60.5515 213.132 60.182C213.353 59.7978 213.516 59.3693 213.619 58.8964C213.723 58.4235 213.774 57.9359 213.774 57.4334V49.3427H218.097V57.4334C218.097 58.527 217.949 59.5466 217.653 60.4924C217.373 61.4381 216.944 62.2657 216.368 62.975C215.791 63.6843 215.053 64.2385 214.151 64.6375C213.265 65.0217 212.208 65.2138 210.981 65.2138Z" fill="white"/>
<path d="M232.93 65.0808V56.7906L230.292 62.6203H227.987L225.349 56.7906V65.0808H221.026V49.3427H225.748L229.139 56.7463L232.553 49.3427H237.252V65.0808H232.93Z" fill="white"/>
<path d="M244.024 49.3427H248.857L253.866 65.0808H249.477L248.524 61.9997H244.335L243.404 65.0808H238.993L244.024 49.3427ZM247.837 59.1181L246.44 53.5765L244.977 59.1181H247.837Z" fill="white"/>
<path d="M271.998 53.111H267.476V65.0808H263.154V53.111H258.61V49.3427H271.998V53.111Z" fill="white"/>
<path d="M280.888 65.2138C279.631 65.2138 278.553 65.0069 277.651 64.5931C276.75 64.1794 276.011 63.6104 275.435 62.8863C274.873 62.1622 274.459 61.3347 274.193 60.4037C273.927 59.4579 273.794 58.4679 273.794 57.4334V49.3427H278.117V57.4334C278.117 57.9506 278.169 58.4457 278.272 58.9186C278.375 59.3914 278.538 59.8126 278.76 60.182C278.981 60.5515 279.262 60.847 279.602 61.0687C279.957 61.2756 280.385 61.379 280.888 61.379C281.405 61.379 281.841 61.2756 282.195 61.0687C282.55 60.847 282.831 60.5515 283.038 60.182C283.259 59.7978 283.422 59.3693 283.525 58.8964C283.629 58.4235 283.681 57.9359 283.681 57.4334V49.3427H288.003V57.4334C288.003 58.527 287.855 59.5466 287.56 60.4924C287.279 61.4381 286.85 62.2657 286.274 62.975C285.698 63.6843 284.959 64.2385 284.057 64.6375C283.171 65.0217 282.114 65.2138 280.888 65.2138Z" fill="white"/>
<path d="M299.319 49.3427H304.151L309.161 65.0808H304.772L303.819 61.9997H299.629L298.698 65.0808H294.287L299.319 49.3427ZM303.132 59.1181L301.735 53.5765L300.272 59.1181H303.132Z" fill="white"/>
<path d="M310.912 65.0808V49.3427H317.695C318.463 49.3427 319.172 49.4979 319.823 49.8082C320.473 50.1185 321.034 50.5397 321.507 51.0717C321.98 51.5889 322.342 52.1726 322.593 52.8228C322.859 53.473 322.992 54.1306 322.992 54.7956C322.992 55.7266 322.771 56.6059 322.327 57.4334C321.899 58.261 321.293 58.9407 320.51 59.4727C319.741 59.9899 318.84 60.2485 317.805 60.2485H315.234V65.0808H310.912ZM315.234 56.4803H317.517C317.695 56.4803 317.865 56.4286 318.027 56.3251C318.19 56.2217 318.323 56.0443 318.426 55.7931C318.544 55.5419 318.603 55.2094 318.603 54.7956C318.603 54.3523 318.537 54.0124 318.404 53.776C318.286 53.5248 318.131 53.3548 317.938 53.2662C317.761 53.1627 317.584 53.111 317.406 53.111H315.234V56.4803Z" fill="white"/>
<path d="M332.259 65.2138C331.062 65.2138 329.976 64.9921 329 64.5488C328.025 64.0907 327.183 63.4848 326.474 62.7312C325.779 61.9627 325.24 61.1056 324.855 60.1599C324.486 59.1993 324.301 58.2092 324.301 57.1896C324.301 56.1404 324.501 55.1429 324.9 54.1971C325.299 53.2514 325.853 52.4091 326.562 51.6702C327.286 50.9165 328.136 50.3254 329.111 49.8969C330.101 49.4683 331.18 49.254 332.348 49.254C333.545 49.254 334.631 49.4831 335.606 49.9412C336.581 50.3845 337.416 50.9904 338.111 51.7588C338.805 52.5273 339.337 53.3918 339.707 54.3523C340.091 55.2981 340.283 56.2734 340.283 57.2783C340.283 58.3127 340.084 59.3028 339.685 60.2485C339.3 61.1943 338.746 62.044 338.022 62.7977C337.313 63.5366 336.471 64.1277 335.495 64.571C334.52 64.9995 333.441 65.2138 332.259 65.2138ZM328.69 57.2339C328.69 57.7659 328.764 58.2831 328.912 58.7856C329.06 59.2732 329.281 59.7166 329.577 60.1155C329.872 60.4998 330.242 60.8101 330.685 61.0465C331.143 61.2682 331.683 61.379 332.303 61.379C332.924 61.379 333.463 61.2608 333.921 61.0244C334.38 60.7879 334.749 60.4702 335.03 60.0712C335.325 59.6574 335.54 59.2067 335.673 58.7191C335.82 58.2166 335.894 57.7068 335.894 57.1896C335.894 56.6576 335.82 56.1478 335.673 55.6601C335.525 55.1725 335.303 54.7365 335.008 54.3523C334.712 53.9533 334.335 53.643 333.877 53.4213C333.419 53.1997 332.887 53.0888 332.281 53.0888C331.66 53.0888 331.121 53.207 330.663 53.4435C330.22 53.6799 329.85 53.9976 329.555 54.3966C329.259 54.7809 329.037 55.2242 328.89 55.7266C328.757 56.2143 328.69 56.7167 328.69 57.2339Z" fill="white"/>
<path d="M344.733 49.3427L347.548 55.7709L350.43 49.3427H355.129L349.698 59.8717V65.0808H345.398V59.8274L340.056 49.3427H344.733Z" fill="white"/>
<path d="M362.823 65.2138C361.626 65.2138 360.54 64.9921 359.565 64.5488C358.59 64.0907 357.747 63.4848 357.038 62.7312C356.343 61.9627 355.804 61.1056 355.42 60.1599C355.05 59.1993 354.866 58.2092 354.866 57.1896C354.866 56.1404 355.065 55.1429 355.464 54.1971C355.863 53.2514 356.417 52.4091 357.127 51.6702C357.851 50.9165 358.7 50.3254 359.676 49.8969C360.666 49.4683 361.745 49.254 362.912 49.254C364.109 49.254 365.195 49.4831 366.17 49.9412C367.146 50.3845 367.981 50.9904 368.675 51.7588C369.37 52.5273 369.902 53.3918 370.271 54.3523C370.655 55.2981 370.848 56.2734 370.848 57.2783C370.848 58.3127 370.648 59.3028 370.249 60.2485C369.865 61.1943 369.311 62.044 368.587 62.7977C367.877 63.5366 367.035 64.1277 366.06 64.571C365.084 64.9995 364.006 65.2138 362.823 65.2138ZM359.255 57.2339C359.255 57.7659 359.328 58.2831 359.476 58.7856C359.624 59.2732 359.846 59.7166 360.141 60.1155C360.437 60.4998 360.806 60.8101 361.25 61.0465C361.708 61.2682 362.247 61.379 362.868 61.379C363.488 61.379 364.028 61.2608 364.486 61.0244C364.944 60.7879 365.313 60.4702 365.594 60.0712C365.89 59.6574 366.104 59.2067 366.237 58.7191C366.385 58.2166 366.459 57.7068 366.459 57.1896C366.459 56.6576 366.385 56.1478 366.237 55.6601C366.089 55.1725 365.868 54.7365 365.572 54.3523C365.276 53.9533 364.9 53.643 364.441 53.4213C363.983 53.1997 363.451 53.0888 362.846 53.0888C362.225 53.0888 361.685 53.207 361.227 53.4435C360.784 53.6799 360.415 53.9976 360.119 54.3966C359.823 54.7809 359.602 55.2242 359.454 55.7266C359.321 56.2143 359.255 56.7167 359.255 57.2339Z" fill="white"/>
<path d="M381.509 49.3427H386.341L391.351 65.0808H386.962L386.009 61.9997H381.82L380.889 65.0808H376.477L381.509 49.3427ZM385.322 59.1181L383.925 53.5765L382.462 59.1181H385.322Z" fill="white"/>
<path d="M542.794 105.206C540.072 115.365 522.615 119.5 521.875 119.665C521.679 119.71 521.475 119.707 521.281 119.654C521.086 119.602 520.908 119.503 520.761 119.367C520.202 118.853 507.152 106.544 509.874 96.3854C510.516 94.0007 512.089 91.9713 514.249 90.7423C516.41 89.5133 518.98 89.1851 521.396 89.8297C524.431 90.6429 526.743 92.6435 527.816 95.2655C530.056 93.5311 533.058 92.9545 536.093 93.7677C538.508 94.4177 540.57 95.987 541.826 98.1315C543.082 100.276 543.43 102.82 542.794 105.206Z" fill="#AB47BC"/>
<path d="M449.974 28.8177C447.252 38.9758 429.795 43.1109 429.054 43.2765C428.859 43.3215 428.655 43.3178 428.46 43.2658C428.266 43.2137 428.087 43.1148 427.94 42.978C427.382 42.4643 414.331 30.1548 417.053 19.9967C417.695 17.6121 419.269 15.5826 421.429 14.3536C423.589 13.1246 426.159 12.7964 428.576 13.441C431.611 14.2542 433.923 16.2548 434.995 18.8768C437.235 17.1424 440.238 16.5658 443.273 17.379C445.688 18.029 447.749 19.5984 449.006 21.7428C450.262 23.8872 450.61 26.4316 449.974 28.8177Z" fill="#AB47BC"/>
<path d="M498.658 5.27164C500.205 11.2235 492.519 18.3631 492.19 18.661C492.104 18.7403 491.999 18.7974 491.885 18.827C491.771 18.8565 491.651 18.8578 491.537 18.8306C491.105 18.7305 480.916 16.2348 479.37 10.2829C479.008 8.88485 479.223 7.39862 479.967 6.1503C480.711 4.90197 481.924 3.9935 483.339 3.62418C485.117 3.1622 486.87 3.51276 488.172 4.53689C488.811 3.0085 490.172 1.84898 491.95 1.387C493.366 1.02084 494.867 1.22419 496.125 1.95245C497.383 2.68071 498.294 3.8744 498.658 5.27164Z" fill="#4656B3"/>
<path d="M470.073 59.0311C468.61 65.004 458.457 67.6418 458.026 67.7479C457.912 67.7767 457.793 67.7772 457.679 67.7492C457.564 67.7212 457.459 67.6656 457.371 67.5875C457.038 67.2943 449.253 60.2627 450.716 54.2898C451.061 52.8876 451.956 51.6813 453.203 50.9356C454.45 50.1898 455.949 49.9655 457.37 50.3118C459.154 50.7489 460.531 51.8893 461.191 53.4086C462.479 52.3664 464.227 51.9914 466.011 52.4285C467.431 52.778 468.657 53.6694 469.418 54.9072C470.18 56.1451 470.415 57.6281 470.073 59.0311Z" fill="#4656B3"/>
<path d="M479.837 100.978C481.012 107.014 472.898 113.664 472.552 113.941C472.46 114.015 472.352 114.065 472.237 114.088C472.121 114.11 472.002 114.104 471.89 114.07C471.464 113.943 461.449 110.822 460.275 104.785C460 103.368 460.307 101.897 461.127 100.698C461.947 99.4978 463.213 98.6661 464.649 98.3852C466.452 98.0342 468.18 98.4926 469.416 99.5954C470.148 98.1095 471.578 97.0364 473.382 96.6854C474.817 96.4077 476.303 96.7036 477.514 97.5083C478.724 98.313 479.559 99.5609 479.837 100.978Z" fill="#4656B3"/>
<path d="M579.603 63.3452C580.778 69.3814 572.664 76.0314 572.318 76.3083C572.226 76.3822 572.118 76.4326 572.003 76.4551C571.887 76.4776 571.768 76.4714 571.656 76.4372C571.23 76.3105 561.215 73.1887 560.041 67.1525C559.766 65.7348 560.073 64.2647 560.893 63.0648C561.713 61.865 562.979 61.0333 564.415 60.7523C566.218 60.4013 567.946 60.8598 569.182 61.9626C569.914 60.4767 571.344 59.4036 573.148 59.0526C574.583 58.7748 576.069 59.0708 577.28 59.8755C578.49 60.6802 579.325 61.9281 579.603 63.3452Z" fill="#4656B3"/>
<path d="M527.331 39.996C530.053 50.1542 517.003 62.4636 516.444 62.9773C516.297 63.1141 516.119 63.213 515.924 63.2651C515.73 63.3172 515.526 63.3208 515.33 63.2758C514.589 63.1103 497.133 58.9752 494.411 48.817C493.774 46.4309 494.122 43.8865 495.379 41.7421C496.635 39.5977 498.697 38.0283 501.112 37.3783C504.147 36.5651 507.149 37.1418 509.389 38.8762C510.462 36.2541 512.774 34.2535 515.809 33.4404C518.225 32.7957 520.795 33.1239 522.955 34.3529C525.116 35.5819 526.689 37.6114 527.331 39.996Z" fill="#AB47BC"/>
<path d="M43.6933 99.6628C46.2549 109.223 62.6835 113.114 63.3805 113.27C63.5645 113.312 63.7566 113.309 63.9396 113.26C64.1225 113.211 64.2906 113.118 64.4288 112.989C64.9545 112.506 77.2364 100.921 74.6748 91.3613C74.0707 89.1171 72.5898 87.2072 70.5568 86.0506C68.5239 84.894 66.105 84.5851 63.8308 85.1918C60.9747 85.9571 58.799 87.8398 57.7895 90.3074C55.6815 88.6752 52.8559 88.1325 49.9998 88.8978C47.7269 89.5095 45.7865 90.9864 44.6043 93.0046C43.422 95.0227 43.0944 97.4172 43.6933 99.6628Z" fill="#AB47BC"/>
<path d="M131.047 27.7741C133.608 37.3339 150.037 41.2255 150.734 41.3813C150.918 41.4237 151.11 41.4202 151.293 41.3712C151.476 41.3222 151.644 41.2291 151.782 41.1003C152.308 40.617 164.59 29.0325 162.028 19.4727C161.424 17.2285 159.943 15.3185 157.91 14.1619C155.877 13.0053 153.458 12.6964 151.184 13.3031C148.328 14.0684 146.152 15.9512 145.143 18.4187C143.035 16.7865 140.209 16.2438 137.353 17.0091C135.08 17.6208 133.14 19.0978 131.958 21.1159C130.776 23.134 130.448 25.5285 131.047 27.7741Z" fill="#AB47BC"/>
<path d="M85.2294 5.61567C83.7742 11.217 91.0073 17.9361 91.3169 18.2164C91.3983 18.2911 91.497 18.3448 91.6042 18.3726C91.7114 18.4005 91.8237 18.4016 91.9312 18.376C92.338 18.2818 101.927 15.9331 103.382 10.3318C103.722 9.01607 103.52 7.61738 102.82 6.44258C102.12 5.26778 100.978 4.41282 99.6467 4.06525C97.9732 3.63048 96.3234 3.9604 95.0981 4.9242C94.4968 3.48584 93.2162 2.39461 91.5428 1.95984C90.2103 1.61524 88.7973 1.80662 87.6137 2.49198C86.4301 3.17735 85.5726 4.30073 85.2294 5.61567Z" fill="#4656B3"/>
<path d="M112.131 56.2078C113.508 61.829 123.063 64.3114 123.469 64.4113C123.576 64.4384 123.688 64.4388 123.796 64.4124C123.903 64.3861 124.003 64.3338 124.085 64.2603C124.399 63.9843 131.725 57.3669 130.348 51.7458C130.023 50.4262 129.182 49.2909 128.008 48.5891C126.834 47.8873 125.424 47.6762 124.086 48.0021C122.407 48.4135 121.111 49.4867 120.49 50.9165C119.278 49.9357 117.633 49.5828 115.954 49.9941C114.617 50.323 113.464 51.162 112.748 52.3269C112.031 53.4918 111.809 54.8875 112.131 56.2078Z" fill="#4656B3"/>
<path d="M102.943 95.6842C101.837 101.365 109.472 107.623 109.799 107.884C109.885 107.953 109.986 108.001 110.095 108.022C110.204 108.043 110.316 108.037 110.422 108.005C110.822 107.886 120.247 104.948 121.353 99.2673C121.611 97.9331 121.322 96.5496 120.551 95.4204C119.779 94.2912 118.587 93.5085 117.236 93.2441C115.539 92.9138 113.913 93.3452 112.75 94.383C112.06 92.9847 110.715 91.9748 109.018 91.6445C107.666 91.3831 106.268 91.6616 105.129 92.4189C103.99 93.1762 103.204 94.3506 102.943 95.6842Z" fill="#4656B3"/>
<path d="M9.05265 60.2682C7.94703 65.9489 15.5823 72.2073 15.9087 72.4679C15.9945 72.5373 16.0963 72.5848 16.2051 72.606C16.3138 72.6271 16.426 72.6213 16.5316 72.5891C16.9319 72.4699 26.357 69.532 27.4626 63.8513C27.7207 62.517 27.4323 61.1336 26.6606 60.0044C25.8889 58.8752 24.697 58.0925 23.3463 57.8281C21.6491 57.4978 20.0229 57.9292 18.8596 58.967C18.1704 57.5686 16.8247 56.5588 15.1275 56.2285C13.7763 55.9671 12.3778 56.2456 11.2389 57.0029C10.1001 57.7602 9.3138 58.9345 9.05265 60.2682Z" fill="#4656B3"/>
<path d="M58.2455 38.2942C55.6839 47.8541 67.9657 59.4385 68.4914 59.9219C68.6296 60.0507 68.7977 60.1437 68.9807 60.1928C69.1636 60.2418 69.3558 60.2453 69.5398 60.2028C70.2368 60.0471 86.6654 56.1555 89.2269 46.5957C89.8259 44.3501 89.4983 41.9556 88.316 39.9375C87.1337 37.9193 85.1933 36.4424 82.9205 35.8307C80.0644 35.0654 77.2388 35.6081 75.1308 37.2403C74.1213 34.7728 71.9456 32.89 69.0895 32.1247C66.8153 31.518 64.3964 31.8269 62.3635 32.9835C60.3305 34.1401 58.8495 36.05 58.2455 38.2942Z" fill="#AB47BC"/>
</svg>
