<svg width="389" height="165" viewBox="0 0 389 165" fill="none" xmlns="http://www.w3.org/2000/svg">
<path d="M71.7619 127.263C70.7634 127.263 69.8963 127.07 69.1605 126.685C68.4248 126.282 67.8555 125.704 67.4526 124.95V132.597H62.4601V113.179H66.7957V115.254C67.2862 114.501 67.8905 113.923 68.6087 113.52C69.3445 113.117 70.2291 112.916 71.2627 112.916C72.1911 112.916 73.0407 113.091 73.8115 113.441C74.5822 113.792 75.2567 114.291 75.8347 114.939C76.4128 115.587 76.8595 116.34 77.1748 117.199C77.4902 118.057 77.6478 119.003 77.6478 120.037C77.6478 121.421 77.3938 122.656 76.8858 123.742C76.3778 124.828 75.6771 125.686 74.7837 126.317C73.9078 126.947 72.9005 127.263 71.7619 127.263ZM70.0277 123.058C70.3955 123.058 70.7284 122.98 71.0262 122.822C71.3415 122.664 71.613 122.445 71.8407 122.165C72.0685 121.885 72.2436 121.561 72.3663 121.193C72.4889 120.825 72.5502 120.431 72.5502 120.01C72.5502 119.572 72.4801 119.178 72.34 118.828C72.2174 118.478 72.0334 118.18 71.7882 117.935C71.5429 117.672 71.2539 117.47 70.9211 117.33C70.5882 117.19 70.2204 117.12 69.8175 117.12C69.5897 117.12 69.362 117.155 69.1343 117.225C68.9241 117.278 68.7226 117.365 68.5299 117.488C68.3372 117.593 68.1445 117.733 67.9518 117.908C67.7767 118.083 67.6102 118.294 67.4526 118.539V120.93C67.6102 121.333 67.8205 121.701 68.0832 122.034C68.3635 122.349 68.6701 122.603 69.0029 122.796C69.3357 122.971 69.6773 123.058 70.0277 123.058Z" fill="black"/>
<path d="M86.8041 127.263C85.5779 127.263 84.4918 127.07 83.5458 126.685C82.5999 126.299 81.8028 125.774 81.1547 125.108C80.5241 124.425 80.0423 123.654 79.7095 122.796C79.3942 121.937 79.2365 121.035 79.2365 120.089C79.2365 119.143 79.3942 118.241 79.7095 117.383C80.0423 116.507 80.5241 115.736 81.1547 115.07C81.8028 114.405 82.5999 113.879 83.5458 113.494C84.4918 113.108 85.5779 112.916 86.8041 112.916C88.0479 112.916 89.1339 113.108 90.0624 113.494C91.0083 113.879 91.7966 114.405 92.4272 115.07C93.0754 115.736 93.5571 116.507 93.8724 117.383C94.2053 118.241 94.3717 119.143 94.3717 120.089C94.3717 121.035 94.2053 121.937 93.8724 122.796C93.5571 123.654 93.0754 124.425 92.4272 125.108C91.7966 125.774 91.0083 126.299 90.0624 126.685C89.1339 127.07 88.0479 127.263 86.8041 127.263ZM84.3604 120.089C84.3604 120.702 84.4655 121.237 84.6757 121.692C84.8859 122.13 85.175 122.472 85.5428 122.717C85.9107 122.945 86.3311 123.058 86.8041 123.058C87.2771 123.058 87.6975 122.945 88.0654 122.717C88.4332 122.472 88.7223 122.13 88.9325 121.692C89.1427 121.237 89.2478 120.702 89.2478 120.089C89.2478 119.476 89.1427 118.951 88.9325 118.513C88.7223 118.057 88.4332 117.716 88.0654 117.488C87.6975 117.243 87.2771 117.12 86.8041 117.12C86.3311 117.12 85.9107 117.243 85.5428 117.488C85.175 117.716 84.8859 118.057 84.6757 118.513C84.4655 118.951 84.3604 119.476 84.3604 120.089Z" fill="black"/>
<path d="M106.045 117.435C105.082 117.435 104.206 117.54 103.418 117.751C102.629 117.961 102.042 118.311 101.657 118.802V127H96.6645V113.179H101.237V115.806C101.727 114.878 102.34 114.168 103.076 113.678C103.812 113.17 104.591 112.916 105.415 112.916C105.607 112.916 105.739 112.916 105.809 112.916C105.896 112.916 105.975 112.925 106.045 112.942V117.435Z" fill="black"/>
<path d="M113.931 107.818H118.923V121.508C118.923 122.016 119.028 122.41 119.238 122.691C119.466 122.953 119.79 123.085 120.211 123.085C120.421 123.085 120.649 123.05 120.894 122.98C121.139 122.91 121.367 122.813 121.577 122.691L122.208 126.369C121.612 126.65 120.938 126.869 120.184 127.026C119.449 127.184 118.748 127.263 118.082 127.263C116.751 127.263 115.726 126.921 115.008 126.238C114.29 125.537 113.931 124.547 113.931 123.269V107.818Z" fill="black"/>
<path d="M123.14 122.822C123.14 121.894 123.394 121.079 123.902 120.378C124.41 119.66 125.11 119.1 126.004 118.697C126.915 118.294 127.948 118.092 129.104 118.092C129.647 118.092 130.155 118.136 130.628 118.224C131.119 118.311 131.539 118.443 131.89 118.618V118.197C131.89 117.549 131.697 117.067 131.312 116.752C130.944 116.437 130.339 116.279 129.498 116.279C128.728 116.279 128.001 116.411 127.318 116.673C126.652 116.919 125.951 117.286 125.215 117.777L123.77 114.676C124.699 114.081 125.671 113.643 126.687 113.362C127.72 113.065 128.824 112.916 129.998 112.916C132.187 112.916 133.878 113.415 135.069 114.414C136.278 115.395 136.882 116.857 136.882 118.802V121.482C136.882 121.955 136.952 122.288 137.092 122.48C137.232 122.656 137.478 122.761 137.828 122.796V127C137.425 127.088 137.04 127.149 136.672 127.184C136.322 127.236 136.006 127.263 135.726 127.263C134.833 127.263 134.149 127.105 133.676 126.79C133.221 126.457 132.923 125.975 132.783 125.345L132.678 124.845C132.065 125.634 131.355 126.238 130.55 126.658C129.744 127.061 128.885 127.263 127.974 127.263C127.064 127.263 126.24 127.07 125.504 126.685C124.769 126.299 124.191 125.774 123.77 125.108C123.35 124.425 123.14 123.663 123.14 122.822ZM131.233 123.164C131.425 123.023 131.583 122.875 131.706 122.717C131.828 122.542 131.89 122.367 131.89 122.191V121.167C131.609 121.061 131.285 120.974 130.917 120.904C130.567 120.834 130.252 120.799 129.971 120.799C129.376 120.799 128.868 120.948 128.447 121.245C128.045 121.543 127.843 121.92 127.843 122.375C127.843 122.621 127.913 122.848 128.053 123.058C128.193 123.251 128.386 123.409 128.631 123.531C128.877 123.637 129.157 123.689 129.472 123.689C129.77 123.689 130.077 123.645 130.392 123.558C130.725 123.453 131.005 123.321 131.233 123.164Z" fill="black"/>
<path d="M145.849 120.063C145.849 118.697 146.103 117.479 146.611 116.411C147.136 115.324 147.855 114.475 148.765 113.862C149.676 113.231 150.719 112.916 151.892 112.916C152.786 112.916 153.609 113.126 154.362 113.546C155.116 113.949 155.685 114.51 156.07 115.228V107.818H161.063V121.482C161.063 121.955 161.133 122.288 161.273 122.48C161.413 122.656 161.658 122.761 162.009 122.796V127C161.15 127.175 160.45 127.263 159.907 127.263C159.066 127.263 158.4 127.105 157.91 126.79C157.419 126.474 157.104 125.993 156.964 125.345L156.859 124.845C156.386 125.686 155.746 126.299 154.94 126.685C154.135 127.07 153.276 127.263 152.365 127.263C151.419 127.263 150.543 127.088 149.738 126.737C148.949 126.387 148.257 125.896 147.662 125.266C147.084 124.618 146.637 123.856 146.322 122.98C146.006 122.086 145.849 121.114 145.849 120.063ZM156.097 121.64V119.17C155.939 118.767 155.72 118.416 155.44 118.119C155.177 117.803 154.879 117.558 154.546 117.383C154.213 117.208 153.872 117.12 153.521 117.12C153.154 117.12 152.812 117.199 152.497 117.357C152.199 117.514 151.936 117.733 151.708 118.013C151.481 118.294 151.305 118.618 151.183 118.986C151.06 119.354 150.999 119.748 150.999 120.168C150.999 120.606 151.06 121 151.183 121.351C151.323 121.701 151.516 122.007 151.761 122.27C152.006 122.515 152.295 122.708 152.628 122.848C152.961 122.988 153.329 123.058 153.732 123.058C153.977 123.058 154.205 123.032 154.415 122.98C154.625 122.91 154.827 122.822 155.019 122.717C155.212 122.594 155.396 122.445 155.571 122.27C155.764 122.077 155.939 121.867 156.097 121.64Z" fill="black"/>
<path d="M171.39 127.263C170.182 127.263 169.104 127.079 168.158 126.711C167.212 126.326 166.415 125.809 165.767 125.161C165.137 124.512 164.655 123.768 164.322 122.927C163.989 122.086 163.823 121.202 163.823 120.273C163.823 118.942 164.112 117.724 164.69 116.621C165.268 115.5 166.118 114.606 167.239 113.941C168.36 113.257 169.744 112.916 171.39 112.916C173.037 112.916 174.421 113.249 175.542 113.914C176.663 114.58 177.513 115.456 178.091 116.542C178.669 117.628 178.958 118.81 178.958 120.089C178.958 120.352 178.94 120.624 178.905 120.904C178.888 121.167 178.862 121.403 178.827 121.613H169.131C169.166 122.104 169.297 122.507 169.525 122.822C169.77 123.12 170.068 123.339 170.418 123.479C170.786 123.619 171.163 123.689 171.548 123.689C172.091 123.689 172.599 123.566 173.072 123.321C173.563 123.076 173.887 122.734 174.044 122.296L178.275 123.505C177.907 124.241 177.39 124.889 176.725 125.45C176.076 126.01 175.306 126.457 174.412 126.79C173.519 127.105 172.512 127.263 171.39 127.263ZM169.026 118.618H173.598C173.545 118.162 173.414 117.777 173.203 117.462C173.011 117.146 172.748 116.901 172.415 116.726C172.1 116.551 171.732 116.463 171.312 116.463C170.891 116.463 170.515 116.551 170.182 116.726C169.866 116.901 169.604 117.146 169.393 117.462C169.201 117.777 169.078 118.162 169.026 118.618Z" fill="black"/>
<path d="M182.095 127V118.539H180.387V114.781H182.095V113.284C182.095 112.128 182.305 111.12 182.725 110.262C183.146 109.404 183.733 108.738 184.486 108.265C185.257 107.792 186.15 107.555 187.166 107.555C187.762 107.555 188.375 107.625 189.005 107.766C189.636 107.888 190.302 108.081 191.002 108.344L190.162 112.128C189.881 112.022 189.566 111.935 189.216 111.865C188.865 111.795 188.559 111.76 188.296 111.76C187.893 111.76 187.586 111.874 187.376 112.101C187.184 112.311 187.087 112.644 187.087 113.1V114.781H190.109V118.539H187.087V127H182.095Z" fill="black"/>
<path d="M199.026 127.263C197.817 127.263 196.74 127.079 195.794 126.711C194.848 126.326 194.051 125.809 193.403 125.161C192.772 124.512 192.29 123.768 191.957 122.927C191.625 122.086 191.458 121.202 191.458 120.273C191.458 118.942 191.747 117.724 192.325 116.621C192.903 115.5 193.753 114.606 194.874 113.941C195.995 113.257 197.379 112.916 199.026 112.916C200.672 112.916 202.056 113.249 203.177 113.914C204.299 114.58 205.148 115.456 205.726 116.542C206.304 117.628 206.593 118.81 206.593 120.089C206.593 120.352 206.576 120.624 206.541 120.904C206.523 121.167 206.497 121.403 206.462 121.613H196.766C196.801 122.104 196.932 122.507 197.16 122.822C197.405 123.12 197.703 123.339 198.054 123.479C198.421 123.619 198.798 123.689 199.183 123.689C199.726 123.689 200.234 123.566 200.707 123.321C201.198 123.076 201.522 122.734 201.68 122.296L205.91 123.505C205.542 124.241 205.026 124.889 204.36 125.45C203.712 126.01 202.941 126.457 202.048 126.79C201.154 127.105 200.147 127.263 199.026 127.263ZM196.661 118.618H201.233C201.18 118.162 201.049 117.777 200.839 117.462C200.646 117.146 200.383 116.901 200.051 116.726C199.735 116.551 199.367 116.463 198.947 116.463C198.527 116.463 198.15 116.551 197.817 116.726C197.502 116.901 197.239 117.146 197.029 117.462C196.836 117.777 196.713 118.162 196.661 118.618Z" fill="black"/>
<path d="M222.658 127H217.666V119.222C217.666 118.539 217.508 118.048 217.193 117.751C216.895 117.435 216.544 117.278 216.142 117.278C215.861 117.278 215.563 117.365 215.248 117.54C214.933 117.698 214.644 117.926 214.381 118.224C214.118 118.521 213.908 118.863 213.75 119.248V127H208.758V113.179H213.251V115.228C213.584 114.72 214.004 114.3 214.512 113.967C215.02 113.617 215.607 113.354 216.273 113.179C216.939 113.003 217.666 112.916 218.454 112.916C219.4 112.916 220.153 113.082 220.714 113.415C221.274 113.748 221.695 114.177 221.975 114.703C222.255 115.228 222.439 115.78 222.527 116.358C222.614 116.919 222.658 117.435 222.658 117.908V127Z" fill="black"/>
<path d="M231.148 127.263C229.939 127.263 228.748 127.07 227.574 126.685C226.418 126.282 225.437 125.704 224.631 124.95L226.339 121.876C227.198 122.437 228.021 122.875 228.809 123.19C229.615 123.505 230.342 123.663 230.99 123.663C231.358 123.663 231.63 123.619 231.805 123.531C231.98 123.426 232.067 123.26 232.067 123.032C232.067 122.875 232.006 122.743 231.884 122.638C231.761 122.533 231.559 122.428 231.279 122.323C231.016 122.218 230.675 122.104 230.254 121.981C229.168 121.596 228.257 121.237 227.522 120.904C226.803 120.571 226.26 120.168 225.893 119.695C225.542 119.205 225.367 118.556 225.367 117.751C225.367 116.805 225.603 115.973 226.076 115.254C226.549 114.519 227.224 113.941 228.1 113.52C228.993 113.1 230.062 112.89 231.305 112.89C232.234 112.89 233.162 113.038 234.091 113.336C235.037 113.617 235.948 114.133 236.823 114.887L234.932 117.935C234.056 117.392 233.311 117.006 232.698 116.778C232.102 116.551 231.568 116.437 231.095 116.437C230.868 116.437 230.666 116.463 230.491 116.516C230.333 116.568 230.211 116.647 230.123 116.752C230.035 116.857 229.992 116.997 229.992 117.173C229.992 117.348 230.053 117.497 230.176 117.619C230.298 117.724 230.491 117.829 230.754 117.935C231.016 118.022 231.349 118.127 231.752 118.25C232.943 118.6 233.916 118.959 234.669 119.327C235.422 119.678 235.974 120.107 236.324 120.615C236.692 121.123 236.876 121.788 236.876 122.612C236.876 124.066 236.359 125.204 235.326 126.028C234.31 126.851 232.917 127.263 231.148 127.263Z" fill="black"/>
<path d="M238.531 122.822C238.531 121.894 238.785 121.079 239.293 120.378C239.801 119.66 240.502 119.1 241.395 118.697C242.306 118.294 243.339 118.092 244.496 118.092C245.039 118.092 245.547 118.136 246.02 118.224C246.51 118.311 246.931 118.443 247.281 118.618V118.197C247.281 117.549 247.088 117.067 246.703 116.752C246.335 116.437 245.731 116.279 244.89 116.279C244.119 116.279 243.392 116.411 242.709 116.673C242.043 116.919 241.342 117.286 240.607 117.777L239.161 114.676C240.09 114.081 241.062 113.643 242.078 113.362C243.112 113.065 244.215 112.916 245.389 112.916C247.579 112.916 249.269 113.415 250.46 114.414C251.669 115.395 252.273 116.857 252.273 118.802V121.482C252.273 121.955 252.343 122.288 252.484 122.48C252.624 122.656 252.869 122.761 253.219 122.796V127C252.816 127.088 252.431 127.149 252.063 127.184C251.713 127.236 251.397 127.263 251.117 127.263C250.224 127.263 249.541 127.105 249.068 126.79C248.612 126.457 248.314 125.975 248.174 125.345L248.069 124.845C247.456 125.634 246.747 126.238 245.941 126.658C245.135 127.061 244.277 127.263 243.366 127.263C242.455 127.263 241.631 127.07 240.896 126.685C240.16 126.299 239.582 125.774 239.161 125.108C238.741 124.425 238.531 123.663 238.531 122.822ZM246.624 123.164C246.817 123.023 246.974 122.875 247.097 122.717C247.22 122.542 247.281 122.367 247.281 122.191V121.167C247.001 121.061 246.677 120.974 246.309 120.904C245.958 120.834 245.643 120.799 245.363 120.799C244.767 120.799 244.259 120.948 243.839 121.245C243.436 121.543 243.234 121.92 243.234 122.375C243.234 122.621 243.304 122.848 243.445 123.058C243.585 123.251 243.777 123.409 244.023 123.531C244.268 123.637 244.548 123.689 244.863 123.689C245.161 123.689 245.468 123.645 245.783 123.558C246.116 123.453 246.396 123.321 246.624 123.164Z" fill="black"/>
<path d="M261.24 120.063C261.24 118.697 261.494 117.479 262.002 116.411C262.528 115.324 263.246 114.475 264.157 113.862C265.068 113.231 266.11 112.916 267.284 112.916C268.177 112.916 269 113.126 269.754 113.546C270.507 113.949 271.076 114.51 271.462 115.228V107.818H276.454V121.482C276.454 121.955 276.524 122.288 276.664 122.48C276.804 122.656 277.05 122.761 277.4 122.796V127C276.542 127.175 275.841 127.263 275.298 127.263C274.457 127.263 273.791 127.105 273.301 126.79C272.81 126.474 272.495 125.993 272.355 125.345L272.25 124.845C271.777 125.686 271.137 126.299 270.332 126.685C269.526 127.07 268.667 127.263 267.757 127.263C266.811 127.263 265.935 127.088 265.129 126.737C264.341 126.387 263.649 125.896 263.053 125.266C262.475 124.618 262.028 123.856 261.713 122.98C261.398 122.086 261.24 121.114 261.24 120.063ZM271.488 121.64V119.17C271.33 118.767 271.111 118.416 270.831 118.119C270.568 117.803 270.27 117.558 269.937 117.383C269.605 117.208 269.263 117.12 268.913 117.12C268.545 117.12 268.203 117.199 267.888 117.357C267.59 117.514 267.327 117.733 267.1 118.013C266.872 118.294 266.697 118.618 266.574 118.986C266.451 119.354 266.39 119.748 266.39 120.168C266.39 120.606 266.451 121 266.574 121.351C266.714 121.701 266.907 122.007 267.152 122.27C267.397 122.515 267.686 122.708 268.019 122.848C268.352 122.988 268.72 123.058 269.123 123.058C269.368 123.058 269.596 123.032 269.806 122.98C270.016 122.91 270.218 122.822 270.41 122.717C270.603 122.594 270.787 122.445 270.962 122.27C271.155 122.077 271.33 121.867 271.488 121.64Z" fill="black"/>
<path d="M286.782 127.263C285.573 127.263 284.496 127.079 283.55 126.711C282.604 126.326 281.807 125.809 281.158 125.161C280.528 124.512 280.046 123.768 279.713 122.927C279.38 122.086 279.214 121.202 279.214 120.273C279.214 118.942 279.503 117.724 280.081 116.621C280.659 115.5 281.509 114.606 282.63 113.941C283.751 113.257 285.135 112.916 286.782 112.916C288.428 112.916 289.812 113.249 290.933 113.914C292.054 114.58 292.904 115.456 293.482 116.542C294.06 117.628 294.349 118.81 294.349 120.089C294.349 120.352 294.332 120.624 294.297 120.904C294.279 121.167 294.253 121.403 294.218 121.613H284.522C284.557 122.104 284.688 122.507 284.916 122.822C285.161 123.12 285.459 123.339 285.809 123.479C286.177 123.619 286.554 123.689 286.939 123.689C287.482 123.689 287.99 123.566 288.463 123.321C288.954 123.076 289.278 122.734 289.436 122.296L293.666 123.505C293.298 124.241 292.781 124.889 292.116 125.45C291.468 126.01 290.697 126.457 289.803 126.79C288.91 127.105 287.903 127.263 286.782 127.263ZM284.417 118.618H288.989C288.936 118.162 288.805 117.777 288.595 117.462C288.402 117.146 288.139 116.901 287.806 116.726C287.491 116.551 287.123 116.463 286.703 116.463C286.282 116.463 285.906 116.551 285.573 116.726C285.258 116.901 284.995 117.146 284.785 117.462C284.592 117.777 284.469 118.162 284.417 118.618Z" fill="black"/>
<path d="M302.836 107.818H307.829V121.508C307.829 122.016 307.934 122.41 308.144 122.691C308.372 122.953 308.696 123.085 309.116 123.085C309.326 123.085 309.554 123.05 309.799 122.98C310.045 122.91 310.272 122.813 310.483 122.691L311.113 126.369C310.518 126.65 309.843 126.869 309.09 127.026C308.354 127.184 307.653 127.263 306.988 127.263C305.656 127.263 304.632 126.921 303.913 126.238C303.195 125.537 302.836 124.547 302.836 123.269V107.818Z" fill="black"/>
<path d="M312.045 122.822C312.045 121.894 312.299 121.079 312.807 120.378C313.315 119.66 314.016 119.1 314.909 118.697C315.82 118.294 316.854 118.092 318.01 118.092C318.553 118.092 319.061 118.136 319.534 118.224C320.024 118.311 320.445 118.443 320.795 118.618V118.197C320.795 117.549 320.602 117.067 320.217 116.752C319.849 116.437 319.245 116.279 318.404 116.279C317.633 116.279 316.906 116.411 316.223 116.673C315.557 116.919 314.857 117.286 314.121 117.777L312.676 114.676C313.604 114.081 314.576 113.643 315.592 113.362C316.626 113.065 317.73 112.916 318.903 112.916C321.093 112.916 322.783 113.415 323.975 114.414C325.183 115.395 325.788 116.857 325.788 118.802V121.482C325.788 121.955 325.858 122.288 325.998 122.48C326.138 122.656 326.383 122.761 326.734 122.796V127C326.331 127.088 325.945 127.149 325.577 127.184C325.227 127.236 324.912 127.263 324.632 127.263C323.738 127.263 323.055 127.105 322.582 126.79C322.127 126.457 321.829 125.975 321.689 125.345L321.583 124.845C320.97 125.634 320.261 126.238 319.455 126.658C318.649 127.061 317.791 127.263 316.88 127.263C315.969 127.263 315.146 127.07 314.41 126.685C313.674 126.299 313.096 125.774 312.676 125.108C312.255 124.425 312.045 123.663 312.045 122.822ZM320.138 123.164C320.331 123.023 320.489 122.875 320.611 122.717C320.734 122.542 320.795 122.367 320.795 122.191V121.167C320.515 121.061 320.191 120.974 319.823 120.904C319.473 120.834 319.157 120.799 318.877 120.799C318.281 120.799 317.773 120.948 317.353 121.245C316.95 121.543 316.749 121.92 316.749 122.375C316.749 122.621 316.819 122.848 316.959 123.058C317.099 123.251 317.292 123.409 317.537 123.531C317.782 123.637 318.062 123.689 318.378 123.689C318.676 123.689 318.982 123.645 319.297 123.558C319.63 123.453 319.911 123.321 320.138 123.164Z" fill="black"/>
<path d="M39.6559 158V139.344H46.8293C48.8964 139.344 50.6219 139.764 52.0058 140.605C53.4072 141.428 54.4582 142.549 55.1589 143.968C55.8772 145.37 56.2363 146.929 56.2363 148.646C56.2363 150.537 55.8421 152.184 55.0538 153.586C54.2831 154.987 53.1882 156.073 51.7693 156.844C50.3679 157.615 48.7212 158 46.8293 158H39.6559ZM51.0336 148.646C51.0336 147.682 50.8671 146.841 50.5343 146.123C50.2015 145.387 49.7197 144.818 49.0891 144.415C48.4585 144.012 47.7052 143.811 46.8293 143.811H44.7798V153.533H46.8293C47.7227 153.533 48.476 153.323 49.0891 152.902C49.7197 152.482 50.2015 151.904 50.5343 151.168C50.8671 150.415 51.0336 149.574 51.0336 148.646Z" fill="black"/>
<path d="M65.4546 158.263C64.2458 158.263 63.1685 158.079 62.2226 157.711C61.2766 157.326 60.4796 156.809 59.8314 156.161C59.2008 155.512 58.719 154.768 58.3862 153.927C58.0534 153.086 57.887 152.202 57.887 151.273C57.887 149.942 58.176 148.724 58.7541 147.621C59.3322 146.5 60.1818 145.606 61.3029 144.941C62.424 144.257 63.8079 143.916 65.4546 143.916C67.1012 143.916 68.4851 144.249 69.6062 144.914C70.7273 145.58 71.5769 146.456 72.155 147.542C72.7331 148.628 73.0222 149.81 73.0222 151.089C73.0222 151.352 73.0046 151.624 72.9696 151.904C72.9521 152.167 72.9258 152.403 72.8908 152.613H63.1948C63.2298 153.104 63.3612 153.507 63.5889 153.822C63.8342 154.12 64.132 154.339 64.4823 154.479C64.8502 154.619 65.2268 154.689 65.6122 154.689C66.1553 154.689 66.6633 154.566 67.1362 154.321C67.6267 154.076 67.9508 153.734 68.1085 153.296L72.339 154.505C71.9711 155.241 71.4543 155.889 70.7887 156.45C70.1405 157.01 69.3697 157.457 68.4763 157.79C67.5829 158.105 66.5757 158.263 65.4546 158.263ZM63.0897 149.618H67.6618C67.6092 149.162 67.4778 148.777 67.2676 148.462C67.0749 148.146 66.8122 147.901 66.4793 147.726C66.164 147.551 65.7962 147.463 65.3757 147.463C64.9553 147.463 64.5787 147.551 64.2458 147.726C63.9305 147.901 63.6678 148.146 63.4576 148.462C63.2649 148.777 63.1422 149.162 63.0897 149.618Z" fill="black"/>
<path d="M97.469 158H92.4765V150.222C92.4765 149.539 92.3364 149.048 92.0561 148.751C91.7933 148.435 91.4693 148.278 91.0839 148.278C90.6985 148.278 90.2781 148.462 89.8226 148.829C89.3671 149.197 89.0343 149.67 88.8241 150.248V158H83.8316V150.222C83.8316 149.539 83.6915 149.048 83.4112 148.751C83.1484 148.435 82.8243 148.278 82.4389 148.278C82.0536 148.278 81.6331 148.462 81.1777 148.829C80.7222 149.197 80.3894 149.67 80.1792 150.248V158H75.1867V144.179H79.6799V146.228C80.1704 145.475 80.8448 144.906 81.7032 144.52C82.5616 144.117 83.5776 143.916 84.7513 143.916C85.8899 143.916 86.7483 144.161 87.3264 144.652C87.9044 145.142 88.2898 145.694 88.4825 146.307C88.973 145.554 89.6474 144.967 90.5058 144.546C91.3642 144.126 92.3276 143.916 93.3962 143.916C94.3071 143.916 95.0341 144.082 95.5771 144.415C96.1202 144.748 96.5231 145.177 96.7858 145.703C97.0661 146.228 97.2501 146.78 97.3376 147.358C97.4252 147.919 97.469 148.435 97.469 148.908V158Z" fill="black"/>
<path d="M107.229 158.263C106.003 158.263 104.917 158.07 103.971 157.685C103.025 157.299 102.228 156.774 101.579 156.108C100.949 155.425 100.467 154.654 100.134 153.796C99.8189 152.937 99.6613 152.035 99.6613 151.089C99.6613 150.143 99.8189 149.241 100.134 148.383C100.467 147.507 100.949 146.736 101.579 146.07C102.228 145.405 103.025 144.879 103.971 144.494C104.917 144.108 106.003 143.916 107.229 143.916C108.473 143.916 109.559 144.108 110.487 144.494C111.433 144.879 112.221 145.405 112.852 146.07C113.5 146.736 113.982 147.507 114.297 148.383C114.63 149.241 114.796 150.143 114.796 151.089C114.796 152.035 114.63 152.937 114.297 153.796C113.982 154.654 113.5 155.425 112.852 156.108C112.221 156.774 111.433 157.299 110.487 157.685C109.559 158.07 108.473 158.263 107.229 158.263ZM104.785 151.089C104.785 151.702 104.89 152.237 105.1 152.692C105.311 153.13 105.6 153.472 105.968 153.717C106.335 153.945 106.756 154.058 107.229 154.058C107.702 154.058 108.122 153.945 108.49 153.717C108.858 153.472 109.147 153.13 109.357 152.692C109.567 152.237 109.673 151.702 109.673 151.089C109.673 150.476 109.567 149.951 109.357 149.513C109.147 149.057 108.858 148.716 108.49 148.488C108.122 148.243 107.702 148.12 107.229 148.12C106.756 148.12 106.335 148.243 105.968 148.488C105.6 148.716 105.311 149.057 105.1 149.513C104.89 149.951 104.785 150.476 104.785 151.089Z" fill="black"/>
<path d="M123.921 158.263C122.695 158.263 121.609 158.07 120.663 157.685C119.734 157.299 118.946 156.774 118.298 156.108C117.65 155.425 117.159 154.654 116.826 153.796C116.494 152.937 116.327 152.035 116.327 151.089C116.327 149.828 116.616 148.654 117.194 147.568C117.79 146.465 118.648 145.58 119.769 144.914C120.908 144.249 122.292 143.916 123.921 143.916C125.585 143.916 126.987 144.266 128.125 144.967C129.264 145.668 130.114 146.57 130.674 147.673L125.813 149.145C125.585 148.812 125.305 148.558 124.972 148.383C124.657 148.208 124.298 148.12 123.895 148.12C123.439 148.12 123.028 148.243 122.66 148.488C122.292 148.716 121.994 149.048 121.766 149.486C121.556 149.924 121.451 150.459 121.451 151.089C121.451 151.702 121.556 152.237 121.766 152.692C121.994 153.13 122.292 153.472 122.66 153.717C123.028 153.945 123.439 154.058 123.895 154.058C124.175 154.058 124.429 154.023 124.657 153.953C124.885 153.866 125.095 153.743 125.287 153.586C125.498 153.428 125.673 153.244 125.813 153.034L130.674 154.505C130.306 155.241 129.798 155.889 129.15 156.45C128.519 157.01 127.766 157.457 126.89 157.79C126.032 158.105 125.042 158.263 123.921 158.263Z" fill="black"/>
<path d="M142.161 148.435C141.197 148.435 140.321 148.54 139.533 148.751C138.745 148.961 138.158 149.311 137.773 149.802V158H132.78V144.179H137.352V146.806C137.843 145.878 138.456 145.168 139.192 144.678C139.927 144.17 140.707 143.916 141.53 143.916C141.723 143.916 141.854 143.916 141.924 143.916C142.012 143.916 142.091 143.925 142.161 143.942V148.435Z" fill="black"/>
<path d="M143.321 153.822C143.321 152.894 143.575 152.079 144.083 151.378C144.591 150.66 145.292 150.1 146.185 149.697C147.096 149.294 148.13 149.092 149.286 149.092C149.829 149.092 150.337 149.136 150.81 149.224C151.3 149.311 151.721 149.443 152.071 149.618V149.197C152.071 148.549 151.878 148.067 151.493 147.752C151.125 147.437 150.521 147.279 149.68 147.279C148.909 147.279 148.182 147.411 147.499 147.673C146.833 147.919 146.133 148.286 145.397 148.777L143.952 145.676C144.88 145.081 145.852 144.643 146.868 144.362C147.902 144.065 149.006 143.916 150.179 143.916C152.369 143.916 154.059 144.415 155.251 145.414C156.459 146.395 157.064 147.857 157.064 149.802V152.482C157.064 152.955 157.134 153.288 157.274 153.48C157.414 153.656 157.659 153.761 158.01 153.796V158C157.607 158.088 157.221 158.149 156.853 158.184C156.503 158.236 156.188 158.263 155.907 158.263C155.014 158.263 154.331 158.105 153.858 157.79C153.402 157.457 153.105 156.975 152.965 156.345L152.859 155.845C152.246 156.634 151.537 157.238 150.731 157.658C149.925 158.061 149.067 158.263 148.156 158.263C147.245 158.263 146.422 158.07 145.686 157.685C144.95 157.299 144.372 156.774 143.952 156.108C143.531 155.425 143.321 154.663 143.321 153.822ZM151.414 154.164C151.607 154.023 151.765 153.875 151.887 153.717C152.01 153.542 152.071 153.367 152.071 153.191V152.167C151.791 152.061 151.467 151.974 151.099 151.904C150.749 151.834 150.433 151.799 150.153 151.799C149.557 151.799 149.049 151.948 148.629 152.245C148.226 152.543 148.025 152.92 148.025 153.375C148.025 153.621 148.095 153.848 148.235 154.058C148.375 154.251 148.568 154.409 148.813 154.531C149.058 154.637 149.338 154.689 149.654 154.689C149.951 154.689 150.258 154.645 150.573 154.558C150.906 154.453 151.186 154.321 151.414 154.164Z" fill="black"/>
<path d="M167.17 158.263C165.944 158.263 164.858 158.07 163.912 157.685C162.984 157.299 162.195 156.774 161.547 156.108C160.899 155.425 160.409 154.654 160.076 153.796C159.743 152.937 159.577 152.035 159.577 151.089C159.577 149.828 159.866 148.654 160.444 147.568C161.039 146.465 161.898 145.58 163.019 144.914C164.157 144.249 165.541 143.916 167.17 143.916C168.835 143.916 170.236 144.266 171.375 144.967C172.513 145.668 173.363 146.57 173.923 147.673L169.062 149.145C168.835 148.812 168.554 148.558 168.221 148.383C167.906 148.208 167.547 148.12 167.144 148.12C166.689 148.12 166.277 148.243 165.909 148.488C165.541 148.716 165.243 149.048 165.016 149.486C164.806 149.924 164.7 150.459 164.7 151.089C164.7 151.702 164.806 152.237 165.016 152.692C165.243 153.13 165.541 153.472 165.909 153.717C166.277 153.945 166.689 154.058 167.144 154.058C167.424 154.058 167.678 154.023 167.906 153.953C168.134 153.866 168.344 153.743 168.537 153.586C168.747 153.428 168.922 153.244 169.062 153.034L173.923 154.505C173.556 155.241 173.048 155.889 172.399 156.45C171.769 157.01 171.015 157.457 170.14 157.79C169.281 158.105 168.292 158.263 167.17 158.263Z" fill="black"/>
<path d="M176.029 158V144.179H181.022V158H176.029ZM176.029 143.022V138.818H181.022V143.022H176.029Z" fill="black"/>
<path d="M183.311 153.822C183.311 152.894 183.565 152.079 184.073 151.378C184.581 150.66 185.282 150.1 186.176 149.697C187.086 149.294 188.12 149.092 189.276 149.092C189.819 149.092 190.327 149.136 190.8 149.224C191.291 149.311 191.711 149.443 192.061 149.618V149.197C192.061 148.549 191.869 148.067 191.483 147.752C191.116 147.437 190.511 147.279 189.67 147.279C188.9 147.279 188.173 147.411 187.489 147.673C186.824 147.919 186.123 148.286 185.387 148.777L183.942 145.676C184.871 145.081 185.843 144.643 186.859 144.362C187.892 144.065 188.996 143.916 190.17 143.916C192.359 143.916 194.05 144.415 195.241 145.414C196.45 146.395 197.054 147.857 197.054 149.802V152.482C197.054 152.955 197.124 153.288 197.264 153.48C197.404 153.656 197.65 153.761 198 153.796V158C197.597 158.088 197.212 158.149 196.844 158.184C196.493 158.236 196.178 158.263 195.898 158.263C195.004 158.263 194.321 158.105 193.848 157.79C193.393 157.457 193.095 156.975 192.955 156.345L192.85 155.845C192.237 156.634 191.527 157.238 190.721 157.658C189.916 158.061 189.057 158.263 188.146 158.263C187.235 158.263 186.412 158.07 185.676 157.685C184.941 157.299 184.363 156.774 183.942 156.108C183.522 155.425 183.311 154.663 183.311 153.822ZM191.405 154.164C191.597 154.023 191.755 153.875 191.878 153.717C192 153.542 192.061 153.367 192.061 153.191V152.167C191.781 152.061 191.457 151.974 191.089 151.904C190.739 151.834 190.424 151.799 190.143 151.799C189.548 151.799 189.04 151.948 188.619 152.245C188.216 152.543 188.015 152.92 188.015 153.375C188.015 153.621 188.085 153.848 188.225 154.058C188.365 154.251 188.558 154.409 188.803 154.531C189.048 154.637 189.329 154.689 189.644 154.689C189.942 154.689 190.248 154.645 190.564 154.558C190.897 154.453 191.177 154.321 191.405 154.164Z" fill="black"/>
<path d="M205.933 159.393C206.336 159.533 206.704 159.638 207.036 159.708C207.387 159.795 207.702 159.839 207.982 159.839C208.35 159.839 208.657 159.769 208.902 159.629C209.147 159.506 209.34 159.305 209.48 159.025C209.62 158.744 209.708 158.403 209.743 158L204.724 144.179H209.848L212.476 152.876L214.604 144.179H219.255L214.578 159.655C214.315 160.549 213.886 161.328 213.29 161.994C212.695 162.677 211.985 163.203 211.162 163.571C210.338 163.956 209.454 164.149 208.508 164.149C208.07 164.149 207.632 164.105 207.194 164.017C206.774 163.947 206.353 163.825 205.933 163.649V159.393Z" fill="black"/>
<path d="M226.845 138.818H231.838V152.508C231.838 153.016 231.943 153.41 232.153 153.691C232.381 153.953 232.705 154.085 233.125 154.085C233.335 154.085 233.563 154.05 233.808 153.98C234.054 153.91 234.281 153.813 234.491 153.691L235.122 157.369C234.526 157.65 233.852 157.869 233.099 158.026C232.363 158.184 231.662 158.263 230.997 158.263C229.665 158.263 228.641 157.921 227.922 157.238C227.204 156.537 226.845 155.547 226.845 154.269V138.818Z" fill="black"/>
<path d="M243.622 158.263C242.395 158.263 241.309 158.07 240.363 157.685C239.417 157.299 238.62 156.774 237.972 156.108C237.342 155.425 236.86 154.654 236.527 153.796C236.212 152.937 236.054 152.035 236.054 151.089C236.054 150.143 236.212 149.241 236.527 148.383C236.86 147.507 237.342 146.736 237.972 146.07C238.62 145.405 239.417 144.879 240.363 144.494C241.309 144.108 242.395 143.916 243.622 143.916C244.865 143.916 245.952 144.108 246.88 144.494C247.826 144.879 248.614 145.405 249.245 146.07C249.893 146.736 250.375 147.507 250.69 148.383C251.023 149.241 251.189 150.143 251.189 151.089C251.189 152.035 251.023 152.937 250.69 153.796C250.375 154.654 249.893 155.425 249.245 156.108C248.614 156.774 247.826 157.299 246.88 157.685C245.952 158.07 244.865 158.263 243.622 158.263ZM241.178 151.089C241.178 151.702 241.283 152.237 241.493 152.692C241.704 153.13 241.993 153.472 242.36 153.717C242.728 153.945 243.149 154.058 243.622 154.058C244.095 154.058 244.515 153.945 244.883 153.717C245.251 153.472 245.54 153.13 245.75 152.692C245.96 152.237 246.065 151.702 246.065 151.089C246.065 150.476 245.96 149.951 245.75 149.513C245.54 149.057 245.251 148.716 244.883 148.488C244.515 148.243 244.095 148.12 243.622 148.12C243.149 148.12 242.728 148.243 242.36 148.488C241.993 148.716 241.704 149.057 241.493 149.513C241.283 149.951 241.178 150.476 241.178 151.089Z" fill="black"/>
<path d="M259.026 158.263C257.818 158.263 256.626 158.07 255.453 157.685C254.297 157.282 253.316 156.704 252.51 155.95L254.218 152.876C255.076 153.437 255.9 153.875 256.688 154.19C257.494 154.505 258.221 154.663 258.869 154.663C259.237 154.663 259.508 154.619 259.683 154.531C259.858 154.426 259.946 154.26 259.946 154.032C259.946 153.875 259.885 153.743 259.762 153.638C259.64 153.533 259.438 153.428 259.158 153.323C258.895 153.218 258.553 153.104 258.133 152.981C257.047 152.596 256.136 152.237 255.4 151.904C254.682 151.571 254.139 151.168 253.771 150.695C253.421 150.205 253.246 149.556 253.246 148.751C253.246 147.805 253.482 146.973 253.955 146.254C254.428 145.519 255.102 144.941 255.978 144.52C256.872 144.1 257.94 143.89 259.184 143.89C260.112 143.89 261.041 144.038 261.969 144.336C262.915 144.617 263.826 145.133 264.702 145.887L262.81 148.935C261.934 148.392 261.19 148.006 260.577 147.778C259.981 147.551 259.447 147.437 258.974 147.437C258.746 147.437 258.545 147.463 258.369 147.516C258.212 147.568 258.089 147.647 258.002 147.752C257.914 147.857 257.87 147.997 257.87 148.173C257.87 148.348 257.932 148.497 258.054 148.619C258.177 148.724 258.369 148.829 258.632 148.935C258.895 149.022 259.228 149.127 259.631 149.25C260.822 149.6 261.794 149.959 262.547 150.327C263.301 150.678 263.852 151.107 264.203 151.615C264.571 152.123 264.755 152.788 264.755 153.612C264.755 155.066 264.238 156.204 263.204 157.028C262.188 157.851 260.796 158.263 259.026 158.263Z" fill="black"/>
<path d="M273.941 158V139.344H281.114C283.181 139.344 284.907 139.764 286.29 140.605C287.692 141.428 288.743 142.549 289.444 143.968C290.162 145.37 290.521 146.929 290.521 148.646C290.521 150.537 290.127 152.184 289.338 153.586C288.568 154.987 287.473 156.073 286.054 156.844C284.653 157.615 283.006 158 281.114 158H273.941ZM285.318 148.646C285.318 147.682 285.152 146.841 284.819 146.123C284.486 145.387 284.004 144.818 283.374 144.415C282.743 144.012 281.99 143.811 281.114 143.811H279.064V153.533H281.114C282.007 153.533 282.761 153.323 283.374 152.902C284.004 152.482 284.486 151.904 284.819 151.168C285.152 150.415 285.318 149.574 285.318 148.646Z" fill="black"/>
<path d="M293.275 158V139.344H300.449C302.516 139.344 304.241 139.764 305.625 140.605C307.026 141.428 308.078 142.549 308.778 143.968C309.496 145.37 309.856 146.929 309.856 148.646C309.856 150.537 309.461 152.184 308.673 153.586C307.902 154.987 306.808 156.073 305.389 156.844C303.987 157.615 302.341 158 300.449 158H293.275ZM304.653 148.646C304.653 147.682 304.486 146.841 304.154 146.123C303.821 145.387 303.339 144.818 302.708 144.415C302.078 144.012 301.325 143.811 300.449 143.811H298.399V153.533H300.449C301.342 153.533 302.095 153.323 302.708 152.902C303.339 152.482 303.821 151.904 304.154 151.168C304.486 150.415 304.653 149.574 304.653 148.646Z" fill="black"/>
<path d="M329.111 139.344V158H323.988V150.695H317.734V158H312.61V139.344H317.734V146.228H323.988V139.344H329.111Z" fill="black"/>
<path d="M349.344 139.344V158H344.22V150.695H337.967V158H332.843V139.344H337.967V146.228H344.22V139.344H349.344Z" fill="black"/>
<rect x="85.1244" y="2" width="222.135" height="32.7176" fill="#AB47BC"/>
<path d="M56 84.9998V51.5292H65.1926V84.9998H56Z" fill="black"/>
<path d="M81.0974 68.5473V84.9998H71.9048V51.5292H79.0703L92.5057 68.5473V51.5292H101.698V84.9998H94.3914L81.0974 68.5473Z" fill="black"/>
<path d="M108.388 84.9998V51.5292H117.581V84.9998H108.388Z" fill="black"/>
<path d="M122.454 67.9816C122.454 65.9388 122.831 63.9432 123.586 61.9946C124.371 60.0147 125.503 58.2233 126.98 56.6205C128.457 55.0177 130.248 53.7448 132.354 52.802C134.491 51.8278 136.895 51.3406 139.567 51.3406C142.772 51.3406 145.569 52.0163 147.958 53.3677C150.346 54.6877 152.122 56.4476 153.285 58.6476L146.261 63.6446C145.852 62.5446 145.255 61.6961 144.469 61.099C143.715 60.5018 142.882 60.0933 141.971 59.8733C141.091 59.6218 140.227 59.4961 139.378 59.4961C138.058 59.4961 136.911 59.7633 135.937 60.2975C134.994 60.8004 134.208 61.4761 133.58 62.3246C132.983 63.1732 132.527 64.116 132.213 65.1531C131.93 66.1903 131.788 67.2274 131.788 68.2645C131.788 69.4273 131.961 70.543 132.307 71.6115C132.653 72.6801 133.155 73.6386 133.815 74.4872C134.475 75.3043 135.277 75.9486 136.22 76.42C137.194 76.8914 138.278 77.1271 139.472 77.1271C140.321 77.1271 141.185 77.0014 142.065 76.75C142.945 76.4671 143.747 76.0272 144.469 75.43C145.192 74.8329 145.742 74.0315 146.119 73.0258L153.615 77.5043C152.955 79.1385 151.855 80.537 150.315 81.6999C148.775 82.8627 147.031 83.7584 145.082 84.3869C143.134 84.9841 141.201 85.2826 139.284 85.2826C136.801 85.2826 134.523 84.7955 132.448 83.8212C130.406 82.8156 128.63 81.4956 127.121 79.8613C125.644 78.1957 124.497 76.3414 123.68 74.2986C122.863 72.2244 122.454 70.1187 122.454 67.9816Z" fill="black"/>
<path d="M157.83 84.9998V51.5292H167.022V84.9998H157.83Z" fill="black"/>
<path d="M181.466 51.5292H191.743L202.397 84.9998H193.063L191.036 78.4471H182.126L180.146 84.9998H170.765L181.466 51.5292ZM189.574 72.3187L186.604 60.5332L183.493 72.3187H189.574Z" fill="black"/>
<path d="M229.105 59.5433H219.488V84.9998H210.296V59.5433H200.632V51.5292H229.105V59.5433Z" fill="black"/>
<path d="M233.396 84.9998V51.5292H242.589V84.9998H233.396Z" fill="black"/>
<path d="M255.76 51.5292L262.312 74.3929L268.771 51.5292H278.435L266.885 84.9998H257.74L246.048 51.5292H255.76Z" fill="black"/>
<path d="M286.932 51.5292H297.209L307.863 84.9998H298.529L296.502 78.4471H287.592L285.612 84.9998H276.231L286.932 51.5292ZM295.041 72.3187L292.071 60.5332L288.96 72.3187H295.041Z" fill="black"/>
<path d="M331.49 62.4661C331.49 62.4661 331.223 62.3089 330.688 61.9946C330.154 61.6804 329.447 61.3347 328.567 60.9575C327.687 60.549 326.728 60.1875 325.691 59.8733C324.654 59.559 323.633 59.4018 322.627 59.4018C321.841 59.4018 321.197 59.5276 320.694 59.779C320.191 60.0304 319.94 60.4547 319.94 61.0518C319.94 61.6175 320.191 62.0732 320.694 62.4189C321.197 62.7646 321.904 63.0789 322.816 63.3618C323.759 63.6446 324.874 63.9903 326.163 64.3989C328.237 65.0274 330.028 65.7503 331.537 66.5674C333.045 67.3845 334.208 68.4373 335.025 69.7259C335.843 70.983 336.251 72.6644 336.251 74.77C336.251 76.7814 335.89 78.4785 335.167 79.8613C334.444 81.2127 333.47 82.297 332.244 83.1141C331.018 83.9312 329.651 84.5284 328.143 84.9055C326.634 85.2512 325.094 85.4241 323.523 85.4241C321.92 85.4241 320.239 85.2669 318.479 84.9526C316.75 84.6069 315.069 84.1512 313.435 83.5855C311.8 82.9884 310.307 82.297 308.956 81.5113L312.916 73.4501C312.916 73.4501 313.23 73.6386 313.859 74.0158C314.487 74.3929 315.32 74.8172 316.357 75.2886C317.394 75.76 318.542 76.1843 319.799 76.5614C321.087 76.9386 322.376 77.1271 323.664 77.1271C324.67 77.1271 325.361 77.0014 325.738 76.75C326.147 76.4671 326.351 76.1057 326.351 75.6657C326.351 75.0057 326.006 74.5029 325.314 74.1572C324.623 73.7801 323.711 73.4344 322.58 73.1201C321.48 72.7744 320.254 72.3815 318.903 71.9415C316.954 71.2816 315.352 70.543 314.094 69.7259C312.837 68.8773 311.91 67.8874 311.313 66.756C310.716 65.5931 310.417 64.1946 310.417 62.5603C310.417 60.0775 310.999 58.0033 312.162 56.3376C313.325 54.672 314.849 53.4149 316.734 52.5663C318.652 51.6863 320.71 51.2463 322.91 51.2463C324.544 51.2463 326.116 51.4506 327.624 51.8592C329.164 52.2363 330.594 52.7077 331.914 53.2734C333.265 53.8391 334.444 54.3734 335.45 54.8762L331.49 62.4661Z" fill="black"/>
<path d="M103.642 15.4858C103.642 15.4858 103.516 15.4119 103.265 15.2641C103.013 15.1164 102.681 14.9538 102.267 14.7765C101.853 14.5844 101.403 14.4144 100.915 14.2666C100.427 14.1189 99.9471 14.045 99.4743 14.045C99.1048 14.045 98.8019 14.1041 98.5654 14.2223C98.329 14.3405 98.2108 14.54 98.2108 14.8208C98.2108 15.0868 98.329 15.3011 98.5654 15.4636C98.8019 15.6262 99.1344 15.774 99.5629 15.907C100.006 16.0399 100.531 16.2025 101.137 16.3946C102.112 16.6902 102.954 17.03 103.664 17.4143C104.373 17.7985 104.92 18.2935 105.304 18.8994C105.688 19.4905 105.88 20.2811 105.88 21.2712C105.88 22.217 105.71 23.015 105.37 23.6652C105.031 24.3006 104.573 24.8104 103.996 25.1946C103.42 25.5789 102.777 25.8596 102.068 26.037C101.358 26.1995 100.634 26.2808 99.8954 26.2808C99.1418 26.2808 98.3512 26.2069 97.5236 26.0591C96.7109 25.8966 95.9203 25.6823 95.1518 25.4163C94.3834 25.1355 93.6815 24.8104 93.046 24.441L94.908 20.6505C94.908 20.6505 95.0558 20.7392 95.3513 20.9165C95.6469 21.0939 96.0385 21.2934 96.5261 21.515C97.0138 21.7367 97.5532 21.9362 98.1443 22.1135C98.7502 22.2909 99.356 22.3795 99.9619 22.3795C100.435 22.3795 100.76 22.3204 100.937 22.2022C101.129 22.0692 101.225 21.8992 101.225 21.6924C101.225 21.382 101.063 21.1456 100.738 20.983C100.413 20.8057 99.9841 20.6432 99.4521 20.4954C98.9349 20.3328 98.3586 20.1481 97.7231 19.9412C96.8069 19.6309 96.0533 19.2836 95.4622 18.8994C94.871 18.5004 94.4351 18.0349 94.1543 17.5029C93.8736 16.9562 93.7332 16.2986 93.7332 15.5301C93.7332 14.3627 94.0066 13.3874 94.5533 12.6042C95.1001 11.821 95.8168 11.2299 96.7035 10.8309C97.6049 10.4171 98.5728 10.2102 99.6073 10.2102C100.376 10.2102 101.115 10.3063 101.824 10.4984C102.548 10.6757 103.22 10.8974 103.841 11.1634C104.476 11.4294 105.031 11.6806 105.503 11.917L103.642 15.4858Z" fill="white"/>
<path d="M115.106 26.2143C113.85 26.2143 112.771 26.0074 111.869 25.5936C110.968 25.1799 110.229 24.6109 109.653 23.8868C109.091 23.1627 108.677 22.3352 108.411 21.4042C108.145 20.4584 108.012 19.4683 108.012 18.4339V10.3432H112.335V18.4339C112.335 18.9511 112.387 19.4462 112.49 19.9191C112.593 20.3919 112.756 20.8131 112.978 21.1825C113.199 21.552 113.48 21.8475 113.82 22.0692C114.175 22.2761 114.603 22.3795 115.106 22.3795C115.623 22.3795 116.059 22.2761 116.413 22.0692C116.768 21.8475 117.049 21.552 117.256 21.1825C117.477 20.7983 117.64 20.3698 117.743 19.8969C117.847 19.424 117.899 18.9363 117.899 18.4339V10.3432H122.221V18.4339C122.221 19.5275 122.073 20.5471 121.778 21.4929C121.497 22.4386 121.068 23.2662 120.492 23.9755C119.916 24.6848 119.177 25.239 118.275 25.638C117.389 26.0222 116.332 26.2143 115.106 26.2143Z" fill="white"/>
<path d="M137.054 26.0813V17.7911L134.416 23.6208H132.111L129.473 17.7911V26.0813H125.151V10.3432H129.872L133.264 17.7468L136.677 10.3432H141.376V26.0813H137.054Z" fill="white"/>
<path d="M148.149 10.3432H152.981L157.99 26.0813H153.601L152.648 23.0002H148.459L147.528 26.0813H143.117L148.149 10.3432ZM151.961 20.1186L150.565 14.577L149.102 20.1186H151.961Z" fill="white"/>
<path d="M176.123 14.1115H171.601V26.0813H167.278V14.1115H162.734V10.3432H176.123V14.1115Z" fill="white"/>
<path d="M185.012 26.2143C183.756 26.2143 182.677 26.0074 181.776 25.5936C180.874 25.1799 180.135 24.6109 179.559 23.8868C178.997 23.1627 178.584 22.3352 178.318 21.4042C178.052 20.4584 177.919 19.4683 177.919 18.4339V10.3432H182.241V18.4339C182.241 18.9511 182.293 19.4462 182.396 19.9191C182.5 20.3919 182.662 20.8131 182.884 21.1825C183.106 21.552 183.386 21.8475 183.726 22.0692C184.081 22.2761 184.509 22.3795 185.012 22.3795C185.529 22.3795 185.965 22.2761 186.32 22.0692C186.674 21.8475 186.955 21.552 187.162 21.1825C187.384 20.7983 187.546 20.3698 187.65 19.8969C187.753 19.424 187.805 18.9363 187.805 18.4339V10.3432H192.127V18.4339C192.127 19.5275 191.979 20.5471 191.684 21.4929C191.403 22.4386 190.975 23.2662 190.398 23.9755C189.822 24.6848 189.083 25.239 188.182 25.638C187.295 26.0222 186.238 26.2143 185.012 26.2143Z" fill="white"/>
<path d="M203.443 10.3432H208.275L213.285 26.0813H208.896L207.943 23.0002H203.753L202.823 26.0813H198.411L203.443 10.3432ZM207.256 20.1186L205.859 14.577L204.396 20.1186H207.256Z" fill="white"/>
<path d="M215.036 26.0813V10.3432H221.819C222.587 10.3432 223.297 10.4984 223.947 10.8087C224.597 11.119 225.159 11.5402 225.631 12.0722C226.104 12.5894 226.466 13.1731 226.718 13.8233C226.984 14.4735 227.117 15.1311 227.117 15.7961C227.117 16.7271 226.895 17.6064 226.452 18.4339C226.023 19.2615 225.417 19.9412 224.634 20.4732C223.866 20.9904 222.964 21.249 221.93 21.249H219.358V26.0813H215.036ZM219.358 17.4808H221.642C221.819 17.4808 221.989 17.429 222.151 17.3256C222.314 17.2222 222.447 17.0448 222.55 16.7936C222.669 16.5424 222.728 16.2099 222.728 15.7961C222.728 15.3528 222.661 15.0129 222.528 14.7765C222.41 14.5253 222.255 14.3553 222.063 14.2666C221.885 14.1632 221.708 14.1115 221.531 14.1115H219.358V17.4808Z" fill="white"/>
<path d="M236.383 26.2143C235.186 26.2143 234.1 25.9926 233.125 25.5493C232.149 25.0912 231.307 24.4853 230.598 23.7317C229.903 22.9632 229.364 22.1061 228.98 21.1604C228.61 20.1998 228.425 19.2097 228.425 18.1901C228.425 17.1409 228.625 16.1434 229.024 15.1976C229.423 14.2519 229.977 13.4095 230.686 12.6707C231.411 11.917 232.26 11.3259 233.236 10.8974C234.226 10.4688 235.304 10.2545 236.472 10.2545C237.669 10.2545 238.755 10.4836 239.73 10.9417C240.706 11.385 241.541 11.9909 242.235 12.7593C242.93 13.5278 243.462 14.3923 243.831 15.3528C244.215 16.2986 244.407 17.2739 244.407 18.2787C244.407 19.3132 244.208 20.3033 243.809 21.249C243.425 22.1948 242.871 23.0445 242.146 23.7982C241.437 24.537 240.595 25.1281 239.619 25.5715C238.644 26 237.565 26.2143 236.383 26.2143ZM232.814 18.2344C232.814 18.7664 232.888 19.2836 233.036 19.7861C233.184 20.2737 233.406 20.717 233.701 21.116C233.997 21.5003 234.366 21.8106 234.809 22.047C235.267 22.2687 235.807 22.3795 236.428 22.3795C237.048 22.3795 237.588 22.2613 238.046 22.0249C238.504 21.7884 238.873 21.4707 239.154 21.0717C239.45 20.6579 239.664 20.2072 239.797 19.7196C239.945 19.2171 240.018 18.7073 240.018 18.1901C240.018 17.6581 239.945 17.1483 239.797 16.6606C239.649 16.1729 239.427 15.737 239.132 15.3528C238.836 14.9538 238.459 14.6435 238.001 14.4218C237.543 14.2001 237.011 14.0893 236.405 14.0893C235.785 14.0893 235.245 14.2075 234.787 14.444C234.344 14.6804 233.974 14.9981 233.679 15.3971C233.383 15.7813 233.162 16.2247 233.014 16.7271C232.881 17.2148 232.814 17.7172 232.814 18.2344Z" fill="white"/>
<path d="M248.857 10.3432L251.672 16.7714L254.554 10.3432H259.253L253.823 20.8722V26.0813H249.522V20.8279L244.18 10.3432H248.857Z" fill="white"/>
<path d="M266.948 26.2143C265.751 26.2143 264.664 25.9926 263.689 25.5493C262.714 25.0912 261.872 24.4853 261.162 23.7317C260.468 22.9632 259.928 22.1061 259.544 21.1604C259.175 20.1998 258.99 19.2097 258.99 18.1901C258.99 17.1409 259.189 16.1434 259.588 15.1976C259.987 14.2519 260.542 13.4095 261.251 12.6707C261.975 11.917 262.825 11.3259 263.8 10.8974C264.79 10.4688 265.869 10.2545 267.036 10.2545C268.233 10.2545 269.319 10.4836 270.295 10.9417C271.27 11.385 272.105 11.9909 272.8 12.7593C273.494 13.5278 274.026 14.3923 274.395 15.3528C274.78 16.2986 274.972 17.2739 274.972 18.2787C274.972 19.3132 274.772 20.3033 274.373 21.249C273.989 22.1948 273.435 23.0445 272.711 23.7982C272.002 24.537 271.159 25.1281 270.184 25.5715C269.209 26 268.13 26.2143 266.948 26.2143ZM263.379 18.2344C263.379 18.7664 263.453 19.2836 263.6 19.7861C263.748 20.2737 263.97 20.717 264.265 21.116C264.561 21.5003 264.93 21.8106 265.374 22.047C265.832 22.2687 266.371 22.3795 266.992 22.3795C267.613 22.3795 268.152 22.2613 268.61 22.0249C269.068 21.7884 269.438 21.4707 269.718 21.0717C270.014 20.6579 270.228 20.2072 270.361 19.7196C270.509 19.2171 270.583 18.7073 270.583 18.1901C270.583 17.6581 270.509 17.1483 270.361 16.6606C270.213 16.1729 269.992 15.737 269.696 15.3528C269.401 14.9538 269.024 14.6435 268.566 14.4218C268.108 14.2001 267.576 14.0893 266.97 14.0893C266.349 14.0893 265.81 14.2075 265.352 14.444C264.908 14.6804 264.539 14.9981 264.243 15.3971C263.948 15.7813 263.726 16.2247 263.578 16.7271C263.445 17.2148 263.379 17.7172 263.379 18.2344Z" fill="white"/>
<path d="M285.633 10.3432H290.466L295.475 26.0813H291.086L290.133 23.0002H285.944L285.013 26.0813H280.602L285.633 10.3432ZM289.446 20.1186L288.05 14.577L286.587 20.1186H289.446Z" fill="white"/>
<path d="M350.973 17.8177C348.252 27.9758 330.795 32.1109 330.054 32.2765C329.859 32.3215 329.655 32.3178 329.46 32.2658C329.266 32.2137 329.087 32.1148 328.94 31.978C328.382 31.4643 315.331 19.1548 318.053 8.99672C318.695 6.61206 320.269 4.58262 322.429 3.35361C324.589 2.12461 327.159 1.79642 329.576 2.44104C332.611 3.25422 334.922 5.25484 335.995 7.87684C338.235 6.14245 341.238 5.5658 344.272 6.37898C346.687 7.02898 348.749 8.59835 350.006 10.7428C351.262 12.8872 351.61 15.4316 350.973 17.8177Z" fill="#AB47BC"/>
<path d="M373.973 110.818C371.252 120.976 353.795 125.111 353.054 125.277C352.859 125.322 352.655 125.318 352.46 125.266C352.266 125.214 352.087 125.115 351.94 124.978C351.382 124.465 338.331 112.155 341.053 101.997C341.695 99.6126 343.269 97.5831 345.429 96.3541C347.589 95.1251 350.159 94.7969 352.576 95.4415C355.611 96.2547 357.922 98.2553 358.995 100.877C361.235 99.1429 364.238 98.5663 367.272 99.3795C369.687 100.029 371.749 101.599 373.006 103.743C374.262 105.888 374.61 108.432 373.973 110.818Z" fill="#AB47BC"/>
<path d="M371.073 48.0311C369.61 54.004 359.457 56.6418 359.026 56.7479C358.912 56.7767 358.793 56.7772 358.679 56.7492C358.564 56.7212 358.459 56.6656 358.371 56.5875C358.038 56.2943 350.253 49.2627 351.716 43.2898C352.061 41.8876 352.956 40.6813 354.203 39.9356C355.45 39.1898 356.949 38.9655 358.37 39.3118C360.154 39.7489 361.531 40.8893 362.191 42.4086C363.479 41.3664 365.227 40.9914 367.011 41.4285C368.431 41.778 369.657 42.6694 370.418 43.9072C371.18 45.1451 371.415 46.6281 371.073 48.0311Z" fill="#4656B3"/>
<path d="M387.073 78.0316C385.61 84.0045 375.457 86.6423 375.026 86.7484C374.912 86.7772 374.793 86.7777 374.679 86.7497C374.564 86.7217 374.459 86.6661 374.371 86.588C374.038 86.2948 366.253 79.2632 367.716 73.2903C368.061 71.8881 368.956 70.6818 370.203 69.936C371.45 69.1903 372.949 68.966 374.37 69.3123C376.154 69.7494 377.531 70.8898 378.191 72.4091C379.479 71.3669 381.227 70.9919 383.011 71.429C384.431 71.7785 385.657 72.6699 386.418 73.9077C387.18 75.1455 387.415 76.6286 387.073 78.0316Z" fill="#4656B3"/>
<path d="M36.765 19.1756C39.3887 28.9673 56.2158 32.9533 56.9297 33.1128C57.1182 33.1563 57.315 33.1527 57.5024 33.1025C57.6898 33.0523 57.862 32.957 58.0035 32.8251C58.542 32.33 71.1217 20.4645 68.498 10.6727C67.8793 8.37406 66.3624 6.41781 64.2801 5.23313C62.1979 4.04845 59.7203 3.7321 57.3909 4.35347C54.4655 5.13733 52.2371 7.06578 51.2031 9.59321C49.0439 7.92138 46.1498 7.36553 43.2244 8.14939C40.8964 8.77594 38.9089 10.2887 37.698 12.3558C36.487 14.4229 36.1515 16.8755 36.765 19.1756Z" fill="#AB47BC"/>
<path d="M14.5944 108.822C17.2181 118.614 34.0453 122.6 34.7591 122.759C34.9477 122.802 35.1444 122.799 35.3318 122.749C35.5192 122.699 35.6914 122.603 35.833 122.471C36.3714 121.976 48.9512 110.111 46.3275 100.319C45.7088 98.0203 44.1919 96.064 42.1096 94.8794C40.0273 93.6947 37.5498 93.3783 35.2204 93.9997C32.295 94.7836 30.0665 96.712 29.0326 99.2395C26.8734 97.5676 23.9792 97.0118 21.0538 97.7956C18.7259 98.4222 16.7384 99.9349 15.5274 102.002C14.3165 104.069 13.9809 106.522 14.5944 108.822Z" fill="#AB47BC"/>
<path d="M17.3904 48.2994C18.8006 54.0569 28.5877 56.5996 29.003 56.7019C29.1126 56.7296 29.2277 56.73 29.3379 56.7031C29.4481 56.6761 29.55 56.6225 29.6344 56.5472C29.9554 56.2646 37.4595 49.4866 36.0492 43.7291C35.7165 42.3775 34.8544 41.2147 33.6521 40.4959C32.4497 39.777 31.0053 39.5608 29.6357 39.8946C27.9155 40.316 26.5884 41.4152 25.952 42.8797C24.7109 41.8751 23.0259 41.5136 21.3058 41.9349C19.9369 42.2718 18.7559 43.1311 18.0219 44.3243C17.2879 45.5175 17.0608 46.947 17.3904 48.2994Z" fill="#4656B3"/>
<path d="M1.9674 77.2176C3.37764 82.9751 13.1647 85.5178 13.58 85.6201C13.6897 85.6478 13.8047 85.6483 13.9149 85.6213C14.0251 85.5943 14.127 85.5407 14.2114 85.4654C14.5324 85.1828 22.0365 78.4048 20.6263 72.6474C20.2936 71.2957 19.4315 70.1329 18.2291 69.4141C17.0267 68.6952 15.5823 68.479 14.2127 68.8128C12.4926 69.2342 11.1654 70.3334 10.5291 71.798C9.28789 70.7933 7.60295 70.4318 5.88284 70.8532C4.51397 71.1901 3.33297 72.0494 2.59894 73.2425C1.86491 74.4357 1.63778 75.8653 1.9674 77.2176Z" fill="#4656B3"/>
</svg>
