<svg width="654" height="66" viewBox="0 0 654 66" fill="none" xmlns="http://www.w3.org/2000/svg">
<path d="M0.602783 65.2317V46.5755H8.64335C9.55427 46.5755 10.3951 46.7594 11.1659 47.1273C11.9367 47.4952 12.6023 47.9944 13.1629 48.6251C13.7235 49.2382 14.1526 49.9301 14.4504 50.7009C14.7657 51.4717 14.9234 52.2512 14.9234 53.0395C14.9234 54.1431 14.6606 55.1854 14.1351 56.1664C13.6271 57.1474 12.9089 57.9532 11.9805 58.5838C11.0695 59.1969 10.001 59.5035 8.77473 59.5035H5.72668V65.2317H0.602783ZM5.72668 55.0365H8.43314C8.64335 55.0365 8.8448 54.9752 9.0375 54.8526C9.23019 54.7299 9.38785 54.5197 9.51047 54.2219C9.65061 53.9241 9.72068 53.53 9.72068 53.0395C9.72068 52.514 9.64185 52.1111 9.4842 51.8308C9.34406 51.533 9.16012 51.3315 8.93239 51.2264C8.72218 51.1038 8.51197 51.0425 8.30176 51.0425H5.72668V55.0365Z" fill="black"/>
<path d="M25.9082 65.3894C24.4892 65.3894 23.2017 65.1266 22.0455 64.6011C20.8894 64.0581 19.8909 63.3398 19.05 62.4464C18.2267 61.5355 17.5873 60.5195 17.1319 59.3984C16.6939 58.2597 16.4749 57.0861 16.4749 55.8773C16.4749 54.6336 16.7114 53.4512 17.1844 52.33C17.6574 51.2089 18.3143 50.2104 19.1551 49.3345C20.0135 48.4411 21.0208 47.7404 22.1769 47.2324C23.3506 46.7244 24.6294 46.4704 26.0133 46.4704C27.4322 46.4704 28.7197 46.7419 29.8759 47.285C31.0321 47.8105 32.0218 48.5287 32.8451 49.4396C33.6684 50.3505 34.2991 51.3753 34.737 52.514C35.1925 53.6351 35.4202 54.7912 35.4202 55.9824C35.4202 57.2087 35.1837 58.3824 34.7107 59.5035C34.2553 60.6246 33.5984 61.6319 32.74 62.5253C31.8992 63.4011 30.9007 64.1018 29.7445 64.6274C28.5883 65.1354 27.3096 65.3894 25.9082 65.3894ZM21.6777 55.9299C21.6777 56.5605 21.7653 57.1736 21.9404 57.7692C22.1156 58.3473 22.3784 58.8728 22.7287 59.3458C23.0791 59.8013 23.517 60.1691 24.0425 60.4494C24.5856 60.7122 25.225 60.8436 25.9607 60.8436C26.6965 60.8436 27.3358 60.7034 27.8789 60.4232C28.4219 60.1429 28.8599 59.7662 29.1927 59.2933C29.5431 58.8028 29.7971 58.2685 29.9547 57.6904C30.1299 57.0948 30.2175 56.4905 30.2175 55.8773C30.2175 55.2467 30.1299 54.6424 29.9547 54.0643C29.7795 53.4862 29.5168 52.9694 29.1664 52.514C28.8161 52.041 28.3694 51.6731 27.8263 51.4104C27.2833 51.1476 26.6527 51.0162 25.9344 51.0162C25.1987 51.0162 24.5593 51.1564 24.0163 51.4366C23.4907 51.7169 23.0528 52.0935 22.7024 52.5665C22.3521 53.022 22.0893 53.5475 21.9142 54.1431C21.7565 54.7212 21.6777 55.3168 21.6777 55.9299Z" fill="black"/>
<path d="M38.1174 65.2317V46.5755H46.6835C47.5944 46.5755 48.4353 46.7594 49.2061 47.1273C49.9768 47.4952 50.6425 47.9944 51.2031 48.6251C51.7636 49.2382 52.1928 49.9301 52.4906 50.7009C52.8059 51.4717 52.9636 52.2512 52.9636 53.0395C52.9636 53.7577 52.8585 54.4497 52.6483 55.1153C52.4381 55.781 52.1315 56.3941 51.7286 56.9547C51.3257 57.4977 50.844 57.9707 50.2834 58.3736L54.2248 65.2317H48.6017L45.3172 59.5035H43.2413V65.2317H38.1174ZM43.2413 55.0365H46.4733C46.6835 55.0365 46.885 54.9577 47.0777 54.8C47.2704 54.6424 47.428 54.4146 47.5506 54.1168C47.6908 53.819 47.7609 53.4599 47.7609 53.0395C47.7609 52.6016 47.682 52.2424 47.5244 51.9622C47.3842 51.6644 47.2003 51.4366 46.9726 51.279C46.7624 51.1213 46.5521 51.0425 46.3419 51.0425H43.2413V55.0365Z" fill="black"/>
<path d="M62.8018 65.2317V46.5755H67.9257V60.7647H76.3867V65.2317H62.8018Z" fill="black"/>
<path d="M83.0073 46.5755H88.7356L94.674 65.2317H89.4713L88.3414 61.5793H83.3752L82.2716 65.2317H77.0426L83.0073 46.5755ZM87.5269 58.1634L85.8714 51.5943L84.1372 58.1634H87.5269Z" fill="black"/>
<path d="M102.382 65.2317V46.5755H109.555C111.622 46.5755 113.348 46.9959 114.732 47.8368C116.133 48.6601 117.184 49.7812 117.885 51.2001C118.603 52.6016 118.962 54.1606 118.962 55.8773C118.962 57.7692 118.568 59.4159 117.78 60.8173C117.009 62.2187 115.914 63.3048 114.495 64.0756C113.094 64.8463 111.447 65.2317 109.555 65.2317H102.382ZM113.759 55.8773C113.759 54.9139 113.593 54.073 113.26 53.3548C112.927 52.6191 112.445 52.0497 111.815 51.6468C111.184 51.2439 110.431 51.0425 109.555 51.0425H107.506V60.7647H109.555C110.448 60.7647 111.202 60.5545 111.815 60.1341C112.445 59.7137 112.927 59.1356 113.26 58.3999C113.593 57.6466 113.759 56.8058 113.759 55.8773Z" fill="black"/>
<path d="M135.012 60.7647V65.2317H121.716V46.5755H134.776V51.0425H126.84V53.6701H133.62V57.8218H126.84V60.7647H135.012Z" fill="black"/>
<path d="M137.92 65.2317V46.5755H150.717V51.0425H143.044V54.1431H149.298V58.2948H143.044V65.2317H137.92Z" fill="black"/>
<path d="M166.548 60.7647V65.2317H153.252V46.5755H166.311V51.0425H158.376V53.6701H165.155V57.8218H158.376V60.7647H166.548Z" fill="black"/>
<path d="M174.58 56.0613V65.2317H169.456V46.5755H173.45L180.939 56.0613V46.5755H186.063V65.2317H181.99L174.58 56.0613Z" fill="black"/>
<path d="M201.09 52.6716C201.09 52.6716 200.942 52.584 200.644 52.4089C200.346 52.2337 199.952 52.041 199.461 51.8308C198.971 51.6031 198.437 51.4016 197.858 51.2264C197.28 51.0512 196.711 50.9637 196.15 50.9637C195.713 50.9637 195.353 51.0337 195.073 51.1739C194.793 51.314 194.653 51.5505 194.653 51.8833C194.653 52.1986 194.793 52.4527 195.073 52.6453C195.353 52.838 195.748 53.0132 196.256 53.1709C196.781 53.3285 197.403 53.5212 198.121 53.749C199.277 54.0993 200.276 54.5022 201.117 54.9577C201.958 55.4131 202.606 56 203.061 56.7182C203.517 57.4189 203.744 58.3561 203.744 59.5298C203.744 60.6509 203.543 61.5968 203.14 62.3676C202.737 63.1209 202.194 63.7252 201.511 64.1807C200.828 64.6361 200.066 64.969 199.225 65.1792C198.384 65.3719 197.526 65.4682 196.65 65.4682C195.756 65.4682 194.819 65.3806 193.838 65.2055C192.875 65.0128 191.938 64.7588 191.027 64.4434C190.116 64.1106 189.284 63.7252 188.53 63.2873L190.738 58.794C190.738 58.794 190.913 58.8991 191.263 59.1093C191.613 59.3195 192.078 59.556 192.656 59.8188C193.234 60.0816 193.873 60.318 194.574 60.5283C195.292 60.7385 196.01 60.8436 196.729 60.8436C197.289 60.8436 197.675 60.7735 197.885 60.6334C198.112 60.4757 198.226 60.2743 198.226 60.029C198.226 59.6611 198.034 59.3809 197.648 59.1882C197.263 58.978 196.755 58.7853 196.124 58.6101C195.511 58.4174 194.828 58.1984 194.075 57.9532C192.989 57.5853 192.095 57.1736 191.394 56.7182C190.694 56.2452 190.177 55.6934 189.844 55.0628C189.511 54.4146 189.345 53.6351 189.345 52.7242C189.345 51.3403 189.669 50.1841 190.317 49.2557C190.965 48.3273 191.815 47.6266 192.866 47.1536C193.935 46.6631 195.082 46.4178 196.308 46.4178C197.219 46.4178 198.095 46.5317 198.936 46.7594C199.794 46.9697 200.591 47.2324 201.327 47.5477C202.08 47.863 202.737 48.1608 203.298 48.4411L201.09 52.6716Z" fill="black"/>
<path d="M210.382 46.5755H216.11L222.049 65.2317H216.846L215.716 61.5793H210.75L209.646 65.2317H204.417L210.382 46.5755ZM214.902 58.1634L213.246 51.5943L211.512 58.1634H214.902Z" fill="black"/>
<path d="M229.756 65.2317V46.5755H236.93C238.997 46.5755 240.722 46.9959 242.106 47.8368C243.508 48.6601 244.559 49.7812 245.259 51.2001C245.978 52.6016 246.337 54.1606 246.337 55.8773C246.337 57.7692 245.943 59.4159 245.154 60.8173C244.384 62.2187 243.289 63.3048 241.87 64.0756C240.468 64.8463 238.822 65.2317 236.93 65.2317H229.756ZM241.134 55.8773C241.134 54.9139 240.968 54.073 240.635 53.3548C240.302 52.6191 239.82 52.0497 239.19 51.6468C238.559 51.2439 237.806 51.0425 236.93 51.0425H234.88V60.7647H236.93C237.823 60.7647 238.576 60.5545 239.19 60.1341C239.82 59.7137 240.302 59.1356 240.635 58.3999C240.968 57.6466 241.134 56.8058 241.134 55.8773Z" fill="black"/>
<path d="M262.387 60.7647V65.2317H249.091V46.5755H262.15V51.0425H254.215V53.6701H260.994V57.8218H254.215V60.7647H262.387Z" fill="black"/>
<path d="M271.723 65.2317V46.5755H276.846V60.7647H285.307V65.2317H271.723Z" fill="black"/>
<path d="M291.928 46.5755H297.656L303.595 65.2317H298.392L297.262 61.5793H292.296L291.192 65.2317H285.963L291.928 46.5755ZM296.448 58.1634L294.792 51.5943L293.058 58.1634H296.448Z" fill="black"/>
<path d="M311.302 65.2317V46.5755H318.476C320.543 46.5755 322.268 46.9959 323.652 47.8368C325.054 48.6601 326.105 49.7812 326.805 51.2001C327.524 52.6016 327.883 54.1606 327.883 55.8773C327.883 57.7692 327.489 59.4159 326.7 60.8173C325.93 62.2187 324.835 63.3048 323.416 64.0756C322.014 64.8463 320.368 65.2317 318.476 65.2317H311.302ZM322.68 55.8773C322.68 54.9139 322.514 54.073 322.181 53.3548C321.848 52.6191 321.366 52.0497 320.736 51.6468C320.105 51.2439 319.352 51.0425 318.476 51.0425H316.426V60.7647H318.476C319.369 60.7647 320.122 60.5545 320.736 60.1341C321.366 59.7137 321.848 59.1356 322.181 58.3999C322.514 57.6466 322.68 56.8058 322.68 55.8773Z" fill="black"/>
<path d="M343.933 60.7647V65.2317H330.637V46.5755H343.696V51.0425H335.761V53.6701H342.54V57.8218H335.761V60.7647H343.933Z" fill="black"/>
<path d="M360.952 65.2317V55.4044L357.825 62.3151H355.092L351.965 55.4044V65.2317H346.841V46.5755H352.438L356.458 55.3518L360.505 46.5755H366.075V65.2317H360.952Z" fill="black"/>
<path d="M378.202 65.3894C376.783 65.3894 375.496 65.1266 374.34 64.6011C373.184 64.0581 372.185 63.3398 371.344 62.4464C370.521 61.5355 369.882 60.5195 369.426 59.3984C368.988 58.2597 368.769 57.0861 368.769 55.8773C368.769 54.6336 369.006 53.4512 369.479 52.33C369.952 51.2089 370.609 50.2104 371.449 49.3345C372.308 48.4411 373.315 47.7404 374.471 47.2324C375.645 46.7244 376.924 46.4704 378.308 46.4704C379.726 46.4704 381.014 46.7419 382.17 47.285C383.326 47.8105 384.316 48.5287 385.139 49.4396C385.963 50.3505 386.593 51.3753 387.031 52.514C387.487 53.6351 387.714 54.7912 387.714 55.9824C387.714 57.2087 387.478 58.3824 387.005 59.5035C386.55 60.6246 385.893 61.6319 385.034 62.5253C384.193 63.4011 383.195 64.1018 382.039 64.6274C380.883 65.1354 379.604 65.3894 378.202 65.3894ZM373.972 55.9299C373.972 56.5605 374.06 57.1736 374.235 57.7692C374.41 58.3473 374.673 58.8728 375.023 59.3458C375.373 59.8013 375.811 60.1691 376.337 60.4494C376.88 60.7122 377.519 60.8436 378.255 60.8436C378.991 60.8436 379.63 60.7034 380.173 60.4232C380.716 60.1429 381.154 59.7662 381.487 59.2933C381.837 58.8028 382.091 58.2685 382.249 57.6904C382.424 57.0948 382.512 56.4905 382.512 55.8773C382.512 55.2467 382.424 54.6424 382.249 54.0643C382.074 53.4862 381.811 52.9694 381.461 52.514C381.11 52.041 380.664 51.6731 380.121 51.4104C379.578 51.1476 378.947 51.0162 378.229 51.0162C377.493 51.0162 376.854 51.1564 376.311 51.4366C375.785 51.7169 375.347 52.0935 374.997 52.5665C374.646 53.022 374.384 53.5475 374.208 54.1431C374.051 54.7212 373.972 55.3168 373.972 55.9299Z" fill="black"/>
<path d="M389.387 55.746C389.387 54.6073 389.597 53.4949 390.018 52.4089C390.455 51.3053 391.086 50.3067 391.909 49.4134C392.733 48.52 393.731 47.8105 394.905 47.285C396.096 46.7419 397.436 46.4704 398.925 46.4704C400.712 46.4704 402.271 46.847 403.602 47.6003C404.934 48.336 405.924 49.317 406.572 50.5432L402.656 53.3285C402.429 52.7154 402.096 52.2424 401.658 51.9096C401.238 51.5768 400.773 51.349 400.265 51.2264C399.775 51.0863 399.293 51.0162 398.82 51.0162C398.084 51.0162 397.445 51.1651 396.902 51.4629C396.376 51.7432 395.938 52.1198 395.588 52.5928C395.255 53.0658 395.001 53.5913 394.826 54.1694C394.668 54.7475 394.59 55.3255 394.59 55.9036C394.59 56.5518 394.686 57.1736 394.879 57.7692C395.071 58.3648 395.352 58.8991 395.72 59.3721C396.087 59.8276 396.534 60.1867 397.06 60.4494C397.603 60.7122 398.207 60.8436 398.873 60.8436C399.346 60.8436 399.827 60.7735 400.318 60.6334C400.808 60.4757 401.255 60.2305 401.658 59.8976C402.061 59.5648 402.367 59.1181 402.578 58.5575L406.756 61.0538C406.388 61.9647 405.775 62.7442 404.916 63.3924C404.058 64.0405 403.086 64.5398 402 64.8901C400.913 65.223 399.836 65.3894 398.768 65.3894C397.384 65.3894 396.114 65.1179 394.958 64.5748C393.819 64.0143 392.829 63.2785 391.988 62.3676C391.165 61.4392 390.526 60.4056 390.07 59.267C389.615 58.1108 389.387 56.9372 389.387 55.746Z" fill="black"/>
<path d="M409.105 65.2317V46.5755H417.671C418.582 46.5755 419.423 46.7594 420.194 47.1273C420.964 47.4952 421.63 47.9944 422.19 48.6251C422.751 49.2382 423.18 49.9301 423.478 50.7009C423.793 51.4717 423.951 52.2512 423.951 53.0395C423.951 53.7577 423.846 54.4497 423.636 55.1153C423.426 55.781 423.119 56.3941 422.716 56.9547C422.313 57.4977 421.831 57.9707 421.271 58.3736L425.212 65.2317H419.589L416.305 59.5035H414.229V65.2317H409.105ZM414.229 55.0365H417.461C417.671 55.0365 417.872 54.9577 418.065 54.8C418.258 54.6424 418.415 54.4146 418.538 54.1168C418.678 53.819 418.748 53.4599 418.748 53.0395C418.748 52.6016 418.669 52.2424 418.512 51.9622C418.372 51.6644 418.188 51.4366 417.96 51.279C417.75 51.1213 417.54 51.0425 417.329 51.0425H414.229V55.0365Z" fill="black"/>
<path d="M431.671 46.5755H437.399L443.338 65.2317H438.135L437.005 61.5793H432.039L430.935 65.2317H425.706L431.671 46.5755ZM436.191 58.1634L434.535 51.5943L432.801 58.1634H436.191Z" fill="black"/>
<path d="M443.619 55.746C443.619 54.6073 443.829 53.4949 444.25 52.4089C444.687 51.3053 445.318 50.3067 446.141 49.4134C446.965 48.52 447.963 47.8105 449.137 47.285C450.328 46.7419 451.668 46.4704 453.157 46.4704C454.944 46.4704 456.503 46.847 457.834 47.6003C459.166 48.336 460.155 49.317 460.804 50.5432L456.888 53.3285C456.661 52.7154 456.328 52.2424 455.89 51.9096C455.47 51.5768 455.005 51.349 454.497 51.2264C454.007 51.0863 453.525 51.0162 453.052 51.0162C452.316 51.0162 451.677 51.1651 451.134 51.4629C450.608 51.7432 450.17 52.1198 449.82 52.5928C449.487 53.0658 449.233 53.5913 449.058 54.1694C448.9 54.7475 448.822 55.3255 448.822 55.9036C448.822 56.5518 448.918 57.1736 449.111 57.7692C449.303 58.3648 449.584 58.8991 449.951 59.3721C450.319 59.8276 450.766 60.1867 451.292 60.4494C451.835 60.7122 452.439 60.8436 453.105 60.8436C453.578 60.8436 454.059 60.7735 454.55 60.6334C455.04 60.4757 455.487 60.2305 455.89 59.8976C456.293 59.5648 456.599 59.1181 456.81 58.5575L460.988 61.0538C460.62 61.9647 460.007 62.7442 459.148 63.3924C458.29 64.0405 457.318 64.5398 456.232 64.8901C455.145 65.223 454.068 65.3894 453 65.3894C451.616 65.3894 450.346 65.1179 449.189 64.5748C448.051 64.0143 447.061 63.2785 446.22 62.3676C445.397 61.4392 444.758 60.4056 444.302 59.267C443.847 58.1108 443.619 56.9372 443.619 55.746Z" fill="black"/>
<path d="M463.337 65.2317V46.5755H468.461V65.2317H463.337Z" fill="black"/>
<path d="M476.511 46.5755H482.24L488.178 65.2317H482.975L481.845 61.5793H476.879L475.776 65.2317H470.547L476.511 46.5755ZM481.031 58.1634L479.375 51.5943L477.641 58.1634H481.031Z" fill="black"/>
<path d="M498.694 46.5755L502.031 54.1957L505.447 46.5755H511.018L504.58 59.0568V65.2317H499.483V59.0042L493.15 46.5755H498.694Z" fill="black"/>
<path d="M518.389 65.2317V46.5755H523.513V60.7647H531.974V65.2317H518.389Z" fill="black"/>
<path d="M542.463 65.3894C541.044 65.3894 539.756 65.1266 538.6 64.6011C537.444 64.0581 536.445 63.3398 535.604 62.4464C534.781 61.5355 534.142 60.5195 533.686 59.3984C533.248 58.2597 533.029 57.0861 533.029 55.8773C533.029 54.6336 533.266 53.4512 533.739 52.33C534.212 51.2089 534.869 50.2104 535.71 49.3345C536.568 48.4411 537.575 47.7404 538.731 47.2324C539.905 46.7244 541.184 46.4704 542.568 46.4704C543.987 46.4704 545.274 46.7419 546.43 47.285C547.586 47.8105 548.576 48.5287 549.4 49.4396C550.223 50.3505 550.854 51.3753 551.291 52.514C551.747 53.6351 551.975 54.7912 551.975 55.9824C551.975 57.2087 551.738 58.3824 551.265 59.5035C550.81 60.6246 550.153 61.6319 549.294 62.5253C548.454 63.4011 547.455 64.1018 546.299 64.6274C545.143 65.1354 543.864 65.3894 542.463 65.3894ZM538.232 55.9299C538.232 56.5605 538.32 57.1736 538.495 57.7692C538.67 58.3473 538.933 58.8728 539.283 59.3458C539.633 59.8013 540.071 60.1691 540.597 60.4494C541.14 60.7122 541.779 60.8436 542.515 60.8436C543.251 60.8436 543.89 60.7034 544.433 60.4232C544.976 60.1429 545.414 59.7662 545.747 59.2933C546.097 58.8028 546.351 58.2685 546.509 57.6904C546.684 57.0948 546.772 56.4905 546.772 55.8773C546.772 55.2467 546.684 54.6424 546.509 54.0643C546.334 53.4862 546.071 52.9694 545.721 52.514C545.371 52.041 544.924 51.6731 544.381 51.4104C543.838 51.1476 543.207 51.0162 542.489 51.0162C541.753 51.0162 541.114 51.1564 540.571 51.4366C540.045 51.7169 539.607 52.0935 539.257 52.5665C538.907 53.022 538.644 53.5475 538.469 54.1431C538.311 54.7212 538.232 55.3168 538.232 55.9299Z" fill="black"/>
<path d="M565.817 52.6716C565.817 52.6716 565.668 52.584 565.37 52.4089C565.072 52.2337 564.678 52.041 564.188 51.8308C563.697 51.6031 563.163 51.4016 562.585 51.2264C562.007 51.0512 561.437 50.9637 560.877 50.9637C560.439 50.9637 560.08 51.0337 559.799 51.1739C559.519 51.314 559.379 51.5505 559.379 51.8833C559.379 52.1986 559.519 52.4527 559.799 52.6453C560.08 52.838 560.474 53.0132 560.982 53.1709C561.507 53.3285 562.129 53.5212 562.848 53.749C564.004 54.0993 565.002 54.5022 565.843 54.9577C566.684 55.4131 567.332 56 567.787 56.7182C568.243 57.4189 568.471 58.3561 568.471 59.5298C568.471 60.6509 568.269 61.5968 567.866 62.3676C567.463 63.1209 566.92 63.7252 566.237 64.1807C565.554 64.6361 564.792 64.969 563.951 65.1792C563.11 65.3719 562.252 65.4682 561.376 65.4682C560.483 65.4682 559.545 65.3806 558.564 65.2055C557.601 65.0128 556.664 64.7588 555.753 64.4434C554.842 64.1106 554.01 63.7252 553.257 63.2873L555.464 58.794C555.464 58.794 555.639 58.8991 555.989 59.1093C556.34 59.3195 556.804 59.556 557.382 59.8188C557.96 60.0816 558.599 60.318 559.3 60.5283C560.018 60.7385 560.737 60.8436 561.455 60.8436C562.015 60.8436 562.401 60.7735 562.611 60.6334C562.839 60.4757 562.953 60.2743 562.953 60.029C562.953 59.6611 562.76 59.3809 562.375 59.1882C561.989 58.978 561.481 58.7853 560.851 58.6101C560.237 58.4174 559.554 58.1984 558.801 57.9532C557.715 57.5853 556.821 57.1736 556.121 56.7182C555.42 56.2452 554.903 55.6934 554.57 55.0628C554.238 54.4146 554.071 53.6351 554.071 52.7242C554.071 51.3403 554.395 50.1841 555.043 49.2557C555.692 48.3273 556.541 47.6266 557.592 47.1536C558.661 46.6631 559.808 46.4178 561.034 46.4178C561.945 46.4178 562.821 46.5317 563.662 46.7594C564.52 46.9697 565.317 47.2324 566.053 47.5477C566.806 47.863 567.463 48.1608 568.024 48.4411L565.817 52.6716Z" fill="black"/>
<path d="M577.688 65.2317V46.5755H584.862C586.929 46.5755 588.654 46.9959 590.038 47.8368C591.44 48.6601 592.491 49.7812 593.191 51.2001C593.91 52.6016 594.269 54.1606 594.269 55.8773C594.269 57.7692 593.875 59.4159 593.086 60.8173C592.315 62.2187 591.221 63.3048 589.802 64.0756C588.4 64.8463 586.754 65.2317 584.862 65.2317H577.688ZM589.066 55.8773C589.066 54.9139 588.9 54.073 588.567 53.3548C588.234 52.6191 587.752 52.0497 587.122 51.6468C586.491 51.2439 585.738 51.0425 584.862 51.0425H582.812V60.7647H584.862C585.755 60.7647 586.508 60.5545 587.122 60.1341C587.752 59.7137 588.234 59.1356 588.567 58.3999C588.9 57.6466 589.066 56.8058 589.066 55.8773Z" fill="black"/>
<path d="M597.023 65.2317V46.5755H604.196C606.264 46.5755 607.989 46.9959 609.373 47.8368C610.774 48.6601 611.825 49.7812 612.526 51.2001C613.244 52.6016 613.603 54.1606 613.603 55.8773C613.603 57.7692 613.209 59.4159 612.421 60.8173C611.65 62.2187 610.555 63.3048 609.136 64.0756C607.735 64.8463 606.088 65.2317 604.196 65.2317H597.023ZM608.401 55.8773C608.401 54.9139 608.234 54.073 607.901 53.3548C607.569 52.6191 607.087 52.0497 606.456 51.6468C605.826 51.2439 605.072 51.0425 604.196 51.0425H602.147V60.7647H604.196C605.09 60.7647 605.843 60.5545 606.456 60.1341C607.087 59.7137 607.569 59.1356 607.901 58.3999C608.234 57.6466 608.401 56.8058 608.401 55.8773Z" fill="black"/>
<path d="M632.859 46.5755V65.2317H627.735V57.9269H621.482V65.2317H616.358V46.5755H621.482V53.4599H627.735V46.5755H632.859Z" fill="black"/>
<path d="M653.092 46.5755V65.2317H647.968V57.9269H641.714V65.2317H636.59V46.5755H641.714V53.4599H647.968V46.5755H653.092Z" fill="black"/>
<path d="M309.091 34V0.529431H318.284V34H309.091Z" fill="black"/>
<path d="M334.189 17.5476V34H324.996V0.529431H332.162L345.597 17.5476V0.529431H354.79V34H347.483L334.189 17.5476Z" fill="black"/>
<path d="M361.479 34V0.529431H370.672V34H361.479Z" fill="black"/>
<path d="M375.546 16.9819C375.546 14.9391 375.923 12.9434 376.677 10.9949C377.463 9.01494 378.594 7.22355 380.071 5.62073C381.548 4.01791 383.34 2.74509 385.445 1.80226C387.582 0.827995 389.987 0.340864 392.658 0.340864C395.864 0.340864 398.661 1.01656 401.049 2.36796C403.438 3.68793 405.213 5.44788 406.376 7.64783L399.352 12.6448C398.944 11.5449 398.346 10.6963 397.561 10.0992C396.807 9.50207 395.974 9.09351 395.062 8.87351C394.182 8.62209 393.318 8.49638 392.469 8.49638C391.15 8.49638 390.002 8.76351 389.028 9.29778C388.085 9.80063 387.3 10.4763 386.671 11.3249C386.074 12.1734 385.618 13.1163 385.304 14.1534C385.021 15.1905 384.88 16.2276 384.88 17.2647C384.88 18.4276 385.053 19.5432 385.398 20.6118C385.744 21.6803 386.247 22.6389 386.907 23.4874C387.567 24.3046 388.368 24.9488 389.311 25.4202C390.285 25.8917 391.37 26.1274 392.564 26.1274C393.412 26.1274 394.277 26.0017 395.157 25.7502C396.037 25.4674 396.838 25.0274 397.561 24.4303C398.284 23.8331 398.834 23.0317 399.211 22.026L406.706 26.5045C406.046 28.1387 404.946 29.5373 403.406 30.7001C401.866 31.8629 400.122 32.7586 398.174 33.3872C396.225 33.9843 394.292 34.2829 392.375 34.2829C389.892 34.2829 387.614 33.7957 385.54 32.8215C383.497 31.8158 381.721 30.4958 380.213 28.8616C378.736 27.1959 377.588 25.3417 376.771 23.2989C375.954 21.2246 375.546 19.119 375.546 16.9819Z" fill="black"/>
<path d="M410.921 34V0.529431H420.114V34H410.921Z" fill="black"/>
<path d="M434.557 0.529431H444.834L455.488 34H446.154L444.127 27.4473H435.217L433.237 34H423.856L434.557 0.529431ZM442.665 21.3189L439.696 9.53349L436.584 21.3189H442.665Z" fill="black"/>
<path d="M482.197 8.54352H472.58V34H463.387V8.54352H453.723V0.529431H482.197V8.54352Z" fill="black"/>
<path d="M486.488 34V0.529431H495.68V34H486.488Z" fill="black"/>
<path d="M508.851 0.529431L515.404 23.3932L521.862 0.529431H531.526L519.976 34H510.831L499.14 0.529431H508.851Z" fill="black"/>
<path d="M540.024 0.529431H550.301L560.955 34H551.621L549.593 27.4473H540.684L538.704 34H529.323L540.024 0.529431ZM548.132 21.3189L545.162 9.53349L542.051 21.3189H548.132Z" fill="black"/>
<path d="M584.581 11.4663C584.581 11.4663 584.314 11.3092 583.78 10.9949C583.245 10.6806 582.538 10.3349 581.658 9.95777C580.778 9.54921 579.82 9.18779 578.783 8.87351C577.746 8.55923 576.724 8.40209 575.718 8.40209C574.933 8.40209 574.288 8.52781 573.786 8.77923C573.283 9.03065 573.031 9.45493 573.031 10.0521C573.031 10.6178 573.283 11.0735 573.786 11.4192C574.288 11.7649 574.996 12.0791 575.907 12.362C576.85 12.6448 577.966 12.9906 579.254 13.3991C581.328 14.0277 583.12 14.7505 584.628 15.5676C586.137 16.3848 587.3 17.4376 588.117 18.7261C588.934 19.9832 589.342 21.6646 589.342 23.7703C589.342 25.7817 588.981 27.4788 588.258 28.8616C587.535 30.213 586.561 31.2972 585.335 32.1144C584.11 32.9315 582.743 33.5286 581.234 33.9057C579.725 34.2515 578.186 34.4243 576.614 34.4243C575.011 34.4243 573.33 34.2672 571.57 33.9529C569.841 33.6072 568.16 33.1515 566.526 32.5858C564.892 31.9887 563.399 31.2972 562.047 30.5115L566.007 22.4503C566.007 22.4503 566.322 22.6389 566.95 23.016C567.579 23.3932 568.411 23.8174 569.449 24.2888C570.486 24.7603 571.633 25.1845 572.89 25.5617C574.178 25.9388 575.467 26.1274 576.756 26.1274C577.761 26.1274 578.453 26.0017 578.83 25.7502C579.238 25.4674 579.443 25.106 579.443 24.666C579.443 24.006 579.097 23.5031 578.406 23.1574C577.714 22.7803 576.803 22.4346 575.671 22.1203C574.571 21.7746 573.346 21.3818 571.994 20.9418C570.046 20.2818 568.443 19.5432 567.186 18.7261C565.929 17.8776 565.002 16.8876 564.404 15.7562C563.807 14.5934 563.509 13.1948 563.509 11.5606C563.509 9.07779 564.09 7.00356 565.253 5.33788C566.416 3.67221 567.94 2.4151 569.826 1.56655C571.743 0.686571 573.801 0.246582 576.001 0.246582C577.636 0.246582 579.207 0.450863 580.715 0.859425C582.255 1.23656 583.685 1.70797 585.005 2.27367C586.357 2.83937 587.535 3.37365 588.541 3.87649L584.581 11.4663Z" fill="black"/>
<path d="M70.5069 8.27274C70.5069 8.27274 70.361 8.18692 70.0692 8.01529C69.7774 7.84365 69.3913 7.65486 68.9107 7.44889C68.4301 7.22577 67.9066 7.02839 67.3402 6.85676C66.7738 6.68512 66.216 6.5993 65.6668 6.5993C65.2377 6.5993 64.8859 6.66796 64.6112 6.80527C64.3366 6.94257 64.1993 7.17428 64.1993 7.50039C64.1993 7.80933 64.3366 8.0582 64.6112 8.247C64.8859 8.43579 65.272 8.60743 65.7698 8.7619C66.2847 8.91637 66.894 9.10517 67.5977 9.32829C68.7305 9.67156 69.7088 10.0663 70.5326 10.5126C71.3565 10.9588 71.9915 11.5338 72.4378 12.2375C72.884 12.924 73.1072 13.8423 73.1072 14.9922C73.1072 16.0907 72.9098 17.0175 72.515 17.7727C72.1203 18.5107 71.5882 19.1029 70.9188 19.5491C70.2494 19.9954 69.5028 20.3215 68.679 20.5275C67.8551 20.7163 67.0141 20.8106 66.1559 20.8106C65.2806 20.8106 64.3624 20.7248 63.4012 20.5532C62.4572 20.3644 61.539 20.1155 60.6465 19.8066C59.754 19.4805 58.9387 19.1029 58.2007 18.6738L60.3633 14.2714C60.3633 14.2714 60.5349 14.3744 60.8782 14.5803C61.2215 14.7863 61.6763 15.018 62.2427 15.2754C62.8091 15.5329 63.4355 15.7646 64.1221 15.9706C64.8258 16.1765 65.5295 16.2795 66.2332 16.2795C66.7824 16.2795 67.16 16.2108 67.366 16.0735C67.5891 15.9191 67.7007 15.7217 67.7007 15.4814C67.7007 15.121 67.5119 14.8463 67.1343 14.6575C66.7567 14.4516 66.2589 14.2628 65.641 14.0912C65.0403 13.9024 64.3709 13.6878 63.6329 13.4475C62.5688 13.0871 61.6934 12.6838 61.0069 12.2375C60.3204 11.7741 59.814 11.2334 59.4879 10.6156C59.1618 9.98051 58.9988 9.21673 58.9988 8.32423C58.9988 6.96832 59.3163 5.83553 59.9514 4.92587C60.5864 4.0162 61.4188 3.32966 62.4486 2.86625C63.4956 2.38567 64.6198 2.14539 65.8213 2.14539C66.7138 2.14539 67.5719 2.25695 68.3958 2.48007C69.2368 2.68603 70.0177 2.94349 70.7386 3.25243C71.4766 3.56137 72.1203 3.85315 72.6695 4.12776L70.5069 8.27274Z" fill="black"/>
<path d="M83.822 20.7334C82.3631 20.7334 81.1101 20.4931 80.0632 20.0125C79.0162 19.532 78.158 18.8712 77.4887 18.0302C76.8364 17.1892 76.3559 16.228 76.0469 15.1467C75.738 14.0482 75.5835 12.8983 75.5835 11.6969V2.29986H80.6038V11.6969C80.6038 12.2976 80.6639 12.8725 80.784 13.4218C80.9042 13.971 81.093 14.4602 81.3504 14.8893C81.6079 15.3183 81.934 15.6616 82.3288 15.9191C82.7407 16.1594 83.2384 16.2795 83.822 16.2795C84.4227 16.2795 84.929 16.1594 85.3409 15.9191C85.7529 15.6616 86.079 15.3183 86.3193 14.8893C86.5767 14.443 86.7655 13.9453 86.8857 13.396C87.0058 12.8468 87.0659 12.2804 87.0659 11.6969V2.29986H92.0862V11.6969C92.0862 12.9669 91.9146 14.1512 91.5713 15.2497C91.2452 16.3482 90.7474 17.3093 90.0781 18.1332C89.4087 18.957 88.5505 19.6006 87.5035 20.064C86.4737 20.5103 85.2465 20.7334 83.822 20.7334Z" fill="black"/>
<path d="M109.314 20.5789V10.9502L106.25 17.7212H103.573L100.509 10.9502V20.5789H95.4888V2.29986H100.972L104.912 10.8988L108.876 2.29986H114.334V20.5789H109.314Z" fill="black"/>
<path d="M122.2 2.29986H127.812L133.631 20.5789H128.533L127.426 17.0004H122.56L121.479 20.5789H116.356L122.2 2.29986ZM126.628 13.6535L125.006 7.21719L123.307 13.6535H126.628Z" fill="black"/>
<path d="M154.69 6.67654H149.438V20.5789H144.418V6.67654H139.14V2.29986H154.69V6.67654Z" fill="black"/>
<path d="M165.015 20.7334C163.556 20.7334 162.303 20.4931 161.256 20.0125C160.209 19.532 159.351 18.8712 158.682 18.0302C158.029 17.1892 157.549 16.228 157.24 15.1467C156.931 14.0482 156.776 12.8983 156.776 11.6969V2.29986H161.797V11.6969C161.797 12.2976 161.857 12.8725 161.977 13.4218C162.097 13.971 162.286 14.4602 162.543 14.8893C162.801 15.3183 163.127 15.6616 163.522 15.9191C163.934 16.1594 164.431 16.2795 165.015 16.2795C165.616 16.2795 166.122 16.1594 166.534 15.9191C166.946 15.6616 167.272 15.3183 167.512 14.8893C167.77 14.443 167.958 13.9453 168.079 13.396C168.199 12.8468 168.259 12.2804 168.259 11.6969V2.29986H173.279V11.6969C173.279 12.9669 173.107 14.1512 172.764 15.2497C172.438 16.3482 171.94 17.3093 171.271 18.1332C170.602 18.957 169.743 19.6006 168.696 20.064C167.667 20.5103 166.439 20.7334 165.015 20.7334Z" fill="black"/>
<path d="M186.422 2.29986H192.034L197.853 20.5789H192.755L191.648 17.0004H186.782L185.701 20.5789H180.578L186.422 2.29986ZM190.85 13.6535L189.228 7.21719L187.529 13.6535H190.85Z" fill="black"/>
<path d="M199.887 20.5789V2.29986H207.765C208.657 2.29986 209.481 2.48007 210.236 2.84051C210.991 3.20094 211.644 3.6901 212.193 4.30798C212.742 4.9087 213.162 5.58666 213.454 6.34185C213.763 7.09704 213.918 7.86082 213.918 8.63317C213.918 9.71447 213.66 10.7357 213.145 11.6969C212.648 12.658 211.944 13.4475 211.034 14.0654C210.142 14.6661 209.095 14.9665 207.893 14.9665H204.907V20.5789H199.887ZM204.907 10.5898H207.559C207.765 10.5898 207.962 10.5297 208.151 10.4096C208.34 10.2894 208.494 10.0835 208.614 9.79171C208.751 9.49993 208.82 9.11375 208.82 8.63317C208.82 8.11827 208.743 7.72351 208.588 7.44889C208.451 7.15712 208.271 6.95974 208.048 6.85676C207.842 6.73661 207.636 6.67654 207.43 6.67654H204.907V10.5898Z" fill="black"/>
<path d="M224.68 20.7334C223.29 20.7334 222.029 20.476 220.896 19.9611C219.763 19.429 218.785 18.7253 217.961 17.85C217.154 16.9575 216.528 15.962 216.081 14.8635C215.652 13.7479 215.438 12.5979 215.438 11.4137C215.438 10.195 215.67 9.03651 216.133 7.93805C216.596 6.83959 217.24 5.86128 218.064 5.0031C218.905 4.12777 219.892 3.44123 221.025 2.94349C222.175 2.44575 223.427 2.19688 224.783 2.19688C226.174 2.19688 227.435 2.46291 228.568 2.99498C229.701 3.50988 230.67 4.21358 231.477 5.10608C232.284 5.99858 232.902 7.00265 233.331 8.11827C233.777 9.21673 234 10.3495 234 11.5166C234 12.7181 233.768 13.868 233.305 14.9665C232.859 16.065 232.215 17.0519 231.374 17.9272C230.55 18.7854 229.572 19.4719 228.439 19.9868C227.306 20.4845 226.053 20.7334 224.68 20.7334ZM220.535 11.4651C220.535 12.083 220.621 12.6838 220.793 13.2673C220.964 13.8337 221.222 14.3486 221.565 14.812C221.908 15.2583 222.338 15.6187 222.852 15.8933C223.385 16.1508 224.011 16.2795 224.732 16.2795C225.453 16.2795 226.079 16.1422 226.611 15.8676C227.143 15.593 227.572 15.2239 227.899 14.7605C228.242 14.28 228.491 13.7565 228.645 13.1901C228.817 12.6065 228.903 12.0144 228.903 11.4137C228.903 10.7958 228.817 10.2036 228.645 9.63724C228.473 9.07084 228.216 8.56452 227.873 8.11827C227.53 7.65486 227.092 7.29442 226.56 7.03697C226.028 6.77952 225.41 6.65079 224.706 6.65079C223.985 6.65079 223.359 6.7881 222.827 7.06272C222.312 7.33733 221.883 7.70635 221.539 8.16976C221.196 8.61601 220.939 9.13091 220.767 9.71447C220.613 10.2809 220.535 10.8644 220.535 11.4651Z" fill="black"/>
<path d="M239.168 2.29986L242.438 9.76596L245.785 2.29986H251.243L244.935 14.5288V20.5789H239.941V14.4773L233.736 2.29986H239.168Z" fill="black"/>
<path d="M260.18 20.7334C258.789 20.7334 257.528 20.476 256.395 19.9611C255.262 19.429 254.284 18.7253 253.46 17.85C252.653 16.9575 252.027 15.962 251.581 14.8635C251.152 13.7479 250.937 12.5979 250.937 11.4137C250.937 10.195 251.169 9.03651 251.632 7.93805C252.096 6.83959 252.739 5.86128 253.563 5.0031C254.404 4.12777 255.391 3.44123 256.524 2.94349C257.674 2.44575 258.927 2.19688 260.283 2.19688C261.673 2.19688 262.934 2.46291 264.067 2.99498C265.2 3.50988 266.17 4.21358 266.976 5.10608C267.783 5.99858 268.401 7.00265 268.83 8.11827C269.276 9.21673 269.499 10.3495 269.499 11.5166C269.499 12.7181 269.268 13.868 268.804 14.9665C268.358 16.065 267.714 17.0519 266.873 17.9272C266.049 18.7854 265.071 19.4719 263.938 19.9868C262.806 20.4845 261.553 20.7334 260.18 20.7334ZM256.035 11.4651C256.035 12.083 256.12 12.6838 256.292 13.2673C256.464 13.8337 256.721 14.3486 257.064 14.812C257.408 15.2583 257.837 15.6187 258.352 15.8933C258.884 16.1508 259.51 16.2795 260.231 16.2795C260.952 16.2795 261.578 16.1422 262.11 15.8676C262.643 15.593 263.072 15.2239 263.398 14.7605C263.741 14.28 263.99 13.7565 264.144 13.1901C264.316 12.6065 264.402 12.0144 264.402 11.4137C264.402 10.7958 264.316 10.2036 264.144 9.63724C263.973 9.07084 263.715 8.56452 263.372 8.11827C263.029 7.65486 262.591 7.29442 262.059 7.03697C261.527 6.77952 260.909 6.65079 260.205 6.65079C259.484 6.65079 258.858 6.7881 258.326 7.06272C257.811 7.33733 257.382 7.70635 257.039 8.16976C256.695 8.61601 256.438 9.13091 256.266 9.71447C256.112 10.2809 256.035 10.8644 256.035 11.4651Z" fill="black"/>
<path d="M281.882 2.29986H287.495L293.313 20.5789H288.216L287.109 17.0004H282.243L281.161 20.5789H276.038L281.882 2.29986ZM286.311 13.6535L284.689 7.21719L282.989 13.6535H286.311Z" fill="black"/>
<rect x="57" y="27.0057" width="235.192" height="7.79369" fill="#AB47BC"/>
</svg>
