<svg width="270" height="124" viewBox="0 0 270 124" fill="none" xmlns="http://www.w3.org/2000/svg">
<rect width="263" height="23" fill="black"/>
<rect y="25" width="228" height="23" fill="black"/>
<path d="M14.9004 17.0001L14.9004 6.52751L17.7767 6.52751V17.0001H14.9004Z" fill="white"/>
<path d="M27.7239 17.0001V11.4835L25.9686 15.3628H24.4346L22.6793 11.4835V17.0001H19.8031V6.52751H22.9448L25.2016 11.454L27.4731 6.52751L30.6001 6.52751V17.0001H27.7239Z" fill="white"/>
<path d="M32.6137 17.0001V6.52751L37.1273 6.52751C37.6386 6.52751 38.1106 6.63076 38.5433 6.83726C38.9759 7.04376 39.3496 7.32401 39.6643 7.67801C39.9789 8.02218 40.2199 8.4106 40.387 8.84327C40.564 9.27594 40.6525 9.71352 40.6525 10.156C40.6525 10.7755 40.505 11.3606 40.21 11.9113C39.9249 12.462 39.5217 12.9143 39.0005 13.2683C38.4892 13.6125 37.8893 13.7845 37.201 13.7845H35.49V17.0001H32.6137ZM35.49 11.277H37.0093C37.1273 11.277 37.2403 11.2426 37.3485 11.1738C37.4567 11.1049 37.5452 10.9869 37.614 10.8198C37.6927 10.6526 37.732 10.4314 37.732 10.156C37.732 9.86102 37.6878 9.63486 37.5993 9.47752C37.5206 9.31035 37.4173 9.19727 37.2895 9.13827C37.1715 9.06944 37.0535 9.03502 36.9355 9.03502H35.49V11.277Z" fill="white"/>
<path d="M46.745 17.0886C45.9485 17.0886 45.2257 16.9411 44.5767 16.6461C43.9277 16.3412 43.3672 15.9381 42.8952 15.4366C42.4331 14.9252 42.0741 14.3549 41.8185 13.7255C41.5726 13.0864 41.4497 12.4275 41.4497 11.749C41.4497 11.0509 41.5825 10.3871 41.848 9.75777C42.1135 9.12844 42.4822 8.56793 42.9542 8.07626C43.4361 7.57476 44.0015 7.18143 44.6505 6.89626C45.3093 6.61109 46.0272 6.46851 46.804 6.46851C47.6005 6.46851 48.3233 6.62092 48.9723 6.92576C49.6213 7.22076 50.1769 7.62393 50.639 8.13527C51.1012 8.6466 51.4552 9.22185 51.701 9.86102C51.9567 10.4904 52.0845 11.1394 52.0845 11.808C52.0845 12.4964 51.9518 13.1552 51.6863 13.7845C51.4306 14.4139 51.0619 14.9793 50.58 15.4808C50.108 15.9725 49.5475 16.3658 48.8985 16.6608C48.2495 16.946 47.5317 17.0886 46.745 17.0886ZM44.3702 11.7785C44.3702 12.1325 44.4194 12.4767 44.5177 12.811C44.6161 13.1355 44.7636 13.4305 44.9602 13.696C45.1569 13.9517 45.4027 14.1582 45.6978 14.3155C46.0026 14.463 46.3615 14.5368 46.7745 14.5368C47.1875 14.5368 47.5464 14.4581 47.8513 14.3008C48.1561 14.1435 48.4019 13.932 48.5888 13.6665C48.7854 13.3912 48.928 13.0913 49.0165 12.7668C49.1149 12.4325 49.164 12.0932 49.164 11.749C49.164 11.395 49.1149 11.0558 49.0165 10.7313C48.9182 10.4068 48.7707 10.1167 48.574 9.86102C48.3773 9.59552 48.1266 9.38902 47.8218 9.24152C47.5169 9.09402 47.1629 9.02027 46.7598 9.02027C46.3468 9.02027 45.9878 9.09894 45.683 9.25627C45.388 9.4136 45.1422 9.62502 44.9455 9.89052C44.7488 10.1462 44.6013 10.4412 44.503 10.7755C44.4145 11.1 44.3702 11.4344 44.3702 11.7785Z" fill="white"/>
<path d="M53.5249 17.0001V6.52751L58.3334 6.52751C58.8447 6.52751 59.3167 6.63076 59.7494 6.83726C60.1821 7.04376 60.5557 7.32401 60.8704 7.67801C61.1851 8.02218 61.426 8.4106 61.5932 8.84327C61.7702 9.27594 61.8587 9.71352 61.8587 10.156C61.8587 10.5592 61.7997 10.9476 61.6817 11.3213C61.5637 11.695 61.3916 12.0391 61.1654 12.3538C60.9392 12.6586 60.6688 12.9241 60.3541 13.1503L62.5667 17.0001H59.4101L57.5664 13.7845H56.4011V17.0001H53.5249ZM56.4011 11.277H58.2154C58.3334 11.277 58.4465 11.2328 58.5546 11.1443C58.6628 11.0558 58.7513 10.9279 58.8201 10.7608C58.8988 10.5936 58.9381 10.392 58.9381 10.156C58.9381 9.91019 58.8939 9.70861 58.8054 9.55127C58.7267 9.38411 58.6235 9.25627 58.4956 9.16777C58.3776 9.07927 58.2596 9.03502 58.1416 9.03502H56.4011V11.277Z" fill="white"/>
<path d="M71.7123 9.03502H68.7033V17.0001H65.827V9.03502H62.8032V6.52751L71.7123 6.52751V9.03502Z" fill="white"/>
<path d="M74.4351 6.52751H77.6506L80.9841 17.0001H78.0636L77.4293 14.9498L74.6416 14.9498L74.022 17.0001H71.0868L74.4351 6.52751ZM76.9721 13.0323L76.0428 9.34477L75.0693 13.0323H76.9721Z" fill="white"/>
<path d="M84.9517 11.8523V17.0001H82.0755V6.52751L84.3175 6.52751L88.5213 11.8523V6.52751L91.3975 6.52751V17.0001H89.1113L84.9517 11.8523Z" fill="white"/>
<path d="M92.8417 11.6753C92.8417 11.0361 92.9597 10.4117 93.1957 9.80202C93.4415 9.18252 93.7955 8.62202 94.2577 8.12051C94.7198 7.61901 95.2803 7.22076 95.9392 6.92576C96.6078 6.62092 97.3601 6.46851 98.1959 6.46851C99.1989 6.46851 100.074 6.67992 100.821 7.10276C101.569 7.51576 102.124 8.06643 102.488 8.75477L100.29 10.3183C100.163 9.97411 99.9758 9.70861 99.7299 9.52177C99.4939 9.33494 99.2334 9.2071 98.9482 9.13827C98.6729 9.0596 98.4024 9.02027 98.1369 9.02027C97.7239 9.02027 97.365 9.10385 97.0602 9.27102C96.7652 9.42836 96.5193 9.63977 96.3227 9.90527C96.1358 10.1708 95.9933 10.4658 95.8949 10.7903C95.8064 11.1148 95.7622 11.4393 95.7622 11.7638C95.7622 12.1276 95.8162 12.4767 95.9244 12.811C96.0326 13.1454 96.1899 13.4453 96.3964 13.7108C96.6029 13.9665 96.8537 14.168 97.1487 14.3155C97.4535 14.463 97.7928 14.5368 98.1664 14.5368C98.4319 14.5368 98.7023 14.4975 98.9777 14.4188C99.253 14.3303 99.5038 14.1926 99.7299 14.0058C99.9561 13.819 100.128 13.5682 100.246 13.2535L102.591 14.6548C102.385 15.1661 102.041 15.6037 101.559 15.9676C101.077 16.3314 100.531 16.6116 99.9217 16.8083C99.312 16.9951 98.7073 17.0886 98.1074 17.0886C97.3306 17.0886 96.6177 16.9361 95.9687 16.6313C95.3295 16.3166 94.7739 15.9036 94.3019 15.3923C93.8397 14.8711 93.4808 14.291 93.2252 13.6518C92.9695 13.0028 92.8417 12.344 92.8417 11.6753Z" fill="white"/>
<path d="M103.836 17.0001V6.52751L106.713 6.52751V17.0001H103.836Z" fill="white"/>
<path d="M111.158 6.52751L114.374 6.52751L117.707 17.0001H114.787L114.152 14.9498H111.365L110.745 17.0001H107.81L111.158 6.52751ZM113.695 13.0323L112.766 9.34477L111.792 13.0323H113.695Z" fill="white"/>
<path d="M121.886 17.0001V6.52751L126.4 6.52751C126.911 6.52751 127.383 6.63076 127.816 6.83726C128.248 7.04376 128.622 7.32401 128.937 7.67801C129.251 8.02218 129.492 8.4106 129.66 8.84327C129.837 9.27594 129.925 9.71352 129.925 10.156C129.925 10.7755 129.778 11.3606 129.483 11.9113C129.197 12.462 128.794 12.9143 128.273 13.2683C127.762 13.6125 127.162 13.7845 126.474 13.7845H124.763V17.0001H121.886ZM124.763 11.277H126.282C126.4 11.277 126.513 11.2426 126.621 11.1738C126.729 11.1049 126.818 10.9869 126.887 10.8198C126.965 10.6526 127.005 10.4314 127.005 10.156C127.005 9.86102 126.96 9.63486 126.872 9.47752C126.793 9.31035 126.69 9.19727 126.562 9.13827C126.444 9.06944 126.326 9.03502 126.208 9.03502H124.763V11.277Z" fill="white"/>
<path d="M132.953 6.52751L136.169 6.52751L139.502 17.0001H136.582L135.947 14.9498H133.16L132.54 17.0001L129.605 17.0001L132.953 6.52751ZM135.49 13.0323L134.561 9.34477L133.587 13.0323L135.49 13.0323Z" fill="white"/>
<path d="M140.594 17.0001V6.52751L145.402 6.52751C145.913 6.52751 146.385 6.63076 146.818 6.83726C147.251 7.04376 147.624 7.32401 147.939 7.67801C148.254 8.02218 148.495 8.4106 148.662 8.84327C148.839 9.27594 148.927 9.71352 148.927 10.156C148.927 10.5592 148.868 10.9476 148.75 11.3213C148.632 11.695 148.46 12.0391 148.234 12.3538C148.008 12.6586 147.738 12.9241 147.423 13.1503L149.635 17.0001H146.479L144.635 13.7845H143.47V17.0001H140.594ZM143.47 11.277H145.284C145.402 11.277 145.515 11.2328 145.623 11.1443C145.731 11.0558 145.82 10.9279 145.889 10.7608C145.967 10.5936 146.007 10.392 146.007 10.156C146.007 9.91019 145.963 9.70861 145.874 9.55127C145.795 9.38411 145.692 9.25627 145.564 9.16777C145.446 9.07927 145.328 9.03502 145.21 9.03502H143.47V11.277Z" fill="white"/>
<path d="M153.187 6.52751L156.403 6.52751L159.736 17.0001H156.816L156.181 14.9498H153.394L152.774 17.0001H149.839L153.187 6.52751ZM155.724 13.0323L154.795 9.34477L153.821 13.0323H155.724Z" fill="white"/>
<path d="M163.915 17.0001V6.52751L166.792 6.52751V14.4925H171.541V17.0001L163.915 17.0001Z" fill="white"/>
<path d="M175.184 6.52751L178.399 6.52751L181.733 17.0001H178.812L178.178 14.9498H175.39L174.771 17.0001H171.836L175.184 6.52751ZM177.721 13.0323L176.792 9.34477L175.818 13.0323H177.721Z" fill="white"/>
<path d="M185.337 11.6753C185.337 11.0361 185.455 10.4117 185.691 9.80202C185.937 9.18252 186.291 8.62202 186.753 8.12051C187.215 7.61901 187.775 7.22076 188.434 6.92576C189.103 6.62092 189.855 6.46851 190.691 6.46851C191.694 6.46851 192.569 6.67992 193.317 7.10276C194.064 7.51576 194.619 8.06643 194.983 8.75477L192.786 10.3183C192.658 9.97411 192.471 9.70861 192.225 9.52177C191.989 9.33494 191.728 9.2071 191.443 9.13827C191.168 9.0596 190.898 9.02027 190.632 9.02027C190.219 9.02027 189.86 9.10385 189.555 9.27102C189.26 9.42836 189.014 9.63977 188.818 9.90527C188.631 10.1708 188.488 10.4658 188.39 10.7903C188.302 11.1148 188.257 11.4393 188.257 11.7638C188.257 12.1276 188.311 12.4767 188.42 12.811C188.528 13.1454 188.685 13.4453 188.892 13.7108C189.098 13.9665 189.349 14.168 189.644 14.3155C189.949 14.463 190.288 14.5368 190.662 14.5368C190.927 14.5368 191.197 14.4975 191.473 14.4188C191.748 14.3303 191.999 14.1926 192.225 14.0058C192.451 13.819 192.623 13.5682 192.741 13.2535L195.087 14.6548C194.88 15.1661 194.536 15.6037 194.054 15.9676C193.572 16.3314 193.026 16.6116 192.417 16.8083C191.807 16.9951 191.202 17.0886 190.603 17.0886C189.826 17.0886 189.113 16.9361 188.464 16.6313C187.825 16.3166 187.269 15.9036 186.797 15.3923C186.335 14.8711 185.976 14.291 185.72 13.6518C185.465 13.0028 185.337 12.344 185.337 11.6753Z" fill="white"/>
<path d="M198.592 6.52751L201.808 6.52751L205.141 17.0001H202.221L201.586 14.9498H198.799L198.179 17.0001H195.244L198.592 6.52751ZM201.129 13.0323L200.2 9.34477L199.226 13.0323L201.129 13.0323Z" fill="white"/>
<path d="M206.233 17.0001V6.52751H209.109V14.4925H213.858V17.0001L206.233 17.0001Z" fill="white"/>
<path d="M215.082 17.0001V6.52751L217.958 6.52751V17.0001H215.082Z" fill="white"/>
<path d="M219.985 17.0001V6.52751L224.011 6.52751C225.172 6.52751 226.14 6.76351 226.917 7.23551C227.704 7.69768 228.294 8.32702 228.687 9.12352C229.09 9.91019 229.292 10.7854 229.292 11.749C229.292 12.811 229.071 13.7354 228.628 14.522C228.196 15.3087 227.581 15.9184 226.784 16.3511C225.998 16.7837 225.073 17.0001 224.011 17.0001H219.985ZM226.371 11.749C226.371 11.2082 226.278 10.7362 226.091 10.333C225.904 9.92002 225.634 9.60044 225.28 9.37427C224.926 9.1481 224.503 9.03502 224.011 9.03502H222.861V14.4925H224.011C224.513 14.4925 224.936 14.3745 225.28 14.1385C225.634 13.9025 225.904 13.578 226.091 13.165C226.278 12.7422 226.371 12.2702 226.371 11.749Z" fill="white"/>
<path d="M232.751 6.52751L235.967 6.52751L239.3 17.0001H236.38L235.745 14.9498H232.958L232.338 17.0001H229.403L232.751 6.52751ZM235.288 13.0323L234.359 9.34477L233.385 13.0323H235.288Z" fill="white"/>
<path d="M240.392 17.0001V6.52751L244.418 6.52751C245.579 6.52751 246.547 6.76351 247.324 7.23551C248.111 7.69768 248.701 8.32702 249.094 9.12352C249.497 9.91019 249.699 10.7854 249.699 11.749C249.699 12.811 249.478 13.7354 249.035 14.522C248.603 15.3087 247.988 15.9184 247.191 16.3511C246.405 16.7837 245.48 17.0001 244.418 17.0001H240.392ZM246.778 11.749C246.778 11.2082 246.685 10.7362 246.498 10.333C246.311 9.92002 246.041 9.60044 245.687 9.37427C245.333 9.1481 244.91 9.03502 244.418 9.03502H243.268V14.4925H244.418C244.92 14.4925 245.343 14.3745 245.687 14.1385C246.041 13.9025 246.311 13.578 246.498 13.165C246.685 12.7422 246.778 12.2702 246.778 11.749Z" fill="white"/>
<path d="M14.9004 42.0001L14.9004 31.5275H18.9272C20.0875 31.5275 21.0561 31.7635 21.8329 32.2355C22.6196 32.6977 23.2096 33.327 23.6029 34.1235C24.0061 34.9102 24.2077 35.7854 24.2077 36.749C24.2077 37.811 23.9864 38.7354 23.5439 39.522C23.1113 40.3087 22.4967 40.9184 21.7002 41.3511C20.9135 41.7837 19.9892 42.0001 18.9272 42.0001H14.9004ZM21.2872 36.749C21.2872 36.2082 21.1938 35.7362 21.0069 35.333C20.8201 34.92 20.5497 34.6004 20.1957 34.3743C19.8417 34.1481 19.4188 34.035 18.9272 34.035H17.7767L17.7767 39.4925H18.9272C19.4287 39.4925 19.8515 39.3746 20.1957 39.1385C20.5497 38.9025 20.8201 38.578 21.0069 38.165C21.1938 37.7422 21.2872 37.2702 21.2872 36.749Z" fill="white"/>
<path d="M33.1436 39.4925L33.1436 42.0001H25.68L25.68 31.5275L33.0108 31.5275V34.035H28.5563L28.5563 35.51H32.3618V37.8405H28.5563V39.4925H33.1436Z" fill="white"/>
<path d="M39.7532 31.5275L41.8035 38.6813L43.8243 31.5275H46.848L43.2343 42.0001H40.3727L36.7147 31.5275H39.7532Z" fill="white"/>
<path d="M47.8639 42.0001V31.5275L50.7402 31.5275V42.0001H47.8639Z" fill="white"/>
<path d="M52.7666 42.0001V31.5275H56.7934C57.9537 31.5275 58.9223 31.7635 59.6991 32.2355C60.4858 32.6977 61.0758 33.327 61.4692 34.1235C61.8723 34.9102 62.0739 35.7854 62.0739 36.749C62.0739 37.811 61.8527 38.7354 61.4102 39.522C60.9775 40.3087 60.3629 40.9184 59.5664 41.3511C58.7797 41.7837 57.8554 42.0001 56.7934 42.0001H52.7666ZM59.1534 36.749C59.1534 36.2082 59.06 35.7362 58.8731 35.333C58.6863 34.92 58.4159 34.6004 58.0619 34.3743C57.7079 34.1481 57.285 34.035 56.7934 34.035H55.6429V39.4925H56.7934C57.2949 39.4925 57.7177 39.3746 58.0619 39.1385C58.4159 38.9025 58.6863 38.578 58.8731 38.165C59.06 37.7422 59.1534 37.2702 59.1534 36.749Z" fill="white"/>
<path d="M65.5331 31.5275H68.7487L72.0822 42.0001H69.1617L68.5274 39.9498H65.7397L65.1201 42.0001H62.1849L65.5331 31.5275ZM68.0702 38.0323L67.1409 34.3448L66.1674 38.0323H68.0702Z" fill="white"/>
<path d="M76.2613 42.0001V31.5275H80.2881C81.4484 31.5275 82.417 31.7635 83.1938 32.2355C83.9805 32.6977 84.5705 33.327 84.9638 34.1235C85.367 34.9102 85.5686 35.7854 85.5686 36.749C85.5686 37.811 85.3473 38.7354 84.9048 39.522C84.4722 40.3087 83.8576 40.9184 83.0611 41.3511C82.2744 41.7837 81.3501 42.0001 80.2881 42.0001H76.2613ZM82.6481 36.749C82.6481 36.2082 82.5547 35.7362 82.3678 35.333C82.181 34.92 81.9106 34.6004 81.5566 34.3743C81.2026 34.1481 80.7797 34.035 80.2881 34.035H79.1376V39.4925H80.2881C80.7896 39.4925 81.2124 39.3746 81.5566 39.1385C81.9106 38.9025 82.181 38.578 82.3678 38.165C82.5547 37.7422 82.6481 37.2702 82.6481 36.749Z" fill="white"/>
<path d="M94.5045 39.4925V42.0001H87.041V31.5275L94.3717 31.5275V34.035H89.9172V35.51H93.7227V37.8405H89.9172V39.4925H94.5045Z" fill="white"/>
<path d="M99.5975 42.0001V31.5275H102.474V39.4925H107.223V42.0001H99.5975Z" fill="white"/>
<path d="M110.866 31.5275H114.082L117.415 42.0001H114.495L113.86 39.9498H111.073L110.453 42.0001H107.518L110.866 31.5275ZM113.403 38.0323L112.474 34.3448L111.5 38.0323H113.403Z" fill="white"/>
<path d="M124.734 34.9495C124.734 34.9495 124.65 34.9004 124.483 34.802C124.316 34.7037 124.095 34.5955 123.819 34.4775C123.544 34.3497 123.244 34.2366 122.919 34.1383C122.595 34.0399 122.275 33.9908 121.961 33.9908C121.715 33.9908 121.513 34.0301 121.356 34.1088C121.199 34.1874 121.12 34.3202 121.12 34.507C121.12 34.684 121.199 34.8266 121.356 34.9348C121.513 35.0429 121.735 35.1413 122.02 35.2298C122.315 35.3183 122.664 35.4264 123.067 35.5543C123.716 35.7509 124.276 35.9771 124.748 36.2328C125.22 36.4885 125.584 36.8179 125.84 37.221C126.096 37.6144 126.224 38.1405 126.224 38.7993C126.224 39.4286 126.11 39.9596 125.884 40.3923C125.658 40.8151 125.353 41.1544 124.97 41.4101C124.586 41.6657 124.158 41.8526 123.686 41.9706C123.214 42.0787 122.733 42.1328 122.241 42.1328C121.739 42.1328 121.213 42.0836 120.663 41.9853C120.122 41.8771 119.596 41.7346 119.084 41.5576C118.573 41.3707 118.106 41.1544 117.683 40.9086L118.922 38.3863C118.922 38.3863 119.021 38.4453 119.217 38.5633C119.414 38.6813 119.674 38.814 119.999 38.9615C120.323 39.109 120.682 39.2418 121.076 39.3598C121.479 39.4778 121.882 39.5368 122.285 39.5368C122.6 39.5368 122.816 39.4975 122.934 39.4188C123.062 39.3303 123.126 39.2172 123.126 39.0795C123.126 38.873 123.018 38.7157 122.801 38.6075C122.585 38.4895 122.3 38.3814 121.946 38.283C121.602 38.1749 121.218 38.052 120.795 37.9143C120.186 37.7078 119.684 37.4767 119.291 37.221C118.898 36.9555 118.608 36.6458 118.421 36.2918C118.234 35.9279 118.14 35.4904 118.14 34.979C118.14 34.2022 118.322 33.5532 118.686 33.032C119.05 32.5108 119.527 32.1175 120.117 31.852C120.717 31.5767 121.361 31.439 122.049 31.439C122.561 31.439 123.052 31.5029 123.524 31.6308C124.006 31.7488 124.453 31.8963 124.866 32.0733C125.289 32.2503 125.658 32.4174 125.973 32.5748L124.734 34.9495Z" fill="white"/>
<path d="M131.25 42.0001V31.5275H135.764C136.275 31.5275 136.747 31.6308 137.18 31.8373C137.612 32.0438 137.986 32.324 138.301 32.678C138.615 33.0222 138.856 33.4106 139.024 33.8433C139.201 34.2759 139.289 34.7135 139.289 35.156C139.289 35.7755 139.142 36.3606 138.847 36.9113C138.561 37.462 138.158 37.9143 137.637 38.2683C137.126 38.6125 136.526 38.7845 135.838 38.7845H134.127V42.0001H131.25ZM134.127 36.277H135.646C135.764 36.277 135.877 36.2426 135.985 36.1738C136.093 36.1049 136.182 35.9869 136.251 35.8198C136.329 35.6526 136.369 35.4314 136.369 35.156C136.369 34.861 136.324 34.6349 136.236 34.4775C136.157 34.3104 136.054 34.1973 135.926 34.1383C135.808 34.0694 135.69 34.035 135.572 34.035H134.127V36.277Z" fill="white"/>
<path d="M148.125 39.4925V42.0001H140.662V31.5275H147.992V34.035H143.538V35.51H147.343V37.8405H143.538V39.4925H148.125Z" fill="white"/>
<path d="M149.684 42.0001V31.5275H154.492C155.004 31.5275 155.476 31.6308 155.908 31.8373C156.341 32.0438 156.715 32.324 157.029 32.678C157.344 33.0222 157.585 33.4106 157.752 33.8433C157.929 34.2759 158.018 34.7135 158.018 35.156C158.018 35.5592 157.959 35.9476 157.841 36.3213C157.723 36.695 157.551 37.0391 157.324 37.3538C157.098 37.6586 156.828 37.9241 156.513 38.1503L158.726 42.0001H155.569L153.725 38.7845H152.56V42.0001H149.684ZM152.56 36.277H154.374C154.492 36.277 154.605 36.2328 154.714 36.1443C154.822 36.0558 154.91 35.9279 154.979 35.7608C155.058 35.5936 155.097 35.392 155.097 35.156C155.097 34.9102 155.053 34.7086 154.964 34.5513C154.886 34.3841 154.782 34.2563 154.655 34.1678C154.537 34.0793 154.419 34.035 154.301 34.035H152.56V36.277Z" fill="white"/>
<path d="M166.201 34.9495C166.201 34.9495 166.117 34.9004 165.95 34.802C165.783 34.7037 165.562 34.5955 165.287 34.4775C165.011 34.3497 164.711 34.2366 164.387 34.1383C164.062 34.0399 163.743 33.9908 163.428 33.9908C163.182 33.9908 162.981 34.0301 162.823 34.1088C162.666 34.1874 162.587 34.3202 162.587 34.507C162.587 34.684 162.666 34.8266 162.823 34.9348C162.981 35.0429 163.202 35.1413 163.487 35.2298C163.782 35.3183 164.131 35.4264 164.534 35.5543C165.183 35.7509 165.744 35.9771 166.216 36.2328C166.688 36.4885 167.052 36.8179 167.307 37.221C167.563 37.6144 167.691 38.1405 167.691 38.7993C167.691 39.4286 167.578 39.9596 167.352 40.3923C167.125 40.8151 166.821 41.1544 166.437 41.4101C166.054 41.6657 165.626 41.8526 165.154 41.9706C164.682 42.0787 164.2 42.1328 163.708 42.1328C163.207 42.1328 162.681 42.0836 162.13 41.9853C161.589 41.8771 161.063 41.7346 160.552 41.5576C160.04 41.3707 159.573 41.1544 159.151 40.9086L160.39 38.3863C160.39 38.3863 160.488 38.4453 160.685 38.5633C160.881 38.6813 161.142 38.814 161.466 38.9615C161.791 39.109 162.15 39.2418 162.543 39.3598C162.946 39.4778 163.349 39.5368 163.753 39.5368C164.067 39.5368 164.284 39.4975 164.402 39.4188C164.529 39.3303 164.593 39.2172 164.593 39.0795C164.593 38.873 164.485 38.7157 164.269 38.6075C164.052 38.4895 163.767 38.3814 163.413 38.283C163.069 38.1749 162.686 38.052 162.263 37.9143C161.653 37.7078 161.152 37.4767 160.758 37.221C160.365 36.9555 160.075 36.6458 159.888 36.2918C159.701 35.9279 159.608 35.4904 159.608 34.979C159.608 34.2022 159.79 33.5532 160.154 33.032C160.517 32.5108 160.994 32.1175 161.584 31.852C162.184 31.5767 162.828 31.439 163.517 31.439C164.028 31.439 164.52 31.5029 164.992 31.6308C165.473 31.7488 165.921 31.8963 166.334 32.0733C166.757 32.2503 167.125 32.4174 167.44 32.5748L166.201 34.9495Z" fill="white"/>
<path d="M173.903 42.0886C173.107 42.0886 172.384 41.9411 171.735 41.6461C171.086 41.3412 170.526 40.9381 170.054 40.4366C169.591 39.9252 169.233 39.3549 168.977 38.7255C168.731 38.0864 168.608 37.4275 168.608 36.749C168.608 36.0509 168.741 35.3871 169.006 34.7578C169.272 34.1284 169.641 33.5679 170.113 33.0763C170.594 32.5748 171.16 32.1814 171.809 31.8963C172.468 31.6111 173.186 31.4685 173.962 31.4685C174.759 31.4685 175.482 31.6209 176.131 31.9258C176.78 32.2208 177.335 32.6239 177.797 33.1353C178.26 33.6466 178.614 34.2219 178.859 34.861C179.115 35.4904 179.243 36.1394 179.243 36.808C179.243 37.4964 179.11 38.1552 178.845 38.7845C178.589 39.4139 178.22 39.9793 177.738 40.4808C177.266 40.9725 176.706 41.3658 176.057 41.6608C175.408 41.946 174.69 42.0886 173.903 42.0886ZM171.529 36.7785C171.529 37.1325 171.578 37.4767 171.676 37.811C171.774 38.1355 171.922 38.4305 172.119 38.696C172.315 38.9517 172.561 39.1582 172.856 39.3156C173.161 39.4631 173.52 39.5368 173.933 39.5368C174.346 39.5368 174.705 39.4581 175.01 39.3008C175.314 39.1435 175.56 38.932 175.747 38.6665C175.944 38.3912 176.086 38.0913 176.175 37.7668C176.273 37.4325 176.322 37.0932 176.322 36.749C176.322 36.395 176.273 36.0558 176.175 35.7313C176.077 35.4068 175.929 35.1167 175.732 34.861C175.536 34.5955 175.285 34.389 174.98 34.2415C174.675 34.094 174.321 34.0203 173.918 34.0203C173.505 34.0203 173.146 34.0989 172.841 34.2563C172.546 34.4136 172.301 34.625 172.104 34.8905C171.907 35.1462 171.76 35.4412 171.661 35.7755C171.573 36.1 171.529 36.4344 171.529 36.7785Z" fill="white"/>
<path d="M183.559 36.8523V42.0001H180.683V31.5275H182.925L187.129 36.8523V31.5275H190.005V42.0001H187.719L183.559 36.8523Z" fill="white"/>
<path d="M194.444 31.5275H197.659L200.993 42.0001H198.072L197.438 39.9498H194.65L194.031 42.0001H191.095L194.444 31.5275ZM196.981 38.0323L196.051 34.3448L195.078 38.0323H196.981Z" fill="white"/>
<path d="M208.311 34.9495C208.311 34.9495 208.228 34.9004 208.061 34.802C207.893 34.7037 207.672 34.5955 207.397 34.4775C207.122 34.3497 206.822 34.2366 206.497 34.1383C206.173 34.0399 205.853 33.9908 205.538 33.9908C205.293 33.9908 205.091 34.0301 204.934 34.1088C204.776 34.1874 204.698 34.3202 204.698 34.507C204.698 34.684 204.776 34.8266 204.934 34.9348C205.091 35.0429 205.312 35.1413 205.597 35.2298C205.892 35.3183 206.241 35.4264 206.645 35.5543C207.294 35.7509 207.854 35.9771 208.326 36.2328C208.798 36.4885 209.162 36.8179 209.418 37.221C209.673 37.6144 209.801 38.1405 209.801 38.7993C209.801 39.4286 209.688 39.9596 209.462 40.3923C209.236 40.8151 208.931 41.1544 208.547 41.4101C208.164 41.6657 207.736 41.8526 207.264 41.9706C206.792 42.0787 206.31 42.1328 205.819 42.1328C205.317 42.1328 204.791 42.0836 204.24 41.9853C203.7 41.8771 203.173 41.7346 202.662 41.5576C202.151 41.3707 201.684 41.1544 201.261 40.9086L202.5 38.3863C202.5 38.3863 202.598 38.4453 202.795 38.5633C202.992 38.6813 203.252 38.814 203.577 38.9615C203.901 39.109 204.26 39.2418 204.653 39.3598C205.057 39.4778 205.46 39.5368 205.863 39.5368C206.178 39.5368 206.394 39.4975 206.512 39.4188C206.64 39.3303 206.704 39.2172 206.704 39.0795C206.704 38.873 206.595 38.7157 206.379 38.6075C206.163 38.4895 205.878 38.3814 205.524 38.283C205.179 38.1749 204.796 38.052 204.373 37.9143C203.763 37.7078 203.262 37.4767 202.869 37.221C202.475 36.9555 202.185 36.6458 201.998 36.2918C201.812 35.9279 201.718 35.4904 201.718 34.979C201.718 34.2022 201.9 33.5532 202.264 33.032C202.628 32.5108 203.105 32.1175 203.695 31.852C204.294 31.5767 204.939 31.439 205.627 31.439C206.138 31.439 206.63 31.5029 207.102 31.6308C207.584 31.7488 208.031 31.8963 208.444 32.0733C208.867 32.2503 209.236 32.4174 209.55 32.5748L208.311 34.9495Z" fill="white"/>
<rect y="64" width="42" height="42" fill="#E0E0E0"/>
<rect x="46" y="64" width="41" height="42" fill="#BDBDBD"/>
<rect x="91" y="64" width="42" height="42" fill="#828282"/>
<rect x="137" y="64" width="42" height="42" fill="#4F4F4F"/>
<rect x="183" y="64" width="41" height="42" fill="#333333"/>
<rect x="228" y="64" width="42" height="42" fill="black"/>
<path d="M249.5 106L267.254 119.5H231.746L249.5 106Z" fill="black"/>
<path d="M254.439 87.1999C254.439 86.3066 254.219 85.5133 253.779 84.8199C253.353 84.1133 252.759 83.5599 251.999 83.1599C251.253 82.7466 250.399 82.5399 249.439 82.5399C249.133 82.5399 248.846 82.5666 248.579 82.6199C248.313 82.6599 248.073 82.7333 247.859 82.8399C247.646 82.9333 247.453 83.0599 247.279 83.2199C247.306 82.7399 247.406 82.3333 247.579 81.9999C247.753 81.6666 247.999 81.4133 248.319 81.2399C248.639 81.0533 249.013 80.9599 249.439 80.9599C249.893 80.9599 250.333 81.0533 250.759 81.2399C251.186 81.4266 251.573 81.6933 251.919 82.0399L254.019 79.5999C253.393 78.9733 252.699 78.4999 251.939 78.1799C251.179 77.8466 250.366 77.6799 249.499 77.6799C248.313 77.6799 247.293 77.9799 246.439 78.5799C245.586 79.1799 244.926 80.0466 244.459 81.1799C244.006 82.2999 243.779 83.6399 243.779 85.1999C243.779 86.6799 243.986 87.9399 244.399 88.9799C244.826 90.0199 245.433 90.8199 246.219 91.3799C247.019 91.9266 247.986 92.1999 249.119 92.1999C250.133 92.1999 251.039 91.9799 251.839 91.5399C252.639 91.0866 253.273 90.4866 253.739 89.7399C254.206 88.9799 254.439 88.1333 254.439 87.1999ZM249.119 89.0199C248.826 89.0199 248.546 88.9399 248.279 88.7799C248.026 88.6066 247.819 88.3799 247.659 88.0999C247.499 87.8199 247.419 87.5199 247.419 87.1999C247.419 86.8799 247.493 86.5933 247.639 86.3399C247.799 86.0866 248.006 85.8866 248.259 85.7399C248.526 85.5933 248.813 85.5199 249.119 85.5199C249.439 85.5199 249.726 85.5933 249.979 85.7399C250.233 85.8866 250.433 86.0866 250.579 86.3399C250.739 86.5933 250.819 86.8799 250.819 87.1999C250.819 87.5199 250.739 87.8199 250.579 88.0999C250.419 88.3799 250.213 88.6066 249.959 88.7799C249.706 88.9399 249.426 89.0199 249.119 89.0199Z" fill="white"/>
</svg>
