<svg width="520" height="113" viewBox="0 0 520 113" fill="none" xmlns="http://www.w3.org/2000/svg">
<path d="M1.44214 111.43V59.7264H15.6423V99.05H39.0908V111.43H1.44214Z" fill="white"/>
<path d="M58.1672 59.7264H74.0423L90.4999 111.43H76.0813L72.95 101.307H59.1867L56.1282 111.43H41.6367L58.1672 59.7264ZM70.6925 91.8407L66.1047 73.6353L61.2985 91.8407H70.6925Z" fill="white"/>
<path d="M127.725 76.621C127.725 76.621 127.312 76.3783 126.487 75.8928C125.662 75.4073 124.569 74.8733 123.21 74.2907C121.851 73.6596 120.37 73.1013 118.768 72.6158C117.166 72.1304 115.588 71.8876 114.034 71.8876C112.821 71.8876 111.825 72.0818 111.049 72.4702C110.272 72.8586 109.884 73.514 109.884 74.4364C109.884 75.3102 110.272 76.0142 111.049 76.5482C111.825 77.0822 112.918 77.5677 114.326 78.0046C115.782 78.4416 117.506 78.9756 119.496 79.6067C122.7 80.5776 125.467 81.6942 127.798 82.9565C130.128 84.2187 131.924 85.8451 133.186 87.8355C134.449 89.7774 135.08 92.3747 135.08 95.6274C135.08 98.7345 134.521 101.356 133.405 103.492C132.288 105.58 130.783 107.255 128.89 108.517C126.997 109.779 124.885 110.701 122.554 111.284C120.224 111.818 117.845 112.085 115.418 112.085C112.942 112.085 110.345 111.842 107.626 111.357C104.956 110.823 102.359 110.119 99.8342 109.245C97.3097 108.323 95.0037 107.255 92.9161 106.041L99.0331 93.5884C99.0331 93.5884 99.5186 93.8797 100.49 94.4623C101.461 95.0448 102.747 95.7002 104.349 96.4285C105.951 97.1567 107.723 97.8121 109.665 98.3946C111.656 98.9772 113.646 99.2685 115.636 99.2685C117.19 99.2685 118.258 99.0743 118.841 98.6859C119.472 98.249 119.787 97.6907 119.787 97.011C119.787 95.9915 119.253 95.2148 118.185 94.6807C117.117 94.0982 115.709 93.5641 113.962 93.0787C112.262 92.5446 110.369 91.9378 108.281 91.2581C105.272 90.2386 102.796 89.0978 100.854 87.8355C98.9118 86.5247 97.4796 84.9955 96.5572 83.2478C95.6348 81.4515 95.1736 79.2911 95.1736 76.7667C95.1736 72.9314 96.0717 69.7273 97.868 67.1542C99.6643 64.5812 102.019 62.6393 104.932 61.3285C107.893 59.9692 111.073 59.2895 114.471 59.2895C116.996 59.2895 119.423 59.6051 121.753 60.2362C124.132 60.8188 126.341 61.547 128.38 62.4208C130.468 63.2947 132.288 64.12 133.842 64.8968L127.725 76.621Z" fill="white"/>
<path d="M176.282 86.015V111.43H162.082V59.7264H173.151L193.905 86.015V59.7264H208.105V111.43H196.818L176.282 86.015Z" fill="white"/>
<path d="M242.47 111.867C238.537 111.867 234.969 111.138 231.765 109.682C228.561 108.177 225.794 106.187 223.463 103.711C221.182 101.186 219.41 98.3704 218.147 95.2633C216.934 92.1077 216.327 88.855 216.327 85.5052C216.327 82.0584 216.982 78.7814 218.293 75.6743C219.604 72.5673 221.424 69.8001 223.755 67.3727C226.134 64.8968 228.925 62.9549 232.129 61.547C235.382 60.1391 238.926 59.4352 242.761 59.4352C246.693 59.4352 250.262 60.1876 253.466 61.6926C256.67 63.149 259.413 65.1395 261.695 67.664C263.976 70.1885 265.724 73.0285 266.938 76.1841C268.2 79.2911 268.831 82.4953 268.831 85.7965C268.831 89.1949 268.176 92.4475 266.865 95.5546C265.603 98.6616 263.782 101.453 261.403 103.929C259.073 106.356 256.306 108.298 253.102 109.755C249.898 111.163 246.354 111.867 242.47 111.867ZM230.746 85.6509C230.746 87.3986 230.988 89.0978 231.474 90.7484C231.959 92.3505 232.687 93.8069 233.658 95.1177C234.629 96.3799 235.843 97.3994 237.299 98.1762C238.804 98.9044 240.576 99.2685 242.615 99.2685C244.654 99.2685 246.426 98.8801 247.931 98.1033C249.436 97.3266 250.65 96.2828 251.572 94.972C252.543 93.6127 253.247 92.132 253.684 90.5299C254.17 88.8793 254.413 87.2044 254.413 85.5052C254.413 83.7575 254.17 82.0826 253.684 80.4806C253.199 78.8785 252.471 77.4463 251.5 76.1841C250.529 74.8733 249.291 73.8538 247.786 73.1256C246.281 72.3974 244.533 72.0333 242.543 72.0333C240.504 72.0333 238.732 72.4216 237.227 73.1984C235.77 73.9752 234.557 75.0189 233.586 76.3297C232.615 77.592 231.886 79.0484 231.401 80.699C230.964 82.3011 230.746 83.9517 230.746 85.6509Z" fill="white"/>
<path d="M277.034 111.43V59.7264H300.774C303.299 59.7264 305.629 60.2362 307.765 61.2557C309.901 62.2752 311.746 63.6588 313.299 65.4065C314.853 67.1057 316.042 69.0233 316.868 71.1594C317.742 73.2955 318.178 75.4559 318.178 77.6405C318.178 79.631 317.887 81.5486 317.305 83.3934C316.722 85.2382 315.872 86.9374 314.756 88.4909C313.639 89.9959 312.304 91.3067 310.751 92.4233L321.674 111.43H306.09L296.987 95.5546H291.235V111.43H277.034ZM291.235 83.1749H300.192C300.774 83.1749 301.332 82.9565 301.866 82.5196C302.401 82.0826 302.837 81.4515 303.177 80.6262C303.566 79.8009 303.76 78.8057 303.76 77.6405C303.76 76.4268 303.541 75.4316 303.104 74.6548C302.716 73.8295 302.206 73.1984 301.575 72.7615C300.993 72.3246 300.41 72.1061 299.827 72.1061H291.235V83.1749Z" fill="white"/>
<path d="M367.464 111.43V84.1945L358.799 103.346H351.225L342.559 84.1945V111.43H328.359V59.7264H343.87L355.012 84.0488L366.226 59.7264H381.665V111.43H367.464Z" fill="white"/>
<path d="M404.641 59.7264H420.516L436.974 111.43H422.555L419.424 101.307H405.66L402.602 111.43H388.11L404.641 59.7264ZM417.166 91.8407L412.578 73.6353L407.772 91.8407H417.166Z" fill="white"/>
<path d="M474.198 76.621C474.198 76.621 473.786 76.3783 472.96 75.8928C472.135 75.4073 471.043 74.8733 469.684 74.2907C468.324 73.6596 466.843 73.1013 465.241 72.6158C463.639 72.1304 462.062 71.8876 460.508 71.8876C459.294 71.8876 458.299 72.0818 457.522 72.4702C456.746 72.8586 456.357 73.514 456.357 74.4364C456.357 75.3102 456.746 76.0142 457.522 76.5482C458.299 77.0822 459.391 77.5677 460.799 78.0046C462.256 78.4416 463.979 78.9756 465.97 79.6067C469.174 80.5776 471.941 81.6942 474.271 82.9565C476.602 84.2187 478.398 85.8451 479.66 87.8355C480.922 89.7774 481.553 92.3747 481.553 95.6274C481.553 98.7345 480.995 101.356 479.879 103.492C478.762 105.58 477.257 107.255 475.364 108.517C473.47 109.779 471.358 110.701 469.028 111.284C466.698 111.818 464.319 112.085 461.892 112.085C459.416 112.085 456.818 111.842 454.1 111.357C451.43 110.823 448.832 110.119 446.308 109.245C443.783 108.323 441.477 107.255 439.39 106.041L445.507 93.5884C445.507 93.5884 445.992 93.8797 446.963 94.4623C447.934 95.0448 449.221 95.7002 450.823 96.4285C452.425 97.1567 454.197 97.8121 456.139 98.3946C458.129 98.9772 460.12 99.2685 462.11 99.2685C463.664 99.2685 464.732 99.0743 465.314 98.6859C465.945 98.249 466.261 97.6907 466.261 97.011C466.261 95.9915 465.727 95.2148 464.659 94.6807C463.591 94.0982 462.183 93.5641 460.435 93.0787C458.736 92.5446 456.843 91.9378 454.755 91.2581C451.745 90.2386 449.269 89.0978 447.327 87.8355C445.385 86.5247 443.953 84.9955 443.031 83.2478C442.108 81.4515 441.647 79.2911 441.647 76.7667C441.647 72.9314 442.545 69.7273 444.342 67.1542C446.138 64.5812 448.492 62.6393 451.405 61.3285C454.367 59.9692 457.547 59.2895 460.945 59.2895C463.469 59.2895 465.897 59.6051 468.227 60.2362C470.606 60.8188 472.815 61.547 474.854 62.4208C476.941 63.2947 478.762 64.12 480.315 64.8968L474.198 76.621Z" fill="white"/>
<path d="M492.49 92.5689C492.49 91.161 492.587 89.826 492.782 88.5637C493.024 87.3015 493.558 86.1121 494.384 84.9955C495.209 83.8303 496.495 82.7866 498.243 81.8642C498.777 81.5729 499.53 81.1845 500.501 80.699C501.52 80.2135 502.54 79.631 503.559 78.9513C504.579 78.2716 505.428 77.5192 506.108 76.6938C506.836 75.82 507.2 74.8733 507.2 73.8538C507.2 73.1256 506.982 72.4945 506.545 71.9604C506.156 71.3779 505.622 70.9409 504.943 70.6497C504.312 70.3584 503.608 70.2127 502.831 70.2127C501.666 70.2127 500.695 70.504 499.918 71.0866C499.19 71.6206 498.583 72.2517 498.098 72.9799C497.661 73.6596 497.248 74.2422 496.86 74.7277L488.048 68.465C488.873 66.4746 490.039 64.7997 491.544 63.4403C493.049 62.0325 494.796 60.9644 496.787 60.2362C498.826 59.4594 501.01 59.071 503.341 59.071C505.186 59.071 507.03 59.3381 508.875 59.8721C510.768 60.4061 512.492 61.2557 514.045 62.4208C515.599 63.586 516.837 65.1152 517.759 67.0086C518.73 68.9019 519.216 71.208 519.216 73.9266C519.216 75.0918 519.119 76.2084 518.924 77.2764C518.73 78.3445 518.39 79.364 517.905 80.3349C517.468 81.2573 516.861 82.1555 516.084 83.0293C515.356 83.8546 514.458 84.6314 513.39 85.3596C511.982 86.3305 510.526 87.1559 509.021 87.8355C507.564 88.5152 506.326 89.2191 505.307 89.9473C504.287 90.627 503.778 91.5009 503.778 92.5689H492.49ZM492.709 111.43V99.487H503.996V111.43H492.709Z" fill="white"/>
<path d="M192 0H517V44H192V0Z" fill="#CC0000"/>
<path d="M13.2396 26.4829C13.2396 27.1558 13.1795 27.8167 13.0594 28.4656C12.9632 29.0905 12.7109 29.6913 12.3023 30.2681C11.9178 30.8209 11.2809 31.3256 10.3917 31.7822C10.1273 31.9264 9.74277 32.1187 9.23807 32.359C8.7574 32.5994 8.26472 32.8878 7.76002 33.2242C7.25532 33.5607 6.82272 33.9452 6.46222 34.3778C6.12575 34.7864 5.95752 35.243 5.95752 35.7477C5.95752 36.1082 6.05365 36.4207 6.24592 36.685C6.46222 36.9494 6.72659 37.1537 7.03902 37.2979C7.37549 37.4661 7.73599 37.5502 8.12052 37.5502C8.69732 37.5502 9.16597 37.406 9.52647 37.1176C9.911 36.8533 10.2234 36.5408 10.4638 36.1803C10.7041 35.8198 10.9084 35.5314 11.0766 35.3151L15.4387 38.4154C15.0301 39.3768 14.4533 40.2059 13.7083 40.9029C12.9632 41.5998 12.086 42.1286 11.0766 42.4891C10.0912 42.8736 9.02177 43.0659 7.86817 43.0659C6.9549 43.0659 6.02962 42.9337 5.09232 42.6693C4.17906 42.4049 3.33789 41.9844 2.56882 41.4076C1.79976 40.8308 1.17489 40.0737 0.694227 39.1364C0.237594 38.1991 0.00927734 37.0575 0.00927734 35.7117C0.00927734 35.1349 0.057344 34.5821 0.153477 34.0534C0.24961 33.5246 0.405827 33.032 0.622127 32.5753C0.86246 32.0947 1.16288 31.65 1.52338 31.2415C1.90791 30.8089 2.36454 30.4123 2.89327 30.0518C3.59024 29.5712 4.29922 29.1626 5.02022 28.8261C5.76525 28.4897 6.39012 28.1532 6.89482 27.8167C7.39952 27.4562 7.65187 27.0116 7.65187 26.4829H13.2396ZM13.1315 17.1459V23.0581H7.54372V17.1459H13.1315Z" fill="white"/>
<path d="M18.4418 22.3732C18.4418 20.811 18.7302 19.2849 19.307 17.7948C19.9078 16.2807 20.773 14.9108 21.9026 13.6851C23.0321 12.4594 24.402 11.4861 26.0123 10.7651C27.6465 10.0201 29.4851 9.64755 31.5279 9.64755C33.9793 9.64755 36.1183 10.1643 37.9448 11.1977C39.7713 12.2071 41.1292 13.553 42.0185 15.2353L36.647 19.0566C36.3346 18.2154 35.878 17.5665 35.2771 17.1099C34.7003 16.6533 34.0634 16.3408 33.3665 16.1726C32.6935 15.9803 32.0326 15.8842 31.3837 15.8842C30.3743 15.8842 29.4971 16.0885 28.7521 16.497C28.0311 16.8816 27.4302 17.3983 26.9496 18.0472C26.4929 18.6961 26.1445 19.4171 25.9041 20.2102C25.6878 21.0033 25.5797 21.7964 25.5797 22.5895C25.5797 23.4787 25.7119 24.3319 25.9762 25.149C26.2406 25.9662 26.6251 26.6992 27.1298 27.3481C27.6345 27.9729 28.2474 28.4656 28.9684 28.8261C29.7134 29.1866 30.5426 29.3669 31.4558 29.3669C32.1047 29.3669 32.7656 29.2707 33.4386 29.0785C34.1115 28.8622 34.7244 28.5257 35.2771 28.0691C35.8299 27.6124 36.2505 26.9996 36.5389 26.2305L42.2708 29.6553C41.7661 30.905 40.9249 31.9745 39.7473 32.8637C38.5697 33.753 37.2358 34.4379 35.7458 34.9186C34.2557 35.3752 32.7777 35.6035 31.3116 35.6035C29.413 35.6035 27.6706 35.231 26.0844 34.486C24.5222 33.7169 23.1643 32.7075 22.0107 31.4578C20.8812 30.184 20.004 28.766 19.3791 27.2039C18.7542 25.6177 18.4418 24.0075 18.4418 22.3732Z" fill="white"/>
<path d="M57.0031 35.6035C55.0564 35.6035 53.29 35.243 51.7038 34.522C50.1176 33.777 48.7477 32.7916 47.5941 31.5659C46.4645 30.3162 45.5873 28.9223 44.9624 27.3841C44.3616 25.822 44.0612 24.2117 44.0612 22.5534C44.0612 20.8471 44.3856 19.2248 45.0345 17.6867C45.6834 16.1486 46.5847 14.7787 47.7383 13.577C48.9159 12.3513 50.2978 11.39 51.884 10.693C53.4943 9.99603 55.2487 9.64755 57.1473 9.64755C59.094 9.64755 60.8605 10.0201 62.4467 10.7651C64.0329 11.4861 65.3908 12.4715 66.5203 13.7212C67.6499 14.9709 68.5151 16.3769 69.1159 17.939C69.7408 19.4772 70.0532 21.0634 70.0532 22.6976C70.0532 24.38 69.7288 25.9902 69.0799 27.5283C68.455 29.0665 67.5538 30.4484 66.3761 31.6741C65.2225 32.8757 63.8526 33.8371 62.2664 34.5581C60.6802 35.255 58.9258 35.6035 57.0031 35.6035ZM51.1991 22.6255C51.1991 23.4907 51.3193 24.3319 51.5596 25.149C51.7999 25.9421 52.1604 26.6631 52.6411 27.312C53.1218 27.9369 53.7226 28.4416 54.4436 28.8261C55.1886 29.1866 56.0658 29.3669 57.0752 29.3669C58.0846 29.3669 58.9618 29.1746 59.7069 28.7901C60.4519 28.4055 61.0527 27.8888 61.5094 27.2399C61.99 26.567 62.3385 25.834 62.5548 25.0409C62.7952 24.2238 62.9153 23.3946 62.9153 22.5534C62.9153 21.6882 62.7952 20.8591 62.5548 20.066C62.3145 19.2729 61.954 18.5639 61.4733 17.939C60.9927 17.2901 60.3798 16.7854 59.6348 16.4249C58.8897 16.0644 58.0245 15.8842 57.0392 15.8842C56.0298 15.8842 55.1526 16.0765 54.4075 16.461C53.6865 16.8455 53.0857 17.3622 52.605 18.0111C52.1244 18.636 51.7639 19.357 51.5235 20.1741C51.3072 20.9672 51.1991 21.7844 51.1991 22.6255ZM59.3103 8.71025L54.9843 7.55666L56.7868 2.43756H62.8793L59.3103 8.71025Z" fill="white"/>
<path d="M93.473 35.3872V21.9045L89.1831 31.3857H85.4339L81.1439 21.9045V35.3872H74.1142V9.79175H81.7928L87.3085 21.8324L92.8602 9.79175H100.503V35.3872H93.473Z" fill="white"/>
<path d="M117.501 35.6035C115.554 35.6035 113.788 35.243 112.202 34.522C110.615 33.777 109.245 32.7916 108.092 31.5659C106.962 30.3162 106.085 28.9223 105.46 27.3841C104.859 25.822 104.559 24.2117 104.559 22.5534C104.559 20.8471 104.883 19.2248 105.532 17.6867C106.181 16.1486 107.082 14.7787 108.236 13.577C109.414 12.3513 110.796 11.39 112.382 10.693C113.992 9.99603 115.746 9.64755 117.645 9.64755C119.592 9.64755 121.358 10.0201 122.944 10.7651C124.531 11.4861 125.889 12.4715 127.018 13.7212C128.148 14.9709 129.013 16.3769 129.614 17.939C130.239 19.4772 130.551 21.0634 130.551 22.6976C130.551 24.38 130.227 25.9902 129.578 27.5283C128.953 29.0665 128.051 30.4484 126.874 31.6741C125.72 32.8757 124.35 33.8371 122.764 34.5581C121.178 35.255 119.424 35.6035 117.501 35.6035ZM111.697 22.6255C111.697 23.4907 111.817 24.3319 112.057 25.149C112.298 25.9421 112.658 26.6631 113.139 27.312C113.619 27.9369 114.22 28.4416 114.941 28.8261C115.686 29.1866 116.564 29.3669 117.573 29.3669C118.582 29.3669 119.46 29.1746 120.205 28.7901C120.95 28.4055 121.55 27.8888 122.007 27.2399C122.488 26.567 122.836 25.834 123.053 25.0409C123.293 24.2238 123.413 23.3946 123.413 22.5534C123.413 21.6882 123.293 20.8591 123.053 20.066C122.812 19.2729 122.452 18.5639 121.971 17.939C121.49 17.2901 120.878 16.7854 120.133 16.4249C119.387 16.0644 118.522 15.8842 117.537 15.8842C116.528 15.8842 115.65 16.0765 114.905 16.461C114.184 16.8455 113.583 17.3622 113.103 18.0111C112.622 18.636 112.262 19.357 112.021 20.1741C111.805 20.9672 111.697 21.7844 111.697 22.6255Z" fill="white"/>
<path d="M159.292 18.1553C159.292 18.1553 159.088 18.0352 158.679 17.7948C158.271 17.5545 157.73 17.2901 157.057 17.0017C156.384 16.6893 155.651 16.4129 154.858 16.1726C154.065 15.9323 153.284 15.8121 152.515 15.8121C151.914 15.8121 151.421 15.9082 151.037 16.1005C150.652 16.2928 150.46 16.6172 150.46 17.0738C150.46 17.5064 150.652 17.8549 151.037 18.1193C151.421 18.3837 151.962 18.624 152.659 18.8403C153.38 19.0566 154.233 19.321 155.218 19.6334C156.805 20.1141 158.175 20.6668 159.328 21.2917C160.482 21.9166 161.371 22.7217 161.996 23.707C162.621 24.6684 162.933 25.9541 162.933 27.5644C162.933 29.1025 162.657 30.4003 162.104 31.4578C161.551 32.4912 160.806 33.3204 159.869 33.9452C158.932 34.5701 157.886 35.0267 156.733 35.3151C155.579 35.5795 154.401 35.7117 153.2 35.7117C151.974 35.7117 150.688 35.5915 149.342 35.3512C148.02 35.0868 146.735 34.7383 145.485 34.3057C144.235 33.8491 143.094 33.3204 142.06 32.7195L145.088 26.555C145.088 26.555 145.329 26.6992 145.809 26.9876C146.29 27.276 146.927 27.6004 147.72 27.9609C148.513 28.3214 149.39 28.6459 150.352 28.9343C151.337 29.2227 152.322 29.3669 153.308 29.3669C154.077 29.3669 154.606 29.2707 154.894 29.0785C155.206 28.8622 155.363 28.5858 155.363 28.2493C155.363 27.7446 155.098 27.3601 154.57 27.0957C154.041 26.8073 153.344 26.543 152.479 26.3026C151.637 26.0383 150.7 25.7379 149.667 25.4014C148.177 24.8967 146.951 24.3319 145.99 23.707C145.028 23.0581 144.319 22.3011 143.863 21.4359C143.406 20.5467 143.178 19.4772 143.178 18.2274C143.178 16.3288 143.622 14.7426 144.512 13.4688C145.401 12.1951 146.566 11.2338 148.008 10.5849C149.474 9.91192 151.049 9.57545 152.731 9.57545C153.981 9.57545 155.182 9.73167 156.336 10.0441C157.514 10.3325 158.607 10.693 159.617 11.1256C160.65 11.5582 161.551 11.9668 162.32 12.3513L159.292 18.1553Z" fill="white"/>
<path d="M185.363 29.2587V35.3872H167.122V9.79175H185.038V15.9202H174.151V19.5252H183.452V25.2211H174.151V29.2587H185.363Z" fill="white"/>
<path d="M197.486 22.3732C197.486 20.811 197.775 19.2849 198.351 17.7948C198.952 16.2807 199.817 14.9108 200.947 13.6851C202.077 12.4594 203.446 11.4861 205.057 10.7651C206.691 10.0201 208.529 9.64755 210.572 9.64755C213.024 9.64755 215.163 10.1643 216.989 11.1977C218.816 12.2071 220.174 13.553 221.063 15.2353L215.691 19.0566C215.379 18.2154 214.922 17.5665 214.321 17.1099C213.745 16.6533 213.108 16.3408 212.411 16.1726C211.738 15.9803 211.077 15.8842 210.428 15.8842C209.419 15.8842 208.541 16.0885 207.796 16.497C207.075 16.8816 206.475 17.3983 205.994 18.0472C205.537 18.6961 205.189 19.4171 204.949 20.2102C204.732 21.0033 204.624 21.7964 204.624 22.5895C204.624 23.4787 204.756 24.3319 205.021 25.149C205.285 25.9662 205.669 26.6992 206.174 27.3481C206.679 27.9729 207.292 28.4656 208.013 28.8261C208.758 29.1866 209.587 29.3669 210.5 29.3669C211.149 29.3669 211.81 29.2707 212.483 29.0785C213.156 28.8622 213.769 28.5257 214.321 28.0691C214.874 27.6124 215.295 26.9996 215.583 26.2305L221.315 29.6553C220.81 30.905 219.969 31.9745 218.792 32.8637C217.614 33.753 216.28 34.4379 214.79 34.9186C213.3 35.3752 211.822 35.6035 210.356 35.6035C208.457 35.6035 206.715 35.231 205.129 34.486C203.567 33.7169 202.209 32.7075 201.055 31.4578C199.926 30.184 199.048 28.766 198.423 27.2039C197.799 25.6177 197.486 24.0075 197.486 22.3732Z" fill="white"/>
<path d="M236.048 35.6035C234.101 35.6035 232.334 35.243 230.748 34.522C229.162 33.777 227.792 32.7916 226.638 31.5659C225.509 30.3162 224.632 28.9223 224.007 27.3841C223.406 25.822 223.106 24.2117 223.106 22.5534C223.106 20.8471 223.43 19.2248 224.079 17.6867C224.728 16.1486 225.629 14.7787 226.783 13.577C227.96 12.3513 229.342 11.39 230.928 10.693C232.539 9.99603 234.293 9.64755 236.192 9.64755C238.138 9.64755 239.905 10.0201 241.491 10.7651C243.077 11.4861 244.435 12.4715 245.565 13.7212C246.694 14.9709 247.559 16.3769 248.16 17.939C248.785 19.4772 249.098 21.0634 249.098 22.6976C249.098 24.38 248.773 25.9902 248.124 27.5283C247.499 29.0665 246.598 30.4484 245.42 31.6741C244.267 32.8757 242.897 33.8371 241.311 34.5581C239.725 35.255 237.97 35.6035 236.048 35.6035ZM230.243 22.6255C230.243 23.4907 230.364 24.3319 230.604 25.149C230.844 25.9421 231.205 26.6631 231.685 27.312C232.166 27.9369 232.767 28.4416 233.488 28.8261C234.233 29.1866 235.11 29.3669 236.12 29.3669C237.129 29.3669 238.006 29.1746 238.751 28.7901C239.496 28.4055 240.097 27.8888 240.554 27.2399C241.034 26.567 241.383 25.834 241.599 25.0409C241.84 24.2238 241.96 23.3946 241.96 22.5534C241.96 21.6882 241.84 20.8591 241.599 20.066C241.359 19.2729 240.998 18.5639 240.518 17.939C240.037 17.2901 239.424 16.7854 238.679 16.4249C237.934 16.0644 237.069 15.8842 236.084 15.8842C235.074 15.8842 234.197 16.0765 233.452 16.461C232.731 16.8455 232.13 17.3622 231.649 18.0111C231.169 18.636 230.808 19.357 230.568 20.1741C230.352 20.9672 230.243 21.7844 230.243 22.6255Z" fill="white"/>
<path d="M260.188 22.8058V35.3872H253.159V9.79175H258.638L268.912 22.8058V9.79175H275.942V35.3872H270.354L260.188 22.8058Z" fill="white"/>
<path d="M296.92 18.1553C296.92 18.1553 296.716 18.0352 296.307 17.7948C295.898 17.5545 295.358 17.2901 294.685 17.0017C294.012 16.6893 293.279 16.4129 292.486 16.1726C291.693 15.9323 290.911 15.8121 290.142 15.8121C289.542 15.8121 289.049 15.9082 288.664 16.1005C288.28 16.2928 288.088 16.6172 288.088 17.0738C288.088 17.5064 288.28 17.8549 288.664 18.1193C289.049 18.3837 289.59 18.624 290.287 18.8403C291.008 19.0566 291.861 19.321 292.846 19.6334C294.432 20.1141 295.802 20.6668 296.956 21.2917C298.109 21.9166 298.999 22.7217 299.624 23.707C300.248 24.6684 300.561 25.9541 300.561 27.5644C300.561 29.1025 300.284 30.4003 299.732 31.4578C299.179 32.4912 298.434 33.3204 297.497 33.9452C296.559 34.5701 295.514 35.0267 294.36 35.3151C293.207 35.5795 292.029 35.7117 290.827 35.7117C289.602 35.7117 288.316 35.5915 286.97 35.3512C285.648 35.0868 284.362 34.7383 283.113 34.3057C281.863 33.8491 280.721 33.3204 279.688 32.7195L282.716 26.555C282.716 26.555 282.956 26.6992 283.437 26.9876C283.918 27.276 284.555 27.6004 285.348 27.9609C286.141 28.3214 287.018 28.6459 287.979 28.9343C288.965 29.2227 289.95 29.3669 290.936 29.3669C291.705 29.3669 292.233 29.2707 292.522 29.0785C292.834 28.8622 292.99 28.5858 292.99 28.2493C292.99 27.7446 292.726 27.3601 292.197 27.0957C291.669 26.8073 290.972 26.543 290.106 26.3026C289.265 26.0383 288.328 25.7379 287.294 25.4014C285.804 24.8967 284.579 24.3319 283.617 23.707C282.656 23.0581 281.947 22.3011 281.49 21.4359C281.034 20.5467 280.806 19.4772 280.806 18.2274C280.806 16.3288 281.25 14.7426 282.139 13.4688C283.029 12.1951 284.194 11.2338 285.636 10.5849C287.102 9.91192 288.676 9.57545 290.359 9.57545C291.608 9.57545 292.81 9.73167 293.964 10.0441C295.141 10.3325 296.235 10.693 297.244 11.1256C298.278 11.5582 299.179 11.9668 299.948 12.3513L296.92 18.1553Z" fill="white"/>
<path d="M324.685 15.9202H317.331V35.3872H310.301V15.9202H302.911V9.79175H324.685V15.9202Z" fill="white"/>
<path d="M328.327 35.3872V9.79175H340.079C341.329 9.79175 342.483 10.0441 343.54 10.5488C344.598 11.0535 345.511 11.7384 346.28 12.6036C347.049 13.4448 347.638 14.3941 348.046 15.4516C348.479 16.5091 348.695 17.5785 348.695 18.66C348.695 19.6454 348.551 20.5947 348.263 21.508C347.974 22.4213 347.554 23.2624 347.001 24.0315C346.448 24.7765 345.787 25.4254 345.018 25.9782L350.426 35.3872H342.711L338.205 27.5283H335.357V35.3872H328.327ZM335.357 21.3998H339.791C340.079 21.3998 340.356 21.2917 340.62 21.0754C340.884 20.8591 341.101 20.5467 341.269 20.1381C341.461 19.7295 341.557 19.2368 341.557 18.66C341.557 18.0592 341.449 17.5665 341.233 17.182C341.041 16.7734 340.788 16.461 340.476 16.2447C340.187 16.0284 339.899 15.9202 339.611 15.9202H335.357V21.3998Z" fill="white"/>
<path d="M364.699 35.6035C362.657 35.6035 360.902 35.2671 359.436 34.5941C357.97 33.9212 356.768 32.9959 355.831 31.8183C354.918 30.6406 354.245 29.2948 353.812 27.7807C353.38 26.2426 353.163 24.6323 353.163 22.95V9.79175H360.193V22.95C360.193 23.7912 360.277 24.5963 360.445 25.3653C360.614 26.1344 360.878 26.8193 361.239 27.4202C361.599 28.021 362.056 28.5017 362.608 28.8622C363.185 29.1986 363.882 29.3669 364.699 29.3669C365.541 29.3669 366.25 29.1986 366.826 28.8622C367.403 28.5017 367.86 28.021 368.196 27.4202C368.557 26.7953 368.821 26.0984 368.989 25.3293C369.158 24.5602 369.242 23.7671 369.242 22.95V9.79175H376.271V22.95C376.271 24.7285 376.031 26.3867 375.55 27.9249C375.094 29.463 374.397 30.8089 373.46 31.9625C372.522 33.1161 371.321 34.0173 369.854 34.6662C368.412 35.2911 366.694 35.6035 364.699 35.6035Z" fill="white"/>
<path d="M386.588 9.79175L391.166 20.2462L395.852 9.79175H403.495L394.663 26.9155V35.3872H387.669V26.8434L378.981 9.79175H386.588Z" fill="white"/>
<path d="M424.729 29.2587V35.3872H406.488V9.79175H424.405V15.9202H413.517V19.5252H422.818V25.2211H413.517V29.2587H424.729Z" fill="white"/>
<path d="M429.08 35.3872V9.79175H440.832C442.082 9.79175 443.235 10.0441 444.293 10.5488C445.35 11.0535 446.263 11.7384 447.032 12.6036C447.801 13.4448 448.39 14.3941 448.799 15.4516C449.231 16.5091 449.448 17.5785 449.448 18.66C449.448 19.6454 449.304 20.5947 449.015 21.508C448.727 22.4213 448.306 23.2624 447.753 24.0315C447.201 24.7765 446.54 25.4254 445.771 25.9782L451.178 35.3872H443.463L438.957 27.5283H436.109V35.3872H429.08ZM436.109 21.3998H440.543C440.832 21.3998 441.108 21.2917 441.373 21.0754C441.637 20.8591 441.853 20.5467 442.021 20.1381C442.214 19.7295 442.31 19.2368 442.31 18.66C442.31 18.0592 442.202 17.5665 441.985 17.182C441.793 16.7734 441.541 16.461 441.228 16.2447C440.94 16.0284 440.652 15.9202 440.363 15.9202H436.109V21.3998Z" fill="white"/>
<path d="M465.707 35.6035C463.76 35.6035 461.994 35.243 460.408 34.522C458.821 33.777 457.451 32.7916 456.298 31.5659C455.168 30.3162 454.291 28.9223 453.666 27.3841C453.065 25.822 452.765 24.2117 452.765 22.5534C452.765 20.8471 453.089 19.2248 453.738 17.6867C454.387 16.1486 455.288 14.7787 456.442 13.577C457.62 12.3513 459.002 11.39 460.588 10.693C462.198 9.99603 463.952 9.64755 465.851 9.64755C467.798 9.64755 469.564 10.0201 471.15 10.7651C472.737 11.4861 474.094 12.4715 475.224 13.7212C476.354 14.9709 477.219 16.3769 477.82 17.939C478.444 19.4772 478.757 21.0634 478.757 22.6976C478.757 24.38 478.432 25.9902 477.784 27.5283C477.159 29.0665 476.257 30.4484 475.08 31.6741C473.926 32.8757 472.556 33.8371 470.97 34.5581C469.384 35.255 467.63 35.6035 465.707 35.6035ZM459.903 22.6255C459.903 23.4907 460.023 24.3319 460.263 25.149C460.504 25.9421 460.864 26.6631 461.345 27.312C461.825 27.9369 462.426 28.4416 463.147 28.8261C463.892 29.1866 464.77 29.3669 465.779 29.3669C466.788 29.3669 467.666 29.1746 468.411 28.7901C469.156 28.4055 469.756 27.8888 470.213 27.2399C470.694 26.567 471.042 25.834 471.259 25.0409C471.499 24.2238 471.619 23.3946 471.619 22.5534C471.619 21.6882 471.499 20.8591 471.259 20.066C471.018 19.2729 470.658 18.5639 470.177 17.939C469.696 17.2901 469.084 16.7854 468.338 16.4249C467.593 16.0644 466.728 15.8842 465.743 15.8842C464.733 15.8842 463.856 16.0765 463.111 16.461C462.39 16.8455 461.789 17.3622 461.309 18.0111C460.828 18.636 460.468 19.357 460.227 20.1741C460.011 20.9672 459.903 21.7844 459.903 22.6255Z" fill="white"/>
<path d="M489.848 22.8058V35.3872H482.818V9.79175H488.298L498.572 22.8058V9.79175H505.602V35.3872H500.014L489.848 22.8058Z" fill="white"/>
</svg>
