<svg width="303" height="117" viewBox="0 0 303 117" fill="none" xmlns="http://www.w3.org/2000/svg">
<path d="M3.03125 109.836L303 109.836V116.681L3.03125 116.681L3.03125 109.836Z" fill="#FFD700"/>
<path d="M0 0.695312H241V41.3133H0V0.695312Z" fill="#CC0000"/>
<path d="M32.474 26.8501V32.6953H15.0759V8.28303H32.1645V14.1282H21.7807V17.5666H30.6516V22.9992H21.7807V26.8501H32.474Z" fill="white"/>
<path d="M40.3024 8.28303L45.0817 24.959L49.7922 8.28303H56.8409L48.4169 32.6953H41.7465L33.2194 8.28303H40.3024Z" fill="white"/>
<path d="M62.3511 8.28303H69.8467L77.6174 32.6953H70.8094L69.3309 27.916H62.8325L61.3883 32.6953H54.546L62.3511 8.28303ZM68.265 23.4461L66.0989 14.8503L63.8296 23.4461H68.265Z" fill="white"/>
<path d="M79.6457 32.6953V8.28303H86.3505V26.8501H97.422V32.6953H79.6457Z" fill="white"/>
<path d="M110.048 32.9016C108.1 32.9016 106.427 32.5807 105.028 31.9389C103.63 31.297 102.484 30.4145 101.59 29.2913C100.719 28.1682 100.077 26.8845 99.6644 25.4404C99.2518 23.9734 99.0455 22.4376 99.0455 20.833V8.28303H105.75V20.833C105.75 21.6353 105.831 22.4032 105.991 23.1367C106.151 23.8702 106.404 24.5235 106.747 25.0966C107.091 25.6696 107.527 26.1281 108.054 26.4719C108.604 26.7928 109.269 26.9533 110.048 26.9533C110.851 26.9533 111.527 26.7928 112.077 26.4719C112.627 26.1281 113.063 25.6696 113.383 25.0966C113.727 24.5006 113.979 23.8358 114.14 23.1023C114.3 22.3688 114.381 21.6124 114.381 20.833V8.28303H121.085V20.833C121.085 22.5293 120.856 24.1109 120.398 25.5779C119.962 27.045 119.297 28.3286 118.403 29.4289C117.509 30.5292 116.363 31.3887 114.965 32.0076C113.59 32.6036 111.951 32.9016 110.048 32.9016Z" fill="white"/>
<path d="M129.641 8.28303H137.136L144.907 32.6953H138.099L136.62 27.916H130.122L128.678 32.6953H121.836L129.641 8.28303ZM135.555 23.4461L133.388 14.8503L131.119 23.4461H135.555Z" fill="white"/>
<path d="M144.587 20.2829C144.587 18.7929 144.862 17.3374 145.412 15.9162C145.985 14.4721 146.81 13.1655 147.888 11.9964C148.965 10.8274 150.272 9.89905 151.808 9.21139C153.366 8.50079 155.12 8.1455 157.068 8.1455C159.406 8.1455 161.446 8.63833 163.188 9.62399C164.931 10.5867 166.226 11.8704 167.074 13.4749L161.951 17.1196C161.653 16.3173 161.217 15.6984 160.644 15.2629C160.094 14.8274 159.486 14.5294 158.822 14.3689C158.18 14.1855 157.55 14.0938 156.931 14.0938C155.968 14.0938 155.131 14.2887 154.421 14.6784C153.733 15.0451 153.16 15.5379 152.701 16.1569C152.266 16.7758 151.934 17.4634 151.704 18.2199C151.498 18.9763 151.395 19.7327 151.395 20.4892C151.395 21.3373 151.521 22.151 151.773 22.9304C152.025 23.7098 152.392 24.4089 152.873 25.0278C153.355 25.6238 153.939 26.0937 154.627 26.4375C155.338 26.7814 156.128 26.9533 156.999 26.9533C157.618 26.9533 158.249 26.8616 158.891 26.6782C159.532 26.4719 160.117 26.151 160.644 25.7155C161.171 25.2799 161.572 24.6954 161.848 23.9619L167.314 27.2283C166.833 28.4203 166.031 29.4403 164.908 30.2885C163.784 31.1366 162.512 31.7899 161.091 32.2483C159.67 32.6838 158.26 32.9016 156.862 32.9016C155.051 32.9016 153.389 32.5463 151.876 31.8357C150.386 31.1022 149.091 30.1395 147.991 28.9475C146.914 27.7326 146.077 26.3802 145.481 24.8903C144.885 23.3774 144.587 21.8416 144.587 20.2829Z" fill="white"/>
<path d="M169.701 32.6953V8.28303H176.406V32.6953H169.701Z" fill="white"/>
<path d="M191.616 32.9016C189.76 32.9016 188.075 32.5578 186.562 31.8701C185.049 31.1595 183.743 30.2197 182.642 29.0507C181.565 27.8587 180.728 26.5292 180.132 25.0622C179.559 23.5722 179.273 22.0364 179.273 20.4548C179.273 18.8273 179.582 17.28 180.201 15.813C180.82 14.346 181.68 13.0394 182.78 11.8933C183.903 10.7243 185.221 9.80737 186.734 9.14262C188.27 8.47787 189.943 8.1455 191.754 8.1455C193.611 8.1455 195.295 8.50079 196.808 9.21139C198.321 9.89905 199.616 10.8389 200.694 12.0308C201.771 13.2228 202.596 14.5637 203.169 16.0537C203.765 17.5207 204.063 19.0336 204.063 20.5923C204.063 22.1969 203.754 23.7327 203.135 25.1997C202.539 26.6667 201.679 27.9848 200.556 29.1538C199.456 30.2999 198.149 31.2168 196.636 31.9045C195.123 32.5692 193.45 32.9016 191.616 32.9016ZM186.081 20.5236C186.081 21.3488 186.195 22.151 186.424 22.9304C186.654 23.6868 186.998 24.3745 187.456 24.9934C187.914 25.5894 188.487 26.0708 189.175 26.4375C189.886 26.7814 190.722 26.9533 191.685 26.9533C192.648 26.9533 193.485 26.7699 194.195 26.4031C194.906 26.0364 195.479 25.5435 195.914 24.9246C196.373 24.2828 196.705 23.5837 196.911 22.8272C197.141 22.0479 197.255 21.2571 197.255 20.4548C197.255 19.6296 197.141 18.8388 196.911 18.0823C196.682 17.3259 196.338 16.6497 195.88 16.0537C195.421 15.4348 194.837 14.9534 194.126 14.6096C193.416 14.2658 192.591 14.0938 191.651 14.0938C190.688 14.0938 189.851 14.2772 189.141 14.644C188.453 15.0107 187.88 15.5036 187.422 16.1225C186.963 16.7184 186.619 17.4061 186.39 18.1855C186.184 18.9419 186.081 19.7213 186.081 20.5236ZM193.817 7.25153L189.691 6.15126L191.41 1.2688H197.221L193.817 7.25153Z" fill="white"/>
<path d="M213.61 20.6955V32.6953H206.905V8.28303H212.131L221.931 20.6955V8.28303H228.635V32.6953H223.306L213.61 20.6955Z" fill="white"/>
<path d="M17.3864 77.0786V100.781H4.14282V52.5611H14.466L33.822 77.0786V52.5611H47.0656V100.781H36.5386L17.3864 77.0786Z" fill="black"/>
<path d="M79.1154 101.189C75.448 101.189 72.1201 100.51 69.1318 99.1513C66.1435 97.7477 63.5627 95.8913 61.3894 93.5822C59.2614 91.2277 57.6088 88.6017 56.4316 85.7039C55.2996 82.7609 54.7337 79.7274 54.7337 76.6032C54.7337 73.3886 55.3449 70.3323 56.5674 67.4346C57.7899 64.5369 59.4878 61.9561 61.6611 59.6922C63.8797 57.3831 66.4831 55.572 69.4714 54.2589C72.505 52.9459 75.8102 52.2894 79.3871 52.2894C83.0545 52.2894 86.3824 52.9912 89.3707 54.3948C92.359 55.7531 94.9172 57.6095 97.0452 59.9639C99.1732 62.3183 100.803 64.967 101.935 67.91C103.112 70.8078 103.701 73.796 103.701 76.8749C103.701 80.0443 103.09 83.0779 101.867 85.9756C100.69 88.8733 98.9921 91.4768 96.7735 93.7859C94.6002 96.0498 92.0194 97.8609 89.0311 99.2192C86.0428 100.532 82.7376 101.189 79.1154 101.189ZM68.181 76.7391C68.181 78.369 68.4074 79.9537 68.8601 81.4932C69.3129 82.9873 69.9921 84.3456 70.8976 85.5681C71.8032 86.7453 72.9351 87.6961 74.2934 88.4206C75.697 89.0997 77.3496 89.4393 79.2513 89.4393C81.1529 89.4393 82.8055 89.0771 84.2091 88.3526C85.6127 87.6282 86.7446 86.6548 87.6049 85.4323C88.5104 84.1645 89.167 82.7836 89.5744 81.2894C90.0272 79.75 90.2536 78.1879 90.2536 76.6032C90.2536 74.9733 90.0272 73.4112 89.5744 71.917C89.1217 70.4229 88.4425 69.0872 87.537 67.91C86.6314 66.6875 85.4769 65.7367 84.0733 65.0576C82.6697 64.3784 81.0397 64.0388 79.1833 64.0388C77.2817 64.0388 75.6291 64.401 74.2255 65.1255C72.8672 65.8499 71.7352 66.8234 70.8297 68.0458C69.9242 69.2231 69.245 70.5814 68.7922 72.1208C68.3847 73.6149 68.181 75.1544 68.181 76.7391Z" fill="black"/>
<path d="M111.352 100.781V52.5611H133.492C135.846 52.5611 138.02 53.0365 140.012 53.9873C142.004 54.9381 143.725 56.2285 145.174 57.8585C146.622 59.4432 147.732 61.2316 148.501 63.2238C149.316 65.216 149.724 67.2309 149.724 69.2683C149.724 71.1247 149.452 72.9131 148.909 74.6337C148.366 76.3542 147.573 77.9389 146.532 79.3878C145.491 80.7914 144.245 82.0139 142.797 83.0552L152.984 100.781H138.45L129.96 85.9756H124.595V100.781H111.352ZM124.595 74.4299H132.949C133.492 74.4299 134.013 74.2262 134.511 73.8187C135.009 73.4112 135.416 72.8226 135.733 72.0529C136.095 71.2832 136.277 70.355 136.277 69.2683C136.277 68.1364 136.073 67.2082 135.665 66.4838C135.303 65.7141 134.828 65.1255 134.239 64.718C133.696 64.3105 133.152 64.1067 132.609 64.1067H124.595V74.4299Z" fill="black"/>
<path d="M195.69 100.781V75.3807L187.608 93.2426H180.544L172.462 75.3807V100.781H159.219V52.5611H173.685L184.076 75.2449L194.535 52.5611H208.933V100.781H195.69Z" fill="black"/>
<path d="M230.362 52.5611H245.167L260.516 100.781H247.069L244.149 91.3409H231.312L228.46 100.781H214.945L230.362 52.5611ZM242.043 82.5119L237.764 65.533L233.282 82.5119H242.043Z" fill="black"/>
<path d="M295.233 68.3175C295.233 68.3175 294.849 68.0911 294.079 67.6384C293.309 67.1856 292.29 66.6875 291.023 66.1442C289.755 65.5556 288.374 65.0349 286.88 64.5821C285.386 64.1294 283.914 63.903 282.465 63.903C281.333 63.903 280.405 64.0841 279.681 64.4463C278.956 64.8085 278.594 65.4198 278.594 66.28C278.594 67.095 278.956 67.7515 279.681 68.2496C280.405 68.7476 281.424 69.2004 282.737 69.6079C284.095 70.0154 285.703 70.5135 287.559 71.1021C290.547 72.0076 293.128 73.049 295.301 74.2262C297.475 75.4034 299.15 76.9202 300.327 78.7765C301.504 80.5876 302.093 83.0099 302.093 86.0435C302.093 88.9413 301.572 91.3862 300.531 93.3784C299.489 95.3253 298.086 96.8874 296.32 98.0646C294.554 99.2418 292.585 100.102 290.411 100.645C288.238 101.143 286.019 101.392 283.756 101.392C281.446 101.392 279.024 101.166 276.489 100.713C273.998 100.215 271.576 99.5587 269.222 98.7438C266.867 97.8835 264.717 96.8874 262.77 95.7555L268.475 84.1419C268.475 84.1419 268.927 84.4135 269.833 84.9569C270.738 85.5002 271.938 86.1114 273.432 86.7906C274.927 87.4697 276.579 88.081 278.39 88.6243C280.247 89.1676 282.103 89.4393 283.959 89.4393C285.408 89.4393 286.404 89.2582 286.948 88.896C287.536 88.4885 287.831 87.9678 287.831 87.3339C287.831 86.3831 287.333 85.6587 286.336 85.1606C285.34 84.6173 284.027 84.1192 282.397 83.6665C280.813 83.1684 279.047 82.6025 277.1 81.9686C274.293 81.0178 271.984 79.9537 270.172 78.7765C268.361 77.5541 267.026 76.1278 266.165 74.4978C265.305 72.8226 264.875 70.8078 264.875 68.4533C264.875 64.8764 265.713 61.8882 267.388 59.4885C269.063 57.0888 271.259 55.2777 273.976 54.0552C276.738 52.7874 279.703 52.1536 282.873 52.1536C285.227 52.1536 287.491 52.4479 289.664 53.0365C291.883 53.5798 293.943 54.259 295.845 55.0739C297.792 55.8889 299.489 56.6586 300.938 57.3831L295.233 68.3175Z" fill="black"/>
<path d="M252.412 35V6.92444H263.207C266.318 6.92444 268.915 7.55713 270.997 8.8225C273.106 10.0615 274.688 11.7487 275.743 13.884C276.823 15.993 277.364 18.3392 277.364 20.9227C277.364 23.7698 276.771 26.2478 275.584 28.3568C274.424 30.4657 272.777 32.1002 270.641 33.2601C268.532 34.42 266.054 35 263.207 35H252.412ZM269.534 20.9227C269.534 19.4728 269.284 18.2074 268.783 17.1265C268.282 16.0193 267.557 15.1626 266.608 14.5562C265.659 13.9499 264.525 13.6468 263.207 13.6468H260.123V28.2777H263.207C264.552 28.2777 265.685 27.9613 266.608 27.3286C267.557 26.696 268.282 25.826 268.783 24.7188C269.284 23.5852 269.534 22.3199 269.534 20.9227Z" fill="black"/>
<path d="M301.913 28.2777V35H281.904V6.92444H301.557V13.6468H289.615V17.6011H299.817V23.8489H289.615V28.2777H301.913Z" fill="black"/>
</svg>
