<svg width="38" height="24" viewBox="0 0 38 24" fill="none" xmlns="http://www.w3.org/2000/svg">
<path d="M21.8962 22.0394L36.9498 6.87761C37.2826 6.54519 37.5467 6.14969 37.727 5.71394C37.9072 5.27818 38 4.81079 38 4.33873C38 3.86667 37.9072 3.39928 37.727 2.96353C37.5467 2.52777 37.2826 2.13228 36.9498 1.79985C36.2846 1.13384 35.3848 0.76001 34.4468 0.76001C33.5088 0.76001 32.609 1.13384 31.9438 1.79985L19.3755 14.4585L6.80717 1.79985C6.14197 1.13384 5.24212 0.760008 4.30416 0.760008C3.3662 0.760008 2.46635 1.13384 1.80115 1.79985C1.4721 2.13398 1.21177 2.53025 1.03508 2.96592C0.858402 3.4016 0.768844 3.86812 0.771545 4.33873C0.768844 4.80934 0.858402 5.27586 1.03508 5.71154C1.21177 6.14721 1.4721 6.54348 1.80115 6.87761L16.8547 22.0394C17.1848 22.3745 17.5774 22.6406 18.0101 22.8221C18.4427 23.0037 18.9068 23.0971 19.3755 23.0971C19.8442 23.0971 20.3082 23.0037 20.7409 22.8221C21.1735 22.6406 21.5662 22.3745 21.8962 22.0394Z" fill="#75AADB"/>
</svg>
