<svg width="11" height="11" viewBox="0 0 11 11" fill="none" xmlns="http://www.w3.org/2000/svg">
<path d="M5.5 0C2.4673 0 0 2.4673 0 5.5C0 8.5327 2.4673 11 5.5 11C8.5327 11 11 8.5327 11 5.5C11 2.4673 8.5327 0 5.5 0ZM5.5 2.255C5.64141 2.255 5.77965 2.29693 5.89723 2.3755C6.01481 2.45406 6.10646 2.56573 6.16057 2.69638C6.21469 2.82703 6.22885 2.97079 6.20126 3.10949C6.17367 3.24819 6.10558 3.37559 6.00558 3.47558C5.90559 3.57558 5.77819 3.64367 5.63949 3.67126C5.50079 3.69885 5.35703 3.68469 5.22638 3.63057C5.09573 3.57646 4.98406 3.48481 4.9055 3.36723C4.82693 3.24965 4.785 3.11141 4.785 2.97C4.785 2.78037 4.86033 2.59851 4.99442 2.46442C5.12851 2.33033 5.31037 2.255 5.5 2.255ZM7.26 8.47H3.96V7.59H5.17V5.17H4.29V4.29H6.05V7.59H7.26V8.47Z" fill="white"/>
</svg>
