<svg width="626" height="78" viewBox="0 0 626 78" fill="none" xmlns="http://www.w3.org/2000/svg">
<path d="M24.4561 68.8194V76.7385H0.88501V43.6645H24.0368V51.5837H9.96872V56.242H21.9872V63.6021H9.96872V68.8194H24.4561Z" fill="black"/>
<path d="M36.4596 43.6645L42.9347 66.2573L49.3165 43.6645H58.8661L47.4532 76.7385H38.4161L26.8635 43.6645H36.4596Z" fill="black"/>
<path d="M67.7289 43.6645H77.884L88.4118 76.7385H79.1883L77.1853 70.2635H68.3811L66.4246 76.7385H57.1545L67.7289 43.6645ZM75.7412 64.2077L72.8064 52.5619L69.732 64.2077H75.7412Z" fill="black"/>
<path d="M92.5573 76.7385V43.6645H101.641V68.8194H116.641V76.7385H92.5573Z" fill="black"/>
<path d="M135.145 77.018C132.505 77.018 130.238 76.5833 128.343 75.7137C126.449 74.8442 124.896 73.6485 123.685 72.1268C122.505 70.6051 121.635 68.866 121.076 66.9095C120.517 64.922 120.238 62.8412 120.238 60.6674V43.6645H129.322V60.6674C129.322 61.7543 129.43 62.7947 129.648 63.7884C129.865 64.7822 130.207 65.6673 130.673 66.4437C131.138 67.2201 131.728 67.8412 132.443 68.307C133.188 68.7418 134.089 68.9592 135.145 68.9592C136.231 68.9592 137.148 68.7418 137.893 68.307C138.638 67.8412 139.228 67.2201 139.663 66.4437C140.129 65.6362 140.471 64.7356 140.688 63.7418C140.905 62.7481 141.014 61.7232 141.014 60.6674V43.6645H150.098V60.6674C150.098 62.9655 149.787 65.1083 149.166 67.0958C148.576 69.0834 147.675 70.8225 146.464 72.3131C145.253 73.8038 143.7 74.9684 141.806 75.8069C139.943 76.6143 137.722 77.018 135.145 77.018Z" fill="black"/>
<path d="M163.086 43.6645H173.241L183.769 76.7385H174.545L172.542 70.2635H163.738L161.782 76.7385H152.512L163.086 43.6645ZM171.098 64.2077L168.164 52.5619L165.089 64.2077H171.098Z" fill="black"/>
<path d="M184.733 59.922C184.733 57.9034 185.106 55.9314 185.851 54.006C186.627 52.0495 187.745 50.2793 189.205 48.6955C190.665 47.1117 192.435 45.8539 194.515 44.9223C196.627 43.9595 199.003 43.4782 201.643 43.4782C204.81 43.4782 207.574 44.1459 209.934 45.4813C212.295 46.7856 214.049 48.5247 215.198 50.6986L208.257 55.6364C207.854 54.5494 207.264 53.7109 206.487 53.1209C205.742 52.5308 204.919 52.1271 204.018 51.9097C203.149 51.6613 202.295 51.5371 201.456 51.5371C200.152 51.5371 199.018 51.801 198.056 52.329C197.124 52.8259 196.348 53.4936 195.727 54.3321C195.137 55.1706 194.686 56.1022 194.376 57.127C194.096 58.1519 193.956 59.1767 193.956 60.2015C193.956 61.3506 194.127 62.453 194.469 63.5089C194.81 64.5648 195.307 65.512 195.959 66.3505C196.612 67.1579 197.404 67.7946 198.335 68.2604C199.298 68.7262 200.369 68.9592 201.549 68.9592C202.388 68.9592 203.242 68.8349 204.112 68.5865C204.981 68.307 205.773 67.8722 206.487 67.2822C207.202 66.6921 207.745 65.9002 208.118 64.9064L215.524 69.3318C214.872 70.9467 213.785 72.3287 212.264 73.4777C210.742 74.6268 209.018 75.5119 207.093 76.133C205.167 76.723 203.258 77.018 201.363 77.018C198.91 77.018 196.658 76.5367 194.609 75.574C192.59 74.5802 190.835 73.2759 189.345 71.661C187.885 70.015 186.752 68.1828 185.944 66.1642C185.137 64.1145 184.733 62.0338 184.733 59.922Z" fill="black"/>
<path d="M220.155 76.7385V43.6645H229.239V76.7385H220.155Z" fill="black"/>
<path d="M251.244 77.018C248.728 77.018 246.446 76.5522 244.396 75.6205C242.346 74.6578 240.576 73.3846 239.086 71.8007C237.626 70.1858 236.493 68.3846 235.685 66.3971C234.909 64.3785 234.52 62.2978 234.52 60.1549C234.52 57.95 234.94 55.8538 235.778 53.8662C236.617 51.8787 237.781 50.1085 239.272 48.5557C240.794 46.9719 242.579 45.7297 244.629 44.8291C246.71 43.9285 248.977 43.4782 251.43 43.4782C253.946 43.4782 256.228 43.9595 258.278 44.9223C260.328 45.8539 262.082 47.1272 263.542 48.7421C265.001 50.357 266.119 52.1737 266.896 54.1923C267.703 56.1799 268.107 58.2295 268.107 60.3413C268.107 62.5152 267.688 64.5959 266.849 66.5834C266.042 68.571 264.877 70.3567 263.355 71.9405C261.865 73.4933 260.095 74.7355 258.045 75.6671C255.995 76.5677 253.728 77.018 251.244 77.018ZM243.744 60.2481C243.744 61.3661 243.899 62.453 244.21 63.5089C244.52 64.5338 244.986 65.4654 245.607 66.3039C246.228 67.1114 247.005 67.7635 247.936 68.2604C248.899 68.7262 250.033 68.9592 251.337 68.9592C252.641 68.9592 253.775 68.7107 254.738 68.2138C255.7 67.7169 256.477 67.0493 257.067 66.2108C257.688 65.3412 258.138 64.394 258.418 63.3692C258.728 62.3133 258.883 61.2419 258.883 60.1549C258.883 59.0369 258.728 57.9655 258.418 56.9407C258.107 55.9159 257.641 54.9997 257.02 54.1923C256.399 53.3538 255.607 52.7016 254.644 52.2358C253.682 51.77 252.564 51.5371 251.29 51.5371C249.986 51.5371 248.853 51.7855 247.89 52.2824C246.958 52.7793 246.182 53.447 245.561 54.2855C244.94 55.0929 244.474 56.0246 244.163 57.0805C243.884 58.1053 243.744 59.1612 243.744 60.2481ZM254.225 42.267L248.635 40.7764L250.964 34.1616H258.837L254.225 42.267Z" fill="black"/>
<path d="M282.438 60.481V76.7385H273.354V43.6645H280.435L293.711 60.481V43.6645H302.795V76.7385H295.575L282.438 60.481Z" fill="black"/>
<path d="M321.732 76.7385V43.6645H334.449C338.113 43.6645 341.172 44.4098 343.626 45.9005C346.11 47.3601 347.974 49.3477 349.216 51.8631C350.489 54.3476 351.126 57.1115 351.126 60.1549C351.126 63.5089 350.427 66.4281 349.029 68.9126C347.663 71.397 345.722 73.3224 343.207 74.6889C340.722 76.0553 337.803 76.7385 334.449 76.7385H321.732ZM341.902 60.1549C341.902 58.4469 341.607 56.9562 341.017 55.683C340.427 54.3786 339.573 53.3693 338.455 52.6551C337.337 51.9408 336.002 51.5837 334.449 51.5837H330.815V68.8194H334.449C336.033 68.8194 337.368 68.4467 338.455 67.7014C339.573 66.9561 340.427 65.9313 341.017 64.6269C341.607 63.2915 341.902 61.8009 341.902 60.1549Z" fill="black"/>
<path d="M380.045 68.8194V76.7385H356.474V43.6645H379.626V51.5837H365.558V56.242H377.577V63.6021H365.558V68.8194H380.045Z" fill="black"/>
<path d="M406.611 60.481V76.7385H397.528V43.6645H404.608L417.884 60.481V43.6645H426.968V76.7385H419.748L406.611 60.481Z" fill="black"/>
<path d="M448.951 77.018C446.435 77.018 444.153 76.5522 442.103 75.6205C440.054 74.6578 438.283 73.3846 436.793 71.8007C435.333 70.1858 434.2 68.3846 433.392 66.3971C432.616 64.3785 432.228 62.2978 432.228 60.1549C432.228 57.95 432.647 55.8538 433.485 53.8662C434.324 51.8787 435.488 50.1085 436.979 48.5557C438.501 46.9719 440.286 45.7297 442.336 44.8291C444.417 43.9285 446.684 43.4782 449.137 43.4782C451.653 43.4782 453.935 43.9595 455.985 44.9223C458.035 45.8539 459.789 47.1272 461.249 48.7421C462.709 50.357 463.827 52.1737 464.603 54.1923C465.41 56.1799 465.814 58.2295 465.814 60.3413C465.814 62.5152 465.395 64.5959 464.556 66.5834C463.749 68.571 462.584 70.3567 461.063 71.9405C459.572 73.4933 457.802 74.7355 455.752 75.6671C453.702 76.5677 451.435 77.018 448.951 77.018ZM441.451 60.2481C441.451 61.3661 441.606 62.453 441.917 63.5089C442.227 64.5338 442.693 65.4654 443.314 66.3039C443.935 67.1114 444.712 67.7635 445.644 68.2604C446.606 68.7262 447.74 68.9592 449.044 68.9592C450.348 68.9592 451.482 68.7107 452.445 68.2138C453.407 67.7169 454.184 67.0493 454.774 66.2108C455.395 65.3412 455.845 64.394 456.125 63.3692C456.435 62.3133 456.591 61.2419 456.591 60.1549C456.591 59.0369 456.435 57.9655 456.125 56.9407C455.814 55.9159 455.348 54.9997 454.727 54.1923C454.106 53.3538 453.314 52.7016 452.352 52.2358C451.389 51.77 450.271 51.5371 448.998 51.5371C447.693 51.5371 446.56 51.7855 445.597 52.2824C444.665 52.7793 443.889 53.447 443.268 54.2855C442.647 55.0929 442.181 56.0246 441.87 57.0805C441.591 58.1053 441.451 59.1612 441.451 60.2481Z" fill="black"/>
<path d="M471.062 76.7385V43.6645H486.248C487.863 43.6645 489.353 43.9906 490.72 44.6428C492.086 45.2949 493.266 46.18 494.26 47.298C495.254 48.3849 496.015 49.6116 496.543 50.9781C497.102 52.3445 497.381 53.7265 497.381 55.124C497.381 56.3972 497.195 57.6239 496.822 58.804C496.449 59.9841 495.906 61.0711 495.192 62.0649C494.477 63.0276 493.623 63.8661 492.63 64.5803L499.617 76.7385H489.648L483.825 66.5834H480.145V76.7385H471.062ZM480.145 58.6643H485.875C486.248 58.6643 486.605 58.5245 486.946 58.245C487.288 57.9655 487.568 57.5618 487.785 57.0339C488.033 56.5059 488.158 55.8693 488.158 55.124C488.158 54.3476 488.018 53.7109 487.738 53.2141C487.49 52.6861 487.164 52.2824 486.76 52.0029C486.387 51.7234 486.015 51.5837 485.642 51.5837H480.145V58.6643Z" fill="black"/>
<path d="M528.909 76.7385V59.3164L523.365 71.5678H518.521L512.977 59.3164V76.7385H503.894V43.6645H513.816L520.943 59.2233L528.117 43.6645H537.992V76.7385H528.909Z" fill="black"/>
<path d="M552.69 43.6645H562.845L573.373 76.7385H564.15L562.147 70.2635H553.342L551.386 76.7385H542.116L552.69 43.6645ZM560.703 64.2077L557.768 52.5619L554.693 64.2077H560.703Z" fill="black"/>
<path d="M597.185 54.4718C597.185 54.4718 596.921 54.3165 596.393 54.006C595.866 53.6954 595.167 53.3538 594.297 52.9811C593.428 52.5774 592.481 52.2203 591.456 51.9097C590.431 51.5992 589.422 51.4439 588.428 51.4439C587.651 51.4439 587.015 51.5681 586.518 51.8166C586.021 52.065 585.773 52.4843 585.773 53.0743C585.773 53.6333 586.021 54.0836 586.518 54.4252C587.015 54.7668 587.714 55.0774 588.614 55.3569C589.546 55.6364 590.648 55.978 591.922 56.3817C593.971 57.0028 595.741 57.7171 597.232 58.5245C598.723 59.332 599.872 60.3723 600.679 61.6456C601.487 62.8878 601.89 64.5493 601.89 66.63C601.89 68.6175 601.533 70.2945 600.819 71.661C600.105 72.9964 599.142 74.0678 597.931 74.8752C596.72 75.6827 595.369 76.2727 593.878 76.6454C592.387 76.987 590.866 77.1578 589.313 77.1578C587.729 77.1578 586.068 77.0025 584.328 76.692C582.62 76.3503 580.959 75.9 579.344 75.341C577.729 74.751 576.254 74.0678 574.919 73.2914L578.832 65.3257C578.832 65.3257 579.142 65.512 579.763 65.8847C580.384 66.2573 581.207 66.6766 582.232 67.1424C583.257 67.6082 584.391 68.0275 585.633 68.4002C586.906 68.7728 588.179 68.9592 589.453 68.9592C590.446 68.9592 591.13 68.8349 591.502 68.5865C591.906 68.307 592.108 67.9499 592.108 67.5151C592.108 66.8629 591.766 66.366 591.083 66.0244C590.4 65.6518 589.499 65.3101 588.381 64.9996C587.294 64.658 586.083 64.2698 584.748 63.835C582.822 63.1828 581.238 62.453 579.996 61.6456C578.754 60.8071 577.838 59.8289 577.248 58.7109C576.658 57.5618 576.363 56.1799 576.363 54.565C576.363 52.1116 576.937 50.0619 578.086 48.416C579.235 46.7701 580.742 45.5278 582.605 44.6893C584.499 43.8198 586.533 43.385 588.707 43.385C590.322 43.385 591.875 43.5869 593.366 43.9906C594.887 44.3633 596.3 44.8291 597.605 45.3881C598.94 45.9471 600.105 46.475 601.098 46.9719L597.185 54.4718Z" fill="black"/>
<path d="M608.887 64.6735C608.887 63.7729 608.949 62.9189 609.073 62.1114C609.228 61.304 609.57 60.5431 610.098 59.8289C610.626 59.0835 611.449 58.4158 612.567 57.8258C612.908 57.6395 613.39 57.391 614.011 57.0805C614.663 56.7699 615.315 56.3972 615.967 55.9625C616.619 55.5277 617.163 55.0463 617.598 54.5184C618.063 53.9594 618.296 53.3538 618.296 52.7016C618.296 52.2358 618.157 51.8321 617.877 51.4905C617.629 51.1178 617.287 50.8383 616.852 50.652C616.449 50.4657 615.998 50.3725 615.501 50.3725C614.756 50.3725 614.135 50.5588 613.638 50.9315C613.172 51.2731 612.784 51.6768 612.473 52.1426C612.194 52.5774 611.93 52.9501 611.682 53.2606L606.045 49.2545C606.573 47.9812 607.318 46.9098 608.281 46.0403C609.244 45.1396 610.362 44.4564 611.635 43.9906C612.939 43.4937 614.337 43.2453 615.827 43.2453C617.007 43.2453 618.188 43.4161 619.368 43.7577C620.579 44.0993 621.681 44.6428 622.675 45.3881C623.669 46.1334 624.461 47.1117 625.051 48.3228C625.672 49.534 625.983 51.0091 625.983 52.7482C625.983 53.4936 625.92 54.2078 625.796 54.8911C625.672 55.5743 625.455 56.2264 625.144 56.8475C624.865 57.4376 624.476 58.0121 623.979 58.5711C623.514 59.0991 622.939 59.5959 622.256 60.0618C621.355 60.6829 620.424 61.2108 619.461 61.6456C618.529 62.0804 617.737 62.5307 617.085 62.9965C616.433 63.4313 616.107 63.9903 616.107 64.6735H608.887ZM609.026 76.7385V69.0989H616.247V76.7385H609.026Z" fill="black"/>
<path d="M283.373 0H554.745V34.5098H283.373V0Z" fill="#CC0000"/>
<path d="M12.0075 19.848C12.0075 20.3506 11.9626 20.8442 11.8729 21.3289C11.8011 21.7956 11.6126 22.2444 11.3074 22.6752C11.0202 23.0881 10.5445 23.4651 9.88031 23.8062C9.68285 23.9139 9.39564 24.0575 9.01867 24.237C8.65965 24.4165 8.29165 24.6319 7.91468 24.8832C7.53771 25.1345 7.21459 25.4217 6.94533 25.7449C6.69401 26.05 6.56836 26.3911 6.56836 26.7681C6.56836 27.0373 6.64016 27.2707 6.78377 27.4682C6.94533 27.6656 7.14279 27.8182 7.37615 27.9259C7.62747 28.0516 7.89673 28.1144 8.18394 28.1144C8.61477 28.1144 8.96481 28.0067 9.23408 27.7913C9.52129 27.5938 9.75466 27.3605 9.93417 27.0912C10.1137 26.8219 10.2663 26.6065 10.3919 26.445L13.65 28.7606C13.3449 29.4787 12.914 30.098 12.3576 30.6186C11.8011 31.1391 11.1459 31.5341 10.3919 31.8033C9.65592 32.0905 8.85711 32.2341 7.99546 32.2341C7.31332 32.2341 6.62221 32.1354 5.92212 31.938C5.23998 31.7405 4.6117 31.4264 4.03727 30.9955C3.46284 30.5647 2.9961 29.9993 2.63708 29.2992C2.29602 28.5991 2.12549 27.7464 2.12549 26.7411C2.12549 26.3103 2.16139 25.8974 2.23319 25.5025C2.305 25.1076 2.42168 24.7396 2.58324 24.3985C2.76275 24.0395 2.98714 23.7074 3.2564 23.4023C3.54362 23.0791 3.88468 22.783 4.2796 22.5137C4.80018 22.1547 5.32974 21.8495 5.86827 21.5982C6.42475 21.3469 6.89148 21.0956 7.26845 20.8442C7.64542 20.575 7.8339 20.2429 7.8339 19.848H12.0075ZM11.9267 12.874V17.29H7.75312V12.874H11.9267Z" fill="black"/>
<path d="M25.5597 26.6334C24.1057 26.6334 22.7863 26.3642 21.6015 25.8256C20.4168 25.2871 19.3936 24.5601 18.5319 23.6446C17.6882 22.7111 17.033 21.67 16.5663 20.5211C16.1175 19.3543 15.8931 18.1516 15.8931 16.913C15.8931 15.6385 16.1355 14.4268 16.6201 13.2779C17.1048 12.1111 17.778 11.0789 18.6396 10.1814C19.5192 9.28381 20.5514 8.57474 21.7362 8.05416C22.9389 7.51564 24.2493 7.24637 25.6674 7.24637C27.1215 7.24637 28.4409 7.52461 29.6256 8.08109C30.8104 8.63757 31.8246 9.38254 32.6683 10.316C33.512 11.2494 34.1583 12.2996 34.607 13.4664C35.0738 14.6153 35.3071 15.8 35.3071 17.0207C35.3071 18.2773 35.0648 19.48 34.5801 20.6288C34.1134 21.7777 33.4402 22.8099 32.5606 23.7254C31.699 24.6229 30.6758 25.332 29.491 25.8526C28.3062 26.3732 26.9958 26.6334 25.5597 26.6334ZM25.6136 21.9752C26.3675 21.9752 27.0227 21.8316 27.5792 21.5443C28.1357 21.2571 28.5845 20.8712 28.9255 20.3865C29.2846 19.9018 29.5449 19.3633 29.7064 18.7709C29.8859 18.1606 29.9757 17.5413 29.9757 16.913C29.9757 16.2667 29.8859 15.6474 29.7064 15.0551C29.5269 14.4447 29.2576 13.9062 28.8986 13.4395C28.5396 12.9727 28.0818 12.6047 27.5254 12.3355C26.9689 12.0483 26.3227 11.9047 25.5867 11.9047C24.8327 11.9047 24.1775 12.0483 23.621 12.3355C23.0825 12.6227 22.6337 13.0086 22.2747 13.4933C21.9157 13.978 21.6464 14.5255 21.4669 15.1358C21.3054 15.7282 21.2246 16.3385 21.2246 16.9668C21.2246 17.6131 21.3143 18.2324 21.4938 18.8248C21.6733 19.4171 21.9426 19.9557 22.3016 20.4403C22.6606 20.9071 23.1094 21.284 23.648 21.5713C24.2044 21.8405 24.8596 21.9752 25.6136 21.9752ZM23.4595 18.4209H28.3601L35.7918 26.4988H30.8912L23.4595 18.4209Z" fill="black"/>
<path d="M46.6876 26.6604C45.1617 26.6604 43.8513 26.4091 42.7563 25.9064C41.6613 25.4038 40.7637 24.7127 40.0636 23.8331C39.3815 22.9535 38.8789 21.9482 38.5558 20.8173C38.2326 19.6685 38.0711 18.4657 38.0711 17.2092V7.381H43.3217V17.2092C43.3217 17.8375 43.3846 18.4388 43.5102 19.0132C43.6359 19.5877 43.8334 20.0993 44.1026 20.5481C44.3719 20.9968 44.713 21.3558 45.1258 21.6251C45.5566 21.8764 46.0772 22.0021 46.6876 22.0021C47.3158 22.0021 47.8454 21.8764 48.2762 21.6251C48.707 21.3558 49.0481 20.9968 49.2994 20.5481C49.5687 20.0813 49.7662 19.5608 49.8918 18.9863C50.0175 18.4119 50.0803 17.8195 50.0803 17.2092V7.381H55.331V17.2092C55.331 18.5375 55.1514 19.7762 54.7924 20.925C54.4514 22.0739 53.9308 23.0791 53.2307 23.9408C52.5306 24.8024 51.6331 25.4756 50.538 25.9603C49.461 26.427 48.1775 26.6604 46.6876 26.6604Z" fill="black"/>
<path d="M59.1589 26.4988V7.381H64.4096V26.4988H59.1589Z" fill="black"/>
<path d="M82.1375 21.9213V26.4988H68.5127V7.381H81.8952V11.9585H73.7634V14.6512H80.7104V18.9055H73.7634V21.9213H82.1375Z" fill="black"/>
<path d="M85.387 26.4988V7.381H94.165C95.0985 7.381 95.9601 7.56949 96.75 7.94646C97.5398 8.32343 98.222 8.83503 98.7964 9.48127C99.3708 10.1096 99.8106 10.8186 100.116 11.6085C100.439 12.3983 100.6 13.1971 100.6 14.0049C100.6 14.7409 100.493 15.45 100.277 16.1321C100.062 16.8142 99.7478 17.4425 99.3349 18.017C98.9221 18.5734 98.4284 19.0581 97.854 19.471L101.893 26.4988H96.1307L92.7649 20.6288H90.6377V26.4988H85.387ZM90.6377 16.0513H93.9496C94.1651 16.0513 94.3715 15.9706 94.5689 15.809C94.7664 15.6474 94.928 15.4141 95.0536 15.1089C95.1972 14.8037 95.269 14.4357 95.269 14.0049C95.269 13.5561 95.1883 13.1881 95.0267 12.9009C94.8831 12.5958 94.6946 12.3624 94.4612 12.2008C94.2458 12.0393 94.0304 11.9585 93.815 11.9585H90.6377V16.0513Z" fill="black"/>
<path d="M117.99 21.9213V26.4988H104.365V7.381H117.747V11.9585H109.616V14.6512H116.563V18.9055H109.616V21.9213H117.99Z" fill="black"/>
<path d="M132.818 13.6279C132.818 13.6279 132.665 13.5382 132.36 13.3587C132.055 13.1792 131.651 12.9817 131.148 12.7663C130.646 12.5329 130.098 12.3265 129.506 12.147C128.913 11.9675 128.33 11.8777 127.755 11.8777C127.307 11.8777 126.939 11.9495 126.651 12.0931C126.364 12.2367 126.221 12.4791 126.221 12.8202C126.221 13.1433 126.364 13.4036 126.651 13.601C126.939 13.7985 127.343 13.978 127.863 14.1396C128.402 14.3011 129.039 14.4986 129.775 14.7319C130.96 15.091 131.983 15.5038 132.845 15.9706C133.706 16.4373 134.37 17.0386 134.837 17.7746C135.304 18.4927 135.537 19.453 135.537 20.6558C135.537 21.8046 135.331 22.774 134.918 23.5638C134.505 24.3357 133.949 24.955 133.248 25.4217C132.548 25.8885 131.767 26.2295 130.906 26.445C130.044 26.6424 129.165 26.7411 128.267 26.7411C127.352 26.7411 126.391 26.6514 125.386 26.4719C124.399 26.2744 123.438 26.0141 122.505 25.691C121.571 25.3499 120.719 24.955 119.947 24.5062L122.209 19.9018C122.209 19.9018 122.388 20.0095 122.747 20.2249C123.106 20.4403 123.582 20.6827 124.174 20.952C124.767 21.2212 125.422 21.4636 126.14 21.679C126.876 21.8944 127.612 22.0021 128.348 22.0021C128.922 22.0021 129.317 21.9303 129.533 21.7867C129.766 21.6251 129.883 21.4187 129.883 21.1674C129.883 20.7904 129.685 20.5032 129.29 20.3057C128.895 20.0903 128.375 19.8928 127.729 19.7133C127.1 19.5159 126.4 19.2915 125.628 19.0402C124.515 18.6632 123.6 18.2414 122.882 17.7746C122.164 17.2899 121.634 16.7245 121.293 16.0783C120.952 15.4141 120.781 14.6153 120.781 13.6818C120.781 12.2637 121.114 11.0789 121.778 10.1275C122.442 9.1761 123.313 8.45806 124.39 7.97339C125.485 7.47076 126.66 7.21945 127.917 7.21945C128.85 7.21945 129.748 7.33613 130.61 7.56949C131.489 7.7849 132.306 8.05417 133.06 8.37728C133.832 8.7004 134.505 9.00557 135.079 9.29278L132.818 13.6279Z" fill="black"/>
<path d="M157.1 13.6279C157.1 13.6279 156.947 13.5382 156.642 13.3587C156.337 13.1792 155.933 12.9817 155.43 12.7663C154.928 12.5329 154.38 12.3265 153.788 12.147C153.195 11.9675 152.612 11.8777 152.038 11.8777C151.589 11.8777 151.221 11.9495 150.934 12.0931C150.646 12.2367 150.503 12.4791 150.503 12.8202C150.503 13.1433 150.646 13.4036 150.934 13.601C151.221 13.7985 151.625 13.978 152.145 14.1396C152.684 14.3011 153.321 14.4986 154.057 14.7319C155.242 15.091 156.265 15.5038 157.127 15.9706C157.988 16.4373 158.653 17.0386 159.119 17.7746C159.586 18.4927 159.819 19.453 159.819 20.6558C159.819 21.8046 159.613 22.774 159.2 23.5638C158.787 24.3357 158.231 24.955 157.531 25.4217C156.831 25.8885 156.05 26.2295 155.188 26.445C154.326 26.6424 153.447 26.7411 152.549 26.7411C151.634 26.7411 150.673 26.6514 149.668 26.4719C148.681 26.2744 147.72 26.0141 146.787 25.691C145.854 25.3499 145.001 24.955 144.229 24.5062L146.491 19.9018C146.491 19.9018 146.67 20.0095 147.029 20.2249C147.388 20.4403 147.864 20.6827 148.456 20.952C149.049 21.2212 149.704 21.4636 150.422 21.679C151.158 21.8944 151.894 22.0021 152.63 22.0021C153.204 22.0021 153.599 21.9303 153.815 21.7867C154.048 21.6251 154.165 21.4187 154.165 21.1674C154.165 20.7904 153.967 20.5032 153.572 20.3057C153.178 20.0903 152.657 19.8928 152.011 19.7133C151.382 19.5159 150.682 19.2915 149.91 19.0402C148.797 18.6632 147.882 18.2414 147.164 17.7746C146.446 17.2899 145.916 16.7245 145.575 16.0783C145.234 15.4141 145.064 14.6153 145.064 13.6818C145.064 12.2637 145.396 11.0789 146.06 10.1275C146.724 9.1761 147.595 8.45806 148.672 7.97339C149.767 7.47076 150.943 7.21945 152.199 7.21945C153.133 7.21945 154.03 7.33613 154.892 7.56949C155.771 7.7849 156.588 8.05417 157.342 8.37728C158.114 8.7004 158.787 9.00557 159.362 9.29278L157.1 13.6279Z" fill="black"/>
<path d="M171.295 26.6604C169.769 26.6604 168.459 26.4091 167.364 25.9064C166.269 25.4038 165.371 24.7127 164.671 23.8331C163.989 22.9535 163.486 21.9482 163.163 20.8173C162.84 19.6685 162.679 18.4657 162.679 17.2092V7.381H167.929V17.2092C167.929 17.8375 167.992 18.4388 168.118 19.0132C168.243 19.5877 168.441 20.0993 168.71 20.5481C168.979 20.9968 169.321 21.3558 169.733 21.6251C170.164 21.8764 170.685 22.0021 171.295 22.0021C171.923 22.0021 172.453 21.8764 172.884 21.6251C173.315 21.3558 173.656 20.9968 173.907 20.5481C174.176 20.0813 174.374 19.5608 174.499 18.9863C174.625 18.4119 174.688 17.8195 174.688 17.2092V7.381H179.939V17.2092C179.939 18.5375 179.759 19.7762 179.4 20.925C179.059 22.0739 178.538 23.0791 177.838 23.9408C177.138 24.8024 176.241 25.4756 175.146 25.9603C174.069 26.427 172.785 26.6604 171.295 26.6604Z" fill="black"/>
<path d="M198.226 26.4988V16.4283L195.022 23.51H192.221L189.017 16.4283V26.4988H183.767V7.381H189.502L193.622 16.3744L197.768 7.381H203.477V26.4988H198.226Z" fill="black"/>
<path d="M211.972 7.381H217.842L223.928 26.4988H218.596L217.439 22.756H212.349L211.218 26.4988H205.86L211.972 7.381ZM216.604 19.2556L214.907 12.524L213.13 19.2556H216.604Z" fill="black"/>
<path d="M226.324 26.4988V7.381H235.102C236.036 7.381 236.897 7.56949 237.687 7.94646C238.477 8.32343 239.159 8.83503 239.733 9.48127C240.308 10.1096 240.748 10.8186 241.053 11.6085C241.376 12.3983 241.538 13.1971 241.538 14.0049C241.538 14.7409 241.43 15.45 241.214 16.1321C240.999 16.8142 240.685 17.4425 240.272 18.017C239.859 18.5734 239.365 19.0581 238.791 19.471L242.83 26.4988H237.068L233.702 20.6288H231.575V26.4988H226.324ZM231.575 16.0513H234.887C235.102 16.0513 235.308 15.9706 235.506 15.809C235.703 15.6474 235.865 15.4141 235.991 15.1089C236.134 14.8037 236.206 14.4357 236.206 14.0049C236.206 13.5561 236.125 13.1881 235.964 12.9009C235.82 12.5958 235.632 12.3624 235.398 12.2008C235.183 12.0393 234.967 11.9585 234.752 11.9585H231.575V16.0513Z" fill="black"/>
<path d="M262.614 7.381H268.484L274.57 26.4988H269.238L268.08 22.756H262.991L261.86 26.4988H256.502L262.614 7.381ZM267.246 19.2556L265.549 12.524L263.772 19.2556H267.246Z" fill="black"/>
<path d="M304.752 11.9585H299.259V26.4988H294.009V11.9585H288.489V7.381H304.752V11.9585Z" fill="white"/>
<path d="M315.82 26.6604C314.294 26.6604 312.984 26.4091 311.889 25.9064C310.794 25.4038 309.896 24.7127 309.196 23.8331C308.514 22.9535 308.011 21.9482 307.688 20.8173C307.365 19.6685 307.203 18.4657 307.203 17.2092V7.381H312.454V17.2092C312.454 17.8375 312.517 18.4388 312.643 19.0132C312.768 19.5877 312.966 20.0993 313.235 20.5481C313.504 20.9968 313.845 21.3558 314.258 21.6251C314.689 21.8764 315.21 22.0021 315.82 22.0021C316.448 22.0021 316.978 21.8764 317.409 21.6251C317.839 21.3558 318.18 20.9968 318.432 20.5481C318.701 20.0813 318.898 19.5608 319.024 18.9863C319.15 18.4119 319.213 17.8195 319.213 17.2092V7.381H324.463V17.2092C324.463 18.5375 324.284 19.7762 323.925 20.925C323.584 22.0739 323.063 23.0791 322.363 23.9408C321.663 24.8024 320.765 25.4756 319.67 25.9603C318.593 26.427 317.31 26.6604 315.82 26.6604Z" fill="white"/>
<path d="M343.763 26.6604C342.309 26.6604 340.99 26.3911 339.805 25.8526C338.621 25.2961 337.597 24.5601 336.736 23.6446C335.892 22.7111 335.237 21.67 334.77 20.5211C334.321 19.3543 334.097 18.1516 334.097 16.913C334.097 15.6385 334.339 14.4268 334.824 13.2779C335.309 12.129 335.982 11.1058 336.843 10.2083C337.723 9.29278 338.755 8.57474 339.94 8.05416C341.143 7.53359 342.453 7.2733 343.871 7.2733C345.325 7.2733 346.645 7.55154 347.829 8.10802C349.014 8.64655 350.028 9.38254 350.872 10.316C351.716 11.2494 352.362 12.2996 352.811 13.4664C353.278 14.6153 353.511 15.8 353.511 17.0207C353.511 18.2773 353.269 19.48 352.784 20.6288C352.317 21.7777 351.644 22.8099 350.764 23.7254C349.903 24.6229 348.879 25.341 347.695 25.8795C346.51 26.4001 345.2 26.6604 343.763 26.6604ZM339.428 16.9668C339.428 17.6131 339.518 18.2414 339.698 18.8517C339.877 19.4441 340.146 19.9826 340.505 20.4673C340.864 20.934 341.313 21.311 341.852 21.5982C342.408 21.8675 343.063 22.0021 343.817 22.0021C344.571 22.0021 345.226 21.8585 345.783 21.5713C346.339 21.284 346.788 20.8981 347.129 20.4134C347.488 19.9108 347.749 19.3633 347.91 18.7709C348.09 18.1606 348.179 17.5413 348.179 16.913C348.179 16.2667 348.09 15.6474 347.91 15.0551C347.731 14.4627 347.461 13.9331 347.102 13.4664C346.743 12.9817 346.286 12.6047 345.729 12.3355C345.173 12.0662 344.526 11.9316 343.79 11.9316C343.036 11.9316 342.381 12.0752 341.825 12.3624C341.286 12.6496 340.837 13.0356 340.478 13.5202C340.119 13.987 339.85 14.5255 339.671 15.1358C339.509 15.7282 339.428 16.3385 339.428 16.9668Z" fill="white"/>
<path d="M356.544 26.4988V7.381H365.322C366.256 7.381 367.117 7.56949 367.907 7.94646C368.697 8.32343 369.379 8.83503 369.953 9.48127C370.528 10.1096 370.968 10.8186 371.273 11.6085C371.596 12.3983 371.758 13.1971 371.758 14.0049C371.758 14.7409 371.65 15.45 371.434 16.1321C371.219 16.8142 370.905 17.4425 370.492 18.017C370.079 18.5734 369.585 19.0581 369.011 19.471L373.05 26.4988H367.288L363.922 20.6288H361.795V26.4988H356.544ZM361.795 16.0513H365.107C365.322 16.0513 365.529 15.9706 365.726 15.809C365.923 15.6474 366.085 15.4141 366.211 15.1089C366.354 14.8037 366.426 14.4357 366.426 14.0049C366.426 13.5561 366.345 13.1881 366.184 12.9009C366.04 12.5958 365.852 12.3624 365.618 12.2008C365.403 12.0393 365.187 11.9585 364.972 11.9585H361.795V16.0513Z" fill="white"/>
<path d="M383.552 26.6334C382.313 26.6334 381.128 26.418 379.997 25.9872C378.885 25.5384 377.897 24.8922 377.036 24.0485C376.174 23.1869 375.492 22.1547 374.989 20.952C374.504 19.7313 374.262 18.3401 374.262 16.7783C374.262 15.432 374.513 14.1844 375.016 13.0356C375.519 11.8867 376.21 10.8814 377.089 10.0198C377.987 9.1402 379.028 8.45806 380.213 7.97339C381.398 7.48871 382.681 7.24637 384.063 7.24637C385.787 7.24637 387.348 7.62334 388.749 8.37728C390.149 9.11327 391.19 10.1275 391.872 11.42L387.968 14.4088C387.591 13.6549 387.025 13.0535 386.271 12.6047C385.517 12.138 384.719 11.9047 383.875 11.9047C383.247 11.9047 382.672 12.0303 382.152 12.2816C381.631 12.5329 381.173 12.883 380.778 13.3318C380.401 13.7805 380.105 14.3191 379.89 14.9473C379.692 15.5577 379.594 16.2308 379.594 16.9668C379.594 17.7208 379.701 18.4029 379.917 19.0132C380.132 19.6236 380.428 20.1531 380.805 20.6019C381.2 21.0327 381.667 21.3738 382.205 21.6251C382.744 21.8585 383.345 21.9752 384.01 21.9752C384.853 21.9752 385.661 21.7687 386.433 21.3558C387.205 20.925 387.905 20.3237 388.533 19.5518V24.6678C387.097 25.9782 385.437 26.6334 383.552 26.6334ZM388.264 20.0903H384.737V16.3206H392.599V26.4988H388.264V20.0903Z" fill="white"/>
<path d="M400.415 7.381H406.285L412.37 26.4988H407.039L405.881 22.756H400.792L399.661 26.4988H394.302L400.415 7.381ZM405.046 19.2556L403.35 12.524L401.573 19.2556H405.046Z" fill="white"/>
<path d="M420.017 17.1015V26.4988H414.766V7.381H418.859L426.533 17.1015V7.381H431.784V26.4988H427.61L420.017 17.1015Z" fill="white"/>
<path d="M435.874 26.4988V7.381H441.125V26.4988H435.874Z" fill="white"/>
<path d="M444.312 22.5945L452.983 11.9585H444.716V7.381H459.31V11.2853L451.179 21.9213H459.472V26.4988H444.312V22.5945Z" fill="white"/>
<path d="M467.202 7.381H473.072L479.157 26.4988H473.826L472.668 22.756H467.579L466.448 26.4988H461.09L467.202 7.381ZM471.833 19.2556L470.137 12.524L468.36 19.2556H471.833Z" fill="white"/>
<path d="M479.714 16.7783C479.714 15.6115 479.93 14.4716 480.361 13.3587C480.809 12.2278 481.456 11.2046 482.299 10.2891C483.143 9.37356 484.166 8.64655 485.369 8.10802C486.59 7.55154 487.963 7.2733 489.489 7.2733C491.32 7.2733 492.917 7.65924 494.282 8.43114C495.646 9.18508 496.66 10.1903 497.324 11.4469L493.312 14.3011C493.079 13.6728 492.738 13.1881 492.289 12.8471C491.858 12.506 491.383 12.2726 490.862 12.147C490.359 12.0034 489.866 11.9316 489.381 11.9316C488.627 11.9316 487.972 12.0842 487.415 12.3893C486.877 12.6765 486.428 13.0625 486.069 13.5472C485.728 14.0318 485.468 14.5704 485.288 15.1628C485.127 15.7551 485.046 16.3475 485.046 16.9399C485.046 17.6041 485.145 18.2414 485.342 18.8517C485.54 19.462 485.827 20.0095 486.204 20.4942C486.581 20.9609 487.038 21.3289 487.577 21.5982C488.133 21.8675 488.753 22.0021 489.435 22.0021C489.92 22.0021 490.413 21.9303 490.916 21.7867C491.419 21.6251 491.876 21.3738 492.289 21.0327C492.702 20.6917 493.016 20.2339 493.232 19.6595L497.513 22.2175C497.136 23.1509 496.508 23.9498 495.628 24.614C494.748 25.2781 493.752 25.7897 492.639 26.1488C491.526 26.4898 490.422 26.6604 489.327 26.6604C487.909 26.6604 486.608 26.3821 485.423 25.8256C484.256 25.2512 483.242 24.4973 482.38 23.5638C481.536 22.6124 480.881 21.5533 480.415 20.3865C479.948 19.2017 479.714 17.999 479.714 16.7783Z" fill="white"/>
<path d="M500.19 26.4988V7.381H505.44V26.4988H500.19Z" fill="white"/>
<path d="M518.16 26.6604C516.706 26.6604 515.386 26.3911 514.202 25.8526C513.017 25.2961 511.994 24.5601 511.132 23.6446C510.288 22.7111 509.633 21.67 509.166 20.5211C508.718 19.3543 508.493 18.1516 508.493 16.913C508.493 15.6385 508.736 14.4268 509.22 13.2779C509.705 12.129 510.378 11.1058 511.24 10.2083C512.119 9.29278 513.151 8.57474 514.336 8.05416C515.539 7.53359 516.849 7.2733 518.268 7.2733C519.722 7.2733 521.041 7.55154 522.226 8.10802C523.41 8.64655 524.425 9.38254 525.268 10.316C526.112 11.2494 526.758 12.2996 527.207 13.4664C527.674 14.6153 527.907 15.8 527.907 17.0207C527.907 18.2773 527.665 19.48 527.18 20.6288C526.713 21.7777 526.04 22.8099 525.161 23.7254C524.299 24.6229 523.276 25.341 522.091 25.8795C520.906 26.4001 519.596 26.6604 518.16 26.6604ZM513.825 16.9668C513.825 17.6131 513.914 18.2414 514.094 18.8517C514.273 19.4441 514.543 19.9826 514.902 20.4673C515.261 20.934 515.71 21.311 516.248 21.5982C516.805 21.8675 517.46 22.0021 518.214 22.0021C518.968 22.0021 519.623 21.8585 520.179 21.5713C520.736 21.284 521.185 20.8981 521.526 20.4134C521.885 19.9108 522.145 19.3633 522.307 18.7709C522.486 18.1606 522.576 17.5413 522.576 16.913C522.576 16.2667 522.486 15.6474 522.307 15.0551C522.127 14.4627 521.858 13.9331 521.499 13.4664C521.14 12.9817 520.682 12.6047 520.125 12.3355C519.569 12.0662 518.923 11.9316 518.187 11.9316C517.433 11.9316 516.778 12.0752 516.221 12.3624C515.683 12.6496 515.234 13.0356 514.875 13.5202C514.516 13.987 514.246 14.5255 514.067 15.1358C513.905 15.7282 513.825 16.3385 513.825 16.9668ZM519.883 6.57321L516.652 5.71156L517.998 1.888H522.549L519.883 6.57321Z" fill="white"/>
<path d="M536.191 17.1015V26.4988H530.94V7.381H535.033L542.707 17.1015V7.381H547.958V26.4988H543.784L536.191 17.1015Z" fill="white"/>
<path d="M569.36 7.381H575.23L581.316 26.4988H575.984L574.827 22.756H569.737L568.607 26.4988H563.248L569.36 7.381ZM573.992 19.2556L572.295 12.524L570.518 19.2556H573.992Z" fill="black"/>
<path d="M589.753 26.4988V7.381H595.003V21.9213H603.674V26.4988H589.753Z" fill="black"/>
<path d="M610.727 7.381H616.597L622.683 26.4988H617.351L616.193 22.756H611.104L609.973 26.4988H604.615L610.727 7.381ZM615.359 19.2556L613.662 12.524L611.885 19.2556H615.359Z" fill="black"/>
</svg>
