<svg width="14" height="14" viewBox="0 0 14 14" fill="none" xmlns="http://www.w3.org/2000/svg">
<path d="M7 0C3.1402 0 0 3.1402 0 7C0 10.8598 3.1402 14 7 14C10.8598 14 14 10.8598 14 7C14 3.1402 10.8598 0 7 0ZM7 2.87C7.17998 2.87 7.35592 2.92337 7.50557 3.02336C7.65522 3.12335 7.77185 3.26548 7.84073 3.43176C7.90961 3.59804 7.92763 3.78101 7.89252 3.95753C7.8574 4.13405 7.77073 4.2962 7.64347 4.42347C7.5162 4.55073 7.35406 4.6374 7.17753 4.67251C7.00101 4.70763 6.81804 4.68961 6.65176 4.62073C6.48548 4.55186 6.34335 4.43522 6.24336 4.28557C6.14337 4.13592 6.09 3.95998 6.09 3.78C6.09 3.53865 6.18587 3.30719 6.35653 3.13653C6.52719 2.96587 6.75865 2.87 7 2.87ZM9.24 10.78H5.04V9.66H6.58V6.58H5.46V5.46H7.7V9.66H9.24V10.78Z" fill="#4F4F4F"/>
</svg>
