<svg width="138" height="211" viewBox="0 0 138 211" fill="none" xmlns="http://www.w3.org/2000/svg">
<path d="M48.2457 75.7319V32.0915H26.8423V75.7319H48.2457Z" fill="#75AADB"/>
<path d="M112.526 157.604V119.741H92.446V157.604H112.526Z" fill="#CC0000"/>
<path d="M25.1627 31.9896H39.0584V73.1868H58.095V87.9987H25.3536V32.0087L25.1627 31.9896Z" fill="black"/>
<path d="M103.091 71.8634C100.888 69.719 97.9306 68.5259 94.8564 68.5414C91.7823 68.5569 88.8373 69.7796 86.6562 71.9461C84.4866 74.1319 83.2691 77.0867 83.2691 80.1665C83.2691 83.2462 84.4866 86.201 86.6562 88.3868C87.7275 89.4648 89.0013 90.3205 90.4044 90.9047C91.8075 91.4888 93.3122 91.7899 94.832 91.7907C96.3637 91.8318 97.8874 91.5569 99.3083 90.9833C100.729 90.4097 102.017 89.5497 103.091 88.4568L112.405 97.6697C109.832 100.29 106.708 102.304 103.259 103.565C99.8102 104.826 96.1236 105.303 92.4673 104.961C88.8111 104.618 85.2771 103.465 82.1224 101.585C78.9678 99.7057 76.2717 97.1465 74.2302 94.094C72.1771 91.0408 70.8246 87.5714 70.2694 83.9343C69.7143 80.2971 69.9703 76.5822 71.0192 73.0556C72.0681 69.529 73.8838 66.278 76.3364 63.5354C78.7889 60.7927 81.8176 58.6264 85.2056 57.1915C89.7299 55.2896 94.7185 54.7798 99.534 55.7273C104.35 56.6748 108.773 59.0364 112.24 62.5105L103.091 71.8634Z" fill="black"/>
<path d="M25.6018 103.854H56.8544V114.403H38.7785V122.223H54.7866V132.95H38.7785V141.857H56.8544V152.222H25.6018V103.854Z" fill="black"/>
<path d="M107.144 175.948L84.3342 153.043V175.948H71.6537V127.593H76.8328L99.7378 150.402V127.567H112.412V175.922L107.144 175.948Z" fill="black"/>
<path d="M58.095 163.935H25.1627V176.851H58.095V163.935Z" fill="#FFD700"/>
<path d="M111.909 31.9579H72.3918V46.7761H111.909V31.9579Z" fill="#008000"/>
<path d="M133.045 5H5V206.055H133.045V5Z" stroke="black" stroke-width="9.67432" stroke-miterlimit="10"/>
</svg>
