<svg width="376" height="110" viewBox="0 0 376 110" fill="none" xmlns="http://www.w3.org/2000/svg">
<path d="M61.9688 0H372.969V44H61.9688V0Z" fill="#CC0000"/>
<path d="M0 103.444L375.969 103.444V109.065L0 109.065L0 103.444Z" fill="#FFD700"/>
<path d="M6.2124 37V10.8859H13.3846V30.7473H25.2279V37H6.2124Z" fill="black"/>
<path d="M34.8629 10.8859H42.881L51.1934 37H43.9109L42.3293 31.8875H35.3778L33.833 37H26.5137L34.8629 10.8859ZM41.1891 27.106L38.872 17.9109L36.4445 27.106H41.1891Z" fill="black"/>
<path d="M70.6479 23.7222C70.6479 22.1284 70.9422 20.5714 71.5306 19.0511C72.1437 17.5064 73.0264 16.1087 74.1788 14.8582C75.3313 13.6076 76.7289 12.6146 78.3718 11.879C80.0392 11.1188 81.915 10.7388 83.9992 10.7388C86.5003 10.7388 88.6826 11.266 90.5461 12.3203C92.4097 13.3502 93.7951 14.7233 94.7023 16.4397L89.222 20.3385C88.9033 19.4802 88.4374 18.8182 87.8244 18.3523C87.2359 17.8864 86.5861 17.5677 85.875 17.396C85.1884 17.1999 84.5141 17.1018 83.8521 17.1018C82.8222 17.1018 81.9272 17.3102 81.1671 17.727C80.4315 18.1194 79.8185 18.6466 79.3281 19.3086C78.8622 19.9706 78.5067 20.7063 78.2615 21.5154C78.0408 22.3246 77.9304 23.1338 77.9304 23.9429C77.9304 24.8502 78.0653 25.7207 78.335 26.5543C78.6047 27.388 78.9971 28.1359 79.512 28.7979C80.0269 29.4355 80.6522 29.9381 81.3878 30.3059C82.1479 30.6737 82.9939 30.8576 83.9256 30.8576C84.5877 30.8576 85.262 30.7596 85.9486 30.5634C86.6351 30.3427 87.2604 29.9994 87.8244 29.5336C88.3883 29.0677 88.8174 28.4424 89.1117 27.6578L94.9598 31.1519C94.4448 32.4269 93.5866 33.5181 92.3851 34.4253C91.1836 35.3326 89.8228 36.0314 88.3025 36.5218C86.7823 36.9877 85.2743 37.2207 83.7785 37.2207C81.8414 37.2207 80.0637 36.8406 78.4454 36.0805C76.8515 35.2958 75.4662 34.266 74.2892 32.9909C73.1367 31.6913 72.2417 30.2446 71.6042 28.6508C70.9667 27.0325 70.6479 25.3896 70.6479 23.7222Z" fill="white"/>
<path d="M109.991 37.2207C108.004 37.2207 106.202 36.8529 104.584 36.1172C102.966 35.3571 101.568 34.3518 100.391 33.1013C99.2385 31.8262 98.3435 30.404 97.7059 28.8347C97.0929 27.2409 96.7864 25.5981 96.7864 23.9062C96.7864 22.1652 97.1174 20.5101 97.7795 18.9408C98.4415 17.3715 99.3611 15.9738 100.538 14.7478C101.74 13.4973 103.149 12.5165 104.768 11.8054C106.411 11.0943 108.201 10.7388 110.138 10.7388C112.124 10.7388 113.926 11.1188 115.544 11.879C117.163 12.6146 118.548 13.6199 119.701 14.895C120.853 16.17 121.736 17.6044 122.349 19.1983C122.986 20.7676 123.305 22.3859 123.305 24.0533C123.305 25.7697 122.974 27.4125 122.312 28.9818C121.674 30.5511 120.755 31.9611 119.553 33.2116C118.377 34.4376 116.979 35.4184 115.361 36.154C113.742 36.8651 111.952 37.2207 109.991 37.2207ZM104.069 23.9797C104.069 24.8624 104.192 25.7207 104.437 26.5543C104.682 27.3635 105.05 28.0991 105.54 28.7612C106.031 29.3987 106.644 29.9136 107.379 30.3059C108.139 30.6737 109.034 30.8576 110.064 30.8576C111.094 30.8576 111.989 30.6615 112.749 30.2692C113.509 29.8768 114.122 29.3497 114.588 28.6876C115.079 28.001 115.434 27.2532 115.655 26.444C115.9 25.6103 116.023 24.7644 116.023 23.9062C116.023 23.0234 115.9 22.1775 115.655 21.3683C115.41 20.5591 115.042 19.8358 114.551 19.1983C114.061 18.5362 113.436 18.0213 112.676 17.6535C111.915 17.2857 111.033 17.1018 110.027 17.1018C108.998 17.1018 108.103 17.2979 107.342 17.6903C106.607 18.0826 105.994 18.6098 105.503 19.2718C105.013 19.9093 104.645 20.645 104.4 21.4786C104.179 22.2878 104.069 23.1215 104.069 23.9797Z" fill="white"/>
<path d="M134.621 24.1636V37H127.448V10.8859H133.039L143.521 24.1636V10.8859H150.694V37H144.993L134.621 24.1636Z" fill="white"/>
<path d="M172.096 19.4189C172.096 19.4189 171.888 19.2963 171.471 19.0511C171.054 18.8059 170.502 18.5362 169.816 18.242C169.129 17.9232 168.381 17.6412 167.572 17.396C166.763 17.1508 165.966 17.0282 165.182 17.0282C164.569 17.0282 164.066 17.1263 163.674 17.3225C163.281 17.5186 163.085 17.8496 163.085 18.3155C163.085 18.7569 163.281 19.1124 163.674 19.3822C164.066 19.6519 164.618 19.8971 165.329 20.1178C166.064 20.3385 166.935 20.6082 167.94 20.9269C169.558 21.4173 170.956 21.9813 172.133 22.6188C173.31 23.2564 174.217 24.0778 174.855 25.0831C175.492 26.0639 175.811 27.3758 175.811 29.0186C175.811 30.5879 175.529 31.912 174.965 32.9909C174.401 34.0453 173.641 34.8912 172.685 35.5288C171.728 36.1663 170.662 36.6322 169.485 36.9264C168.308 37.1961 167.106 37.331 165.88 37.331C164.63 37.331 163.318 37.2084 161.945 36.9632C160.596 36.6935 159.284 36.3379 158.009 35.8966C156.734 35.4307 155.57 34.8912 154.515 34.2782L157.605 27.9888C157.605 27.9888 157.85 28.1359 158.34 28.4301C158.831 28.7244 159.481 29.0554 160.29 29.4232C161.099 29.791 161.994 30.122 162.975 30.4163C163.98 30.7105 164.985 30.8576 165.991 30.8576C166.775 30.8576 167.315 30.7596 167.609 30.5634C167.928 30.3427 168.087 30.0607 168.087 29.7175C168.087 29.2025 167.818 28.8102 167.278 28.5405C166.739 28.2462 166.028 27.9765 165.145 27.7313C164.287 27.4616 163.33 27.1551 162.276 26.8118C160.756 26.2969 159.505 25.7207 158.524 25.0831C157.544 24.4211 156.82 23.6487 156.354 22.766C155.888 21.8587 155.655 20.7676 155.655 19.4925C155.655 17.5554 156.109 15.9371 157.016 14.6375C157.924 13.3379 159.113 12.3571 160.584 11.6951C162.08 11.0085 163.686 10.6652 165.402 10.6652C166.677 10.6652 167.903 10.8246 169.08 11.1434C170.282 11.4376 171.397 11.8054 172.427 12.2468C173.482 12.6881 174.401 13.105 175.186 13.4973L172.096 19.4189Z" fill="white"/>
<path d="M200.424 17.1386H192.921V37H185.749V17.1386H178.209V10.8859H200.424V17.1386Z" fill="white"/>
<path d="M204.14 37V10.8859H211.312V37H204.14Z" fill="white"/>
<path d="M237.256 17.1386H229.753V37H222.581V17.1386H215.041V10.8859H237.256V17.1386Z" fill="white"/>
<path d="M252.374 37.2207C250.29 37.2207 248.5 36.8774 247.004 36.1908C245.508 35.5042 244.282 34.5602 243.326 33.3587C242.394 32.1572 241.707 30.7841 241.266 29.2393C240.825 27.67 240.604 26.0272 240.604 24.3107V10.8859H247.776V24.3107C247.776 25.1689 247.862 25.9904 248.034 26.775C248.205 27.5597 248.475 28.2585 248.843 28.8715C249.211 29.4845 249.677 29.9749 250.241 30.3427C250.829 30.686 251.54 30.8576 252.374 30.8576C253.232 30.8576 253.955 30.686 254.544 30.3427C255.132 29.9749 255.598 29.4845 255.942 28.8715C256.309 28.234 256.579 27.5229 256.751 26.7382C256.922 25.9536 257.008 25.1444 257.008 24.3107V10.8859H264.18V24.3107C264.18 26.1252 263.935 27.8171 263.445 29.3864C262.979 30.9557 262.268 32.3289 261.311 33.5058C260.355 34.6828 259.129 35.6023 257.633 36.2644C256.162 36.9019 254.409 37.2207 252.374 37.2207Z" fill="white"/>
<path d="M267.975 23.7222C267.975 22.1284 268.269 20.5714 268.857 19.0511C269.47 17.5064 270.353 16.1087 271.506 14.8582C272.658 13.6076 274.056 12.6146 275.699 11.879C277.366 11.1188 279.242 10.7388 281.326 10.7388C283.827 10.7388 286.009 11.266 287.873 12.3203C289.736 13.3502 291.122 14.7233 292.029 16.4397L286.549 20.3385C286.23 19.4802 285.764 18.8182 285.151 18.3523C284.563 17.8864 283.913 17.5677 283.202 17.396C282.515 17.1999 281.841 17.1018 281.179 17.1018C280.149 17.1018 279.254 17.3102 278.494 17.727C277.758 18.1194 277.145 18.6466 276.655 19.3086C276.189 19.9706 275.833 20.7063 275.588 21.5154C275.368 22.3246 275.257 23.1338 275.257 23.9429C275.257 24.8502 275.392 25.7207 275.662 26.5543C275.932 27.388 276.324 28.1359 276.839 28.7979C277.354 29.4355 277.979 29.9381 278.715 30.3059C279.475 30.6737 280.321 30.8576 281.252 30.8576C281.915 30.8576 282.589 30.7596 283.275 30.5634C283.962 30.3427 284.587 29.9994 285.151 29.5336C285.715 29.0677 286.144 28.4424 286.439 27.6578L292.287 31.1519C291.772 32.4269 290.913 33.5181 289.712 34.4253C288.51 35.3326 287.15 36.0314 285.629 36.5218C284.109 36.9877 282.601 37.2207 281.105 37.2207C279.168 37.2207 277.391 36.8406 275.772 36.0805C274.178 35.2958 272.793 34.266 271.616 32.9909C270.464 31.6913 269.569 30.2446 268.931 28.6508C268.294 27.0325 267.975 25.3896 267.975 23.7222Z" fill="white"/>
<path d="M295.943 37V10.8859H303.115V37H295.943Z" fill="white"/>
<path d="M320.489 37.2207C318.503 37.2207 316.701 36.8529 315.083 36.1172C313.464 35.3571 312.067 34.3518 310.89 33.1013C309.737 31.8262 308.842 30.404 308.205 28.8347C307.592 27.2409 307.285 25.5981 307.285 23.9062C307.285 22.1652 307.616 20.5101 308.278 18.9408C308.94 17.3715 309.86 15.9738 311.037 14.7478C312.238 13.4973 313.648 12.5165 315.267 11.8054C316.909 11.0943 318.699 10.7388 320.637 10.7388C322.623 10.7388 324.425 11.1188 326.043 11.879C327.662 12.6146 329.047 13.6199 330.199 14.895C331.352 16.17 332.235 17.6044 332.848 19.1983C333.485 20.7676 333.804 22.3859 333.804 24.0533C333.804 25.7697 333.473 27.4125 332.811 28.9818C332.173 30.5511 331.254 31.9611 330.052 33.2116C328.875 34.4376 327.478 35.4184 325.859 36.154C324.241 36.8651 322.451 37.2207 320.489 37.2207ZM314.568 23.9797C314.568 24.8624 314.69 25.7207 314.936 26.5543C315.181 27.3635 315.549 28.0991 316.039 28.7612C316.529 29.3987 317.142 29.9136 317.878 30.3059C318.638 30.6737 319.533 30.8576 320.563 30.8576C321.593 30.8576 322.488 30.6615 323.248 30.2692C324.008 29.8768 324.621 29.3497 325.087 28.6876C325.577 28.001 325.933 27.2532 326.154 26.444C326.399 25.6103 326.521 24.7644 326.521 23.9062C326.521 23.0234 326.399 22.1775 326.154 21.3683C325.908 20.5591 325.541 19.8358 325.05 19.1983C324.56 18.5362 323.935 18.0213 323.174 17.6535C322.414 17.2857 321.532 17.1018 320.526 17.1018C319.496 17.1018 318.601 17.2979 317.841 17.6903C317.106 18.0826 316.493 18.6098 316.002 19.2718C315.512 19.9093 315.144 20.645 314.899 21.4786C314.678 22.2878 314.568 23.1215 314.568 23.9797ZM322.843 9.78248L318.43 8.60551L320.269 3.38269H326.485L322.843 9.78248Z" fill="white"/>
<path d="M345.119 24.1636V37H337.947V10.8859H343.538L354.02 24.1636V10.8859H361.192V37H355.491L345.119 24.1636Z" fill="white"/>
<path d="M34.2413 86.4566V96.4325H4.54834V54.7685H33.7132V64.7444H15.9913V70.6125H31.1312V79.8843H15.9913V86.4566H34.2413Z" fill="black"/>
<path d="M66.5562 68.3826C66.5562 68.3826 66.2236 68.187 65.5586 67.7958C64.8935 67.4046 64.0133 66.9743 62.9179 66.5048C61.8225 65.9963 60.6293 65.5464 59.3383 65.1551C58.0473 64.7639 56.7759 64.5683 55.524 64.5683C54.546 64.5683 53.744 64.7248 53.118 65.0378C52.4921 65.3508 52.1791 65.8789 52.1791 66.6222C52.1791 67.3264 52.4921 67.8936 53.118 68.324C53.744 68.7543 54.6242 69.1455 55.7587 69.4976C56.9324 69.8497 58.3212 70.28 59.9251 70.7886C62.5071 71.571 64.737 72.4708 66.6149 73.488C68.4927 74.5051 69.9402 75.8157 70.9573 77.4196C71.9745 78.9845 72.483 81.0775 72.483 83.6986C72.483 86.2023 72.0331 88.3149 71.1333 90.0362C70.2336 91.7184 69.0208 93.0681 67.4951 94.0853C65.9694 95.1024 64.2676 95.8457 62.3898 96.3152C60.5119 96.7455 58.595 96.9607 56.639 96.9607C54.6438 96.9607 52.5508 96.7651 50.36 96.3738C48.2083 95.9435 46.1154 95.3763 44.0811 94.6721C42.0468 93.9288 40.1885 93.0681 38.5063 92.0901L43.4356 82.0555C43.4356 82.0555 43.8268 82.2902 44.6092 82.7597C45.3916 83.2291 46.4283 83.7573 47.7193 84.3441C49.0103 84.9309 50.4382 85.459 52.0031 85.9285C53.6071 86.3979 55.211 86.6327 56.815 86.6327C58.0669 86.6327 58.9275 86.4762 59.397 86.1632C59.9056 85.8111 60.1599 85.3612 60.1599 84.8135C60.1599 83.992 59.7295 83.3661 58.8689 82.9357C58.0082 82.4663 56.8737 82.0359 55.4653 81.6447C54.0961 81.2144 52.5703 80.7254 50.8881 80.1777C48.4626 79.3561 46.4674 78.4368 44.9026 77.4196C43.3377 76.3634 42.1837 75.131 41.4404 73.7227C40.6971 72.2752 40.3254 70.5343 40.3254 68.5C40.3254 65.4094 41.0492 62.8274 42.4966 60.754C43.9441 58.6806 45.8415 57.1157 48.1888 56.0595C50.5752 54.9641 53.1376 54.4164 55.8761 54.4164C57.9104 54.4164 59.8664 54.6707 61.7443 55.1792C63.6612 55.6487 65.4412 56.2355 67.0843 56.9397C68.7665 57.6439 70.2336 58.3089 71.4854 58.9349L66.5562 68.3826Z" fill="black"/>
<path d="M105.685 75.9526V96.4325H94.242V54.7685H103.162L119.886 75.9526V54.7685H131.329V96.4325H122.233L105.685 75.9526Z" fill="black"/>
<path d="M158.434 96.7846C155.109 96.7846 152.253 96.2369 149.867 95.1415C147.48 94.0461 145.524 92.54 143.999 90.623C142.512 88.7061 141.417 86.5153 140.712 84.0507C140.008 81.5469 139.656 78.9258 139.656 76.1873V54.7685H151.099V76.1873C151.099 77.5566 151.236 78.8671 151.51 80.119C151.784 81.3709 152.214 82.4858 152.801 83.4639C153.388 84.4419 154.131 85.2243 155.031 85.8111C155.97 86.3588 157.104 86.6327 158.434 86.6327C159.804 86.6327 160.958 86.3588 161.897 85.8111C162.836 85.2243 163.579 84.4419 164.127 83.4639C164.713 82.4467 165.144 81.3122 165.418 80.0603C165.691 78.8084 165.828 77.5174 165.828 76.1873V54.7685H177.271V76.1873C177.271 79.0823 176.88 81.7816 176.098 84.2854C175.354 86.7892 174.22 88.9799 172.694 90.8578C171.168 92.7356 169.212 94.2026 166.826 95.2589C164.479 96.276 161.681 96.7846 158.434 96.7846Z" fill="black"/>
<path d="M215.307 86.4566V96.4325H185.614V54.7685H214.779V64.7444H197.057V70.6125H212.197V79.8843H197.057V86.4566H215.307Z" fill="black"/>
<path d="M247.622 68.3826C247.622 68.3826 247.289 68.187 246.624 67.7958C245.959 67.4046 245.079 66.9743 243.983 66.5048C242.888 65.9963 241.695 65.5464 240.404 65.1551C239.113 64.7639 237.841 64.5683 236.589 64.5683C235.611 64.5683 234.809 64.7248 234.183 65.0378C233.557 65.3508 233.244 65.8789 233.244 66.6222C233.244 67.3264 233.557 67.8936 234.183 68.324C234.809 68.7543 235.69 69.1455 236.824 69.4976C237.998 69.8497 239.386 70.28 240.99 70.7886C243.572 71.571 245.802 72.4708 247.68 73.488C249.558 74.5051 251.005 75.8157 252.023 77.4196C253.04 78.9845 253.548 81.0775 253.548 83.6986C253.548 86.2023 253.098 88.3149 252.199 90.0362C251.299 91.7184 250.086 93.0681 248.56 94.0853C247.035 95.1024 245.333 95.8457 243.455 96.3152C241.577 96.7455 239.66 96.9607 237.704 96.9607C235.709 96.9607 233.616 96.7651 231.425 96.3738C229.274 95.9435 227.181 95.3763 225.146 94.6721C223.112 93.9288 221.254 93.0681 219.572 92.0901L224.501 82.0555C224.501 82.0555 224.892 82.2902 225.675 82.7597C226.457 83.2291 227.494 83.7573 228.785 84.3441C230.076 84.9309 231.504 85.459 233.068 85.9285C234.672 86.3979 236.276 86.6327 237.88 86.6327C239.132 86.6327 239.993 86.4762 240.462 86.1632C240.971 85.8111 241.225 85.3612 241.225 84.8135C241.225 83.992 240.795 83.3661 239.934 82.9357C239.074 82.4663 237.939 82.0359 236.531 81.6447C235.161 81.2144 233.636 80.7254 231.953 80.1777C229.528 79.3561 227.533 78.4368 225.968 77.4196C224.403 76.3634 223.249 75.131 222.506 73.7227C221.762 72.2752 221.391 70.5343 221.391 68.5C221.391 65.4094 222.114 62.8274 223.562 60.754C225.009 58.6806 226.907 57.1157 229.254 56.0595C231.641 54.9641 234.203 54.4164 236.941 54.4164C238.976 54.4164 240.932 54.6707 242.81 55.1792C244.727 55.6487 246.507 56.2355 248.15 56.9397C249.832 57.6439 251.299 58.3089 252.551 58.9349L247.622 68.3826Z" fill="black"/>
<path d="M292.817 64.7444H280.846V96.4325H269.403V64.7444H257.374V54.7685H292.817V64.7444Z" fill="black"/>
<path d="M298.746 96.4325V54.7685H317.876C319.91 54.7685 321.788 55.1792 323.509 56.0008C325.231 56.8223 326.717 57.9373 327.969 59.3456C329.221 60.7149 330.18 62.2602 330.845 63.9815C331.549 65.7028 331.901 67.4437 331.901 69.2042C331.901 70.8082 331.666 72.3534 331.197 73.84C330.727 75.3267 330.043 76.6959 329.143 77.9478C328.243 79.1605 327.167 80.2168 325.915 81.1166L334.718 96.4325H322.16L314.824 83.6399H310.189V96.4325H298.746ZM310.189 73.664H317.406C317.876 73.664 318.326 73.488 318.756 73.1359C319.186 72.7838 319.539 72.2752 319.812 71.6101C320.125 70.9451 320.282 70.1431 320.282 69.2042C320.282 68.2262 320.106 67.4242 319.754 66.7982C319.441 66.1332 319.03 65.6246 318.521 65.2725C318.052 64.9204 317.583 64.7444 317.113 64.7444H310.189V73.664Z" fill="black"/>
<path d="M349.729 54.7685H362.521L375.783 96.4325H364.164L361.641 88.2758H350.55L348.086 96.4325H336.408L349.729 54.7685ZM359.822 80.6471L356.125 65.9767L352.252 80.6471H359.822Z" fill="black"/>
</svg>
