<svg width="301" height="79" viewBox="0 0 301 79" fill="none" xmlns="http://www.w3.org/2000/svg">
<path d="M0.829987 28V6.70002H6.67999V22.9H16.34V28H0.829987Z" fill="black"/>
<path d="M24.1988 6.70002H30.7388L37.5188 28H31.5788L30.2888 23.83H24.6188L23.3588 28H17.3888L24.1988 6.70002ZM29.3588 19.93L27.4688 12.43L25.4888 19.93H29.3588Z" fill="black"/>
<path d="M46.9187 28V6.70002H55.1087C57.4687 6.70002 59.4387 7.18002 61.0187 8.14002C62.6187 9.08002 63.8187 10.36 64.6187 11.98C65.4387 13.58 65.8487 15.36 65.8487 17.32C65.8487 19.48 65.3987 21.36 64.4987 22.96C63.6187 24.56 62.3687 25.8 60.7487 26.68C59.1487 27.56 57.2687 28 55.1087 28H46.9187ZM59.9087 17.32C59.9087 16.22 59.7187 15.26 59.3387 14.44C58.9587 13.6 58.4087 12.95 57.6887 12.49C56.9687 12.03 56.1087 11.8 55.1087 11.8H52.7687V22.9H55.1087C56.1287 22.9 56.9887 22.66 57.6887 22.18C58.4087 21.7 58.9587 21.04 59.3387 20.2C59.7187 19.34 59.9087 18.38 59.9087 17.32Z" fill="black"/>
<path d="M84.4733 22.9V28H69.2933V6.70002H84.2033V11.8H75.1433V14.8H82.8833V19.54H75.1433V22.9H84.4733Z" fill="black"/>
<path d="M86.6014 17.17C86.6014 15.87 86.8414 14.6 87.3214 13.36C87.8214 12.1 88.5414 10.96 89.4814 9.94002C90.4214 8.92002 91.5614 8.11002 92.9014 7.51002C94.2614 6.89002 95.7914 6.58002 97.4914 6.58002C99.5314 6.58002 101.311 7.01002 102.831 7.87002C104.351 8.71002 105.481 9.83002 106.221 11.23L101.751 14.41C101.491 13.71 101.111 13.17 100.611 12.79C100.131 12.41 99.6014 12.15 99.0214 12.01C98.4614 11.85 97.9114 11.77 97.3714 11.77C96.5314 11.77 95.8014 11.94 95.1814 12.28C94.5814 12.6 94.0814 13.03 93.6814 13.57C93.3014 14.11 93.0114 14.71 92.8114 15.37C92.6314 16.03 92.5414 16.69 92.5414 17.35C92.5414 18.09 92.6514 18.8 92.8714 19.48C93.0914 20.16 93.4114 20.77 93.8314 21.31C94.2514 21.83 94.7614 22.24 95.3614 22.54C95.9814 22.84 96.6714 22.99 97.4314 22.99C97.9714 22.99 98.5214 22.91 99.0814 22.75C99.6414 22.57 100.151 22.29 100.611 21.91C101.071 21.53 101.421 21.02 101.661 20.38L106.431 23.23C106.011 24.27 105.311 25.16 104.331 25.9C103.351 26.64 102.241 27.21 101.001 27.61C99.7614 27.99 98.5314 28.18 97.3114 28.18C95.7314 28.18 94.2814 27.87 92.9614 27.25C91.6614 26.61 90.5314 25.77 89.5714 24.73C88.6314 23.67 87.9014 22.49 87.3814 21.19C86.8614 19.87 86.6014 18.53 86.6014 17.17Z" fill="black"/>
<path d="M109.414 28V6.70002H115.264V28H109.414Z" fill="black"/>
<path d="M132.735 13.66C132.735 13.66 132.565 13.56 132.225 13.36C131.885 13.16 131.435 12.94 130.875 12.7C130.315 12.44 129.705 12.21 129.045 12.01C128.385 11.81 127.735 11.71 127.095 11.71C126.595 11.71 126.185 11.79 125.865 11.95C125.545 12.11 125.385 12.38 125.385 12.76C125.385 13.12 125.545 13.41 125.865 13.63C126.185 13.85 126.635 14.05 127.215 14.23C127.815 14.41 128.525 14.63 129.345 14.89C130.665 15.29 131.805 15.75 132.765 16.27C133.725 16.79 134.465 17.46 134.985 18.28C135.505 19.08 135.765 20.15 135.765 21.49C135.765 22.77 135.535 23.85 135.075 24.73C134.615 25.59 133.995 26.28 133.215 26.8C132.435 27.32 131.565 27.7 130.605 27.94C129.645 28.16 128.665 28.27 127.665 28.27C126.645 28.27 125.575 28.17 124.455 27.97C123.355 27.75 122.285 27.46 121.245 27.1C120.205 26.72 119.255 26.28 118.395 25.78L120.915 20.65C120.915 20.65 121.115 20.77 121.515 21.01C121.915 21.25 122.445 21.52 123.105 21.82C123.765 22.12 124.495 22.39 125.295 22.63C126.115 22.87 126.935 22.99 127.755 22.99C128.395 22.99 128.835 22.91 129.075 22.75C129.335 22.57 129.465 22.34 129.465 22.06C129.465 21.64 129.245 21.32 128.805 21.1C128.365 20.86 127.785 20.64 127.065 20.44C126.365 20.22 125.585 19.97 124.725 19.69C123.485 19.27 122.465 18.8 121.665 18.28C120.865 17.74 120.275 17.11 119.895 16.39C119.515 15.65 119.325 14.76 119.325 13.72C119.325 12.14 119.695 10.82 120.435 9.76002C121.175 8.70002 122.145 7.90002 123.345 7.36002C124.565 6.80002 125.875 6.52002 127.275 6.52002C128.315 6.52002 129.315 6.65002 130.275 6.91002C131.255 7.15002 132.165 7.45002 133.005 7.81002C133.865 8.17002 134.615 8.51002 135.255 8.83002L132.735 13.66Z" fill="black"/>
<path d="M139.251 28V6.70002H145.101V28H139.251Z" fill="black"/>
<path d="M159.272 28.18C157.652 28.18 156.182 27.88 154.862 27.28C153.542 26.66 152.402 25.84 151.442 24.82C150.502 23.78 149.772 22.62 149.252 21.34C148.752 20.04 148.502 18.7 148.502 17.32C148.502 15.9 148.772 14.55 149.312 13.27C149.852 11.99 150.602 10.85 151.562 9.85002C152.542 8.83002 153.692 8.03002 155.012 7.45002C156.352 6.87002 157.812 6.58002 159.392 6.58002C161.012 6.58002 162.482 6.89002 163.802 7.51002C165.122 8.11002 166.252 8.93002 167.192 9.97002C168.132 11.01 168.852 12.18 169.352 13.48C169.872 14.76 170.132 16.08 170.132 17.44C170.132 18.84 169.862 20.18 169.322 21.46C168.802 22.74 168.052 23.89 167.072 24.91C166.112 25.91 164.972 26.71 163.652 27.31C162.332 27.89 160.872 28.18 159.272 28.18ZM154.442 17.38C154.442 18.1 154.542 18.8 154.742 19.48C154.942 20.14 155.242 20.74 155.642 21.28C156.042 21.8 156.542 22.22 157.142 22.54C157.762 22.84 158.492 22.99 159.332 22.99C160.172 22.99 160.902 22.83 161.522 22.51C162.142 22.19 162.642 21.76 163.022 21.22C163.422 20.66 163.712 20.05 163.892 19.39C164.092 18.71 164.192 18.02 164.192 17.32C164.192 16.6 164.092 15.91 163.892 15.25C163.692 14.59 163.392 14 162.992 13.48C162.592 12.94 162.082 12.52 161.462 12.22C160.842 11.92 160.122 11.77 159.302 11.77C158.462 11.77 157.732 11.93 157.112 12.25C156.512 12.57 156.012 13 155.612 13.54C155.212 14.06 154.912 14.66 154.712 15.34C154.532 16 154.442 16.68 154.442 17.38ZM161.192 5.80002L157.592 4.84002L159.092 0.580017H164.162L161.192 5.80002Z" fill="black"/>
<path d="M179.362 17.53V28H173.512V6.70002H178.072L186.622 17.53V6.70002H192.472V28H187.822L179.362 17.53Z" fill="black"/>
<path d="M204.667 28V6.70002H219.277V11.8H210.517V15.34H217.657V20.08H210.517V28H204.667Z" fill="black"/>
<path d="M222.471 28V6.70002H228.321V28H222.471Z" fill="black"/>
<path d="M238.743 17.53V28H232.893V6.70002H237.453L246.003 17.53V6.70002H251.853V28H247.203L238.743 17.53Z" fill="black"/>
<path d="M261.33 6.70002H267.87L274.65 28H268.71L267.42 23.83H261.75L260.49 28H254.52L261.33 6.70002ZM266.49 19.93L264.6 12.43L262.62 19.93H266.49Z" fill="black"/>
<path d="M277.32 28V6.70002H283.17V22.9H292.83V28H277.32Z" fill="black"/>
<path d="M25.7377 70.001V78.0176H1.87653V44.5364H25.3133V52.553H11.0721V57.2687H23.2384V64.7194H11.0721V70.001H25.7377Z" fill="black"/>
<path d="M51.7059 55.4767C51.7059 55.4767 51.4387 55.3195 50.9042 55.0052C50.3698 54.6908 49.6624 54.345 48.7822 53.9677C47.9019 53.559 46.9431 53.1975 45.9056 52.8831C44.8682 52.5687 43.8465 52.4116 42.8405 52.4116C42.0545 52.4116 41.4101 52.5373 40.907 52.7888C40.404 53.0403 40.1525 53.4647 40.1525 54.062C40.1525 54.6279 40.404 55.0838 40.907 55.4296C41.4101 55.7754 42.1174 56.0898 43.0291 56.3727C43.9722 56.6557 45.0883 57.0015 46.3772 57.4102C48.4521 58.0389 50.244 58.762 51.7531 59.5794C53.2621 60.3967 54.4253 61.4499 55.2426 62.7388C56.06 63.9964 56.4687 65.6783 56.4687 67.7846C56.4687 69.7966 56.1072 71.4942 55.3841 72.8775C54.661 74.2293 53.6865 75.3139 52.4604 76.1313C51.2343 76.9487 49.8668 77.546 48.3578 77.9233C46.8488 78.2691 45.3083 78.442 43.7364 78.442C42.1331 78.442 40.4512 78.2848 38.6907 77.9704C36.9616 77.6246 35.2797 77.1688 33.6449 76.6029C32.0102 76.0056 30.5169 75.3139 29.1651 74.528L33.1262 66.4642C33.1262 66.4642 33.4406 66.6528 34.0693 67.0301C34.6981 67.4073 35.5312 67.8318 36.5686 68.3033C37.6061 68.7749 38.7536 69.1993 40.0111 69.5765C41.3 69.9538 42.589 70.1424 43.8779 70.1424C44.8839 70.1424 45.5755 70.0167 45.9528 69.7652C46.3615 69.4822 46.5658 69.1207 46.5658 68.6806C46.5658 68.0204 46.22 67.5174 45.5284 67.1716C44.8368 66.7943 43.9251 66.4485 42.7933 66.1341C41.693 65.7883 40.4669 65.3953 39.1151 64.9552C37.166 64.295 35.5626 63.5562 34.3051 62.7388C33.0476 61.89 32.1202 60.8997 31.5229 59.768C30.9256 58.6048 30.6269 57.2058 30.6269 55.5711C30.6269 53.0875 31.2085 51.0126 32.3717 49.3464C33.5349 47.6802 35.0596 46.4227 36.9459 45.5739C38.8636 44.6936 40.9228 44.2535 43.1234 44.2535C44.7582 44.2535 46.33 44.4578 47.8391 44.8665C49.3795 45.2438 50.8099 45.7153 52.1303 46.2812C53.4821 46.8471 54.661 47.3815 55.667 47.8845L51.7059 55.4767Z" fill="black"/>
<path d="M83.1497 61.5599V78.0176H73.9542V44.5364H81.122L94.5616 61.5599V44.5364H103.757V78.0176H96.4479L83.1497 61.5599Z" fill="black"/>
<path d="M125.539 78.3005C122.867 78.3005 120.572 77.8604 118.654 76.9801C116.736 76.0999 115.165 74.8895 113.939 73.3491C112.744 71.8086 111.864 70.0481 111.298 68.0675C110.732 66.0555 110.449 63.9492 110.449 61.7486V44.5364H119.644V61.7486C119.644 62.8489 119.755 63.902 119.975 64.908C120.195 65.9141 120.54 66.81 121.012 67.596C121.484 68.3819 122.081 69.0107 122.804 69.4822C123.558 69.9224 124.47 70.1424 125.539 70.1424C126.639 70.1424 127.567 69.9224 128.321 69.4822C129.076 69.0107 129.673 68.3819 130.113 67.596C130.585 66.7786 130.931 65.8669 131.151 64.8609C131.371 63.8549 131.481 62.8174 131.481 61.7486V44.5364H140.676V61.7486C140.676 64.0749 140.362 66.2442 139.733 68.2562C139.136 70.2682 138.224 72.0287 136.998 73.5377C135.772 75.0467 134.2 76.2256 132.282 77.0744C130.396 77.8918 128.148 78.3005 125.539 78.3005Z" fill="black"/>
<path d="M171.241 70.001V78.0176H147.38V44.5364H170.817V52.553H156.576V57.2687H168.742V64.7194H156.576V70.001H171.241Z" fill="black"/>
<path d="M197.21 55.4767C197.21 55.4767 196.942 55.3195 196.408 55.0052C195.874 54.6908 195.166 54.345 194.286 53.9677C193.406 53.559 192.447 53.1975 191.409 52.8831C190.372 52.5687 189.35 52.4116 188.344 52.4116C187.558 52.4116 186.914 52.5373 186.411 52.7888C185.908 53.0403 185.656 53.4647 185.656 54.062C185.656 54.6279 185.908 55.0838 186.411 55.4296C186.914 55.7754 187.621 56.0898 188.533 56.3727C189.476 56.6557 190.592 57.0015 191.881 57.4102C193.956 58.0389 195.748 58.762 197.257 59.5794C198.766 60.3967 199.929 61.4499 200.746 62.7388C201.564 63.9964 201.972 65.6783 201.972 67.7846C201.972 69.7966 201.611 71.4942 200.888 72.8775C200.165 74.2293 199.19 75.3139 197.964 76.1313C196.738 76.9487 195.371 77.546 193.862 77.9233C192.353 78.2691 190.812 78.442 189.24 78.442C187.637 78.442 185.955 78.2848 184.194 77.9704C182.465 77.6246 180.783 77.1688 179.149 76.6029C177.514 76.0056 176.021 75.3139 174.669 74.528L178.63 66.4642C178.63 66.4642 178.944 66.6528 179.573 67.0301C180.202 67.4073 181.035 67.8318 182.072 68.3033C183.11 68.7749 184.257 69.1993 185.515 69.5765C186.804 69.9538 188.093 70.1424 189.382 70.1424C190.388 70.1424 191.079 70.0167 191.457 69.7652C191.865 69.4822 192.07 69.1207 192.07 68.6806C192.07 68.0204 191.724 67.5174 191.032 67.1716C190.341 66.7943 189.429 66.4485 188.297 66.1341C187.197 65.7883 185.971 65.3953 184.619 64.9552C182.67 64.295 181.066 63.5562 179.809 62.7388C178.551 61.89 177.624 60.8997 177.027 59.768C176.429 58.6048 176.131 57.2058 176.131 55.5711C176.131 53.0875 176.712 51.0126 177.875 49.3464C179.039 47.6802 180.563 46.4227 182.45 45.5739C184.367 44.6936 186.427 44.2535 188.627 44.2535C190.262 44.2535 191.834 44.4578 193.343 44.8665C194.883 45.2438 196.314 45.7153 197.634 46.2812C198.986 46.8471 200.165 47.3815 201.171 47.8845L197.21 55.4767Z" fill="black"/>
<path d="M233.529 52.553H223.909V78.0176H214.714V52.553H205.046V44.5364H233.529V52.553Z" fill="black"/>
<path d="M238.293 78.0176V44.5364H253.666C255.301 44.5364 256.81 44.8665 258.193 45.5267C259.576 46.1869 260.771 47.0829 261.777 48.2146C262.783 49.3149 263.553 50.5567 264.088 51.94C264.653 53.3233 264.936 54.7222 264.936 56.1369C264.936 57.4259 264.748 58.6677 264.371 59.8623C263.993 61.0569 263.443 62.1573 262.72 63.1633C261.997 64.1378 261.132 64.9866 260.126 65.7097L267.2 78.0176H257.108L251.214 67.7374H247.488V78.0176H238.293ZM247.488 59.7208H253.289C253.666 59.7208 254.028 59.5794 254.373 59.2964C254.719 59.0135 255.002 58.6048 255.222 58.0703C255.474 57.5359 255.599 56.8914 255.599 56.1369C255.599 55.351 255.458 54.7065 255.175 54.2035C254.923 53.6691 254.593 53.2604 254.185 52.9774C253.807 52.6945 253.43 52.553 253.053 52.553H247.488V59.7208Z" fill="black"/>
<path d="M279.263 44.5364H289.543L300.2 78.0176H290.863L288.836 71.4628H279.923L277.942 78.0176H268.558L279.263 44.5364ZM287.374 65.3325L284.403 53.5433L281.291 65.3325H287.374Z" fill="black"/>
</svg>
