<svg width="235" height="91" viewBox="0 0 235 91" fill="none" xmlns="http://www.w3.org/2000/svg">
<path d="M21.4433 33.1655V14.5539H12.3152V33.1655H21.4433Z" fill="#75AADB"/>
<path d="M48.8572 68.0821V51.9344H40.2936V68.0821H48.8572Z" fill="#CC0000"/>
<path d="M11.5989 14.5105H17.5251V32.0801H25.6438V38.397H11.6803V14.5186L11.5989 14.5105Z" fill="black"/>
<path d="M44.8332 31.5157C43.8937 30.6011 42.6326 30.0923 41.3215 30.0989C40.0105 30.1055 38.7545 30.627 37.8243 31.551C36.899 32.4831 36.3798 33.7433 36.3798 35.0567C36.3798 36.3702 36.899 37.6303 37.8243 38.5625C38.2812 39.0223 38.8245 39.3872 39.4228 39.6363C40.0212 39.8854 40.6629 40.0139 41.3111 40.0142C41.9643 40.0317 42.6142 39.9145 43.2201 39.6699C43.8261 39.4252 44.3751 39.0585 44.8332 38.5924L48.8056 42.5214C47.7084 43.639 46.3759 44.4979 44.905 45.0358C43.4342 45.5736 41.8619 45.7769 40.3026 45.6309C38.7433 45.4848 37.2362 44.9931 35.8908 44.1914C34.5454 43.3898 33.3956 42.2983 32.5249 40.9965C31.6493 39.6944 31.0725 38.2148 30.8358 36.6636C30.599 35.1125 30.7082 33.5281 31.1555 32.0241C31.6028 30.5201 32.3772 29.1336 33.4232 27.964C34.4691 26.7943 35.7608 25.8704 37.2056 25.2585C39.1352 24.4474 41.2627 24.23 43.3164 24.634C45.3701 25.0381 47.2567 26.0453 48.7351 27.5269L44.8332 31.5157Z" fill="black"/>
<path d="M11.7862 45.1588H25.1147V49.6577H17.4057V52.9926H24.2328V57.5674H17.4057V61.3663H25.1147V65.7865H11.7862V45.1588Z" fill="black"/>
<path d="M46.5617 75.905L36.834 66.1366V75.905H31.4261V55.2828H33.6348L43.4033 65.0105V55.2719H48.8084V75.8942L46.5617 75.905Z" fill="black"/>
<path d="M25.6438 70.782H11.5989V76.2903H25.6438V70.782Z" fill="#FFD700"/>
<path d="M48.5941 14.4969H31.7408V20.8165H48.5941V14.4969Z" fill="#008000"/>
<path d="M57.6082 3H3V88.745H57.6082V3Z" stroke="black" stroke-width="4.37542" stroke-miterlimit="10"/>
<path d="M79.5193 29.0492H82.8405V38.4296H87.3883V41.8024H79.5654V29.0492H79.5193Z" fill="black"/>
<path d="M88.745 41.8024L94.6196 29.0492H96.1229L102.041 41.8024H98.7169L97.9436 40.139H92.788L92.0228 41.8024H88.745ZM94.0715 37.3198H96.614L95.3387 34.5005L94.0715 37.3198Z" fill="black"/>
<path d="M114.582 33.3011C114.018 32.752 113.261 32.4466 112.474 32.4506C111.686 32.4547 110.932 32.768 110.374 33.3229C109.818 33.8821 109.506 34.6386 109.506 35.4271C109.506 36.2157 109.818 36.9722 110.374 37.5314C110.648 37.8072 110.974 38.0262 111.333 38.1757C111.692 38.3251 112.077 38.4022 112.466 38.4024C112.858 38.4134 113.248 38.3437 113.611 38.1975C113.975 38.0514 114.305 37.8321 114.58 37.5531L116.965 39.903C116.306 40.5732 115.507 41.0884 114.624 41.411C113.742 41.7336 112.799 41.8555 111.863 41.7679C110.928 41.6804 110.024 41.3855 109.216 40.9047C108.409 40.4239 107.719 39.7694 107.196 38.9885C106.67 38.2069 106.323 37.3185 106.18 36.387C106.038 35.4555 106.103 34.5039 106.371 33.6006C106.64 32.6972 107.105 31.8645 107.733 31.162C108.361 30.4596 109.137 29.9049 110.005 29.5376C111.162 29.0503 112.439 28.919 113.671 29.1607C114.904 29.4024 116.036 30.0059 116.924 30.8943L114.582 33.3011Z" fill="black"/>
<path d="M123.477 29.0492C124.298 29.0496 125.11 29.2147 125.865 29.5349C126.624 29.857 127.312 30.3264 127.889 30.916C128.472 31.5103 128.933 32.2126 129.246 32.9837C129.88 34.5501 129.88 36.3015 129.246 37.8679C128.933 38.6389 128.472 39.3413 127.889 39.9355C127.312 40.5252 126.624 40.9946 125.865 41.3167C124.724 41.7999 123.464 41.9266 122.25 41.6801C121.035 41.4336 119.924 40.8254 119.062 39.9355C117.89 38.7275 117.235 37.1104 117.235 35.4271C117.235 33.7439 117.89 32.1268 119.062 30.9187C119.636 30.3284 120.323 29.8589 121.081 29.5379C121.839 29.2168 122.654 29.0506 123.477 29.0492ZM123.477 32.384C123.082 32.3849 122.691 32.4649 122.327 32.6191C121.963 32.7733 121.633 32.9988 121.358 33.2821C120.792 33.8629 120.475 34.6418 120.475 35.4529C120.475 36.264 120.792 37.0429 121.358 37.6237C121.633 37.9074 121.962 38.133 122.327 38.2871C122.691 38.4411 123.082 38.5205 123.477 38.5205C123.872 38.5205 124.264 38.4411 124.628 38.2871C124.992 38.133 125.321 37.9074 125.596 37.6237C126.162 37.0429 126.479 36.264 126.479 35.4529C126.479 34.6418 126.162 33.8629 125.596 33.2821C125.321 32.9988 124.991 32.7733 124.627 32.6191C124.263 32.4649 123.872 32.3849 123.477 32.384Z" fill="black"/>
<path d="M140.843 41.8024L134.743 35.7731V41.8024H131.346V29.0492H132.703L138.794 35.0784V29.0492H142.2V41.8024H140.843Z" fill="black"/>
<path d="M148.829 32.9457C148.83 32.7533 148.776 32.5647 148.672 32.403C148.571 32.2455 148.425 32.1217 148.254 32.0475C148.083 31.9738 147.893 31.9548 147.711 31.9932C147.528 32.0331 147.361 32.1277 147.233 32.2646C147.102 32.4009 147.014 32.5725 146.978 32.7584C146.943 32.9452 146.962 33.1382 147.033 33.3147C147.101 33.4898 147.22 33.6409 147.375 33.7488C147.527 33.8548 147.707 33.9116 147.893 33.9116C148.469 33.9132 149.037 34.0499 149.551 34.3105C150.073 34.5721 150.529 34.9498 150.883 35.4149C151.417 36.1268 151.703 36.9942 151.697 37.8841C151.695 38.9211 151.292 39.9171 150.571 40.6627C150.223 41.0252 149.805 41.3131 149.342 41.5089C148.879 41.7047 148.381 41.8044 147.879 41.8018C147.376 41.7993 146.88 41.6946 146.419 41.4941C145.958 41.2936 145.543 41.0015 145.198 40.6356C144.485 39.8828 144.091 38.8831 144.099 37.8461H146.967C146.966 38.0385 147.021 38.2271 147.125 38.3888C147.226 38.5463 147.371 38.6701 147.543 38.7443C147.714 38.818 147.903 38.837 148.085 38.7986C148.269 38.7589 148.435 38.6642 148.563 38.5272C148.694 38.3909 148.783 38.2193 148.818 38.0334C148.853 37.8466 148.835 37.6536 148.764 37.4771C148.695 37.3019 148.576 37.1508 148.422 37.043C148.27 36.937 148.089 36.8802 147.904 36.8802C147.155 36.8751 146.425 36.6423 145.812 36.2126C145.188 35.7747 144.707 35.1633 144.428 34.4543C144.144 33.7373 144.07 32.9541 144.216 32.1967C144.36 31.4442 144.719 30.7495 145.25 30.1969C145.771 29.6533 146.445 29.2798 147.182 29.1251C147.911 28.975 148.668 29.0507 149.353 29.3422C150.049 29.6405 150.641 30.1404 151.051 30.7776C151.47 31.4243 151.694 32.1778 151.697 32.9484L148.829 32.9457Z" fill="black"/>
<path d="M153.054 29.0492H163.093V32.3731H159.734V41.8024H156.375V32.3731H153.054V29.0492Z" fill="black"/>
<path d="M164.721 29.0492H167.978V41.8024H164.721V29.0492Z" fill="black"/>
<path d="M169.877 29.0492H179.917V32.3731H176.558V41.8024H173.198V32.3731H169.877V29.0492Z" fill="black"/>
<path d="M184.633 36.7011C184.633 37.1415 184.808 37.5639 185.119 37.8753C185.431 38.1868 185.853 38.3617 186.294 38.3617C186.734 38.3617 187.156 38.1868 187.468 37.8753C187.779 37.5639 187.954 37.1415 187.954 36.7011V29.0492H191.314V36.7771C191.314 38.1084 190.785 39.3853 189.843 40.3267C188.902 41.2681 187.625 41.797 186.294 41.797C184.962 41.797 183.686 41.2681 182.744 40.3267C181.803 39.3853 181.274 38.1084 181.274 36.7771V29.0492H184.633V36.7011Z" fill="black"/>
<path d="M201.201 33.3011C200.932 33.0258 200.61 32.808 200.254 32.6608C199.901 32.5152 199.521 32.4441 199.139 32.4518C198.663 32.4574 198.197 32.5835 197.782 32.8181C197.367 33.0552 197.015 33.3906 196.76 33.795C196.5 34.2045 196.342 34.6698 196.298 35.1525C196.254 35.6351 196.326 36.1213 196.507 36.5708C196.688 37.0209 196.977 37.4196 197.348 37.7322C197.71 38.0401 198.143 38.2528 198.607 38.3509C199.069 38.4427 199.547 38.4166 199.997 38.2749C200.451 38.1359 200.865 37.886 201.199 37.5477L203.524 39.903C202.673 40.7951 201.572 41.4098 200.366 41.6667C199.166 41.9192 197.918 41.7989 196.789 41.3221C195.649 40.8372 194.679 40.0239 194.003 38.9858C193.317 37.9318 192.949 36.7025 192.944 35.4451C192.939 34.1876 193.296 32.9553 193.973 31.8956C194.64 30.8513 195.604 30.0295 196.741 29.5349C197.866 29.0487 199.113 28.9181 200.314 29.1604C201.523 29.4066 202.629 30.0119 203.489 30.897L201.201 33.3011Z" fill="black"/>
<path d="M205.423 29.0492H208.68V41.8024H205.423V29.0492Z" fill="black"/>
<path d="M221.777 21.7228L223.332 23.2233L220.003 27.1497L218.448 25.6492L221.777 21.7228Z" fill="black"/>
<path d="M216.549 29.0492C217.369 29.0496 218.181 29.2147 218.936 29.5349C219.696 29.857 220.384 30.3264 220.961 30.916C221.543 31.5103 222.004 32.2126 222.317 32.9837C222.951 34.5501 222.951 36.3015 222.317 37.8679C222.004 38.6389 221.543 39.3413 220.961 39.9355C220.384 40.5252 219.696 40.9946 218.936 41.3167C217.796 41.7999 216.535 41.9266 215.321 41.6801C214.107 41.4336 212.996 40.8254 212.134 39.9355C210.962 38.7275 210.306 37.1104 210.306 35.4271C210.306 33.7439 210.962 32.1268 212.134 30.9187C212.708 30.3284 213.394 29.8589 214.152 29.5379C214.91 29.2168 215.725 29.0506 216.549 29.0492ZM216.549 32.384C216.153 32.3849 215.762 32.4649 215.398 32.6191C215.034 32.7733 214.705 32.9988 214.429 33.2821C213.863 33.8629 213.546 34.6418 213.546 35.4529C213.546 36.264 213.863 37.0429 214.429 37.6237C214.705 37.9074 215.034 38.133 215.398 38.2871C215.762 38.4411 216.153 38.5205 216.549 38.5205C216.944 38.5205 217.335 38.4411 217.699 38.2871C218.063 38.133 218.393 37.9074 218.668 37.6237C219.234 37.0429 219.551 36.264 219.551 35.4529C219.551 34.6418 219.234 33.8629 218.668 33.2821C218.392 32.9988 218.063 32.7733 217.699 32.6191C217.335 32.4649 216.944 32.3849 216.549 32.384Z" fill="black"/>
<path d="M233.668 41.8024L227.731 35.7731V41.8024H224.417V29.0492H225.75L231.69 35.0784V29.0492H235V41.8024H233.668Z" fill="black"/>
<path d="M80.0486 47.6688H87.7846V50.3823H83.3183V52.3848H87.2799V55.1362H83.3183V57.421H87.7846V60.0774H80.0486V47.6688Z" fill="black"/>
<path d="M93.8437 51.4921C93.8437 51.3075 93.789 51.127 93.6864 50.9735C93.5838 50.82 93.438 50.7003 93.2675 50.6297C93.0969 50.559 92.9092 50.5406 92.7282 50.5766C92.5471 50.6126 92.3808 50.7015 92.2502 50.832C92.1197 50.9626 92.0308 51.1289 91.9948 51.31C91.9588 51.491 91.9773 51.6787 92.0479 51.8493C92.1185 52.0198 92.2382 52.1656 92.3917 52.2682C92.5452 52.3707 92.7257 52.4255 92.9103 52.4255C93.4967 52.4217 94.0759 52.5546 94.602 52.8136C95.1281 53.0727 95.5867 53.4508 95.9412 53.9179C96.4851 54.6084 96.7805 55.462 96.7797 56.341C96.7478 57.3373 96.3281 58.2818 95.6099 58.9731C94.8918 59.6644 93.9321 60.0479 92.9353 60.0419C91.9385 60.0359 90.9835 59.6408 90.2737 58.9409C89.564 58.2409 89.1557 57.2915 89.1359 56.2949H92.0284C92.0268 56.4799 92.0802 56.6613 92.1819 56.8159C92.2836 56.9706 92.429 57.0915 92.5996 57.1633C92.7701 57.2351 92.9582 57.2546 93.1399 57.2193C93.3216 57.184 93.4886 57.0955 93.6199 56.965C93.7511 56.8345 93.8406 56.6679 93.877 56.4865C93.9134 56.305 93.895 56.1168 93.8242 55.9458C93.7534 55.7748 93.6333 55.6288 93.4793 55.5262C93.3252 55.4236 93.1442 55.3691 92.9591 55.3696C92.2029 55.3696 91.4638 55.1454 90.835 54.7253C90.2063 54.3051 89.7163 53.708 89.4269 53.0094C89.1375 52.3108 89.0618 51.5421 89.2093 50.8005C89.3568 50.0588 89.721 49.3776 90.2557 48.8429C90.7904 48.3082 91.4716 47.9441 92.2132 47.7965C92.9549 47.649 93.7236 47.7247 94.4222 48.0141C95.1208 48.3035 95.7179 48.7935 96.138 49.4223C96.5581 50.051 96.7824 50.7902 96.7824 51.5463H93.8437V51.4921Z" fill="black"/>
<path d="M119.033 68.3074L109.403 58.6258V68.302H104.052V47.886H106.239L115.915 57.516V47.886H121.266V68.3074H119.033Z" fill="black"/>
<path d="M129.87 60.167C129.87 60.5152 129.939 60.8599 130.072 61.1815C130.205 61.5032 130.401 61.7954 130.647 62.0416C130.893 62.2878 131.185 62.483 131.507 62.6163C131.828 62.7495 132.173 62.8181 132.521 62.8181C133.222 62.811 133.892 62.5294 134.388 62.0338C134.884 61.5381 135.165 60.8679 135.172 60.167V47.886H140.572V60.2539C140.572 62.3883 139.724 64.4354 138.215 65.9447C136.706 67.454 134.659 68.302 132.524 68.302C130.39 68.302 128.342 67.454 126.833 65.9447C125.324 64.4354 124.476 62.3883 124.476 60.2539V47.886H129.873L129.87 60.167Z" fill="black"/>
<path d="M143.874 47.886H156.581V52.3062H149.271V55.6084H155.737V60.1209H149.271V63.8899H156.581V68.264H143.882L143.874 47.886Z" fill="black"/>
<path d="M167.877 54.1648C167.877 53.8611 167.787 53.5641 167.619 53.3116C167.45 53.059 167.21 52.8622 166.929 52.7459C166.649 52.6297 166.34 52.5993 166.042 52.6585C165.744 52.7178 165.47 52.8641 165.256 53.0789C165.041 53.2936 164.895 53.5673 164.835 53.8652C164.776 54.1631 164.807 54.4719 164.923 54.7526C165.039 55.0332 165.236 55.2731 165.488 55.4418C165.741 55.6106 166.038 55.7006 166.342 55.7006C167.595 55.691 168.823 56.0539 169.87 56.7432C170.917 57.4326 171.736 58.4175 172.222 59.5728C172.709 60.7282 172.841 62.002 172.603 63.2327C172.364 64.4634 171.765 65.5954 170.882 66.4853C169.999 67.3751 168.872 67.9826 167.643 68.2308C166.414 68.4789 165.139 68.3565 163.98 67.879C162.821 67.4016 161.83 66.5906 161.133 65.549C160.435 64.5073 160.063 63.282 160.063 62.0284H164.809C164.809 62.3322 164.899 62.6291 165.067 62.8817C165.236 63.1342 165.476 63.3311 165.757 63.4473C166.037 63.5636 166.346 63.594 166.644 63.5347C166.942 63.4755 167.216 63.3292 167.43 63.1144C167.645 62.8996 167.791 62.626 167.851 62.328C167.91 62.0301 167.88 61.7213 167.763 61.4407C167.647 61.16 167.45 60.9202 167.198 60.7514C166.945 60.5827 166.648 60.4926 166.344 60.4926C165.103 60.4921 163.889 60.1234 162.857 59.4331C161.825 58.7428 161.02 57.762 160.545 56.6146C160.071 55.4673 159.947 54.2049 160.189 52.9871C160.432 51.7692 161.03 50.6507 161.908 49.7729C162.786 48.895 163.905 48.2973 165.123 48.0552C166.341 47.8132 167.603 47.9377 168.751 48.413C169.898 48.8883 170.878 49.6931 171.568 50.7256C172.258 51.7581 172.626 52.9719 172.626 54.2137H167.877V54.1648Z" fill="black"/>
<path d="M175.182 47.8398H191.278V53.1989H185.886V68.3182H180.533V53.1989H175.228V47.8398H175.182Z" fill="black"/>
<path d="M205.966 68.3074L202.816 62.913H199.514V68.3101H194.163V47.886H202.77C204.754 47.8924 206.655 48.6835 208.058 50.0866C209.461 51.4897 210.252 53.3908 210.259 55.3751C210.263 56.4084 210.05 57.4311 209.633 58.3767C209.217 59.3224 208.606 60.1699 207.841 60.8644L212.166 68.2612H205.966V68.3074ZM199.5 58.2676H202.802C203.579 58.2676 204.325 57.9589 204.874 57.4093C205.424 56.8597 205.733 56.1143 205.733 55.3371C205.733 54.5599 205.424 53.8145 204.874 53.2649C204.325 52.7153 203.579 52.4066 202.802 52.4066H199.514L199.5 58.2676Z" fill="black"/>
<path d="M213.143 68.3074L222.681 47.886H225.099L234.729 68.3074H229.378L228.121 65.6563H219.75L218.54 68.3074H213.143ZM221.843 61.0977H226.029L223.983 56.5853L221.843 61.0977Z" fill="black"/>
<path d="M96.9912 63.1735H79.6278V68.1608H96.9939L96.9912 63.1735Z" fill="#FFD700"/>
</svg>
