<svg width="270" height="124" viewBox="0 0 270 124" fill="none" xmlns="http://www.w3.org/2000/svg">
<rect x="1" width="223" height="23" fill="black"/>
<rect x="1" y="25" width="210" height="23" fill="black"/>
<path d="M23.8203 17V11.4835L22.065 15.3628L20.531 15.3628L18.7757 11.4835V17H15.8995L15.8995 6.52747L19.0412 6.52747L21.298 11.454L23.5695 6.52747H26.6965V17H23.8203Z" fill="white"/>
<path d="M36.1737 14.4925V17L28.7101 17V6.52747L36.0409 6.52747V9.03498H31.5864V10.51H35.3919V12.8405H31.5864V14.4925L36.1737 14.4925Z" fill="white"/>
<path d="M37.4522 14.168C37.5112 14.2073 37.6981 14.2909 38.0127 14.4188C38.3274 14.5466 38.6961 14.6105 39.119 14.6105C39.4238 14.6105 39.6696 14.5613 39.8565 14.463C40.0433 14.3548 40.181 14.1926 40.2695 13.9763C40.3678 13.7599 40.4317 13.4797 40.4612 13.1355C40.5006 12.7815 40.5202 12.3537 40.5202 11.8522V6.52747H43.3965V11.8522C43.3965 12.6487 43.3473 13.3715 43.249 14.0205C43.1605 14.6695 42.9737 15.23 42.6885 15.702C42.4033 16.174 41.9756 16.5379 41.4052 16.7935C40.8349 17.0394 40.0728 17.1623 39.119 17.1623C38.6666 17.1623 38.2536 17.1082 37.88 17C37.5063 16.8919 37.1621 16.7296 36.8475 16.5133L37.4522 14.168Z" fill="white"/>
<path d="M50.02 17.0885C49.2235 17.0885 48.5007 16.941 47.8517 16.646C47.2027 16.3412 46.6422 15.938 46.1702 15.4365C45.708 14.9252 45.3491 14.3548 45.0935 13.7255C44.8476 13.0863 44.7247 12.4275 44.7247 11.749C44.7247 11.0508 44.8575 10.3871 45.123 9.75773C45.3885 9.1284 45.7572 8.56789 46.2292 8.07622C46.711 7.57472 47.2765 7.18139 47.9255 6.89622C48.5843 6.61105 49.3021 6.46846 50.079 6.46846C50.8755 6.46846 51.5982 6.62088 52.2472 6.92572C52.8962 7.22072 53.4518 7.62389 53.914 8.13522C54.3762 8.64656 54.7302 9.22181 54.976 9.86098C55.2317 10.4903 55.3595 11.1393 55.3595 11.808C55.3595 12.4963 55.2268 13.1552 54.9613 13.7845C54.7056 14.4138 54.3368 14.9793 53.855 15.4808C53.383 15.9724 52.8225 16.3658 52.1735 16.6608C51.5245 16.9459 50.8066 17.0885 50.02 17.0885ZM47.6452 11.7785C47.6452 12.1325 47.6944 12.4767 47.7927 12.811C47.8911 13.1355 48.0386 13.4305 48.2352 13.696C48.4319 13.9517 48.6777 14.1582 48.9727 14.3155C49.2776 14.463 49.6365 14.5368 50.0495 14.5368C50.4625 14.5368 50.8214 14.4581 51.1262 14.3008C51.4311 14.1434 51.6769 13.932 51.8637 13.6665C52.0604 13.3912 52.203 13.0913 52.2915 12.7667C52.3898 12.4324 52.439 12.0932 52.439 11.749C52.439 11.395 52.3898 11.0557 52.2915 10.7312C52.1932 10.4067 52.0457 10.1167 51.849 9.86098C51.6523 9.59548 51.4016 9.38898 51.0967 9.24148C50.7919 9.09398 50.4379 9.02023 50.0347 9.02023C49.6217 9.02023 49.2628 9.0989 48.958 9.25623C48.663 9.41356 48.4171 9.62498 48.2205 9.89048C48.0238 10.1462 47.8763 10.4412 47.778 10.7755C47.6895 11.1 47.6452 11.4343 47.6452 11.7785Z" fill="white"/>
<path d="M56.7998 17V6.52747H61.6084C62.1197 6.52747 62.5917 6.63072 63.0244 6.83722C63.457 7.04372 63.8307 7.32397 64.1454 7.67797C64.46 8.02214 64.701 8.41056 64.8681 8.84323C65.0451 9.2759 65.1336 9.71348 65.1336 10.156C65.1336 10.5592 65.0746 10.9476 64.9566 11.3212C64.8386 11.6949 64.6665 12.0391 64.4404 12.3537C64.2142 12.6586 63.9438 12.9241 63.6291 13.1503L65.8416 17H62.6851L60.8414 13.7845H59.6761V17H56.7998ZM59.6761 11.277H61.4904C61.6084 11.277 61.7214 11.2327 61.8296 11.1442C61.9378 11.0557 62.0263 10.9279 62.0951 10.7607C62.1738 10.5936 62.2131 10.392 62.2131 10.156C62.2131 9.91015 62.1689 9.70857 62.0804 9.55123C62.0017 9.38406 61.8984 9.25623 61.7706 9.16773C61.6526 9.07923 61.5346 9.03498 61.4166 9.03498H59.6761V11.277Z" fill="white"/>
<path d="M69.3935 6.52747H72.609L75.9426 17H73.022L72.3878 14.9498H69.6L68.9805 17H66.0452L69.3935 6.52747ZM71.9305 13.0323L71.0013 9.34473L70.0278 13.0323H71.9305Z" fill="white"/>
<path d="M83.2612 9.94948C83.2612 9.94948 83.1777 9.90032 83.0105 9.80198C82.8433 9.70365 82.6221 9.59548 82.3467 9.47748C82.0714 9.34965 81.7715 9.23656 81.447 9.13823C81.1225 9.0399 80.8029 8.99073 80.4882 8.99073C80.2424 8.99073 80.0408 9.03006 79.8835 9.10873C79.7261 9.1874 79.6475 9.32015 79.6475 9.50698C79.6475 9.68398 79.7261 9.82657 79.8835 9.93473C80.0408 10.0429 80.2621 10.1412 80.5472 10.2297C80.8422 10.3182 81.1913 10.4264 81.5945 10.5542C82.2435 10.7509 82.804 10.9771 83.276 11.2327C83.748 11.4884 84.1118 11.8178 84.3675 12.221C84.6232 12.6143 84.751 13.1404 84.751 13.7993C84.751 14.4286 84.6379 14.9596 84.4117 15.3923C84.1856 15.8151 83.8807 16.1543 83.4972 16.41C83.1137 16.6657 82.686 16.8525 82.214 16.9705C81.742 17.0787 81.2601 17.1328 80.7685 17.1328C80.267 17.1328 79.7409 17.0836 79.1902 16.9853C78.6494 16.8771 78.1233 16.7345 77.612 16.5575C77.1006 16.3707 76.6335 16.1544 76.2107 15.9085L77.4497 13.3863C77.4497 13.3863 77.548 13.4453 77.7447 13.5633C77.9414 13.6813 78.202 13.814 78.5265 13.9615C78.851 14.109 79.2099 14.2418 79.6032 14.3598C80.0064 14.4778 80.4096 14.5368 80.8127 14.5368C81.1274 14.5368 81.3437 14.4974 81.4617 14.4188C81.5896 14.3303 81.6535 14.2172 81.6535 14.0795C81.6535 13.873 81.5453 13.7157 81.329 13.6075C81.1126 13.4895 80.8275 13.3813 80.4735 13.283C80.1293 13.1748 79.7458 13.0519 79.323 12.9142C78.7133 12.7077 78.2118 12.4767 77.8185 12.221C77.4251 11.9555 77.135 11.6457 76.9482 11.2917C76.7614 10.9279 76.668 10.4903 76.668 9.97898C76.668 9.20215 76.8499 8.55314 77.2137 8.03197C77.5775 7.5108 78.0545 7.11747 78.6445 6.85197C79.2443 6.57663 79.8884 6.43896 80.5767 6.43896C81.0881 6.43896 81.5797 6.50288 82.0517 6.63072C82.5336 6.74872 82.981 6.89622 83.394 7.07322C83.8168 7.25022 84.1856 7.41739 84.5002 7.57472L83.2612 9.94948Z" fill="white"/>
<path d="M89.7778 17V6.52747L94.5863 6.52747C95.0976 6.52747 95.5696 6.63072 96.0023 6.83722C96.435 7.04372 96.8086 7.32397 97.1233 7.67797C97.438 8.02214 97.6789 8.41056 97.8461 8.84323C98.0231 9.2759 98.1116 9.71348 98.1116 10.156C98.1116 10.5592 98.0526 10.9476 97.9346 11.3212C97.8166 11.6949 97.6445 12.0391 97.4183 12.3537C97.1922 12.6586 96.9217 12.9241 96.6071 13.1503L98.8196 17H95.6631L93.8193 13.7845H92.654V17H89.7778ZM92.654 11.277H94.4683C94.5863 11.277 94.6994 11.2327 94.8076 11.1442C94.9157 11.0557 95.0042 10.9279 95.0731 10.7607C95.1517 10.5936 95.1911 10.392 95.1911 10.156C95.1911 9.91015 95.1468 9.70857 95.0583 9.55123C94.9796 9.38406 94.8764 9.25623 94.7486 9.16773C94.6305 9.07923 94.5126 9.03498 94.3946 9.03498H92.654V11.277Z" fill="white"/>
<path d="M107.416 14.4925V17H99.9525V6.52747L107.283 6.52747V9.03498H102.829V10.51H106.634V12.8405H102.829V14.4925H107.416Z" fill="white"/>
<path d="M115.317 9.94948C115.317 9.94948 115.234 9.90032 115.067 9.80198C114.899 9.70365 114.678 9.59548 114.403 9.47748C114.127 9.34965 113.828 9.23656 113.503 9.13823C113.179 9.0399 112.859 8.99073 112.544 8.99073C112.298 8.99073 112.097 9.03006 111.94 9.10873C111.782 9.1874 111.704 9.32015 111.704 9.50698C111.704 9.68398 111.782 9.82657 111.94 9.93473C112.097 10.0429 112.318 10.1412 112.603 10.2297C112.898 10.3182 113.247 10.4264 113.651 10.5542C114.3 10.7509 114.86 10.9771 115.332 11.2327C115.804 11.4884 116.168 11.8178 116.424 12.221C116.679 12.6143 116.807 13.1404 116.807 13.7993C116.807 14.4286 116.694 14.9596 116.468 15.3923C116.242 15.8151 115.937 16.1543 115.553 16.41C115.17 16.6657 114.742 16.8525 114.27 16.9705C113.798 17.0787 113.316 17.1328 112.825 17.1328C112.323 17.1328 111.797 17.0836 111.246 16.9853C110.705 16.8771 110.179 16.7345 109.668 16.5575C109.157 16.3707 108.69 16.1544 108.267 15.9085L109.506 13.3863C109.506 13.3863 109.604 13.4453 109.801 13.5633C109.997 13.6813 110.258 13.814 110.583 13.9615C110.907 14.109 111.266 14.2418 111.659 14.3598C112.062 14.4778 112.466 14.5368 112.869 14.5368C113.183 14.5368 113.4 14.4974 113.518 14.4188C113.646 14.3303 113.71 14.2172 113.71 14.0795C113.71 13.873 113.601 13.7157 113.385 13.6075C113.169 13.4895 112.884 13.3813 112.53 13.283C112.185 13.1748 111.802 13.0519 111.379 12.9142C110.769 12.7077 110.268 12.4767 109.875 12.221C109.481 11.9555 109.191 11.6457 109.004 11.2917C108.817 10.9279 108.724 10.4903 108.724 9.97898C108.724 9.20215 108.906 8.55314 109.27 8.03197C109.634 7.5108 110.111 7.11747 110.701 6.85197C111.3 6.57663 111.944 6.43896 112.633 6.43896C113.144 6.43896 113.636 6.50288 114.108 6.63072C114.59 6.74872 115.037 6.89622 115.45 7.07322C115.873 7.25022 116.242 7.41739 116.556 7.57472L115.317 9.94948Z" fill="white"/>
<path d="M118.3 17V6.52747H122.813C123.324 6.52747 123.796 6.63072 124.229 6.83722C124.662 7.04372 125.035 7.32397 125.35 7.67797C125.665 8.02214 125.906 8.41056 126.073 8.84323C126.25 9.2759 126.338 9.71348 126.338 10.156C126.338 10.7755 126.191 11.3606 125.896 11.9112C125.611 12.4619 125.208 12.9142 124.686 13.2683C124.175 13.6124 123.575 13.7845 122.887 13.7845H121.176V17L118.3 17ZM121.176 11.277H122.695C122.813 11.277 122.926 11.2426 123.034 11.1737C123.143 11.1049 123.231 10.9869 123.3 10.8197C123.379 10.6526 123.418 10.4313 123.418 10.156C123.418 9.86098 123.374 9.63482 123.285 9.47748C123.206 9.31031 123.103 9.19723 122.975 9.13823C122.857 9.0694 122.739 9.03498 122.621 9.03498H121.176V11.277Z" fill="white"/>
<path d="M135.174 14.4925V17L127.711 17V6.52747L135.042 6.52747V9.03498L130.587 9.03498V10.51L134.393 10.51V12.8405L130.587 12.8405V14.4925L135.174 14.4925Z" fill="white"/>
<path d="M135.999 11.6752C135.999 11.0361 136.117 10.4117 136.353 9.80198C136.599 9.18248 136.953 8.62198 137.415 8.12047C137.878 7.61897 138.438 7.22072 139.097 6.92572C139.766 6.62088 140.518 6.46846 141.354 6.46846C142.357 6.46846 143.232 6.67988 143.979 7.10272C144.727 7.51572 145.282 8.06639 145.646 8.75473L143.448 10.3182C143.32 9.97407 143.134 9.70857 142.888 9.52173C142.652 9.3349 142.391 9.20706 142.106 9.13823C141.831 9.05956 141.56 9.02023 141.295 9.02023C140.882 9.02023 140.523 9.10381 140.218 9.27098C139.923 9.42831 139.677 9.63973 139.48 9.90523C139.294 10.1707 139.151 10.4657 139.053 10.7902C138.964 11.1147 138.92 11.4392 138.92 11.7637C138.92 12.1276 138.974 12.4767 139.082 12.811C139.19 13.1453 139.348 13.4453 139.554 13.7108C139.761 13.9664 140.011 14.168 140.306 14.3155C140.611 14.463 140.951 14.5368 141.324 14.5368C141.59 14.5368 141.86 14.4974 142.135 14.4188C142.411 14.3303 142.662 14.1926 142.888 14.0058C143.114 13.8189 143.286 13.5682 143.404 13.2535L145.749 14.6548C145.543 15.1661 145.199 15.6037 144.717 15.9675C144.235 16.3314 143.689 16.6116 143.079 16.8083C142.47 16.9951 141.865 17.0885 141.265 17.0885C140.488 17.0885 139.775 16.9361 139.126 16.6313C138.487 16.3166 137.932 15.9036 137.46 15.3923C136.998 14.8711 136.639 14.2909 136.383 13.6518C136.127 13.0027 135.999 12.3439 135.999 11.6752Z" fill="white"/>
<path d="M155.151 9.03498L152.142 9.03498V17H149.266V9.03498H146.242V6.52747L155.151 6.52747V9.03498Z" fill="white"/>
<path d="M160.981 17.0885C160.185 17.0885 159.462 16.941 158.813 16.646C158.164 16.3412 157.604 15.938 157.132 15.4365C156.67 14.9252 156.311 14.3548 156.055 13.7255C155.809 13.0863 155.686 12.4275 155.686 11.749C155.686 11.0508 155.819 10.3871 156.084 9.75773C156.35 9.1284 156.719 8.56789 157.191 8.07622C157.673 7.57472 158.238 7.18139 158.887 6.89622C159.546 6.61105 160.264 6.46846 161.04 6.46846C161.837 6.46846 162.56 6.62088 163.209 6.92572C163.858 7.22072 164.413 7.62389 164.876 8.13522C165.338 8.64656 165.692 9.22181 165.938 9.86098C166.193 10.4903 166.321 11.1393 166.321 11.808C166.321 12.4963 166.188 13.1552 165.923 13.7845C165.667 14.4138 165.298 14.9793 164.816 15.4808C164.344 15.9724 163.784 16.3658 163.135 16.6608C162.486 16.9459 161.768 17.0885 160.981 17.0885ZM158.607 11.7785C158.607 12.1325 158.656 12.4767 158.754 12.811C158.853 13.1355 159 13.4305 159.197 13.696C159.393 13.9517 159.639 14.1582 159.934 14.3155C160.239 14.463 160.598 14.5368 161.011 14.5368C161.424 14.5368 161.783 14.4581 162.088 14.3008C162.393 14.1434 162.638 13.932 162.825 13.6665C163.022 13.3912 163.164 13.0913 163.253 12.7667C163.351 12.4324 163.4 12.0932 163.4 11.749C163.4 11.395 163.351 11.0557 163.253 10.7312C163.155 10.4067 163.007 10.1167 162.81 9.86098C162.614 9.59548 162.363 9.38898 162.058 9.24148C161.753 9.09398 161.399 9.02023 160.996 9.02023C160.583 9.02023 160.224 9.0989 159.919 9.25623C159.624 9.41356 159.379 9.62498 159.182 9.89048C158.985 10.1462 158.838 10.4412 158.739 10.7755C158.651 11.1 158.607 11.4343 158.607 11.7785Z" fill="white"/>
<path d="M171.296 17V6.52747L175.322 6.52747C176.483 6.52747 177.451 6.76347 178.228 7.23547C179.015 7.69764 179.605 8.32697 179.998 9.12348C180.401 9.91015 180.603 10.7853 180.603 11.749C180.603 12.811 180.382 13.7353 179.939 14.522C179.506 15.3087 178.892 15.9183 178.095 16.351C177.309 16.7837 176.384 17 175.322 17H171.296ZM177.682 11.749C177.682 11.2082 177.589 10.7362 177.402 10.333C177.215 9.91998 176.945 9.6004 176.591 9.37423C176.237 9.14806 175.814 9.03498 175.322 9.03498H174.172V14.4925H175.322C175.824 14.4925 176.247 14.3745 176.591 14.1385C176.945 13.9025 177.215 13.578 177.402 13.165C177.589 12.7422 177.682 12.2702 177.682 11.749Z" fill="white"/>
<path d="M189.539 14.4925V17H182.075V6.52747L189.406 6.52747V9.03498L184.952 9.03498V10.51H188.757V12.8405H184.952V14.4925L189.539 14.4925Z" fill="white"/>
<path d="M194.632 17V6.52747L197.508 6.52747V14.4925L202.258 14.4925V17H194.632Z" fill="white"/>
<path d="M205.9 6.52747L209.116 6.52747L212.449 17H209.529L208.895 14.9498L206.107 14.9498L205.487 17H202.552L205.9 6.52747ZM208.437 13.0323L207.508 9.34473L206.535 13.0323H208.437Z" fill="white"/>
<path d="M15.3242 36.6752C15.3242 36.0361 15.4422 35.4117 15.6782 34.802C15.9241 34.1825 16.2781 33.622 16.7402 33.1205C17.2024 32.619 17.7629 32.2207 18.4217 31.9257C19.0904 31.6209 19.8427 31.4685 20.6785 31.4685C21.6815 31.4685 22.5567 31.6799 23.304 32.1027C24.0513 32.5157 24.6069 33.0664 24.9708 33.7547L22.773 35.3182C22.6452 34.9741 22.4583 34.7086 22.2125 34.5217C21.9765 34.3349 21.7159 34.2071 21.4308 34.1382C21.1554 34.0596 20.885 34.0202 20.6195 34.0202C20.2065 34.0202 19.8476 34.1038 19.5427 34.271C19.2477 34.4283 19.0019 34.6397 18.8052 34.9052C18.6184 35.1707 18.4758 35.4657 18.3775 35.7902C18.289 36.1147 18.2447 36.4392 18.2447 36.7637C18.2447 37.1276 18.2988 37.4767 18.407 37.811C18.5152 38.1453 18.6725 38.4453 18.879 38.7108C19.0855 38.9664 19.3362 39.168 19.6312 39.3155C19.9361 39.463 20.2753 39.5368 20.649 39.5368C20.9145 39.5368 21.1849 39.4974 21.4603 39.4188C21.7356 39.3303 21.9863 39.1926 22.2125 39.0058C22.4387 38.8189 22.6108 38.5682 22.7288 38.2535L25.074 39.6548C24.8675 40.1661 24.5234 40.6037 24.0415 40.9675C23.5597 41.3314 23.0139 41.6116 22.4043 41.8083C21.7946 41.9951 21.1898 42.0885 20.59 42.0885C19.8132 42.0885 19.1002 41.9361 18.4512 41.6313C17.8121 41.3166 17.2565 40.9036 16.7845 40.3923C16.3223 39.8711 15.9634 39.2909 15.7077 38.6518C15.4521 38.0028 15.3242 37.3439 15.3242 36.6752Z" fill="white"/>
<path d="M30.8806 42.0885C30.0841 42.0885 29.3613 41.941 28.7123 41.646C28.0633 41.3412 27.5028 40.938 27.0308 40.4365C26.5687 39.9252 26.2097 39.3548 25.9541 38.7255C25.7082 38.0863 25.5853 37.4275 25.5853 36.749C25.5853 36.0508 25.7181 35.3871 25.9836 34.7577C26.2491 34.1284 26.6178 33.5679 27.0898 33.0762C27.5717 32.5747 28.1371 32.1814 28.7861 31.8962C29.4449 31.611 30.1628 31.4685 30.9396 31.4685C31.7361 31.4685 32.4589 31.6209 33.1079 31.9257C33.7569 32.2207 34.3125 32.6239 34.7746 33.1352C35.2368 33.6466 35.5908 34.2218 35.8366 34.861C36.0923 35.4903 36.2201 36.1393 36.2201 36.808C36.2201 37.4963 36.0874 38.1552 35.8219 38.7845C35.5662 39.4138 35.1975 39.9793 34.7156 40.4808C34.2436 40.9724 33.6831 41.3658 33.0341 41.6608C32.3851 41.9459 31.6673 42.0885 30.8806 42.0885ZM28.5058 36.7785C28.5058 37.1325 28.555 37.4767 28.6533 37.811C28.7517 38.1355 28.8992 38.4305 29.0958 38.696C29.2925 38.9517 29.5383 39.1582 29.8333 39.3155C30.1382 39.463 30.4971 39.5368 30.9101 39.5368C31.3231 39.5368 31.682 39.4581 31.9869 39.3008C32.2917 39.1434 32.5375 38.932 32.7244 38.6665C32.921 38.3912 33.0636 38.0913 33.1521 37.7668C33.2504 37.4324 33.2996 37.0932 33.2996 36.749C33.2996 36.395 33.2504 36.0557 33.1521 35.7312C33.0538 35.4067 32.9063 35.1167 32.7096 34.861C32.5129 34.5955 32.2622 34.389 31.9574 34.2415C31.6525 34.094 31.2985 34.0202 30.8953 34.0202C30.4823 34.0202 30.1234 34.0989 29.8186 34.2562C29.5236 34.4136 29.2778 34.625 29.0811 34.8905C28.8844 35.1462 28.7369 35.4412 28.6386 35.7755C28.5501 36.1 28.5058 36.4343 28.5058 36.7785Z" fill="white"/>
<path d="M40.5367 36.8522L40.5367 42H37.6604L37.6604 31.5275H39.9025L44.1062 36.8522V31.5275H46.9825L46.9825 42H44.6962L40.5367 36.8522Z" fill="white"/>
<path d="M55.3444 34.9495C55.3444 34.9495 55.2608 34.9003 55.0937 34.802C54.9265 34.7036 54.7052 34.5955 54.4299 34.4775C54.1546 34.3496 53.8547 34.2366 53.5302 34.1382C53.2056 34.0399 52.8861 33.9907 52.5714 33.9907C52.3256 33.9907 52.124 34.0301 51.9666 34.1087C51.8093 34.1874 51.7306 34.3201 51.7306 34.507C51.7306 34.684 51.8093 34.8266 51.9666 34.9347C52.124 35.0429 52.3452 35.1412 52.6304 35.2297C52.9254 35.3182 53.2745 35.4264 53.6777 35.5542C54.3267 35.7509 54.8872 35.9771 55.3592 36.2327C55.8312 36.4884 56.195 36.8178 56.4507 37.221C56.7063 37.6143 56.8342 38.1404 56.8342 38.7993C56.8342 39.4286 56.7211 39.9596 56.4949 40.3923C56.2688 40.8151 55.9639 41.1544 55.5804 41.41C55.1969 41.6657 54.7692 41.8525 54.2972 41.9705C53.8252 42.0787 53.3433 42.1328 52.8517 42.1328C52.3501 42.1328 51.8241 42.0836 51.2734 41.9853C50.7326 41.8771 50.2065 41.7345 49.6951 41.5575C49.1838 41.3707 48.7167 41.1544 48.2939 40.9085L49.5329 38.3863C49.5329 38.3863 49.6312 38.4453 49.8279 38.5633C50.0245 38.6813 50.2851 38.814 50.6096 38.9615C50.9341 39.109 51.2931 39.2418 51.6864 39.3598C52.0896 39.4778 52.4927 39.5368 52.8959 39.5368C53.2106 39.5368 53.4269 39.4974 53.5449 39.4188C53.6727 39.3303 53.7367 39.2172 53.7367 39.0795C53.7367 38.873 53.6285 38.7157 53.4122 38.6075C53.1958 38.4895 52.9107 38.3813 52.5566 38.283C52.2125 38.1748 51.829 38.0519 51.4061 37.9142C50.7965 37.7077 50.295 37.4767 49.9016 37.221C49.5083 36.9555 49.2182 36.6457 49.0314 36.2917C48.8445 35.9279 48.7511 35.4903 48.7511 34.979C48.7511 34.2021 48.933 33.5531 49.2969 33.032C49.6607 32.5108 50.1376 32.1175 50.7276 31.852C51.3275 31.5766 51.9716 31.439 52.6599 31.439C53.1712 31.439 53.6629 31.5029 54.1349 31.6307C54.6167 31.7487 55.0642 31.8962 55.4772 32.0732C55.9 32.2502 56.2688 32.4174 56.5834 32.5747L55.3444 34.9495Z" fill="white"/>
<path d="M66.4835 34.035H63.4745V42H60.5982V34.035H57.5744V31.5275H66.4835V34.035Z" fill="white"/>
<path d="M67.7523 42V31.5275L70.6286 31.5275V42H67.7523Z" fill="white"/>
<path d="M80.8118 34.035H77.8028V42H74.9265V34.035H71.9028V31.5275H80.8118V34.035Z" fill="white"/>
<path d="M86.6532 42.0885C85.8173 42.0885 85.0995 41.9509 84.4997 41.6755C83.8998 41.4002 83.4082 41.0216 83.0247 40.5398C82.651 40.0579 82.3757 39.5073 82.1987 38.8878C82.0217 38.2584 81.9332 37.5996 81.9332 36.9112V31.5275H84.8094V36.9112C84.8094 37.2554 84.8438 37.5848 84.9127 37.8995C84.9815 38.2142 85.0897 38.4944 85.2372 38.7403C85.3847 38.9861 85.5715 39.1828 85.7977 39.3303C86.0337 39.4679 86.3188 39.5368 86.6532 39.5368C86.9974 39.5368 87.2874 39.4679 87.5234 39.3303C87.7594 39.1828 87.9463 38.9861 88.0839 38.7403C88.2314 38.4846 88.3396 38.1994 88.4084 37.8848C88.4773 37.5701 88.5117 37.2456 88.5117 36.9112V31.5275H91.388V36.9112C91.388 37.6389 91.2896 38.3174 91.093 38.9468C90.9061 39.5761 90.621 40.1268 90.2374 40.5988C89.8539 41.0708 89.3623 41.4395 88.7624 41.705C88.1724 41.9607 87.4694 42.0885 86.6532 42.0885Z" fill="white"/>
<path d="M92.6884 36.6752C92.6884 36.0361 92.8064 35.4117 93.0424 34.802C93.2882 34.1825 93.6422 33.622 94.1044 33.1205C94.5666 32.619 95.1271 32.2207 95.7859 31.9257C96.4546 31.6209 97.2068 31.4685 98.0427 31.4685C99.0457 31.4685 99.9208 31.6799 100.668 32.1027C101.416 32.5157 101.971 33.0664 102.335 33.7547L100.137 35.3182C100.009 34.9741 99.8225 34.7086 99.5767 34.5217C99.3407 34.3349 99.0801 34.2071 98.7949 34.1382C98.5196 34.0596 98.2492 34.0202 97.9837 34.0202C97.5707 34.0202 97.2117 34.1038 96.9069 34.271C96.6119 34.4283 96.3661 34.6397 96.1694 34.9052C95.9826 35.1707 95.84 35.4657 95.7417 35.7902C95.6532 36.1147 95.6089 36.4392 95.6089 36.7637C95.6089 37.1276 95.663 37.4767 95.7711 37.811C95.8793 38.1453 96.0367 38.4453 96.2432 38.7108C96.4497 38.9664 96.7004 39.168 96.9954 39.3155C97.3002 39.463 97.6395 39.5368 98.0132 39.5368C98.2787 39.5368 98.5491 39.4974 98.8244 39.4188C99.0998 39.3303 99.3505 39.1926 99.5767 39.0058C99.8028 38.8189 99.9749 38.5682 100.093 38.2535L102.438 39.6548C102.232 40.1661 101.888 40.6037 101.406 40.9675C100.924 41.3314 100.378 41.6116 99.7684 41.8083C99.1588 41.9951 98.554 42.0885 97.9542 42.0885C97.1773 42.0885 96.4644 41.9361 95.8154 41.6313C95.1762 41.3166 94.6206 40.9036 94.1486 40.3923C93.6865 39.8711 93.3276 39.2909 93.0719 38.6518C92.8162 38.0028 92.6884 37.3439 92.6884 36.6752Z" fill="white"/>
<path d="M103.683 42V31.5275H106.559V42H103.683Z" fill="white"/>
<path d="M113.306 42.0885C112.509 42.0885 111.787 41.941 111.138 41.646C110.489 41.3412 109.928 40.938 109.456 40.4365C108.994 39.9252 108.635 39.3548 108.379 38.7255C108.134 38.0863 108.011 37.4275 108.011 36.749C108.011 36.0508 108.143 35.3871 108.409 34.7577C108.674 34.1284 109.043 33.5679 109.515 33.0762C109.997 32.5747 110.562 32.1814 111.211 31.8962C111.87 31.611 112.588 31.4685 113.365 31.4685C114.161 31.4685 114.884 31.6209 115.533 31.9257C116.182 32.2207 116.738 32.6239 117.2 33.1352C117.662 33.6466 118.016 34.2218 118.262 34.861C118.518 35.4903 118.645 36.1393 118.645 36.808C118.645 37.4963 118.513 38.1552 118.247 38.7845C117.991 39.4138 117.623 39.9793 117.141 40.4808C116.669 40.9724 116.108 41.3658 115.459 41.6608C114.81 41.9459 114.093 42.0885 113.306 42.0885ZM110.931 36.7785C110.931 37.1325 110.98 37.4767 111.079 37.811C111.177 38.1355 111.324 38.4305 111.521 38.696C111.718 38.9517 111.964 39.1582 112.259 39.3155C112.563 39.463 112.922 39.5368 113.335 39.5368C113.748 39.5368 114.107 39.4581 114.412 39.3008C114.717 39.1434 114.963 38.932 115.15 38.6665C115.346 38.3912 115.489 38.0913 115.577 37.7668C115.676 37.4324 115.725 37.0932 115.725 36.749C115.725 36.395 115.676 36.0557 115.577 35.7312C115.479 35.4067 115.332 35.1167 115.135 34.861C114.938 34.5955 114.687 34.389 114.383 34.2415C114.078 34.094 113.724 34.0202 113.321 34.0202C112.908 34.0202 112.549 34.0989 112.244 34.2562C111.949 34.4136 111.703 34.625 111.506 34.8905C111.31 35.1462 111.162 35.4412 111.064 35.7755C110.975 36.1 110.931 36.4343 110.931 36.7785ZM114.25 31.085L112.48 30.613L113.217 28.5184L115.71 28.5184L114.25 31.085Z" fill="white"/>
<path d="M122.962 36.8522V42H120.086V31.5275H122.328L126.532 36.8522V31.5275H129.408V42H127.122L122.962 36.8522Z" fill="white"/>
<path d="M136.478 31.5275L138.528 38.6813L140.549 31.5275H143.573L139.959 42H137.098L133.44 31.5275H136.478Z" fill="white"/>
<path d="M144.589 42V31.5275H147.465V42H144.589Z" fill="white"/>
<path d="M154.02 42.0738C153.341 42.0738 152.692 41.9558 152.073 41.7198C151.463 41.4739 150.922 41.1199 150.45 40.6578C149.978 40.1858 149.604 39.6203 149.329 38.9615C149.064 38.2928 148.931 37.5307 148.931 36.6752C148.931 35.9377 149.069 35.2543 149.344 34.625C149.619 33.9956 149.998 33.445 150.48 32.973C150.971 32.4911 151.542 32.1175 152.191 31.852C152.84 31.5865 153.543 31.4537 154.3 31.4537C155.244 31.4537 156.099 31.6602 156.866 32.0732C157.633 32.4764 158.204 33.032 158.577 33.74L156.439 35.3772C156.232 34.9642 155.922 34.6348 155.509 34.389C155.096 34.1333 154.659 34.0055 154.197 34.0055C153.853 34.0055 153.538 34.0743 153.253 34.212C152.968 34.3497 152.717 34.5414 152.5 34.7872C152.294 35.0331 152.132 35.3281 152.014 35.6722C151.905 36.0066 151.851 36.3753 151.851 36.7785C151.851 37.1915 151.91 37.5652 152.028 37.8995C152.146 38.2338 152.309 38.5239 152.515 38.7698C152.732 39.0058 152.987 39.1926 153.282 39.3303C153.577 39.4581 153.907 39.522 154.27 39.522C154.733 39.522 155.175 39.4089 155.598 39.1828C156.021 38.9468 156.404 38.6173 156.748 38.1945V40.997C155.962 41.7149 155.052 42.0738 154.02 42.0738ZM156.601 38.4895H154.669V36.4245L158.976 36.4245V42H156.601V38.4895Z" fill="white"/>
<path d="M168.08 39.4925V42H160.617V31.5275H167.948V34.035H163.493V35.51H167.299V37.8405H163.493V39.4925H168.08Z" fill="white"/>
<path d="M172.515 36.8522V42L169.639 42V31.5275H171.881L176.085 36.8522V31.5275H178.961V42H176.675L172.515 36.8522Z" fill="white"/>
<path d="M189.137 34.035H186.128V42H183.252V34.035H180.228V31.5275L189.137 31.5275V34.035Z" fill="white"/>
<path d="M197.87 39.4925V42H190.406V31.5275H197.737V34.035H193.282V35.51H197.088V37.8405H193.282V39.4925H197.87Z" fill="white"/>
<rect y="64" width="42" height="42" fill="#E0E0E0"/>
<rect x="46" y="64" width="41" height="42" fill="#BDBDBD"/>
<rect x="91" y="64" width="42" height="42" fill="#828282"/>
<rect x="137" y="64" width="42" height="42" fill="#4F4F4F"/>
<rect x="183" y="64" width="41" height="42" fill="#333333"/>
<rect x="228" y="64" width="42" height="42" fill="black"/>
<path d="M157.5 106L175.254 119.5H139.746L157.5 106Z" fill="#4F4F4F"/>
<path d="M157.441 92.5401V90.0601H152.301V86.6601L158.641 78.5801H161.241V86.6601H163.001V90.0601H161.241V92.5401H157.441ZM156.041 86.6601H157.881V84.2601L156.041 86.6601Z" fill="white"/>
</svg>
