<svg width="286" height="93" viewBox="0 0 286 93" fill="none" xmlns="http://www.w3.org/2000/svg">
<path d="M1.90186 87.8325L285.113 87.8325V92.4374L1.90186 92.4374L1.90186 87.8325Z" fill="#FFD700"/>
<path d="M3.04883 37.0001V0.877889H19.6345C21.3982 0.877889 23.0262 1.23402 24.5186 1.94629C26.011 2.65856 27.2999 3.62521 28.3852 4.84624C29.4706 6.03335 30.3016 7.3731 30.8782 8.86547C31.4887 10.3578 31.7939 11.8672 31.7939 13.3935C31.7939 14.7841 31.5904 16.1238 31.1834 17.4127C30.7764 18.7015 30.1828 19.8887 29.4027 20.974C28.6226 22.0255 27.6899 22.9412 26.6045 23.7213L34.236 37.0001H23.3485L16.9889 25.909H12.9697V37.0001H3.04883ZM12.9697 17.2601H19.2275C19.6345 17.2601 20.0245 17.1074 20.3976 16.8022C20.7707 16.4969 21.076 16.056 21.3134 15.4794C21.5848 14.9028 21.7204 14.2075 21.7204 13.3935C21.7204 12.5455 21.5678 11.8502 21.2625 11.3075C20.9912 10.7309 20.6351 10.29 20.1941 9.98475C19.7871 9.67949 19.3801 9.52686 18.9731 9.52686H12.9697V17.2601Z" fill="black"/>
<path d="M65.1588 28.3511V37.0001H39.4154V0.877889H64.701V9.52686H49.3363V14.6145H62.4624V22.6529H49.3363V28.3511H65.1588Z" fill="black"/>
<path d="M69.2766 18.6337C69.2766 16.4291 69.6836 14.2753 70.4977 12.1724C71.3456 10.0356 72.5666 8.10232 74.1608 6.37253C75.7549 4.64273 77.6882 3.26907 79.9607 2.25155C82.267 1.2001 84.8617 0.674383 87.7447 0.674383C91.2043 0.674383 94.223 1.40361 96.8007 2.86207C99.3784 4.2866 101.295 6.18598 102.55 8.56021L94.9692 13.9531C94.5282 12.766 93.8838 11.8502 93.0359 11.2058C92.2218 10.5613 91.323 10.1204 90.3394 9.88299C89.3897 9.61165 88.457 9.47598 87.5412 9.47598C86.1167 9.47598 84.8787 9.76428 83.8273 10.3409C82.8097 10.8836 81.9618 11.6128 81.2834 12.5286C80.639 13.4443 80.1472 14.4619 79.808 15.5811C79.5028 16.7004 79.3501 17.8197 79.3501 18.939C79.3501 20.1939 79.5367 21.398 79.9098 22.5512C80.2829 23.7044 80.8256 24.7389 81.5378 25.6546C82.2501 26.5365 83.115 27.2318 84.1325 27.7406C85.184 28.2493 86.3541 28.5037 87.643 28.5037C88.5587 28.5037 89.4915 28.368 90.4412 28.0967C91.3909 27.7914 92.2558 27.3166 93.0359 26.6722C93.816 26.0277 94.4095 25.1628 94.8165 24.0775L102.906 28.9107C102.194 30.6744 101.006 32.1838 99.3445 33.4387C97.6826 34.6937 95.8001 35.6603 93.6973 36.3387C91.5944 36.9831 89.5084 37.3053 87.4395 37.3053C84.76 37.3053 82.301 36.7796 80.0624 35.7281C77.8578 34.6428 75.9414 33.2182 74.3134 31.4545C72.7193 29.6569 71.4813 27.6558 70.5994 25.4511C69.7176 23.2126 69.2766 20.9401 69.2766 18.6337Z" fill="black"/>
<path d="M124.244 37.3053C121.361 37.3053 118.885 36.8305 116.816 35.8808C114.747 34.9311 113.051 33.6253 111.728 31.9633C110.439 30.3013 109.49 28.402 108.879 26.2652C108.269 24.0944 107.963 21.822 107.963 19.4477V0.877889H117.884V19.4477C117.884 20.6348 118.003 21.7711 118.24 22.8564C118.478 23.9418 118.851 24.9085 119.36 25.7564C119.868 26.6043 120.513 27.2827 121.293 27.7914C122.107 28.2663 123.091 28.5037 124.244 28.5037C125.431 28.5037 126.431 28.2663 127.245 27.7914C128.059 27.2827 128.704 26.6043 129.179 25.7564C129.687 24.8745 130.061 23.8909 130.298 22.8056C130.535 21.7202 130.654 20.6009 130.654 19.4477V0.877889H140.575V19.4477C140.575 21.9576 140.236 24.2979 139.557 26.4687C138.913 28.6394 137.929 30.5388 136.607 32.1668C135.284 33.7948 133.588 35.0668 131.519 35.9825C129.484 36.8644 127.059 37.3053 124.244 37.3053Z" fill="black"/>
<path d="M148.317 37.0001V0.877889H164.902C166.666 0.877889 168.294 1.23402 169.786 1.94629C171.279 2.65856 172.568 3.62521 173.653 4.84624C174.738 6.03335 175.569 7.3731 176.146 8.86547C176.756 10.3578 177.062 11.8672 177.062 13.3935C177.062 14.7841 176.858 16.1238 176.451 17.4127C176.044 18.7015 175.451 19.8887 174.67 20.974C173.89 22.0255 172.958 22.9412 171.872 23.7213L179.504 37.0001H168.616L162.257 25.909H158.237V37.0001H148.317ZM158.237 17.2601H164.495C164.902 17.2601 165.292 17.1074 165.665 16.8022C166.038 16.4969 166.344 16.056 166.581 15.4794C166.852 14.9028 166.988 14.2075 166.988 13.3935C166.988 12.5455 166.835 11.8502 166.53 11.3075C166.259 10.7309 165.903 10.29 165.462 9.98475C165.055 9.67949 164.648 9.52686 164.241 9.52686H158.237V17.2601Z" fill="black"/>
<path d="M206.56 12.6812C206.56 12.6812 206.272 12.5116 205.695 12.1724C205.118 11.8332 204.355 11.4602 203.406 11.0531C202.456 10.6122 201.421 10.2222 200.302 9.88299C199.183 9.54381 198.081 9.37423 196.995 9.37423C196.147 9.37423 195.452 9.5099 194.909 9.78124C194.367 10.0526 194.095 10.5105 194.095 11.1549C194.095 11.7654 194.367 12.2572 194.909 12.6303C195.452 13.0034 196.215 13.3426 197.199 13.6478C198.216 13.9531 199.42 14.3262 200.811 14.7671C203.049 15.4455 204.983 16.2256 206.611 17.1074C208.239 17.9893 209.494 19.1255 210.376 20.5161C211.257 21.8728 211.698 23.6874 211.698 25.9599C211.698 28.1306 211.308 29.9622 210.528 31.4545C209.748 32.913 208.697 34.0831 207.374 34.965C206.051 35.8469 204.576 36.4913 202.948 36.8983C201.32 37.2714 199.658 37.4579 197.962 37.4579C196.232 37.4579 194.417 37.2884 192.518 36.9492C190.653 36.5761 188.838 36.0843 187.074 35.4738C185.311 34.8293 183.7 34.0831 182.241 33.2352L186.515 24.5354C186.515 24.5354 186.854 24.7389 187.532 25.1459C188.211 25.5529 189.109 26.0108 190.229 26.5195C191.348 27.0283 192.586 27.4862 193.943 27.8932C195.333 28.3002 196.724 28.5037 198.114 28.5037C199.2 28.5037 199.946 28.368 200.353 28.0967C200.794 27.7914 201.014 27.4014 201.014 26.9265C201.014 26.2143 200.641 25.6716 199.895 25.2985C199.149 24.8915 198.165 24.5184 196.944 24.1792C195.757 23.8061 194.434 23.3822 192.976 22.9073C190.873 22.1951 189.143 21.398 187.787 20.5161C186.43 19.6004 185.429 18.532 184.785 17.3109C184.14 16.056 183.818 14.5467 183.818 12.7829C183.818 10.1035 184.446 7.8649 185.701 6.06727C186.956 4.26964 188.601 2.91294 190.636 1.99717C192.705 1.04748 194.926 0.572632 197.3 0.572632C199.064 0.572632 200.76 0.793096 202.388 1.23402C204.05 1.64103 205.593 2.1498 207.018 2.76031C208.476 3.37083 209.748 3.94743 210.834 4.4901L206.56 12.6812Z" fill="black"/>
<path d="M234.399 37.3053C231.651 37.3053 229.159 36.7965 226.92 35.779C224.681 34.7276 222.748 33.337 221.12 31.6072C219.526 29.8435 218.288 27.8762 217.406 25.7055C216.558 23.5009 216.134 21.2284 216.134 18.8881C216.134 16.48 216.592 14.1905 217.508 12.0198C218.424 9.84908 219.696 7.91578 221.324 6.2199C222.986 4.49011 224.936 3.1334 227.174 2.14979C229.447 1.16619 231.923 0.674383 234.602 0.674383C237.35 0.674383 239.843 1.2001 242.081 2.25155C244.32 3.26907 246.236 4.65969 247.83 6.4234C249.424 8.18712 250.645 10.1713 251.493 12.3759C252.375 14.5467 252.816 16.7852 252.816 19.0916C252.816 21.4658 252.358 23.7383 251.442 25.909C250.56 28.0797 249.289 30.03 247.627 31.7598C245.999 33.4557 244.065 34.8124 241.827 35.8299C239.588 36.8135 237.112 37.3053 234.399 37.3053ZM226.208 18.9898C226.208 20.2109 226.377 21.398 226.716 22.5512C227.056 23.6705 227.564 24.688 228.243 25.6038C228.921 26.4856 229.769 27.1979 230.787 27.7406C231.838 28.2493 233.076 28.5037 234.501 28.5037C235.925 28.5037 237.163 28.2324 238.215 27.6897C239.266 27.147 240.114 26.4178 240.758 25.502C241.437 24.5523 241.928 23.5178 242.234 22.3986C242.573 21.2454 242.742 20.0752 242.742 18.8881C242.742 17.6671 242.573 16.4969 242.234 15.3776C241.895 14.2584 241.386 13.2578 240.707 12.3759C240.029 11.4602 239.164 10.7479 238.113 10.2391C237.061 9.73036 235.84 9.47598 234.45 9.47598C233.025 9.47598 231.787 9.74732 230.736 10.29C229.718 10.8327 228.87 11.5619 228.192 12.4777C227.514 13.3595 227.005 14.3771 226.666 15.5303C226.36 16.6495 226.208 17.8027 226.208 18.9898Z" fill="black"/>
<path d="M280.635 12.6812C280.635 12.6812 280.346 12.5116 279.77 12.1724C279.193 11.8332 278.43 11.4602 277.48 11.0531C276.531 10.6122 275.496 10.2222 274.377 9.88299C273.258 9.54381 272.155 9.37423 271.07 9.37423C270.222 9.37423 269.527 9.5099 268.984 9.78124C268.441 10.0526 268.17 10.5105 268.17 11.1549C268.17 11.7654 268.441 12.2572 268.984 12.6303C269.527 13.0034 270.29 13.3426 271.273 13.6478C272.291 13.9531 273.495 14.3262 274.886 14.7671C277.124 15.4455 279.057 16.2256 280.685 17.1074C282.314 17.9893 283.568 19.1255 284.45 20.5161C285.332 21.8728 285.773 23.6874 285.773 25.9599C285.773 28.1306 285.383 29.9622 284.603 31.4545C283.823 32.913 282.771 34.0831 281.449 34.965C280.126 35.8469 278.65 36.4913 277.022 36.8983C275.394 37.2714 273.732 37.4579 272.037 37.4579C270.307 37.4579 268.492 37.2884 266.593 36.9492C264.727 36.5761 262.913 36.0843 261.149 35.4738C259.385 34.8293 257.774 34.0831 256.316 33.2352L260.589 24.5354C260.589 24.5354 260.929 24.7389 261.607 25.1459C262.285 25.5529 263.184 26.0108 264.303 26.5195C265.423 27.0283 266.661 27.4862 268.017 27.8932C269.408 28.3002 270.799 28.5037 272.189 28.5037C273.275 28.5037 274.021 28.368 274.428 28.0967C274.869 27.7914 275.089 27.4014 275.089 26.9265C275.089 26.2143 274.716 25.6716 273.97 25.2985C273.224 24.8915 272.24 24.5184 271.019 24.1792C269.832 23.8061 268.509 23.3822 267.051 22.9073C264.948 22.1951 263.218 21.398 261.861 20.5161C260.505 19.6004 259.504 18.532 258.86 17.3109C258.215 16.056 257.893 14.5467 257.893 12.7829C257.893 10.1035 258.52 7.8649 259.775 6.06727C261.03 4.26964 262.675 2.91294 264.71 1.99717C266.779 1.04748 269.001 0.572632 271.375 0.572632C273.139 0.572632 274.835 0.793096 276.463 1.23402C278.125 1.64103 279.668 2.1498 281.092 2.76031C282.551 3.37083 283.823 3.94743 284.908 4.4901L280.635 12.6812Z" fill="black"/>
<path d="M0.858398 63.832C0.858398 62.5323 1.09835 61.2625 1.57826 60.0227C2.07816 58.763 2.79802 57.6232 3.73783 56.6034C4.67765 55.5836 5.81743 54.7738 7.15716 54.1739C8.5169 53.554 10.0466 53.2441 11.7463 53.2441C13.7859 53.2441 15.5655 53.674 17.0852 54.5338C18.6049 55.3737 19.7347 56.4934 20.4746 57.8932L16.0054 61.0725C15.7455 60.3727 15.3656 59.8328 14.8657 59.4529C14.3857 59.0729 13.8559 58.813 13.276 58.673C12.7161 58.513 12.1662 58.4331 11.6263 58.4331C10.7865 58.4331 10.0566 58.603 9.43672 58.943C8.83684 59.2629 8.33693 59.6928 7.93701 60.2327C7.55709 60.7726 7.26714 61.3725 7.06718 62.0323C6.88722 62.6922 6.79724 63.3521 6.79724 64.012C6.79724 64.7518 6.90721 65.4617 7.12717 66.1415C7.34713 66.8214 7.66707 67.4313 8.08698 67.9712C8.5069 68.4911 9.0168 68.901 9.61668 69.2009C10.2366 69.5009 10.9264 69.6509 11.6863 69.6509C12.2262 69.6509 12.7761 69.5709 13.336 69.4109C13.8958 69.2309 14.4057 68.951 14.8657 68.5711C15.3256 68.1911 15.6755 67.6812 15.9154 67.0414L20.6845 69.8908C20.2646 70.9306 19.5647 71.8204 18.5849 72.5603C17.6051 73.3001 16.4953 73.87 15.2556 74.27C14.0158 74.6499 12.7861 74.8398 11.5663 74.8398C9.98661 74.8398 8.53689 74.5299 7.21715 73.91C5.91741 73.2701 4.78763 72.4303 3.82782 71.3905C2.888 70.3307 2.15814 69.151 1.63825 67.8512C1.11835 66.5315 0.858398 65.1917 0.858398 63.832Z" fill="black"/>
<path d="M33.242 74.8398C31.6223 74.8398 30.1526 74.5399 28.8328 73.94C27.5131 73.3201 26.3733 72.5003 25.4135 71.4805C24.4737 70.4407 23.7438 69.2809 23.2239 68.0012C22.724 66.7014 22.4741 65.3617 22.4741 63.982C22.4741 62.5622 22.744 61.2125 23.2839 59.9328C23.8238 58.653 24.5737 57.5132 25.5335 56.5134C26.5133 55.4936 27.6631 54.6938 28.9828 54.1139C30.3225 53.534 31.7823 53.2441 33.362 53.2441C34.9816 53.2441 36.4513 53.554 37.7711 54.1739C39.0908 54.7738 40.2206 55.5936 41.1604 56.6334C42.1002 57.6732 42.8201 58.843 43.32 60.1427C43.8399 61.4225 44.0998 62.7422 44.0998 64.1019C44.0998 65.5017 43.8299 66.8414 43.29 68.1212C42.7701 69.4009 42.0203 70.5507 41.0404 71.5705C40.0806 72.5703 38.9409 73.3701 37.6211 73.97C36.3014 74.5499 34.8417 74.8398 33.242 74.8398ZM28.4129 64.042C28.4129 64.7618 28.5129 65.4617 28.7129 66.1415C28.9128 66.8014 29.2128 67.4013 29.6127 67.9412C30.0126 68.4611 30.5125 68.881 31.1124 69.2009C31.7323 69.5009 32.4621 69.6509 33.302 69.6509C34.1418 69.6509 34.8717 69.4909 35.4915 69.1709C36.1114 68.851 36.6113 68.4211 36.9912 67.8812C37.3912 67.3213 37.6811 66.7114 37.8611 66.0516C38.061 65.3717 38.161 64.6818 38.161 63.982C38.161 63.2621 38.061 62.5722 37.8611 61.9124C37.6611 61.2525 37.3612 60.6626 36.9612 60.1427C36.5613 59.6028 36.0514 59.1829 35.4315 58.883C34.8117 58.583 34.0918 58.4331 33.272 58.4331C32.4321 58.4331 31.7023 58.593 31.0824 58.913C30.4825 59.2329 29.9826 59.6628 29.5827 60.2027C29.1828 60.7226 28.8828 61.3225 28.6829 62.0024C28.5029 62.6622 28.4129 63.3421 28.4129 64.042Z" fill="black"/>
<path d="M53.6274 64.1919V74.6599H47.7786V53.364H52.3377L60.886 64.1919V53.364H66.7349V74.6599H62.0858L53.6274 64.1919Z" fill="black"/>
<path d="M84.4886 60.3227C84.4886 60.3227 84.3186 60.2227 83.9787 60.0227C83.6387 59.8228 83.1888 59.6028 82.6289 59.3629C82.069 59.1029 81.4592 58.873 80.7993 58.673C80.1394 58.473 79.4896 58.3731 78.8497 58.3731C78.3498 58.3731 77.9399 58.453 77.6199 58.613C77.3 58.773 77.14 59.0429 77.14 59.4229C77.14 59.7828 77.3 60.0727 77.6199 60.2927C77.9399 60.5126 78.3898 60.7126 78.9697 60.8926C79.5695 61.0725 80.2794 61.2925 81.0992 61.5524C82.419 61.9524 83.5588 62.4123 84.5186 62.9322C85.4784 63.4521 86.2182 64.1219 86.7381 64.9418C87.258 65.7416 87.518 66.8114 87.518 68.1512C87.518 69.4309 87.288 70.5107 86.8281 71.3905C86.3682 72.2503 85.7483 72.9402 84.9685 73.4601C84.1886 73.98 83.3188 74.3599 82.359 74.5999C81.3992 74.8198 80.4194 74.9298 79.4196 74.9298C78.3998 74.9298 77.33 74.8298 76.2102 74.6299C75.1104 74.4099 74.0406 74.12 73.0008 73.7601C71.961 73.3801 71.0112 72.9402 70.1514 72.4403L72.6709 67.3113C72.6709 67.3113 72.8709 67.4313 73.2708 67.6712C73.6707 67.9112 74.2006 68.1811 74.8605 68.4811C75.5203 68.781 76.2502 69.051 77.05 69.2909C77.8699 69.5309 78.6897 69.6509 79.5096 69.6509C80.1494 69.6509 80.5893 69.5709 80.8293 69.4109C81.0892 69.2309 81.2192 69.001 81.2192 68.721C81.2192 68.3011 80.9993 67.9812 80.5593 67.7612C80.1194 67.5213 79.5395 67.3013 78.8197 67.1014C78.1198 66.8814 77.34 66.6314 76.4801 66.3515C75.2404 65.9316 74.2206 65.4617 73.4207 64.9418C72.6209 64.4019 72.031 63.772 71.6511 63.0521C71.2712 62.3123 71.0812 61.4225 71.0812 60.3827C71.0812 58.803 71.4511 57.4832 72.191 56.4234C72.9308 55.3637 73.9006 54.5638 75.1004 54.0239C76.3202 53.464 77.6299 53.1841 79.0296 53.1841C80.0694 53.1841 81.0692 53.3141 82.0291 53.574C83.0089 53.814 83.9187 54.1139 84.7585 54.4738C85.6184 54.8338 86.3682 55.1737 87.0081 55.4936L84.4886 60.3227Z" fill="black"/>
<path d="M107.89 58.463H101.771V74.6599H95.922V58.463H89.7732V53.364H107.89V58.463Z" fill="black"/>
<path d="M111.22 74.6599V53.364H117.069V74.6599H111.22Z" fill="black"/>
<path d="M138.526 58.463H132.407V74.6599H126.558V58.463H120.409V53.364H138.526V58.463Z" fill="black"/>
<path d="M151.154 74.8398C149.454 74.8398 147.995 74.5599 146.775 74C145.555 73.4401 144.555 72.6703 143.775 71.6905C143.016 70.7106 142.456 69.5909 142.096 68.3311C141.736 67.0514 141.556 65.7116 141.556 64.3119V53.364H147.405V64.3119C147.405 65.0118 147.475 65.6816 147.615 66.3215C147.755 66.9614 147.975 67.5313 148.275 68.0312C148.575 68.5311 148.954 68.931 149.414 69.2309C149.894 69.5109 150.474 69.6509 151.154 69.6509C151.854 69.6509 152.444 69.5109 152.924 69.2309C153.404 68.931 153.784 68.5311 154.063 68.0312C154.363 67.5113 154.583 66.9314 154.723 66.2915C154.863 65.6516 154.933 64.9918 154.933 64.3119V53.364H160.782V64.3119C160.782 65.7916 160.582 67.1713 160.182 68.4511C159.802 69.7308 159.222 70.8506 158.443 71.8104C157.663 72.7702 156.663 73.5201 155.443 74.06C154.243 74.5799 152.814 74.8398 151.154 74.8398Z" fill="black"/>
<path d="M169.665 53.364L173.475 62.0623L177.374 53.364H183.733L176.384 67.6113V74.6599H170.565V67.5513L163.337 53.364H169.665Z" fill="black"/>
<path d="M201.7 69.5609V74.6599H186.522V53.364H201.43V58.463H192.371V61.4625H200.11V66.2015H192.371V69.5609H201.7Z" fill="black"/>
<path d="M211.468 64.1919V74.6599H205.619V53.364H210.178L218.727 64.1919V53.364H224.575V74.6599H219.926L211.468 64.1919Z" fill="black"/>
<path d="M246.018 58.463H239.9V74.6599H234.051V58.463H227.902V53.364H246.018V58.463Z" fill="black"/>
<path d="M264.525 69.5609V74.6599H249.348V53.364H264.256V58.463H255.197V61.4625H262.936V66.2015H255.197V69.5609H264.525Z" fill="black"/>
<path d="M281.343 60.3227C281.343 60.3227 281.173 60.2227 280.833 60.0227C280.493 59.8228 280.043 59.6028 279.483 59.3629C278.923 59.1029 278.313 58.873 277.653 58.673C276.993 58.473 276.344 58.3731 275.704 58.3731C275.204 58.3731 274.794 58.453 274.474 58.613C274.154 58.773 273.994 59.0429 273.994 59.4229C273.994 59.7828 274.154 60.0727 274.474 60.2927C274.794 60.5126 275.244 60.7126 275.824 60.8926C276.424 61.0725 277.133 61.2925 277.953 61.5524C279.273 61.9524 280.413 62.4123 281.373 62.9322C282.332 63.4521 283.072 64.1219 283.592 64.9418C284.112 65.7416 284.372 66.8114 284.372 68.1512C284.372 69.4309 284.142 70.5107 283.682 71.3905C283.222 72.2503 282.602 72.9402 281.822 73.4601C281.043 73.98 280.173 74.3599 279.213 74.5999C278.253 74.8198 277.273 74.9298 276.274 74.9298C275.254 74.9298 274.184 74.8298 273.064 74.6299C271.964 74.4099 270.895 74.12 269.855 73.7601C268.815 73.3801 267.865 72.9402 267.005 72.4403L269.525 67.3113C269.525 67.3113 269.725 67.4313 270.125 67.6712C270.525 67.9112 271.055 68.1811 271.714 68.4811C272.374 68.781 273.104 69.051 273.904 69.2909C274.724 69.5309 275.544 69.6509 276.364 69.6509C277.003 69.6509 277.443 69.5709 277.683 69.4109C277.943 69.2309 278.073 69.001 278.073 68.721C278.073 68.3011 277.853 67.9812 277.413 67.7612C276.973 67.5213 276.394 67.3013 275.674 67.1014C274.974 66.8814 274.194 66.6314 273.334 66.3515C272.094 65.9316 271.075 65.4617 270.275 64.9418C269.475 64.4019 268.885 63.772 268.505 63.0521C268.125 62.3123 267.935 61.4225 267.935 60.3827C267.935 58.803 268.305 57.4832 269.045 56.4234C269.785 55.3637 270.755 54.5638 271.954 54.0239C273.174 53.464 274.484 53.1841 275.884 53.1841C276.923 53.1841 277.923 53.3141 278.883 53.574C279.863 53.814 280.773 54.1139 281.613 54.4738C282.472 54.8338 283.222 55.1737 283.862 55.4936L281.343 60.3227Z" fill="black"/>
</svg>
