<svg width="265" height="25" viewBox="0 0 265 25" fill="none" xmlns="http://www.w3.org/2000/svg">
<path d="M154.744 3L150.348 3V7.40205L154.744 7.40205V3Z" fill="#4656B3"/>
<path d="M159.141 7.40234L154.744 7.40234V11.8044H159.141V7.40234Z" fill="#4656B3"/>
<path d="M163.535 3L159.139 3V7.40205L163.535 7.40205V3Z" fill="#4656B3"/>
<path d="M154.744 11.8784H150.348V16.2805H154.744V11.8784Z" fill="#4656B3"/>
<path d="M167.932 3L163.535 3V7.40205L167.932 7.40205V3Z" fill="#4656B3"/>
<path d="M176.738 3L167.945 3V11.8041L176.738 11.8041V3Z" fill="#4656B3"/>
<path d="M185.575 11.6924L176.678 11.6924V20.5894H185.575V11.6924Z" fill="#4656B3"/>
<path d="M167.931 11.9448L159.139 11.9448V20.7489H167.931V11.9448Z" fill="#4656B3"/>
<path d="M70.3477 24.0078L94.0525 24.0078L94.0525 1.00013L70.3477 1.00013L70.3477 24.0078ZM88.1383 6.74914L88.1383 18.2471L76.2739 18.2471L76.2739 6.74914L88.1263 6.74914L88.1383 6.74914Z" fill="#75AADB"/>
<path d="M36.3477 11.5786C36.3477 18.2318 41.7266 23.6177 48.3712 23.6177C48.3712 16.9645 42.9922 11.5786 36.3477 11.5786V11.5786Z" fill="#4CB13A"/>
<path d="M59.8692 11.5786C59.8692 18.2318 54.4903 23.6177 47.8457 23.6177C47.8457 16.9645 53.2246 11.5786 59.8692 11.5786V11.5786Z" fill="#4CB13A"/>
<path d="M36.3477 0C36.3477 6.65315 41.7266 12.039 48.3712 12.039C48.3712 5.38588 42.9922 0 36.3477 0V0Z" fill="#4CB13A"/>
<path d="M59.8692 0C59.8692 6.65315 54.4903 12.039 47.8457 12.039C47.8457 5.38588 53.2246 0 59.8692 0V0Z" fill="#4CB13A"/>
<path d="M208.387 0.423772L196.348 0.423773L196.348 12.4473C203.001 12.4473 208.387 7.06834 208.387 0.423772Z" fill="#FFD700"/>
<path d="M219.965 12.4473L219.965 0.423772L207.926 0.423773C207.926 7.06834 213.312 12.4473 219.965 12.4473Z" fill="#FFD700"/>
<path d="M207.926 24L219.965 24L219.965 11.9765C213.312 11.9765 207.926 17.3554 207.926 24V24Z" fill="#FFD700"/>
<path d="M196.348 11.9765L196.348 24L208.387 24C208.387 17.3554 203.001 11.9765 196.348 11.9765Z" fill="#FFD700"/>
<path d="M16.6486 4.77674V8.14658L13.2447 8.14658C10.6076 8.14658 8.46753 10.2864 8.46753 12.9233V16.2342H4.7772C2.14005 16.2342 0 18.374 0 21.0109L0 24.4021L25.0993 24.4021L25.0993 0L21.4174 0C18.7802 0 16.6402 2.13985 16.6402 4.77674H16.6486Z" fill="#F75B40"/>
<path d="M139.082 6L104.348 6V9.97781L139.082 9.97781V6Z" fill="#D184C5"/>
<path d="M139.082 13.5947L104.348 13.5947V17.5725L139.082 17.5725V13.5947Z" fill="#D184C5"/>
<path d="M241.902 1.14648C234.895 6.26249 230.348 14.5467 230.348 23.8986L241.902 23.8986V1.14648Z" fill="#AB47BC"/>
<path d="M253.467 1.14648C246.459 6.26249 241.912 14.5467 241.912 23.8986L253.467 23.8986V1.14648Z" fill="#AB47BC"/>
<path d="M264.793 1C257.785 6.116 253.238 14.4002 253.238 23.7521L264.793 23.7521V1Z" fill="#AB47BC"/>
</svg>
