<svg width="253" height="237" viewBox="0 0 253 237" fill="none" xmlns="http://www.w3.org/2000/svg">
<path d="M22.2811 73.0183V65.0935H25.6408C26.0054 65.0935 26.3403 65.1679 26.6454 65.3167C26.9505 65.4655 27.2146 65.6664 27.4379 65.9194C27.6685 66.1724 27.8471 66.4552 27.9736 66.7677C28.1001 67.0803 28.1634 67.4002 28.1634 67.7277C28.1634 68.1741 28.0592 68.5983 27.8508 69.0001C27.6425 69.4019 27.356 69.7293 26.9914 69.9823C26.6268 70.2353 26.1952 70.3618 25.6966 70.3618H23.8215V73.0183H22.2811ZM23.8215 69.0113H25.6073C25.7934 69.0113 25.9608 68.9592 26.1096 68.855C26.2584 68.7508 26.3775 68.602 26.4668 68.4085C26.5561 68.2076 26.6007 67.9807 26.6007 67.7277C26.6007 67.4523 26.5486 67.2179 26.4445 67.0245C26.3477 66.831 26.2175 66.6859 26.0538 66.5892C25.8975 66.4924 25.7264 66.444 25.5404 66.444H23.8215V69.0113Z" fill="#1D1D1B"/>
<path d="M29.0792 64.8702H30.5748V71.1432C30.5748 71.411 30.6195 71.5933 30.7088 71.6901C30.7981 71.7794 30.9209 71.824 31.0771 71.824C31.1962 71.824 31.319 71.8091 31.4455 71.7794C31.572 71.7496 31.6836 71.7124 31.7803 71.6678L31.9812 72.8063C31.7803 72.903 31.5459 72.9774 31.278 73.0295C31.0102 73.0816 30.7683 73.1076 30.5525 73.1076C30.0837 73.1076 29.7191 72.9848 29.4587 72.7393C29.2057 72.4863 29.0792 72.1291 29.0792 71.6678V64.8702Z" fill="#1D1D1B"/>
<path d="M35.3452 73.1299C34.8764 73.1299 34.4522 73.0518 34.0727 72.8955C33.6932 72.7318 33.3696 72.5123 33.1017 72.237C32.8338 71.9542 32.6254 71.6343 32.4766 71.2771C32.3352 70.9125 32.2645 70.5293 32.2645 70.1274C32.2645 69.5693 32.3873 69.0596 32.6329 68.5983C32.8859 68.1369 33.2431 67.7686 33.7044 67.4933C34.1732 67.2105 34.7239 67.0691 35.3564 67.0691C35.9963 67.0691 36.5432 67.2105 36.9971 67.4933C37.451 67.7686 37.7971 68.1369 38.0352 68.5983C38.2807 69.0522 38.4035 69.5433 38.4035 70.0716C38.4035 70.1609 38.3998 70.2539 38.3923 70.3507C38.3849 70.44 38.3775 70.5144 38.37 70.5739H33.8495C33.8793 70.8715 33.9649 71.132 34.1062 71.3552C34.2551 71.5785 34.4411 71.7496 34.6643 71.8687C34.895 71.9803 35.1406 72.0361 35.401 72.0361C35.6986 72.0361 35.9777 71.9654 36.2381 71.824C36.506 71.6752 36.6883 71.4817 36.7851 71.2436L38.0687 71.6008C37.9273 71.8984 37.7226 72.1626 37.4548 72.3933C37.1943 72.6239 36.8855 72.8063 36.5283 72.9402C36.1712 73.0667 35.7768 73.1299 35.3452 73.1299ZM33.816 69.6252H36.8744C36.8446 69.3275 36.759 69.0708 36.6176 68.855C36.4837 68.6318 36.3051 68.4606 36.0819 68.3415C35.8586 68.215 35.6094 68.1518 35.334 68.1518C35.0661 68.1518 34.8206 68.215 34.5974 68.3415C34.3816 68.4606 34.203 68.6318 34.0616 68.855C33.9276 69.0708 33.8458 69.3275 33.816 69.6252Z" fill="#1D1D1B"/>
<path d="M44.7505 73.0183H43.2548V69.7368C43.2548 69.268 43.1729 68.9257 43.0092 68.7099C42.8455 68.4941 42.6186 68.3862 42.3284 68.3862C42.1274 68.3862 41.9228 68.4383 41.7145 68.5425C41.5135 68.6466 41.3312 68.7917 41.1675 68.9778C41.0038 69.1564 40.8848 69.3647 40.8104 69.6028V73.0183H39.3147V67.1696H40.6653V68.2523C40.8141 67.9993 41.0038 67.7872 41.2345 67.616C41.4652 67.4374 41.7293 67.3035 42.027 67.2142C42.3321 67.1175 42.652 67.0691 42.9869 67.0691C43.3515 67.0691 43.6492 67.1361 43.8798 67.27C44.118 67.3965 44.2965 67.5714 44.4156 67.7946C44.5421 68.0104 44.6277 68.256 44.6723 68.5313C44.7244 68.8066 44.7505 69.0857 44.7505 69.3684V73.0183Z" fill="#1D1D1B"/>
<path d="M45.6492 71.2883C45.6492 70.9088 45.7533 70.5776 45.9617 70.2949C46.1775 70.0047 46.4751 69.7814 46.8546 69.6252C47.2341 69.4689 47.6694 69.3908 48.1605 69.3908C48.4061 69.3908 48.6554 69.4094 48.9084 69.4466C49.1614 69.4838 49.3809 69.5433 49.5669 69.6252V69.3126C49.5669 68.9406 49.4553 68.6541 49.2321 68.4532C49.0163 68.2523 48.6926 68.1518 48.261 68.1518C47.941 68.1518 47.6359 68.2076 47.3457 68.3192C47.0555 68.4308 46.7504 68.5945 46.4305 68.8103L45.9505 67.8281C46.3375 67.5751 46.7318 67.3854 47.1337 67.2589C47.5429 67.1324 47.9708 67.0691 48.4173 67.0691C49.2507 67.0691 49.8981 67.2775 50.3594 67.6942C50.8282 68.1109 51.0626 68.7062 51.0626 69.48V71.3441C51.0626 71.5003 51.0887 71.6119 51.1407 71.6789C51.2003 71.7459 51.2933 71.7868 51.4198 71.8017V73.0183C51.2858 73.0407 51.1631 73.0593 51.0514 73.0741C50.9473 73.089 50.858 73.0965 50.7836 73.0965C50.4859 73.0965 50.259 73.0295 50.1027 72.8955C49.9539 72.7616 49.8609 72.5979 49.8237 72.4044L49.7902 72.1031C49.5372 72.4305 49.2209 72.6835 48.8414 72.8621C48.4619 73.0407 48.075 73.1299 47.6806 73.1299C47.2937 73.1299 46.9439 73.0518 46.6314 72.8955C46.3263 72.7318 46.0845 72.5123 45.9059 72.237C45.7347 71.9542 45.6492 71.638 45.6492 71.2883ZM49.2879 71.5896C49.3697 71.5003 49.4367 71.411 49.4888 71.3217C49.5409 71.2324 49.5669 71.1506 49.5669 71.0762V70.4846C49.3883 70.4102 49.1949 70.3544 48.9865 70.3172C48.7782 70.2725 48.581 70.2502 48.3949 70.2502C48.008 70.2502 47.688 70.3358 47.435 70.5069C47.1895 70.6706 47.0667 70.8902 47.0667 71.1655C47.0667 71.3143 47.1076 71.4557 47.1895 71.5896C47.2713 71.7236 47.3904 71.8315 47.5467 71.9133C47.7029 71.9952 47.8889 72.0361 48.1047 72.0361C48.328 72.0361 48.5475 71.9952 48.7633 71.9133C48.9791 71.824 49.1539 71.7161 49.2879 71.5896Z" fill="#1D1D1B"/>
<path d="M61.5459 73.0183H60.0503V69.7368C60.0503 69.2754 59.9684 68.9368 59.8047 68.721C59.6484 68.4978 59.4289 68.3862 59.1462 68.3862C58.856 68.3862 58.5769 68.5015 58.309 68.7322C58.0486 68.9554 57.8626 69.2494 57.7509 69.614V73.0183H56.2553V69.7368C56.2553 69.268 56.1734 68.9257 56.0097 68.7099C55.8534 68.4941 55.6339 68.3862 55.3512 68.3862C55.061 68.3862 54.7819 68.4978 54.514 68.721C54.2536 68.9443 54.0676 69.2382 53.9559 69.6028V73.0183H52.4603V67.1696H53.8108V68.2523C54.0341 67.8728 54.3317 67.5825 54.7038 67.3816C55.0758 67.1733 55.5037 67.0691 55.9874 67.0691C56.4711 67.0691 56.8468 67.1882 57.1147 67.4263C57.3901 67.6644 57.5649 67.9583 57.6393 68.3081C57.8774 67.9062 58.1788 67.6012 58.5434 67.3928C58.9155 67.177 59.3322 67.0691 59.7936 67.0691C60.1582 67.0691 60.4521 67.1361 60.6753 67.27C60.906 67.3965 61.0846 67.5714 61.2111 67.7946C61.3376 68.0104 61.4232 68.256 61.4678 68.5313C61.5199 68.8066 61.5459 69.0857 61.5459 69.3684V73.0183Z" fill="#1D1D1B"/>
<path d="M65.5604 73.1299C65.0916 73.1299 64.6675 73.0518 64.288 72.8955C63.9085 72.7318 63.5848 72.5123 63.3169 72.237C63.049 71.9542 62.8407 71.6343 62.6919 71.2771C62.5505 70.9125 62.4798 70.5293 62.4798 70.1274C62.4798 69.5693 62.6026 69.0596 62.8481 68.5983C63.1011 68.1369 63.4583 67.7686 63.9197 67.4933C64.3884 67.2105 64.9391 67.0691 65.5716 67.0691C66.2115 67.0691 66.7585 67.2105 67.2124 67.4933C67.6663 67.7686 68.0123 68.1369 68.2504 68.5983C68.496 69.0522 68.6188 69.5433 68.6188 70.0716C68.6188 70.1609 68.615 70.2539 68.6076 70.3507C68.6002 70.44 68.5927 70.5144 68.5853 70.5739H64.0648C64.0945 70.8715 64.1801 71.132 64.3215 71.3552C64.4703 71.5785 64.6563 71.7496 64.8796 71.8687C65.1102 71.9803 65.3558 72.0361 65.6162 72.0361C65.9139 72.0361 66.1929 71.9654 66.4534 71.824C66.7213 71.6752 66.9036 71.4817 67.0003 71.2436L68.2839 71.6008C68.1425 71.8984 67.9379 72.1626 67.67 72.3933C67.4096 72.6239 67.1008 72.8063 66.7436 72.9402C66.3864 73.0667 65.992 73.1299 65.5604 73.1299ZM64.0313 69.6252H67.0896C67.0598 69.3275 66.9743 69.0708 66.8329 68.855C66.6989 68.6318 66.5203 68.4606 66.2971 68.3415C66.0739 68.215 65.8246 68.1518 65.5493 68.1518C65.2814 68.1518 65.0358 68.215 64.8126 68.3415C64.5968 68.4606 64.4182 68.6318 64.2768 68.855C64.1429 69.0708 64.061 69.3275 64.0313 69.6252Z" fill="#1D1D1B"/>
<path d="M74.9657 73.0183H73.47V69.7368C73.47 69.268 73.3882 68.9257 73.2245 68.7099C73.0608 68.4941 72.8338 68.3862 72.5436 68.3862C72.3427 68.3862 72.1381 68.4383 71.9297 68.5425C71.7288 68.6466 71.5465 68.7917 71.3828 68.9778C71.2191 69.1564 71.1 69.3647 71.0256 69.6028V73.0183H69.5299V67.1696H70.8805V68.2523C71.0293 67.9993 71.2191 67.7872 71.4497 67.616C71.6804 67.4374 71.9446 67.3035 72.2422 67.2142C72.5473 67.1175 72.8673 67.0691 73.2021 67.0691C73.5668 67.0691 73.8644 67.1361 74.0951 67.27C74.3332 67.3965 74.5118 67.5714 74.6309 67.7946C74.7574 68.0104 74.8429 68.256 74.8876 68.5313C74.9397 68.8066 74.9657 69.0857 74.9657 69.3684V73.0183Z" fill="#1D1D1B"/>
<path d="M79.7383 72.717C79.6118 72.769 79.4593 72.8286 79.2807 72.8955C79.1021 72.9625 78.9086 73.0146 78.7003 73.0518C78.4994 73.0965 78.2947 73.1188 78.0864 73.1188C77.8111 73.1188 77.558 73.0704 77.3274 72.9737C77.0967 72.8769 76.9107 72.7244 76.7693 72.516C76.6353 72.3003 76.5684 72.0212 76.5684 71.6789V68.3192H75.7982V67.1696H76.5684V65.2721H78.0641V67.1696H79.2918V68.3192H78.0641V71.1766C78.0715 71.3775 78.1273 71.5227 78.2315 71.6119C78.3357 71.7012 78.4659 71.7459 78.6221 71.7459C78.7784 71.7459 78.9309 71.7198 79.0798 71.6678C79.2286 71.6157 79.3477 71.571 79.4369 71.5338L79.7383 72.717Z" fill="#1D1D1B"/>
<path d="M83.1533 73.1299C82.6845 73.1299 82.2604 73.0518 81.8809 72.8955C81.5014 72.7318 81.1777 72.5123 80.9098 72.237C80.6419 71.9542 80.4335 71.6343 80.2847 71.2771C80.1433 70.9125 80.0726 70.5293 80.0726 70.1274C80.0726 69.5693 80.1954 69.0596 80.441 68.5983C80.694 68.1369 81.0512 67.7686 81.5125 67.4933C81.9813 67.2105 82.532 67.0691 83.1645 67.0691C83.8044 67.0691 84.3513 67.2105 84.8052 67.4933C85.2591 67.7686 85.6052 68.1369 85.8433 68.5983C86.0888 69.0522 86.2116 69.5433 86.2116 70.0716C86.2116 70.1609 86.2079 70.2539 86.2005 70.3507C86.193 70.44 86.1856 70.5144 86.1781 70.5739H81.6576C81.6874 70.8715 81.773 71.132 81.9143 71.3552C82.0632 71.5785 82.2492 71.7496 82.4724 71.8687C82.7031 71.9803 82.9487 72.0361 83.2091 72.0361C83.5067 72.0361 83.7858 71.9654 84.0462 71.824C84.3141 71.6752 84.4964 71.4817 84.5932 71.2436L85.8768 71.6008C85.7354 71.8984 85.5307 72.1626 85.2629 72.3933C85.0024 72.6239 84.6936 72.8063 84.3364 72.9402C83.9793 73.0667 83.5849 73.1299 83.1533 73.1299ZM81.6241 69.6252H84.6825C84.6527 69.3275 84.5671 69.0708 84.4257 68.855C84.2918 68.6318 84.1132 68.4606 83.89 68.3415C83.6667 68.215 83.4175 68.1518 83.1421 68.1518C82.8742 68.1518 82.6287 68.215 82.4055 68.3415C82.1897 68.4606 82.0111 68.6318 81.8697 68.855C81.7357 69.0708 81.6539 69.3275 81.6241 69.6252Z" fill="#1D1D1B"/>
<path d="M30.9339 84.2883C30.9339 83.9088 31.0381 83.5776 31.2465 83.2949C31.4623 83.0047 31.7599 82.7814 32.1394 82.6252C32.5189 82.4689 32.9542 82.3908 33.4453 82.3908C33.6909 82.3908 33.9402 82.4094 34.1932 82.4466C34.4462 82.4838 34.6657 82.5433 34.8517 82.6252V82.3126C34.8517 81.9406 34.7401 81.6541 34.5169 81.4532C34.3011 81.2523 33.9774 81.1518 33.5458 81.1518C33.2258 81.1518 32.9207 81.2076 32.6305 81.3192C32.3403 81.4308 32.0352 81.5945 31.7153 81.8103L31.2353 80.8281C31.6222 80.5751 32.0166 80.3854 32.4185 80.2589C32.8277 80.1324 33.2556 80.0691 33.7021 80.0691C34.5355 80.0691 35.1828 80.2775 35.6442 80.6942C36.113 81.1109 36.3474 81.7062 36.3474 82.48V84.3441C36.3474 84.5003 36.3734 84.6119 36.4255 84.6789C36.4851 84.7459 36.5781 84.7868 36.7046 84.8017V86.0183C36.5706 86.0407 36.4478 86.0593 36.3362 86.0741C36.2321 86.089 36.1428 86.0965 36.0683 86.0965C35.7707 86.0965 35.5437 86.0295 35.3875 85.8955C35.2387 85.7616 35.1456 85.5979 35.1084 85.4044L35.075 85.1031C34.822 85.4305 34.5057 85.6835 34.1262 85.8621C33.7467 86.0407 33.3598 86.1299 32.9654 86.1299C32.5784 86.1299 32.2287 86.0518 31.9162 85.8955C31.6111 85.7318 31.3692 85.5123 31.1907 85.237C31.0195 84.9542 30.9339 84.638 30.9339 84.2883ZM34.5727 84.5896C34.6545 84.5003 34.7215 84.411 34.7736 84.3217C34.8257 84.2324 34.8517 84.1506 34.8517 84.0762V83.4846C34.6731 83.4102 34.4797 83.3544 34.2713 83.3172C34.063 83.2725 33.8658 83.2502 33.6797 83.2502C33.2928 83.2502 32.9728 83.3358 32.7198 83.5069C32.4743 83.6706 32.3515 83.8902 32.3515 84.1655C32.3515 84.3143 32.3924 84.4557 32.4743 84.5896C32.5561 84.7236 32.6752 84.8315 32.8314 84.9133C32.9877 84.9952 33.1737 85.0361 33.3895 85.0361C33.6128 85.0361 33.8323 84.9952 34.0481 84.9133C34.2639 84.824 34.4387 84.7161 34.5727 84.5896Z" fill="#1D1D1B"/>
<path d="M37.7339 77.8702H39.2296V84.1432C39.2296 84.411 39.2742 84.5933 39.3635 84.6901C39.4528 84.7794 39.5756 84.824 39.7318 84.824C39.8509 84.824 39.9737 84.8091 40.1002 84.7794C40.2267 84.7496 40.3383 84.7124 40.435 84.6678L40.636 85.8063C40.435 85.903 40.2006 85.9774 39.9328 86.0295C39.6649 86.0816 39.423 86.1076 39.2072 86.1076C38.7385 86.1076 38.3738 85.9848 38.1134 85.7393C37.8604 85.4863 37.7339 85.1291 37.7339 84.6678V77.8702Z" fill="#1D1D1B"/>
<path d="M41.2876 86.0183V80.1696H42.7833V86.0183H41.2876ZM41.2876 79.3548V77.8702H42.7833V79.3548H41.2876Z" fill="#1D1D1B"/>
<path d="M49.5683 86.0183H48.0727V82.7368C48.0727 82.268 47.9908 81.9257 47.8271 81.7099C47.6634 81.4941 47.4364 81.3862 47.1462 81.3862C46.9453 81.3862 46.7407 81.4383 46.5323 81.5425C46.3314 81.6466 46.1491 81.7917 45.9854 81.9778C45.8217 82.1564 45.7026 82.3647 45.6282 82.6028V86.0183H44.1325V80.1696H45.4831V81.2523C45.6319 80.9993 45.8217 80.7872 46.0524 80.616C46.283 80.4374 46.5472 80.3035 46.8449 80.2142C47.1499 80.1175 47.4699 80.0691 47.8048 80.0691C48.1694 80.0691 48.467 80.1361 48.6977 80.27C48.9358 80.3965 49.1144 80.5714 49.2335 80.7946C49.36 81.0104 49.4455 81.256 49.4902 81.5313C49.5423 81.8066 49.5683 82.0857 49.5683 82.3684V86.0183Z" fill="#1D1D1B"/>
<path d="M53.5812 86.1299C53.1124 86.1299 52.6882 86.0518 52.3087 85.8955C51.9292 85.7318 51.6055 85.5123 51.3376 85.237C51.0698 84.9542 50.8614 84.6343 50.7126 84.2771C50.5712 83.9125 50.5005 83.5293 50.5005 83.1274C50.5005 82.5693 50.6233 82.0596 50.8688 81.5983C51.1218 81.1369 51.479 80.7686 51.9404 80.4933C52.4092 80.2105 52.9598 80.0691 53.5923 80.0691C54.2323 80.0691 54.7792 80.2105 55.2331 80.4933C55.687 80.7686 56.033 81.1369 56.2711 81.5983C56.5167 82.0522 56.6395 82.5433 56.6395 83.0716C56.6395 83.1609 56.6358 83.2539 56.6283 83.3507C56.6209 83.44 56.6134 83.5144 56.606 83.5739H52.0855C52.1152 83.8715 52.2008 84.132 52.3422 84.3552C52.491 84.5785 52.6771 84.7496 52.9003 84.8687C53.131 84.9803 53.3765 85.0361 53.637 85.0361C53.9346 85.0361 54.2137 84.9654 54.4741 84.824C54.742 84.6752 54.9243 84.4817 55.021 84.2436L56.3046 84.6008C56.1632 84.8984 55.9586 85.1626 55.6907 85.3933C55.4303 85.6239 55.1215 85.8063 54.7643 85.9402C54.4071 86.0667 54.0127 86.1299 53.5812 86.1299ZM52.052 82.6252H55.1103C55.0806 82.3275 54.995 82.0708 54.8536 81.855C54.7197 81.6318 54.5411 81.4606 54.3178 81.3415C54.0946 81.215 53.8453 81.1518 53.57 81.1518C53.3021 81.1518 53.0566 81.215 52.8333 81.3415C52.6175 81.4606 52.4389 81.6318 52.2976 81.855C52.1636 82.0708 52.0818 82.3275 52.052 82.6252Z" fill="#1D1D1B"/>
<path d="M57.1488 84.2883C57.1488 83.9088 57.253 83.5776 57.4614 83.2949C57.6771 83.0047 57.9748 82.7814 58.3543 82.6252C58.7338 82.4689 59.1691 82.3908 59.6602 82.3908C59.9058 82.3908 60.1551 82.4094 60.4081 82.4466C60.6611 82.4838 60.8806 82.5433 61.0666 82.6252V82.3126C61.0666 81.9406 60.955 81.6541 60.7318 81.4532C60.516 81.2523 60.1923 81.1518 59.7607 81.1518C59.4407 81.1518 59.1356 81.2076 58.8454 81.3192C58.5552 81.4308 58.2501 81.5945 57.9301 81.8103L57.4502 80.8281C57.8371 80.5751 58.2315 80.3854 58.6333 80.2589C59.0426 80.1324 59.4705 80.0691 59.9169 80.0691C60.7504 80.0691 61.3977 80.2775 61.8591 80.6942C62.3279 81.1109 62.5623 81.7062 62.5623 82.48V84.3441C62.5623 84.5003 62.5883 84.6119 62.6404 84.6789C62.6999 84.7459 62.793 84.7868 62.9195 84.8017V86.0183C62.7855 86.0407 62.6627 86.0593 62.5511 86.0741C62.4469 86.089 62.3576 86.0965 62.2832 86.0965C61.9856 86.0965 61.7586 86.0295 61.6024 85.8955C61.4535 85.7616 61.3605 85.5979 61.3233 85.4044L61.2898 85.1031C61.0368 85.4305 60.7206 85.6835 60.3411 85.8621C59.9616 86.0407 59.5746 86.1299 59.1803 86.1299C58.7933 86.1299 58.4436 86.0518 58.1311 85.8955C57.826 85.7318 57.5841 85.5123 57.4055 85.237C57.2344 84.9542 57.1488 84.638 57.1488 84.2883ZM60.7876 84.5896C60.8694 84.5003 60.9364 84.411 60.9885 84.3217C61.0406 84.2324 61.0666 84.1506 61.0666 84.0762V83.4846C60.888 83.4102 60.6945 83.3544 60.4862 83.3172C60.2778 83.2725 60.0806 83.2502 59.8946 83.2502C59.5077 83.2502 59.1877 83.3358 58.9347 83.5069C58.6891 83.6706 58.5664 83.8902 58.5664 84.1655C58.5664 84.3143 58.6073 84.4557 58.6891 84.5896C58.771 84.7236 58.8901 84.8315 59.0463 84.9133C59.2026 84.9952 59.3886 85.0361 59.6044 85.0361C59.8276 85.0361 60.0472 84.9952 60.263 84.9133C60.4788 84.824 60.6536 84.7161 60.7876 84.5896Z" fill="#1D1D1B"/>
<path d="M63.6028 83.0939C63.6028 82.5284 63.7144 82.0187 63.9376 81.5648C64.1609 81.1034 64.4697 80.7388 64.864 80.4709C65.2584 80.203 65.7086 80.0691 66.2146 80.0691C66.6462 80.0691 67.0331 80.177 67.3754 80.3928C67.7252 80.6012 67.9968 80.869 68.1903 81.1964V77.8702H69.6859V84.3441C69.6859 84.5003 69.712 84.6119 69.7641 84.6789C69.8161 84.7459 69.9054 84.7868 70.0319 84.8017V86.0183C69.7715 86.0704 69.5594 86.0965 69.3957 86.0965C69.1278 86.0965 68.9046 86.0295 68.726 85.8955C68.5549 85.7616 68.4581 85.5867 68.4358 85.3709L68.4135 85.0026C68.1977 85.3672 67.9038 85.6463 67.5317 85.8397C67.1671 86.0332 66.7839 86.1299 66.382 86.1299C65.9802 86.1299 65.6082 86.0518 65.2659 85.8955C64.931 85.7393 64.6371 85.5235 64.3841 85.2482C64.1385 84.9728 63.9451 84.6529 63.8037 84.2883C63.6697 83.9162 63.6028 83.5181 63.6028 83.0939ZM68.1903 83.8753V82.48C68.1158 82.2643 67.9968 82.0708 67.8331 81.8996C67.6694 81.7285 67.4871 81.5945 67.2861 81.4978C67.0852 81.3936 66.8843 81.3415 66.6834 81.3415C66.4527 81.3415 66.2444 81.3899 66.0584 81.4867C65.8723 81.5834 65.7086 81.7136 65.5672 81.8773C65.4333 82.041 65.3291 82.2308 65.2547 82.4466C65.1877 82.6624 65.1543 82.8893 65.1543 83.1274C65.1543 83.3655 65.1915 83.5925 65.2659 83.8083C65.3477 84.0167 65.4631 84.199 65.6119 84.3552C65.7607 84.5115 65.9319 84.6343 66.1253 84.7236C66.3262 84.8129 66.542 84.8575 66.7727 84.8575C66.9141 84.8575 67.0555 84.8352 67.1969 84.7905C67.3457 84.7384 67.4833 84.6715 67.6098 84.5896C67.7438 84.5003 67.8591 84.3962 67.9559 84.2771C68.06 84.1506 68.1382 84.0167 68.1903 83.8753Z" fill="#1D1D1B"/>
<path d="M73.8552 86.1299C73.379 86.1299 72.9511 86.0518 72.5716 85.8955C72.1921 85.7318 71.8684 85.5086 71.6005 85.2258C71.3401 84.9431 71.1392 84.6194 70.9978 84.2548C70.8564 83.8902 70.7857 83.5069 70.7857 83.1051C70.7857 82.6958 70.8564 82.3089 70.9978 81.9443C71.1392 81.5797 71.3401 81.256 71.6005 80.9732C71.8684 80.6904 72.1921 80.4709 72.5716 80.3147C72.9511 80.151 73.379 80.0691 73.8552 80.0691C74.3314 80.0691 74.7556 80.151 75.1276 80.3147C75.5071 80.4709 75.8308 80.6904 76.0987 80.9732C76.3666 81.256 76.5675 81.5797 76.7014 81.9443C76.8428 82.3089 76.9135 82.6958 76.9135 83.1051C76.9135 83.5069 76.8428 83.8902 76.7014 84.2548C76.5675 84.6194 76.3666 84.9431 76.0987 85.2258C75.8383 85.5086 75.5183 85.7318 75.1388 85.8955C74.7593 86.0518 74.3314 86.1299 73.8552 86.1299ZM72.326 83.1051C72.326 83.4474 72.393 83.7525 72.5269 84.0204C72.6609 84.2808 72.8432 84.4854 73.0739 84.6343C73.3046 84.7831 73.565 84.8575 73.8552 84.8575C74.138 84.8575 74.3947 84.7831 74.6254 84.6343C74.856 84.478 75.0383 84.2697 75.1723 84.0092C75.3137 83.7413 75.3844 83.4362 75.3844 83.0939C75.3844 82.7591 75.3137 82.4577 75.1723 82.1898C75.0383 81.922 74.856 81.7136 74.6254 81.5648C74.3947 81.416 74.138 81.3415 73.8552 81.3415C73.565 81.3415 73.3046 81.4197 73.0739 81.5759C72.8432 81.7248 72.6609 81.9331 72.5269 82.201C72.393 82.4614 72.326 82.7628 72.326 83.1051Z" fill="#1D1D1B"/>
<line x1="125.895" y1="-2.0329e-08" x2="125.895" y2="235.327" stroke="#4F4F4F" stroke-width="0.930147" stroke-dasharray="6.51 6.51"/>
<line x1="253" y1="112.083" x2="0.930145" y2="112.083" stroke="#4F4F4F" stroke-width="0.930147" stroke-dasharray="6.51 6.51"/>
<rect x="15" y="13.1636" width="40" height="30" fill="#6D6D6D"/>
<rect x="55" y="13.1636" width="40" height="30" fill="#4CB13A"/>
<rect y="25.1636" width="110" height="5" fill="black"/>
<circle cx="55" cy="28.1636" r="10" fill="black"/>
<rect x="157" y="18.1636" width="40" height="30" fill="#6D6D6D"/>
<rect x="197" y="8.16357" width="40" height="30" fill="#75AADB"/>
<rect x="142" y="25.1636" width="110" height="5" fill="black"/>
<circle cx="197" cy="28.1636" r="10" fill="black"/>
<rect x="16" y="160.164" width="40" height="30" fill="#6D6D6D"/>
<rect x="56" y="135.164" width="40" height="30" fill="#FFD700"/>
<rect x="1" y="160.164" width="110" height="5" fill="black"/>
<circle cx="56" cy="163.164" r="10" fill="black"/>
<rect x="157" y="169.164" width="40" height="30" fill="#6D6D6D"/>
<rect x="197" y="126.164" width="40" height="30" fill="#CC0000"/>
<rect x="142" y="160.164" width="110" height="5" fill="black"/>
<circle cx="197" cy="163.164" r="10" fill="black"/>
<path d="M180.31 70.9757C180.31 71.4222 180.195 71.7979 179.964 72.103C179.733 72.4007 179.421 72.6276 179.026 72.7839C178.639 72.9402 178.215 73.0183 177.754 73.0183H173.925V65.0934H178.167C178.539 65.0934 178.859 65.1939 179.127 65.3948C179.402 65.5883 179.61 65.8413 179.752 66.1538C179.901 66.4589 179.975 66.7789 179.975 67.1137C179.975 67.4932 179.878 67.8541 179.685 68.1964C179.491 68.5387 179.209 68.7917 178.837 68.9554C179.291 69.0894 179.648 69.3312 179.908 69.6809C180.176 70.0307 180.31 70.4623 180.31 70.9757ZM178.758 70.6855C178.758 70.4846 178.718 70.306 178.636 70.1497C178.554 69.986 178.442 69.8595 178.301 69.7702C178.167 69.6735 178.011 69.6251 177.832 69.6251H175.466V71.7124H177.754C177.94 71.7124 178.107 71.6677 178.256 71.5784C178.412 71.4817 178.535 71.3552 178.625 71.1989C178.714 71.0427 178.758 70.8715 178.758 70.6855ZM175.466 66.4105V68.4085H177.52C177.691 68.4085 177.847 68.3676 177.988 68.2857C178.13 68.2039 178.241 68.0885 178.323 67.9397C178.412 67.7909 178.457 67.6123 178.457 67.4039C178.457 67.203 178.416 67.0282 178.334 66.8793C178.26 66.7305 178.156 66.6152 178.022 66.5333C177.895 66.4515 177.75 66.4105 177.586 66.4105H175.466Z" fill="#1D1D1B"/>
<path d="M180.965 71.2882C180.965 70.9087 181.069 70.5776 181.278 70.2948C181.493 70.0046 181.791 69.7814 182.17 69.6251C182.55 69.4689 182.985 69.3907 183.476 69.3907C183.722 69.3907 183.971 69.4093 184.224 69.4465C184.477 69.4837 184.697 69.5433 184.883 69.6251V69.3126C184.883 68.9405 184.771 68.654 184.548 68.4531C184.332 68.2522 184.008 68.1518 183.577 68.1518C183.257 68.1518 182.952 68.2076 182.662 68.3192C182.371 68.4308 182.066 68.5945 181.746 68.8103L181.266 67.8281C181.653 67.5751 182.048 67.3853 182.45 67.2588C182.859 67.1323 183.287 67.0691 183.733 67.0691C184.567 67.0691 185.214 67.2774 185.675 67.6941C186.144 68.1108 186.378 68.7061 186.378 69.48V71.344C186.378 71.5003 186.404 71.6119 186.457 71.6789C186.516 71.7459 186.609 71.7868 186.736 71.8017V73.0183C186.602 73.0406 186.479 73.0592 186.367 73.0741C186.263 73.089 186.174 73.0964 186.099 73.0964C185.802 73.0964 185.575 73.0295 185.419 72.8955C185.27 72.7616 185.177 72.5979 185.14 72.4044L185.106 72.103C184.853 72.4304 184.537 72.6834 184.157 72.862C183.778 73.0406 183.391 73.1299 182.996 73.1299C182.61 73.1299 182.26 73.0518 181.947 72.8955C181.642 72.7318 181.4 72.5123 181.222 72.237C181.051 71.9542 180.965 71.638 180.965 71.2882ZM184.604 71.5896C184.686 71.5003 184.753 71.411 184.805 71.3217C184.857 71.2324 184.883 71.1506 184.883 71.0762V70.4846C184.704 70.4102 184.511 70.3544 184.302 70.3172C184.094 70.2725 183.897 70.2502 183.711 70.2502C183.324 70.2502 183.004 70.3358 182.751 70.5069C182.505 70.6706 182.383 70.8901 182.383 71.1654C182.383 71.3143 182.423 71.4557 182.505 71.5896C182.587 71.7235 182.706 71.8314 182.863 71.9133C183.019 71.9951 183.205 72.0361 183.421 72.0361C183.644 72.0361 183.863 71.9951 184.079 71.9133C184.295 71.824 184.47 71.7161 184.604 71.5896Z" fill="#1D1D1B"/>
<path d="M189.93 73.1299C189.432 73.1299 188.956 73.0481 188.502 72.8844C188.048 72.7207 187.657 72.4788 187.33 72.1588L187.865 71.1878C188.215 71.4705 188.557 71.6789 188.892 71.8128C189.235 71.9468 189.562 72.0137 189.875 72.0137C190.165 72.0137 190.395 71.9617 190.567 71.8575C190.745 71.7533 190.834 71.597 190.834 71.3887C190.834 71.2473 190.786 71.1394 190.689 71.065C190.593 70.9831 190.451 70.9124 190.265 70.8529C190.087 70.7934 189.867 70.7264 189.607 70.652C189.175 70.5106 188.814 70.373 188.524 70.239C188.234 70.1051 188.014 69.9377 187.865 69.7367C187.724 69.5284 187.653 69.2642 187.653 68.9443C187.653 68.5573 187.75 68.2262 187.944 67.9509C188.144 67.6681 188.42 67.4486 188.77 67.2923C189.127 67.136 189.543 67.0579 190.02 67.0579C190.436 67.0579 190.831 67.1249 191.203 67.2588C191.575 67.3853 191.913 67.5937 192.219 67.8839L191.616 68.8326C191.318 68.602 191.035 68.4345 190.767 68.3304C190.5 68.2187 190.228 68.1629 189.953 68.1629C189.796 68.1629 189.648 68.1815 189.506 68.2187C189.372 68.2559 189.261 68.3192 189.171 68.4085C189.089 68.4903 189.049 68.6094 189.049 68.7657C189.049 68.907 189.086 69.0187 189.16 69.1005C189.242 69.1749 189.361 69.2419 189.517 69.3014C189.681 69.361 189.878 69.4279 190.109 69.5023C190.578 69.6363 190.972 69.7739 191.292 69.9153C191.619 70.0567 191.865 70.2316 192.029 70.4399C192.192 70.6408 192.274 70.9199 192.274 71.2771C192.274 71.8575 192.062 72.3114 191.638 72.6388C191.214 72.9662 190.645 73.1299 189.93 73.1299Z" fill="#1D1D1B"/>
<path d="M196.764 72.7169C196.637 72.769 196.485 72.8285 196.306 72.8955C196.127 72.9625 195.934 73.0146 195.726 73.0518C195.525 73.0964 195.32 73.1188 195.112 73.1188C194.836 73.1188 194.583 73.0704 194.353 72.9737C194.122 72.8769 193.936 72.7244 193.795 72.516C193.661 72.3002 193.594 72.0212 193.594 71.6789V68.3192H192.824V67.1695H193.594V65.272H195.089V67.1695H196.317V68.3192H195.089V71.1766C195.097 71.3775 195.153 71.5226 195.257 71.6119C195.361 71.7012 195.491 71.7459 195.648 71.7459C195.804 71.7459 195.956 71.7198 196.105 71.6677C196.254 71.6156 196.373 71.571 196.462 71.5338L196.764 72.7169Z" fill="#1D1D1B"/>
<path d="M197.141 71.2882C197.141 70.9087 197.245 70.5776 197.453 70.2948C197.669 70.0046 197.967 69.7814 198.346 69.6251C198.726 69.4689 199.161 69.3907 199.652 69.3907C199.898 69.3907 200.147 69.4093 200.4 69.4465C200.653 69.4837 200.873 69.5433 201.059 69.6251V69.3126C201.059 68.9405 200.947 68.654 200.724 68.4531C200.508 68.2522 200.184 68.1518 199.753 68.1518C199.433 68.1518 199.128 68.2076 198.837 68.3192C198.547 68.4308 198.242 68.5945 197.922 68.8103L197.442 67.8281C197.829 67.5751 198.224 67.3853 198.625 67.2588C199.035 67.1323 199.462 67.0691 199.909 67.0691C200.742 67.0691 201.39 67.2774 201.851 67.6941C202.32 68.1108 202.554 68.7061 202.554 69.48V71.344C202.554 71.5003 202.58 71.6119 202.632 71.6789C202.692 71.7459 202.785 71.7868 202.911 71.8017V73.0183C202.778 73.0406 202.655 73.0592 202.543 73.0741C202.439 73.089 202.35 73.0964 202.275 73.0964C201.978 73.0964 201.751 73.0295 201.594 72.8955C201.446 72.7616 201.353 72.5979 201.315 72.4044L201.282 72.103C201.029 72.4304 200.713 72.6834 200.333 72.862C199.954 73.0406 199.567 73.1299 199.172 73.1299C198.785 73.1299 198.436 73.0518 198.123 72.8955C197.818 72.7318 197.576 72.5123 197.398 72.237C197.226 71.9542 197.141 71.638 197.141 71.2882ZM200.78 71.5896C200.861 71.5003 200.928 71.411 200.98 71.3217C201.033 71.2324 201.059 71.1506 201.059 71.0762V70.4846C200.88 70.4102 200.687 70.3544 200.478 70.3172C200.27 70.2725 200.073 70.2502 199.887 70.2502C199.5 70.2502 199.18 70.3358 198.927 70.5069C198.681 70.6706 198.558 70.8901 198.558 71.1654C198.558 71.3143 198.599 71.4557 198.681 71.5896C198.763 71.7235 198.882 71.8314 199.038 71.9133C199.195 71.9951 199.381 72.0361 199.596 72.0361C199.82 72.0361 200.039 71.9951 200.255 71.9133C200.471 71.824 200.646 71.7161 200.78 71.5896Z" fill="#1D1D1B"/>
<path d="M209.388 73.0183H207.892V69.7367C207.892 69.2679 207.81 68.9257 207.646 68.7099C207.483 68.4941 207.256 68.3862 206.966 68.3862C206.765 68.3862 206.56 68.4383 206.352 68.5424C206.151 68.6466 205.969 68.7917 205.805 68.9777C205.641 69.1563 205.522 69.3647 205.448 69.6028V73.0183H203.952V67.1695H205.303V68.2522C205.451 67.9992 205.641 67.7872 205.872 67.616C206.102 67.4374 206.367 67.3035 206.664 67.2142C206.969 67.1174 207.289 67.0691 207.624 67.0691C207.989 67.0691 208.286 67.136 208.517 67.27C208.755 67.3965 208.934 67.5714 209.053 67.7946C209.179 68.0104 209.265 68.2559 209.31 68.5313C209.362 68.8066 209.388 69.0856 209.388 69.3684V73.0183Z" fill="#1D1D1B"/>
<path d="M214.16 72.7169C214.034 72.769 213.881 72.8285 213.703 72.8955C213.524 72.9625 213.331 73.0146 213.122 73.0518C212.921 73.0964 212.717 73.1188 212.508 73.1188C212.233 73.1188 211.98 73.0704 211.749 72.9737C211.519 72.8769 211.333 72.7244 211.191 72.516C211.057 72.3002 210.99 72.0212 210.99 71.6789V68.3192H210.22V67.1695H210.99V65.272H212.486V67.1695H213.714V68.3192H212.486V71.1766C212.494 71.3775 212.549 71.5226 212.654 71.6119C212.758 71.7012 212.888 71.7459 213.044 71.7459C213.2 71.7459 213.353 71.7198 213.502 71.6677C213.651 71.6156 213.77 71.571 213.859 71.5338L214.16 72.7169Z" fill="#1D1D1B"/>
<path d="M217.575 73.1299C217.107 73.1299 216.682 73.0518 216.303 72.8955C215.923 72.7318 215.6 72.5123 215.332 72.237C215.064 71.9542 214.856 71.6342 214.707 71.2771C214.565 70.9124 214.495 70.5292 214.495 70.1274C214.495 69.5693 214.617 69.0596 214.863 68.5982C215.116 68.1369 215.473 67.7685 215.935 67.4932C216.403 67.2105 216.954 67.0691 217.586 67.0691C218.226 67.0691 218.773 67.2105 219.227 67.4932C219.681 67.7685 220.027 68.1369 220.265 68.5982C220.511 69.0522 220.634 69.5433 220.634 70.0716C220.634 70.1609 220.63 70.2539 220.622 70.3506C220.615 70.4399 220.608 70.5143 220.6 70.5739H216.08C216.109 70.8715 216.195 71.132 216.336 71.3552C216.485 71.5784 216.671 71.7496 216.894 71.8686C217.125 71.9803 217.371 72.0361 217.631 72.0361C217.929 72.0361 218.208 71.9654 218.468 71.824C218.736 71.6752 218.918 71.4817 219.015 71.2436L220.299 71.6008C220.157 71.8984 219.953 72.1626 219.685 72.3932C219.424 72.6239 219.116 72.8062 218.758 72.9402C218.401 73.0667 218.007 73.1299 217.575 73.1299ZM216.046 69.6251H219.104C219.075 69.3275 218.989 69.0708 218.848 68.855C218.714 68.6317 218.535 68.4606 218.312 68.3415C218.089 68.215 217.839 68.1518 217.564 68.1518C217.296 68.1518 217.051 68.215 216.827 68.3415C216.612 68.4606 216.433 68.6317 216.292 68.855C216.158 69.0708 216.076 69.3275 216.046 69.6251Z" fill="#1D1D1B"/>
<path d="M173.967 84.2882C173.967 83.9087 174.071 83.5776 174.28 83.2948C174.495 83.0046 174.793 82.7814 175.173 82.6251C175.552 82.4689 175.987 82.3907 176.478 82.3907C176.724 82.3907 176.973 82.4093 177.226 82.4465C177.479 82.4837 177.699 82.5433 177.885 82.6251V82.3126C177.885 81.9405 177.773 81.654 177.55 81.4531C177.334 81.2522 177.011 81.1518 176.579 81.1518C176.259 81.1518 175.954 81.2076 175.664 81.3192C175.373 81.4308 175.068 81.5945 174.748 81.8103L174.268 80.8281C174.655 80.5751 175.05 80.3853 175.452 80.2588C175.861 80.1323 176.289 80.0691 176.735 80.0691C177.569 80.0691 178.216 80.2774 178.677 80.6941C179.146 81.1108 179.381 81.7061 179.381 82.48V84.344C179.381 84.5003 179.407 84.6119 179.459 84.6789C179.518 84.7459 179.611 84.7868 179.738 84.8017V86.0183C179.604 86.0406 179.481 86.0592 179.369 86.0741C179.265 86.089 179.176 86.0964 179.102 86.0964C178.804 86.0964 178.577 86.0295 178.421 85.8955C178.272 85.7616 178.179 85.5979 178.142 85.4044L178.108 85.103C177.855 85.4304 177.539 85.6834 177.159 85.862C176.78 86.0406 176.393 86.1299 175.999 86.1299C175.612 86.1299 175.262 86.0518 174.949 85.8955C174.644 85.7318 174.402 85.5123 174.224 85.237C174.053 84.9542 173.967 84.638 173.967 84.2882ZM177.606 84.5896C177.688 84.5003 177.755 84.411 177.807 84.3217C177.859 84.2324 177.885 84.1506 177.885 84.0762V83.4846C177.706 83.4102 177.513 83.3544 177.304 83.3172C177.096 83.2725 176.899 83.2502 176.713 83.2502C176.326 83.2502 176.006 83.3358 175.753 83.5069C175.507 83.6706 175.385 83.8901 175.385 84.1654C175.385 84.3143 175.426 84.4557 175.507 84.5896C175.589 84.7235 175.708 84.8314 175.865 84.9133C176.021 84.9951 176.207 85.0361 176.423 85.0361C176.646 85.0361 176.865 84.9951 177.081 84.9133C177.297 84.824 177.472 84.7161 177.606 84.5896Z" fill="#1D1D1B"/>
<path d="M180.767 77.8702H182.263V84.1431C182.263 84.411 182.307 84.5933 182.397 84.69C182.486 84.7793 182.609 84.824 182.765 84.824C182.884 84.824 183.007 84.8091 183.133 84.7793C183.26 84.7496 183.371 84.7124 183.468 84.6677L183.669 85.8062C183.468 85.903 183.234 85.9774 182.966 86.0295C182.698 86.0815 182.456 86.1076 182.24 86.1076C181.772 86.1076 181.407 85.9848 181.147 85.7393C180.894 85.4863 180.767 85.1291 180.767 84.6677V77.8702Z" fill="#1D1D1B"/>
<path d="M184.321 86.0183V80.1695H185.816V86.0183H184.321ZM184.321 79.3547V77.8702H185.816V79.3547H184.321Z" fill="#1D1D1B"/>
<path d="M192.601 86.0183H191.106V82.7367C191.106 82.2679 191.024 81.9257 190.86 81.7099C190.697 81.4941 190.47 81.3862 190.179 81.3862C189.978 81.3862 189.774 81.4383 189.565 81.5424C189.365 81.6466 189.182 81.7917 189.019 81.9777C188.855 82.1563 188.736 82.3647 188.661 82.6028V86.0183H187.166V80.1695H188.516V81.2522C188.665 80.9992 188.855 80.7872 189.086 80.616C189.316 80.4374 189.58 80.3035 189.878 80.2142C190.183 80.1174 190.503 80.0691 190.838 80.0691C191.203 80.0691 191.5 80.136 191.731 80.27C191.969 80.3965 192.148 80.5714 192.267 80.7946C192.393 81.0104 192.479 81.2559 192.523 81.5313C192.575 81.8066 192.601 82.0856 192.601 82.3684V86.0183Z" fill="#1D1D1B"/>
<path d="M196.614 86.1299C196.146 86.1299 195.721 86.0518 195.342 85.8955C194.962 85.7318 194.639 85.5123 194.371 85.237C194.103 84.9542 193.895 84.6342 193.746 84.2771C193.604 83.9124 193.534 83.5292 193.534 83.1274C193.534 82.5693 193.656 82.0596 193.902 81.5982C194.155 81.1369 194.512 80.7685 194.974 80.4932C195.442 80.2105 195.993 80.0691 196.625 80.0691C197.265 80.0691 197.812 80.2105 198.266 80.4932C198.72 80.7685 199.066 81.1369 199.304 81.5982C199.55 82.0521 199.673 82.5433 199.673 83.0716C199.673 83.1609 199.669 83.2539 199.661 83.3506C199.654 83.4399 199.647 83.5143 199.639 83.5739H195.119C195.148 83.8715 195.234 84.132 195.375 84.3552C195.524 84.5784 195.71 84.7496 195.933 84.8686C196.164 84.9803 196.41 85.0361 196.67 85.0361C196.968 85.0361 197.247 84.9654 197.507 84.824C197.775 84.6752 197.957 84.4817 198.054 84.2436L199.338 84.6008C199.196 84.8984 198.992 85.1626 198.724 85.3932C198.463 85.6239 198.155 85.8062 197.797 85.9402C197.44 86.0667 197.046 86.1299 196.614 86.1299ZM195.085 82.6251H198.143C198.114 82.3275 198.028 82.0708 197.887 81.855C197.753 81.6317 197.574 81.4606 197.351 81.3415C197.128 81.215 196.878 81.1518 196.603 81.1518C196.335 81.1518 196.09 81.215 195.866 81.3415C195.651 81.4606 195.472 81.6317 195.331 81.855C195.197 82.0708 195.115 82.3275 195.085 82.6251Z" fill="#1D1D1B"/>
<path d="M200.182 84.2882C200.182 83.9087 200.286 83.5776 200.495 83.2948C200.71 83.0046 201.008 82.7814 201.387 82.6251C201.767 82.4689 202.202 82.3907 202.693 82.3907C202.939 82.3907 203.188 82.4093 203.441 82.4465C203.694 82.4837 203.914 82.5433 204.1 82.6251V82.3126C204.1 81.9405 203.988 81.654 203.765 81.4531C203.549 81.2522 203.225 81.1518 202.794 81.1518C202.474 81.1518 202.169 81.2076 201.879 81.3192C201.588 81.4308 201.283 81.5945 200.963 81.8103L200.483 80.8281C200.87 80.5751 201.265 80.3853 201.667 80.2588C202.076 80.1323 202.504 80.0691 202.95 80.0691C203.784 80.0691 204.431 80.2774 204.892 80.6941C205.361 81.1108 205.595 81.7061 205.595 82.48V84.344C205.595 84.5003 205.621 84.6119 205.674 84.6789C205.733 84.7459 205.826 84.7868 205.953 84.8017V86.0183C205.819 86.0406 205.696 86.0592 205.584 86.0741C205.48 86.089 205.391 86.0964 205.316 86.0964C205.019 86.0964 204.792 86.0295 204.636 85.8955C204.487 85.7616 204.394 85.5979 204.356 85.4044L204.323 85.103C204.07 85.4304 203.754 85.6834 203.374 85.862C202.995 86.0406 202.608 86.1299 202.213 86.1299C201.826 86.1299 201.477 86.0518 201.164 85.8955C200.859 85.7318 200.617 85.5123 200.439 85.237C200.268 84.9542 200.182 84.638 200.182 84.2882ZM203.821 84.5896C203.903 84.5003 203.97 84.411 204.022 84.3217C204.074 84.2324 204.1 84.1506 204.1 84.0762V83.4846C203.921 83.4102 203.728 83.3544 203.519 83.3172C203.311 83.2725 203.114 83.2502 202.928 83.2502C202.541 83.2502 202.221 83.3358 201.968 83.5069C201.722 83.6706 201.6 83.8901 201.6 84.1654C201.6 84.3143 201.64 84.4557 201.722 84.5896C201.804 84.7235 201.923 84.8314 202.079 84.9133C202.236 84.9951 202.422 85.0361 202.638 85.0361C202.861 85.0361 203.08 84.9951 203.296 84.9133C203.512 84.824 203.687 84.7161 203.821 84.5896Z" fill="#1D1D1B"/>
<path d="M206.636 83.0939C206.636 82.5284 206.748 82.0187 206.971 81.5648C207.194 81.1034 207.503 80.7388 207.897 80.4709C208.292 80.203 208.742 80.0691 209.248 80.0691C209.679 80.0691 210.066 80.177 210.409 80.3928C210.758 80.6011 211.03 80.869 211.223 81.1964V77.8702H212.719V84.344C212.719 84.5003 212.745 84.6119 212.797 84.6789C212.849 84.7459 212.939 84.7868 213.065 84.8017V86.0183C212.805 86.0704 212.593 86.0964 212.429 86.0964C212.161 86.0964 211.938 86.0295 211.759 85.8955C211.588 85.7616 211.491 85.5867 211.469 85.3709L211.447 85.0026C211.231 85.3672 210.937 85.6462 210.565 85.8397C210.2 86.0332 209.817 86.1299 209.415 86.1299C209.013 86.1299 208.641 86.0518 208.299 85.8955C207.964 85.7393 207.67 85.5235 207.417 85.2481C207.172 84.9728 206.978 84.6528 206.837 84.2882C206.703 83.9162 206.636 83.5181 206.636 83.0939ZM211.223 83.8752V82.48C211.149 82.2642 211.03 82.0708 210.866 81.8996C210.703 81.7285 210.52 81.5945 210.319 81.4978C210.118 81.3936 209.917 81.3415 209.717 81.3415C209.486 81.3415 209.278 81.3899 209.092 81.4866C208.905 81.5834 208.742 81.7136 208.6 81.8773C208.466 82.041 208.362 82.2307 208.288 82.4465C208.221 82.6623 208.187 82.8893 208.187 83.1274C208.187 83.3655 208.225 83.5925 208.299 83.8083C208.381 84.0166 208.496 84.1989 208.645 84.3552C208.794 84.5115 208.965 84.6342 209.158 84.7235C209.359 84.8128 209.575 84.8575 209.806 84.8575C209.947 84.8575 210.089 84.8351 210.23 84.7905C210.379 84.7384 210.517 84.6714 210.643 84.5896C210.777 84.5003 210.892 84.3961 210.989 84.2771C211.093 84.1506 211.171 84.0166 211.223 83.8752Z" fill="#1D1D1B"/>
<path d="M216.888 86.1299C216.412 86.1299 215.984 86.0518 215.605 85.8955C215.225 85.7318 214.902 85.5086 214.634 85.2258C214.373 84.943 214.172 84.6194 214.031 84.2547C213.89 83.8901 213.819 83.5069 213.819 83.1051C213.819 82.6958 213.89 82.3089 214.031 81.9443C214.172 81.5796 214.373 81.2559 214.634 80.9732C214.902 80.6904 215.225 80.4709 215.605 80.3146C215.984 80.1509 216.412 80.0691 216.888 80.0691C217.365 80.0691 217.789 80.1509 218.161 80.3146C218.54 80.4709 218.864 80.6904 219.132 80.9732C219.4 81.2559 219.601 81.5796 219.735 81.9443C219.876 82.3089 219.947 82.6958 219.947 83.1051C219.947 83.5069 219.876 83.8901 219.735 84.2547C219.601 84.6194 219.4 84.943 219.132 85.2258C218.871 85.5086 218.551 85.7318 218.172 85.8955C217.792 86.0518 217.365 86.1299 216.888 86.1299ZM215.359 83.1051C215.359 83.4474 215.426 83.7525 215.56 84.0203C215.694 84.2808 215.876 84.4854 216.107 84.6342C216.338 84.7831 216.598 84.8575 216.888 84.8575C217.171 84.8575 217.428 84.7831 217.659 84.6342C217.889 84.478 218.072 84.2696 218.205 84.0092C218.347 83.7413 218.418 83.4362 218.418 83.0939C218.418 82.7591 218.347 82.4577 218.205 82.1898C218.072 81.9219 217.889 81.7136 217.659 81.5648C217.428 81.4159 217.171 81.3415 216.888 81.3415C216.598 81.3415 216.338 81.4196 216.107 81.5759C215.876 81.7247 215.694 81.9331 215.56 82.201C215.426 82.4614 215.359 82.7628 215.359 83.1051Z" fill="#1D1D1B"/>
<path d="M191.756 218.054V223.143H190.216V215.218H191.444L195.54 220.442V215.23H197.08V223.143H195.797L191.756 218.054Z" fill="#1D1D1B"/>
<path d="M201.187 223.255C200.711 223.255 200.283 223.177 199.903 223.021C199.524 222.857 199.2 222.634 198.932 222.351C198.672 222.068 198.471 221.744 198.329 221.38C198.188 221.015 198.117 220.632 198.117 220.23C198.117 219.821 198.188 219.434 198.329 219.069C198.471 218.705 198.672 218.381 198.932 218.098C199.2 217.815 199.524 217.596 199.903 217.44C200.283 217.276 200.711 217.194 201.187 217.194C201.663 217.194 202.087 217.276 202.459 217.44C202.839 217.596 203.162 217.815 203.43 218.098C203.698 218.381 203.899 218.705 204.033 219.069C204.174 219.434 204.245 219.821 204.245 220.23C204.245 220.632 204.174 221.015 204.033 221.38C203.899 221.744 203.698 222.068 203.43 222.351C203.17 222.634 202.85 222.857 202.47 223.021C202.091 223.177 201.663 223.255 201.187 223.255ZM199.658 220.23C199.658 220.572 199.725 220.877 199.858 221.145C199.992 221.406 200.175 221.61 200.405 221.759C200.636 221.908 200.897 221.982 201.187 221.982C201.47 221.982 201.726 221.908 201.957 221.759C202.188 221.603 202.37 221.395 202.504 221.134C202.645 220.866 202.716 220.561 202.716 220.219C202.716 219.884 202.645 219.583 202.504 219.315C202.37 219.047 202.188 218.839 201.957 218.69C201.726 218.541 201.47 218.467 201.187 218.467C200.897 218.467 200.636 218.545 200.405 218.701C200.175 218.85 199.992 219.058 199.858 219.326C199.725 219.586 199.658 219.888 199.658 220.23Z" fill="#1D1D1B"/>
<path d="M173.967 234.413C173.967 234.034 174.071 233.703 174.28 233.42C174.495 233.13 174.793 232.906 175.173 232.75C175.552 232.594 175.987 232.516 176.479 232.516C176.724 232.516 176.973 232.534 177.226 232.572C177.479 232.609 177.699 232.668 177.885 232.75V232.438C177.885 232.066 177.773 231.779 177.55 231.578C177.334 231.377 177.011 231.277 176.579 231.277C176.259 231.277 175.954 231.333 175.664 231.444C175.374 231.556 175.068 231.72 174.748 231.935L174.269 230.953C174.655 230.7 175.05 230.51 175.452 230.384C175.861 230.257 176.289 230.194 176.735 230.194C177.569 230.194 178.216 230.402 178.677 230.819C179.146 231.236 179.381 231.831 179.381 232.605V234.469C179.381 234.625 179.407 234.737 179.459 234.804C179.518 234.871 179.611 234.912 179.738 234.927V236.143C179.604 236.166 179.481 236.184 179.369 236.199C179.265 236.214 179.176 236.221 179.102 236.221C178.804 236.221 178.577 236.154 178.421 236.021C178.272 235.887 178.179 235.723 178.142 235.529L178.108 235.228C177.855 235.555 177.539 235.808 177.159 235.987C176.78 236.166 176.393 236.255 175.999 236.255C175.612 236.255 175.262 236.177 174.949 236.021C174.644 235.857 174.402 235.637 174.224 235.362C174.053 235.079 173.967 234.763 173.967 234.413ZM177.606 234.715C177.688 234.625 177.755 234.536 177.807 234.447C177.859 234.357 177.885 234.276 177.885 234.201V233.61C177.706 233.535 177.513 233.479 177.305 233.442C177.096 233.398 176.899 233.375 176.713 233.375C176.326 233.375 176.006 233.461 175.753 233.632C175.507 233.796 175.385 234.015 175.385 234.29C175.385 234.439 175.426 234.581 175.507 234.715C175.589 234.849 175.708 234.956 175.865 235.038C176.021 235.12 176.207 235.161 176.423 235.161C176.646 235.161 176.866 235.12 177.081 235.038C177.297 234.949 177.472 234.841 177.606 234.715Z" fill="#1D1D1B"/>
<path d="M180.767 227.995H182.263V234.268C182.263 234.536 182.307 234.718 182.397 234.815C182.486 234.904 182.609 234.949 182.765 234.949C182.884 234.949 183.007 234.934 183.133 234.904C183.26 234.875 183.372 234.837 183.468 234.793L183.669 235.931C183.468 236.028 183.234 236.102 182.966 236.154C182.698 236.207 182.456 236.233 182.24 236.233C181.772 236.233 181.407 236.11 181.147 235.864C180.894 235.611 180.767 235.254 180.767 234.793V227.995Z" fill="#1D1D1B"/>
<path d="M184.321 236.143V230.295H185.817V236.143H184.321ZM184.321 229.48V227.995H185.817V229.48H184.321Z" fill="#1D1D1B"/>
<path d="M192.602 236.143H191.106V232.862C191.106 232.393 191.024 232.051 190.86 231.835C190.697 231.619 190.47 231.511 190.179 231.511C189.979 231.511 189.774 231.563 189.566 231.667C189.365 231.772 189.182 231.917 189.019 232.103C188.855 232.281 188.736 232.49 188.661 232.728V236.143H187.166V230.295H188.516V231.377C188.665 231.124 188.855 230.912 189.086 230.741C189.316 230.562 189.58 230.428 189.878 230.339C190.183 230.242 190.503 230.194 190.838 230.194C191.203 230.194 191.5 230.261 191.731 230.395C191.969 230.521 192.148 230.696 192.267 230.92C192.393 231.135 192.479 231.381 192.523 231.656C192.576 231.932 192.602 232.211 192.602 232.493V236.143Z" fill="#1D1D1B"/>
<path d="M196.614 236.255C196.146 236.255 195.721 236.177 195.342 236.021C194.962 235.857 194.639 235.637 194.371 235.362C194.103 235.079 193.895 234.759 193.746 234.402C193.604 234.037 193.534 233.654 193.534 233.252C193.534 232.694 193.657 232.185 193.902 231.723C194.155 231.262 194.512 230.894 194.974 230.618C195.442 230.335 195.993 230.194 196.626 230.194C197.265 230.194 197.812 230.335 198.266 230.618C198.72 230.894 199.066 231.262 199.304 231.723C199.55 232.177 199.673 232.668 199.673 233.197C199.673 233.286 199.669 233.379 199.662 233.476C199.654 233.565 199.647 233.639 199.639 233.699H195.119C195.148 233.997 195.234 234.257 195.375 234.48C195.524 234.703 195.71 234.875 195.934 234.994C196.164 235.105 196.41 235.161 196.67 235.161C196.968 235.161 197.247 235.09 197.507 234.949C197.775 234.8 197.958 234.607 198.054 234.369L199.338 234.726C199.196 235.023 198.992 235.288 198.724 235.518C198.464 235.749 198.155 235.931 197.798 236.065C197.44 236.192 197.046 236.255 196.614 236.255ZM195.085 232.75H198.144C198.114 232.452 198.028 232.196 197.887 231.98C197.753 231.757 197.574 231.586 197.351 231.467C197.128 231.34 196.879 231.277 196.603 231.277C196.335 231.277 196.09 231.34 195.867 231.467C195.651 231.586 195.472 231.757 195.331 231.98C195.197 232.196 195.115 232.452 195.085 232.75Z" fill="#1D1D1B"/>
<path d="M200.182 234.413C200.182 234.034 200.286 233.703 200.495 233.42C200.71 233.13 201.008 232.906 201.388 232.75C201.767 232.594 202.202 232.516 202.693 232.516C202.939 232.516 203.188 232.534 203.441 232.572C203.694 232.609 203.914 232.668 204.1 232.75V232.438C204.1 232.066 203.988 231.779 203.765 231.578C203.549 231.377 203.225 231.277 202.794 231.277C202.474 231.277 202.169 231.333 201.879 231.444C201.588 231.556 201.283 231.72 200.963 231.935L200.483 230.953C200.87 230.7 201.265 230.51 201.667 230.384C202.076 230.257 202.504 230.194 202.95 230.194C203.784 230.194 204.431 230.402 204.892 230.819C205.361 231.236 205.596 231.831 205.596 232.605V234.469C205.596 234.625 205.622 234.737 205.674 234.804C205.733 234.871 205.826 234.912 205.953 234.927V236.143C205.819 236.166 205.696 236.184 205.584 236.199C205.48 236.214 205.391 236.221 205.316 236.221C205.019 236.221 204.792 236.154 204.636 236.021C204.487 235.887 204.394 235.723 204.357 235.529L204.323 235.228C204.07 235.555 203.754 235.808 203.374 235.987C202.995 236.166 202.608 236.255 202.213 236.255C201.827 236.255 201.477 236.177 201.164 236.021C200.859 235.857 200.617 235.637 200.439 235.362C200.268 235.079 200.182 234.763 200.182 234.413ZM203.821 234.715C203.903 234.625 203.97 234.536 204.022 234.447C204.074 234.357 204.1 234.276 204.1 234.201V233.61C203.921 233.535 203.728 233.479 203.519 233.442C203.311 233.398 203.114 233.375 202.928 233.375C202.541 233.375 202.221 233.461 201.968 233.632C201.722 233.796 201.6 234.015 201.6 234.29C201.6 234.439 201.641 234.581 201.722 234.715C201.804 234.849 201.923 234.956 202.08 235.038C202.236 235.12 202.422 235.161 202.638 235.161C202.861 235.161 203.08 235.12 203.296 235.038C203.512 234.949 203.687 234.841 203.821 234.715Z" fill="#1D1D1B"/>
<path d="M206.636 233.219C206.636 232.653 206.748 232.144 206.971 231.69C207.194 231.228 207.503 230.864 207.897 230.596C208.292 230.328 208.742 230.194 209.248 230.194C209.679 230.194 210.066 230.302 210.409 230.518C210.758 230.726 211.03 230.994 211.223 231.321V227.995H212.719V234.469C212.719 234.625 212.745 234.737 212.797 234.804C212.849 234.871 212.939 234.912 213.065 234.927V236.143C212.805 236.195 212.593 236.221 212.429 236.221C212.161 236.221 211.938 236.154 211.759 236.021C211.588 235.887 211.491 235.712 211.469 235.496L211.447 235.128C211.231 235.492 210.937 235.771 210.565 235.965C210.2 236.158 209.817 236.255 209.415 236.255C209.013 236.255 208.641 236.177 208.299 236.021C207.964 235.864 207.67 235.648 207.417 235.373C207.172 235.098 206.978 234.778 206.837 234.413C206.703 234.041 206.636 233.643 206.636 233.219ZM211.223 234V232.605C211.149 232.389 211.03 232.196 210.866 232.025C210.703 231.853 210.52 231.72 210.319 231.623C210.118 231.519 209.918 231.467 209.717 231.467C209.486 231.467 209.278 231.515 209.092 231.612C208.906 231.708 208.742 231.839 208.6 232.002C208.467 232.166 208.362 232.356 208.288 232.572C208.221 232.787 208.187 233.014 208.187 233.252C208.187 233.491 208.225 233.717 208.299 233.933C208.381 234.142 208.496 234.324 208.645 234.48C208.794 234.636 208.965 234.759 209.159 234.849C209.359 234.938 209.575 234.982 209.806 234.982C209.947 234.982 210.089 234.96 210.23 234.916C210.379 234.863 210.517 234.796 210.643 234.715C210.777 234.625 210.892 234.521 210.989 234.402C211.093 234.276 211.171 234.142 211.223 234Z" fill="#1D1D1B"/>
<path d="M216.888 236.255C216.412 236.255 215.984 236.177 215.605 236.021C215.225 235.857 214.902 235.634 214.634 235.351C214.373 235.068 214.172 234.744 214.031 234.38C213.89 234.015 213.819 233.632 213.819 233.23C213.819 232.821 213.89 232.434 214.031 232.069C214.172 231.705 214.373 231.381 214.634 231.098C214.902 230.815 215.225 230.596 215.605 230.44C215.984 230.276 216.412 230.194 216.888 230.194C217.365 230.194 217.789 230.276 218.161 230.44C218.54 230.596 218.864 230.815 219.132 231.098C219.4 231.381 219.601 231.705 219.735 232.069C219.876 232.434 219.947 232.821 219.947 233.23C219.947 233.632 219.876 234.015 219.735 234.38C219.601 234.744 219.4 235.068 219.132 235.351C218.871 235.634 218.552 235.857 218.172 236.021C217.793 236.177 217.365 236.255 216.888 236.255ZM215.359 233.23C215.359 233.572 215.426 233.877 215.56 234.145C215.694 234.406 215.876 234.61 216.107 234.759C216.338 234.908 216.598 234.982 216.888 234.982C217.171 234.982 217.428 234.908 217.659 234.759C217.889 234.603 218.072 234.395 218.206 234.134C218.347 233.866 218.418 233.561 218.418 233.219C218.418 232.884 218.347 232.583 218.206 232.315C218.072 232.047 217.889 231.839 217.659 231.69C217.428 231.541 217.171 231.467 216.888 231.467C216.598 231.467 216.338 231.545 216.107 231.701C215.876 231.85 215.694 232.058 215.56 232.326C215.426 232.586 215.359 232.888 215.359 233.23Z" fill="#1D1D1B"/>
<path d="M19.131 223.143V215.218H22.4907C22.8553 215.218 23.1901 215.293 23.4952 215.442C23.8003 215.591 24.0645 215.791 24.2877 216.044C24.5184 216.297 24.697 216.58 24.8235 216.893C24.95 217.205 25.0132 217.525 25.0132 217.853C25.0132 218.299 24.9091 218.723 24.7007 219.125C24.4923 219.527 24.2059 219.854 23.8412 220.107C23.4766 220.36 23.045 220.487 22.5465 220.487H20.6713V223.143H19.131ZM20.6713 219.136H22.4572C22.6432 219.136 22.8106 219.084 22.9595 218.98C23.1083 218.876 23.2273 218.727 23.3166 218.534C23.4059 218.333 23.4506 218.106 23.4506 217.853C23.4506 217.577 23.3985 217.343 23.2943 217.149C23.1976 216.956 23.0674 216.811 22.9037 216.714C22.7474 216.617 22.5762 216.569 22.3902 216.569H20.6713V219.136Z" fill="#1D1D1B"/>
<path d="M25.4621 221.413C25.4621 221.034 25.5662 220.703 25.7746 220.42C25.9904 220.13 26.288 219.906 26.6675 219.75C27.047 219.594 27.4823 219.516 27.9735 219.516C28.219 219.516 28.4683 219.534 28.7213 219.572C28.9743 219.609 29.1938 219.668 29.3798 219.75V219.438C29.3798 219.066 29.2682 218.779 29.045 218.578C28.8292 218.377 28.5055 218.277 28.0739 218.277C27.7539 218.277 27.4489 218.333 27.1586 218.444C26.8684 218.556 26.5634 218.72 26.2434 218.935L25.7634 217.953C26.1504 217.7 26.5447 217.51 26.9466 217.384C27.3558 217.257 27.7837 217.194 28.2302 217.194C29.0636 217.194 29.711 217.402 30.1723 217.819C30.6411 218.236 30.8755 218.831 30.8755 219.605V221.469C30.8755 221.625 30.9016 221.737 30.9536 221.804C31.0132 221.871 31.1062 221.912 31.2327 221.927V223.143C31.0987 223.166 30.976 223.184 30.8644 223.199C30.7602 223.214 30.6709 223.221 30.5965 223.221C30.2988 223.221 30.0719 223.154 29.9156 223.021C29.7668 222.887 29.6738 222.723 29.6366 222.529L29.6031 222.228C29.3501 222.555 29.0338 222.808 28.6543 222.987C28.2748 223.166 27.8879 223.255 27.4935 223.255C27.1066 223.255 26.7568 223.177 26.4443 223.021C26.1392 222.857 25.8974 222.637 25.7188 222.362C25.5476 222.079 25.4621 221.763 25.4621 221.413ZM29.1008 221.715C29.1826 221.625 29.2496 221.536 29.3017 221.447C29.3538 221.357 29.3798 221.276 29.3798 221.201V220.61C29.2012 220.535 29.0078 220.479 28.7994 220.442C28.5911 220.398 28.3939 220.375 28.2079 220.375C27.8209 220.375 27.5009 220.461 27.2479 220.632C27.0024 220.796 26.8796 221.015 26.8796 221.29C26.8796 221.439 26.9205 221.581 27.0024 221.715C27.0842 221.849 27.2033 221.956 27.3596 222.038C27.5158 222.12 27.7019 222.161 27.9176 222.161C28.1409 222.161 28.3604 222.12 28.5762 222.038C28.792 221.949 28.9668 221.841 29.1008 221.715Z" fill="#1D1D1B"/>
<path d="M35.7556 218.589C35.3017 218.589 34.8962 218.679 34.539 218.857C34.1818 219.028 33.9251 219.278 33.7688 219.605V223.143H32.2732V217.295H33.6461V218.545C33.8544 218.143 34.1186 217.827 34.4386 217.596C34.7585 217.365 35.0971 217.239 35.4543 217.216C35.5361 217.216 35.5994 217.216 35.644 217.216C35.6887 217.216 35.7259 217.22 35.7556 217.228V218.589Z" fill="#1D1D1B"/>
<path d="M39.2368 223.255C38.7606 223.255 38.3327 223.177 37.9532 223.021C37.5737 222.857 37.25 222.634 36.9821 222.351C36.7142 222.061 36.5059 221.733 36.3571 221.369C36.2157 221.004 36.145 220.621 36.145 220.219C36.145 219.668 36.2678 219.166 36.5133 218.712C36.7663 218.251 37.1235 217.882 37.5849 217.607C38.0462 217.332 38.5931 217.194 39.2256 217.194C39.8581 217.194 40.4014 217.332 40.8553 217.607C41.3092 217.882 41.6477 218.243 41.871 218.69L40.4088 219.136C40.2823 218.92 40.1149 218.757 39.9065 218.645C39.6982 218.526 39.4675 218.467 39.2145 218.467C38.9317 218.467 38.6713 218.541 38.4332 218.69C38.2025 218.831 38.0202 219.036 37.8862 219.304C37.7523 219.564 37.6853 219.869 37.6853 220.219C37.6853 220.561 37.7523 220.866 37.8862 221.134C38.0276 221.395 38.2136 221.603 38.4443 221.759C38.675 221.908 38.9317 221.983 39.2145 221.983C39.3931 221.983 39.5605 221.953 39.7168 221.893C39.8805 221.834 40.0256 221.752 40.1521 221.648C40.2786 221.543 40.3716 221.424 40.4311 221.29L41.8933 221.737C41.7594 222.027 41.5622 222.288 41.3017 222.518C41.0487 222.749 40.7474 222.931 40.3976 223.065C40.0553 223.192 39.6684 223.255 39.2368 223.255Z" fill="#1D1D1B"/>
<path d="M42.8136 223.143V217.295H44.3093V223.143H42.8136ZM42.8136 216.48V214.995H44.3093V216.48H42.8136Z" fill="#1D1D1B"/>
<path d="M45.2567 221.413C45.2567 221.034 45.3609 220.703 45.5693 220.42C45.7851 220.13 46.0827 219.906 46.4622 219.75C46.8417 219.594 47.277 219.516 47.7681 219.516C48.0137 219.516 48.263 219.534 48.516 219.572C48.769 219.609 48.9885 219.668 49.1745 219.75V219.438C49.1745 219.066 49.0629 218.779 48.8397 218.578C48.6239 218.377 48.3002 218.277 47.8686 218.277C47.5486 218.277 47.2435 218.333 46.9533 218.444C46.6631 218.556 46.358 218.72 46.0381 218.935L45.5581 217.953C45.9451 217.7 46.3394 217.51 46.7413 217.384C47.1505 217.257 47.5784 217.194 48.0249 217.194C48.8583 217.194 49.5057 217.402 49.967 217.819C50.4358 218.236 50.6702 218.831 50.6702 219.605V221.469C50.6702 221.625 50.6962 221.737 50.7483 221.804C50.8079 221.871 50.9009 221.912 51.0274 221.927V223.143C50.8934 223.166 50.7707 223.184 50.659 223.199C50.5549 223.214 50.4656 223.221 50.3912 223.221C50.0935 223.221 49.8666 223.154 49.7103 223.021C49.5615 222.887 49.4685 222.723 49.4312 222.529L49.3978 222.228C49.1448 222.555 48.8285 222.808 48.449 222.987C48.0695 223.166 47.6826 223.255 47.2882 223.255C46.9012 223.255 46.5515 223.177 46.239 223.021C45.9339 222.857 45.6921 222.637 45.5135 222.362C45.3423 222.079 45.2567 221.763 45.2567 221.413ZM48.8955 221.715C48.9773 221.625 49.0443 221.536 49.0964 221.447C49.1485 221.357 49.1745 221.276 49.1745 221.201V220.61C48.9959 220.535 48.8025 220.479 48.5941 220.442C48.3858 220.398 48.1886 220.375 48.0025 220.375C47.6156 220.375 47.2956 220.461 47.0426 220.632C46.7971 220.796 46.6743 221.015 46.6743 221.29C46.6743 221.439 46.7152 221.581 46.7971 221.715C46.8789 221.849 46.998 221.956 47.1542 222.038C47.3105 222.12 47.4965 222.161 47.7123 222.161C47.9356 222.161 48.1551 222.12 48.3709 222.038C48.5867 221.949 48.7615 221.841 48.8955 221.715Z" fill="#1D1D1B"/>
<path d="M52.0567 214.995H53.5524V221.268C53.5524 221.536 53.597 221.718 53.6863 221.815C53.7756 221.904 53.8984 221.949 54.0547 221.949C54.1737 221.949 54.2965 221.934 54.423 221.904C54.5495 221.875 54.6611 221.837 54.7579 221.793L54.9588 222.931C54.7579 223.028 54.5235 223.102 54.2556 223.154C53.9877 223.207 53.7459 223.233 53.5301 223.233C53.0613 223.233 52.6966 223.11 52.4362 222.864C52.1832 222.611 52.0567 222.254 52.0567 221.793V214.995Z" fill="#1D1D1B"/>
<path d="M64.6961 223.143H63.2004V219.862C63.2004 219.4 63.1186 219.062 62.9549 218.846C62.7986 218.623 62.5791 218.511 62.2963 218.511C62.0061 218.511 61.7271 218.627 61.4592 218.857C61.1987 219.08 61.0127 219.374 60.9011 219.739V223.143H59.4054V219.862C59.4054 219.393 59.3236 219.051 59.1599 218.835C59.0036 218.619 58.7841 218.511 58.5013 218.511C58.2111 218.511 57.9321 218.623 57.6642 218.846C57.4037 219.069 57.2177 219.363 57.1061 219.728V223.143H55.6104V217.295H56.961V218.377C57.1842 217.998 57.4819 217.708 57.8539 217.507C58.226 217.298 58.6539 217.194 59.1375 217.194C59.6212 217.194 59.997 217.313 60.2649 217.551C60.5402 217.789 60.7151 218.083 60.7895 218.433C61.0276 218.031 61.329 217.726 61.6936 217.518C62.0656 217.302 62.4823 217.194 62.9437 217.194C63.3083 217.194 63.6022 217.261 63.8255 217.395C64.0562 217.522 64.2347 217.696 64.3612 217.92C64.4877 218.135 64.5733 218.381 64.618 218.656C64.6701 218.932 64.6961 219.211 64.6961 219.493V223.143Z" fill="#1D1D1B"/>
<path d="M68.7106 223.255C68.2418 223.255 67.8176 223.177 67.4381 223.021C67.0586 222.857 66.7349 222.637 66.4671 222.362C66.1992 222.079 65.9908 221.759 65.842 221.402C65.7006 221.037 65.6299 220.654 65.6299 220.252C65.6299 219.694 65.7527 219.185 65.9983 218.723C66.2513 218.262 66.6084 217.894 67.0698 217.618C67.5386 217.335 68.0892 217.194 68.7217 217.194C69.3617 217.194 69.9086 217.335 70.3625 217.618C70.8164 217.894 71.1624 218.262 71.4006 218.723C71.6461 219.177 71.7689 219.668 71.7689 220.197C71.7689 220.286 71.7652 220.379 71.7577 220.476C71.7503 220.565 71.7429 220.639 71.7354 220.699H67.2149C67.2447 220.997 67.3302 221.257 67.4716 221.48C67.6204 221.703 67.8065 221.875 68.0297 221.994C68.2604 222.105 68.5059 222.161 68.7664 222.161C69.064 222.161 69.3431 222.09 69.6035 221.949C69.8714 221.8 70.0537 221.607 70.1504 221.369L71.434 221.726C71.2927 222.023 71.088 222.288 70.8202 222.518C70.5597 222.749 70.2509 222.931 69.8937 223.065C69.5365 223.192 69.1422 223.255 68.7106 223.255ZM67.1814 219.75H70.2397C70.21 219.453 70.1244 219.196 69.983 218.98C69.8491 218.757 69.6705 218.586 69.4473 218.467C69.224 218.34 68.9747 218.277 68.6994 218.277C68.4315 218.277 68.186 218.34 67.9627 218.467C67.7469 218.586 67.5684 218.757 67.427 218.98C67.293 219.196 67.2112 219.453 67.1814 219.75Z" fill="#1D1D1B"/>
<path d="M78.1158 223.143H76.6202V219.862C76.6202 219.393 76.5383 219.051 76.3746 218.835C76.2109 218.619 75.984 218.511 75.6937 218.511C75.4928 218.511 75.2882 218.563 75.0798 218.667C74.8789 218.772 74.6966 218.917 74.5329 219.103C74.3692 219.281 74.2502 219.49 74.1757 219.728V223.143H72.6801V217.295H74.0306V218.377C74.1795 218.124 74.3692 217.912 74.5999 217.741C74.8306 217.562 75.0947 217.429 75.3924 217.339C75.6975 217.242 76.0174 217.194 76.3523 217.194C76.7169 217.194 77.0146 217.261 77.2452 217.395C77.4833 217.522 77.6619 217.696 77.781 217.92C77.9075 218.135 77.9931 218.381 78.0377 218.656C78.0898 218.932 78.1158 219.211 78.1158 219.493V223.143Z" fill="#1D1D1B"/>
<path d="M82.8885 222.842C82.762 222.894 82.6094 222.954 82.4308 223.021C82.2522 223.088 82.0588 223.14 81.8504 223.177C81.6495 223.221 81.4449 223.244 81.2365 223.244C80.9612 223.244 80.7082 223.195 80.4775 223.099C80.2468 223.002 80.0608 222.849 79.9194 222.641C79.7855 222.425 79.7185 222.146 79.7185 221.804V218.444H78.9484V217.295H79.7185V215.397H81.2142V217.295H82.442V218.444H81.2142V221.302C81.2216 221.503 81.2774 221.648 81.3816 221.737C81.4858 221.826 81.616 221.871 81.7723 221.871C81.9286 221.871 82.0811 221.845 82.2299 221.793C82.3787 221.741 82.4978 221.696 82.5871 221.659L82.8885 222.842Z" fill="#1D1D1B"/>
<path d="M86.3034 223.255C85.8346 223.255 85.4105 223.177 85.031 223.021C84.6515 222.857 84.3278 222.637 84.0599 222.362C83.792 222.079 83.5837 221.759 83.4349 221.402C83.2935 221.037 83.2228 220.654 83.2228 220.252C83.2228 219.694 83.3456 219.185 83.5911 218.723C83.8441 218.262 84.2013 217.894 84.6627 217.618C85.1314 217.335 85.6821 217.194 86.3146 217.194C86.9545 217.194 87.5015 217.335 87.9554 217.618C88.4093 217.894 88.7553 218.262 88.9934 218.723C89.239 219.177 89.3618 219.668 89.3618 220.197C89.3618 220.286 89.358 220.379 89.3506 220.476C89.3432 220.565 89.3357 220.639 89.3283 220.699H84.8078C84.8375 220.997 84.9231 221.257 85.0645 221.48C85.2133 221.703 85.3993 221.875 85.6226 221.994C85.8532 222.105 86.0988 222.161 86.3592 222.161C86.6569 222.161 86.9359 222.09 87.1964 221.949C87.4643 221.8 87.6466 221.607 87.7433 221.369L89.0269 221.726C88.8855 222.023 88.6809 222.288 88.413 222.518C88.1526 222.749 87.8438 222.931 87.4866 223.065C87.1294 223.192 86.735 223.255 86.3034 223.255ZM84.7743 219.75H87.8326C87.8028 219.453 87.7173 219.196 87.5759 218.98C87.4419 218.757 87.2633 218.586 87.0401 218.467C86.8169 218.34 86.5676 218.277 86.2923 218.277C86.0244 218.277 85.7788 218.34 85.5556 218.467C85.3398 218.586 85.1612 218.757 85.0198 218.98C84.8859 219.196 84.804 219.453 84.7743 219.75Z" fill="#1D1D1B"/>
<path d="M30.9339 234.413C30.9339 234.034 31.0381 233.703 31.2465 233.42C31.4623 233.13 31.7599 232.906 32.1394 232.75C32.5189 232.594 32.9542 232.516 33.4453 232.516C33.6909 232.516 33.9402 232.534 34.1932 232.572C34.4462 232.609 34.6657 232.668 34.8517 232.75V232.438C34.8517 232.066 34.7401 231.779 34.5169 231.578C34.3011 231.377 33.9774 231.277 33.5458 231.277C33.2258 231.277 32.9207 231.333 32.6305 231.444C32.3403 231.556 32.0352 231.72 31.7153 231.935L31.2353 230.953C31.6222 230.7 32.0166 230.51 32.4185 230.384C32.8277 230.257 33.2556 230.194 33.7021 230.194C34.5355 230.194 35.1829 230.402 35.6442 230.819C36.113 231.236 36.3474 231.831 36.3474 232.605V234.469C36.3474 234.625 36.3734 234.737 36.4255 234.804C36.4851 234.871 36.5781 234.912 36.7046 234.927V236.143C36.5706 236.166 36.4478 236.184 36.3362 236.199C36.2321 236.214 36.1428 236.221 36.0683 236.221C35.7707 236.221 35.5437 236.154 35.3875 236.021C35.2387 235.887 35.1456 235.723 35.1084 235.529L35.075 235.228C34.822 235.555 34.5057 235.808 34.1262 235.987C33.7467 236.166 33.3598 236.255 32.9654 236.255C32.5784 236.255 32.2287 236.177 31.9162 236.021C31.6111 235.857 31.3692 235.637 31.1907 235.362C31.0195 235.079 30.9339 234.763 30.9339 234.413ZM34.5727 234.715C34.6545 234.625 34.7215 234.536 34.7736 234.447C34.8257 234.357 34.8517 234.276 34.8517 234.201V233.61C34.6731 233.535 34.4797 233.479 34.2713 233.442C34.063 233.398 33.8658 233.375 33.6797 233.375C33.2928 233.375 32.9728 233.461 32.7198 233.632C32.4743 233.796 32.3515 234.015 32.3515 234.29C32.3515 234.439 32.3924 234.581 32.4743 234.715C32.5561 234.849 32.6752 234.956 32.8314 235.038C32.9877 235.12 33.1737 235.161 33.3895 235.161C33.6128 235.161 33.8323 235.12 34.0481 235.038C34.2639 234.949 34.4387 234.841 34.5727 234.715Z" fill="#1D1D1B"/>
<path d="M37.7339 227.995H39.2296V234.268C39.2296 234.536 39.2742 234.718 39.3635 234.815C39.4528 234.904 39.5756 234.949 39.7318 234.949C39.8509 234.949 39.9737 234.934 40.1002 234.904C40.2267 234.875 40.3383 234.837 40.435 234.793L40.636 235.931C40.435 236.028 40.2006 236.102 39.9328 236.154C39.6649 236.207 39.423 236.233 39.2072 236.233C38.7385 236.233 38.3738 236.11 38.1134 235.864C37.8604 235.611 37.7339 235.254 37.7339 234.793V227.995Z" fill="#1D1D1B"/>
<path d="M41.2876 236.143V230.295H42.7833V236.143H41.2876ZM41.2876 229.48V227.995H42.7833V229.48H41.2876Z" fill="#1D1D1B"/>
<path d="M49.5683 236.143H48.0727V232.862C48.0727 232.393 47.9908 232.051 47.8271 231.835C47.6634 231.619 47.4364 231.511 47.1462 231.511C46.9453 231.511 46.7407 231.563 46.5323 231.667C46.3314 231.772 46.1491 231.917 45.9854 232.103C45.8217 232.281 45.7026 232.49 45.6282 232.728V236.143H44.1325V230.295H45.4831V231.377C45.6319 231.124 45.8217 230.912 46.0524 230.741C46.283 230.562 46.5472 230.429 46.8449 230.339C47.1499 230.242 47.4699 230.194 47.8048 230.194C48.1694 230.194 48.467 230.261 48.6977 230.395C48.9358 230.522 49.1144 230.696 49.2335 230.92C49.36 231.135 49.4455 231.381 49.4902 231.656C49.5423 231.932 49.5683 232.211 49.5683 232.493V236.143Z" fill="#1D1D1B"/>
<path d="M53.5812 236.255C53.1124 236.255 52.6882 236.177 52.3087 236.021C51.9292 235.857 51.6055 235.637 51.3376 235.362C51.0698 235.079 50.8614 234.759 50.7126 234.402C50.5712 234.037 50.5005 233.654 50.5005 233.252C50.5005 232.694 50.6233 232.185 50.8688 231.723C51.1218 231.262 51.479 230.894 51.9404 230.618C52.4092 230.335 52.9598 230.194 53.5923 230.194C54.2323 230.194 54.7792 230.335 55.2331 230.618C55.687 230.894 56.033 231.262 56.2711 231.723C56.5167 232.177 56.6395 232.668 56.6395 233.197C56.6395 233.286 56.6358 233.379 56.6283 233.476C56.6209 233.565 56.6134 233.639 56.606 233.699H52.0855C52.1152 233.997 52.2008 234.257 52.3422 234.48C52.491 234.703 52.6771 234.875 52.9003 234.994C53.131 235.105 53.3765 235.161 53.637 235.161C53.9346 235.161 54.2137 235.09 54.4741 234.949C54.742 234.8 54.9243 234.607 55.021 234.369L56.3046 234.726C56.1632 235.023 55.9586 235.288 55.6907 235.518C55.4303 235.749 55.1215 235.931 54.7643 236.065C54.4071 236.192 54.0127 236.255 53.5812 236.255ZM52.052 232.75H55.1103C55.0806 232.453 54.995 232.196 54.8536 231.98C54.7197 231.757 54.5411 231.586 54.3178 231.467C54.0946 231.34 53.8453 231.277 53.57 231.277C53.3021 231.277 53.0566 231.34 52.8333 231.467C52.6175 231.586 52.4389 231.757 52.2976 231.98C52.1636 232.196 52.0818 232.453 52.052 232.75Z" fill="#1D1D1B"/>
<path d="M57.1488 234.413C57.1488 234.034 57.253 233.703 57.4614 233.42C57.6771 233.13 57.9748 232.906 58.3543 232.75C58.7338 232.594 59.1691 232.516 59.6602 232.516C59.9058 232.516 60.1551 232.534 60.4081 232.572C60.6611 232.609 60.8806 232.668 61.0666 232.75V232.438C61.0666 232.066 60.955 231.779 60.7318 231.578C60.516 231.377 60.1923 231.277 59.7607 231.277C59.4407 231.277 59.1356 231.333 58.8454 231.444C58.5552 231.556 58.2501 231.72 57.9301 231.935L57.4502 230.953C57.8371 230.7 58.2315 230.51 58.6333 230.384C59.0426 230.257 59.4705 230.194 59.9169 230.194C60.7504 230.194 61.3977 230.402 61.8591 230.819C62.3279 231.236 62.5623 231.831 62.5623 232.605V234.469C62.5623 234.625 62.5883 234.737 62.6404 234.804C62.6999 234.871 62.793 234.912 62.9195 234.927V236.143C62.7855 236.166 62.6627 236.184 62.5511 236.199C62.4469 236.214 62.3576 236.221 62.2832 236.221C61.9856 236.221 61.7586 236.154 61.6024 236.021C61.4535 235.887 61.3605 235.723 61.3233 235.529L61.2898 235.228C61.0368 235.555 60.7206 235.808 60.3411 235.987C59.9616 236.166 59.5746 236.255 59.1803 236.255C58.7933 236.255 58.4436 236.177 58.1311 236.021C57.826 235.857 57.5841 235.637 57.4055 235.362C57.2344 235.079 57.1488 234.763 57.1488 234.413ZM60.7876 234.715C60.8694 234.625 60.9364 234.536 60.9885 234.447C61.0406 234.357 61.0666 234.276 61.0666 234.201V233.61C60.888 233.535 60.6945 233.479 60.4862 233.442C60.2778 233.398 60.0806 233.375 59.8946 233.375C59.5077 233.375 59.1877 233.461 58.9347 233.632C58.6891 233.796 58.5664 234.015 58.5664 234.29C58.5664 234.439 58.6073 234.581 58.6891 234.715C58.771 234.849 58.8901 234.956 59.0463 235.038C59.2026 235.12 59.3886 235.161 59.6044 235.161C59.8276 235.161 60.0472 235.12 60.263 235.038C60.4788 234.949 60.6536 234.841 60.7876 234.715Z" fill="#1D1D1B"/>
<path d="M63.6028 233.219C63.6028 232.653 63.7144 232.144 63.9376 231.69C64.1609 231.228 64.4697 230.864 64.864 230.596C65.2584 230.328 65.7086 230.194 66.2146 230.194C66.6462 230.194 67.0331 230.302 67.3754 230.518C67.7252 230.726 67.9968 230.994 68.1903 231.321V227.995H69.6859V234.469C69.6859 234.625 69.712 234.737 69.7641 234.804C69.8161 234.871 69.9054 234.912 70.0319 234.927V236.143C69.7715 236.195 69.5594 236.221 69.3957 236.221C69.1278 236.221 68.9046 236.154 68.726 236.021C68.5549 235.887 68.4581 235.712 68.4358 235.496L68.4135 235.128C68.1977 235.492 67.9038 235.771 67.5317 235.965C67.1671 236.158 66.7839 236.255 66.382 236.255C65.9802 236.255 65.6082 236.177 65.2659 236.021C64.931 235.864 64.6371 235.648 64.3841 235.373C64.1385 235.098 63.9451 234.778 63.8037 234.413C63.6697 234.041 63.6028 233.643 63.6028 233.219ZM68.1903 234V232.605C68.1158 232.389 67.9968 232.196 67.8331 232.025C67.6694 231.853 67.4871 231.72 67.2861 231.623C67.0852 231.519 66.8843 231.467 66.6834 231.467C66.4527 231.467 66.2444 231.515 66.0584 231.612C65.8723 231.708 65.7086 231.839 65.5672 232.002C65.4333 232.166 65.3291 232.356 65.2547 232.572C65.1877 232.787 65.1543 233.014 65.1543 233.252C65.1543 233.491 65.1915 233.718 65.2659 233.933C65.3477 234.142 65.4631 234.324 65.6119 234.48C65.7607 234.636 65.9319 234.759 66.1253 234.849C66.3262 234.938 66.542 234.983 66.7727 234.983C66.9141 234.983 67.0555 234.96 67.1969 234.916C67.3457 234.863 67.4833 234.796 67.6098 234.715C67.7438 234.625 67.8591 234.521 67.9559 234.402C68.06 234.276 68.1382 234.142 68.1903 234Z" fill="#1D1D1B"/>
<path d="M73.8552 236.255C73.379 236.255 72.9511 236.177 72.5716 236.021C72.1921 235.857 71.8684 235.634 71.6005 235.351C71.3401 235.068 71.1392 234.744 70.9978 234.38C70.8564 234.015 70.7857 233.632 70.7857 233.23C70.7857 232.821 70.8564 232.434 70.9978 232.069C71.1392 231.705 71.3401 231.381 71.6005 231.098C71.8684 230.815 72.1921 230.596 72.5716 230.44C72.9511 230.276 73.379 230.194 73.8552 230.194C74.3314 230.194 74.7556 230.276 75.1276 230.44C75.5071 230.596 75.8308 230.815 76.0987 231.098C76.3666 231.381 76.5675 231.705 76.7014 232.069C76.8428 232.434 76.9135 232.821 76.9135 233.23C76.9135 233.632 76.8428 234.015 76.7014 234.38C76.5675 234.744 76.3666 235.068 76.0987 235.351C75.8383 235.634 75.5183 235.857 75.1388 236.021C74.7593 236.177 74.3314 236.255 73.8552 236.255ZM72.326 233.23C72.326 233.572 72.393 233.877 72.5269 234.145C72.6609 234.406 72.8432 234.61 73.0739 234.759C73.3046 234.908 73.565 234.983 73.8552 234.983C74.138 234.983 74.3947 234.908 74.6254 234.759C74.856 234.603 75.0383 234.395 75.1723 234.134C75.3137 233.866 75.3844 233.561 75.3844 233.219C75.3844 232.884 75.3137 232.583 75.1723 232.315C75.0383 232.047 74.856 231.839 74.6254 231.69C74.3947 231.541 74.138 231.467 73.8552 231.467C73.565 231.467 73.3046 231.545 73.0739 231.701C72.8432 231.85 72.6609 232.058 72.5269 232.326C72.393 232.586 72.326 232.888 72.326 233.23Z" fill="#1D1D1B"/>
</svg>
