<svg width="37" height="35" viewBox="0 0 37 35" fill="none" xmlns="http://www.w3.org/2000/svg">
<path d="M18.3381 14.5942L15.86 15.8135C15.1566 14.4319 13.9772 14.4072 13.8116 14.4072C12.1608 14.4072 11.3335 15.4381 11.3335 17.5007C11.3335 19.1639 12.0205 20.5943 13.8116 20.5943C14.891 20.5943 15.6504 20.094 16.092 19.0941L18.3709 20.1878C17.9107 21 16.4546 22.9384 13.5147 22.9384C11.8288 22.9384 7.99752 22.2102 7.99752 17.5014C7.99752 13.36 11.2052 12.0637 13.4155 12.0637C15.7071 12.063 17.3467 12.907 18.3381 14.5942V14.5942ZM29.0092 14.5942L26.5639 15.8135C25.8552 14.4184 24.6453 14.4072 24.4827 14.4072C22.8311 14.4072 22.0046 15.4381 22.0046 17.5007C22.0046 19.1625 22.6931 20.5943 24.4827 20.5943C25.5606 20.5943 26.3215 20.094 26.7608 19.0941L29.0733 20.1878C28.9167 20.4524 27.4777 22.9384 24.2178 22.9384C22.5252 22.9384 18.7007 22.2419 18.7007 17.5014C18.7007 13.3614 21.9061 12.0637 24.1186 12.0637C26.4095 12.063 28.0409 12.907 29.0092 14.5942V14.5942ZM18.4672 0C7.81327 0 0 8.11915 0 17.5C0 27.2725 8.47419 35 18.4672 35C28.1595 35 37 27.8822 37 17.5C37 7.77127 29.0465 0 18.4672 0V0ZM18.5321 31.8112C10.137 31.8112 3.33671 25.2459 3.33671 17.5C3.33671 10.0611 9.70952 3.15635 18.5336 3.15635C26.9279 3.15635 33.6633 9.46905 33.6633 17.4993C33.6625 26.0863 26.2275 31.8112 18.5321 31.8112V31.8112Z" fill="black"/>
</svg>
