<svg width="35" height="34" viewBox="0 0 35 34" fill="none" xmlns="http://www.w3.org/2000/svg">
<path d="M11.7067 27.3767C11.7067 27.5174 11.5444 27.6298 11.3397 27.6298C11.1069 27.6509 10.9446 27.5384 10.9446 27.3767C10.9446 27.2361 11.1069 27.1236 11.3115 27.1236C11.5232 27.1026 11.7067 27.215 11.7067 27.3767ZM9.5121 27.0604C9.4627 27.201 9.60383 27.3627 9.81552 27.4049C9.99899 27.4752 10.2107 27.4049 10.253 27.2643C10.2954 27.1236 10.1613 26.9619 9.9496 26.8987C9.76613 26.8495 9.56149 26.9198 9.5121 27.0604ZM12.631 26.9409C12.4264 26.9901 12.2853 27.1237 12.3065 27.2854C12.3276 27.426 12.5111 27.5174 12.7228 27.4681C12.9274 27.4189 13.0685 27.2854 13.0474 27.1447C13.0262 27.0112 12.8357 26.9198 12.631 26.9409ZM17.2742 0C7.4869 0 0 7.40311 0 17.1544C0 24.9512 4.9254 31.6232 11.9607 33.9714C12.8639 34.1331 13.1815 33.5776 13.1815 33.1207C13.1815 32.6848 13.1603 30.2803 13.1603 28.8039C13.1603 28.8039 8.22077 29.8585 7.18347 26.7089C7.18347 26.7089 6.37903 24.663 5.22177 24.1357C5.22177 24.1357 3.60585 23.0319 5.33468 23.053C5.33468 23.053 7.09173 23.1936 8.05847 24.8669C9.60383 27.5806 12.1935 26.8002 13.2026 26.3362C13.3649 25.2114 13.8236 24.431 14.3317 23.967C10.3871 23.5311 6.40726 22.9616 6.40726 16.1983C6.40726 14.2649 6.94355 13.2947 8.07258 12.0573C7.88911 11.6003 7.28931 9.71614 8.25605 7.28359C9.73085 6.82661 13.125 9.18183 13.125 9.18183C14.5363 8.78812 16.0534 8.58424 17.5565 8.58424C19.0595 8.58424 20.5766 8.78812 21.9879 9.18183C21.9879 9.18183 25.3821 6.81958 26.8569 7.28359C27.8236 9.72317 27.2238 11.6003 27.0403 12.0573C28.1694 13.3017 28.8609 14.2719 28.8609 16.1983C28.8609 22.9827 24.7046 23.524 20.7601 23.967C21.4093 24.5224 21.9597 25.5769 21.9597 27.2291C21.9597 29.5984 21.9385 32.5301 21.9385 33.1066C21.9385 33.5636 22.2631 34.119 23.1593 33.9573C30.2157 31.6232 35 24.9512 35 17.1544C35 7.40311 27.0615 0 17.2742 0ZM6.85887 24.2482C6.76714 24.3185 6.78831 24.4802 6.90827 24.6138C7.02117 24.7263 7.18347 24.7755 7.2752 24.6841C7.36694 24.6138 7.34577 24.4521 7.22581 24.3185C7.1129 24.206 6.9506 24.1568 6.85887 24.2482ZM6.09677 23.6787C6.04738 23.7701 6.11794 23.8826 6.25907 23.9529C6.37198 24.0232 6.5131 24.0021 6.5625 23.9037C6.6119 23.8123 6.54133 23.6998 6.4002 23.6295C6.25907 23.5873 6.14617 23.6084 6.09677 23.6787ZM8.38306 26.1816C8.27016 26.273 8.3125 26.4839 8.4748 26.6175C8.6371 26.7792 8.84173 26.8002 8.93347 26.6878C9.0252 26.5964 8.98286 26.3854 8.84173 26.2519C8.68649 26.0902 8.4748 26.0691 8.38306 26.1816ZM7.57863 25.1481C7.46573 25.2184 7.46573 25.4012 7.57863 25.5629C7.69153 25.7246 7.88206 25.7949 7.97379 25.7246C8.08669 25.6332 8.08669 25.4504 7.97379 25.2887C7.875 25.127 7.69153 25.0567 7.57863 25.1481Z" fill="black"/>
</svg>
