<svg width="21" height="21" viewBox="0 0 21 21" fill="none" xmlns="http://www.w3.org/2000/svg">
<path d="M15.9271 3.83357C15.6821 3.83357 15.4425 3.90624 15.2387 4.0424C15.0349 4.17856 14.8761 4.37208 14.7823 4.5985C14.6885 4.82493 14.664 5.07407 14.7118 5.31444C14.7596 5.55481 14.8776 5.7756 15.0509 5.9489C15.2242 6.12219 15.445 6.24021 15.6854 6.28802C15.9258 6.33583 16.1749 6.31129 16.4013 6.21751C16.6277 6.12372 16.8213 5.9649 16.9574 5.76112C17.0936 5.55735 17.1663 5.31778 17.1663 5.0727C17.1663 4.74406 17.0357 4.42888 16.8033 4.1965C16.5709 3.96412 16.2558 3.83357 15.9271 3.83357V3.83357ZM20.6771 6.33248C20.6571 5.47572 20.4966 4.62806 20.2021 3.82324C19.9396 3.13463 19.5309 2.51108 19.0043 1.99552C18.493 1.46624 17.868 1.06016 17.1766 0.808025C16.3739 0.504604 15.5253 0.34047 14.6674 0.322699C13.5728 0.260742 13.2217 0.260742 10.413 0.260742C7.60431 0.260742 7.25322 0.260742 6.15865 0.322699C5.30071 0.34047 4.45211 0.504604 3.64941 0.808025C2.9593 1.06272 2.33484 1.46844 1.8217 1.99552C1.29241 2.50685 0.886335 3.13185 0.634197 3.82324C0.330776 4.62593 0.166642 5.47454 0.148871 6.33248C0.086914 7.42705 0.0869141 7.77813 0.0869141 10.5868C0.0869141 13.3955 0.086914 13.7466 0.148871 14.8412C0.166642 15.6991 0.330776 16.5477 0.634197 17.3504C0.886335 18.0418 1.29241 18.6668 1.8217 19.1781C2.33484 19.7052 2.9593 20.1109 3.64941 20.3656C4.45211 20.6691 5.30071 20.8332 6.15865 20.851C7.25322 20.9129 7.60431 20.9129 10.413 20.9129C13.2217 20.9129 13.5728 20.9129 14.6674 20.851C15.5253 20.8332 16.3739 20.6691 17.1766 20.3656C17.868 20.1135 18.493 19.7074 19.0043 19.1781C19.5333 18.6645 19.9423 18.0404 20.2021 17.3504C20.4966 16.5456 20.6571 15.6979 20.6771 14.8412C20.6771 13.7466 20.7391 13.3955 20.7391 10.5868C20.7391 7.77813 20.7391 7.42705 20.6771 6.33248V6.33248ZM18.8184 14.7173C18.8109 15.3727 18.6922 16.0222 18.4673 16.6379C18.3025 17.0873 18.0377 17.4934 17.6929 17.8254C17.358 18.1667 16.9527 18.431 16.5054 18.5999C15.8897 18.8247 15.2402 18.9434 14.5847 18.951C13.5521 19.0026 13.1701 19.0129 10.4543 19.0129C7.73854 19.0129 7.35648 19.0129 6.32387 18.951C5.64327 18.9637 4.96557 18.8589 4.32061 18.6412C3.89288 18.4636 3.50625 18.2 3.18474 17.8667C2.84201 17.535 2.5805 17.1286 2.42061 16.6792C2.16851 16.0546 2.02868 15.3905 2.00757 14.7173C2.00757 13.6847 1.94561 13.3026 1.94561 10.5868C1.94561 7.87107 1.94561 7.489 2.00757 6.45639C2.01219 5.78629 2.13453 5.12221 2.36898 4.49444C2.55077 4.05859 2.8298 3.67006 3.18474 3.35857C3.49846 3.00352 3.88618 2.72155 4.32061 2.53248C4.95004 2.30535 5.61343 2.18664 6.28257 2.18139C7.31518 2.18139 7.69724 2.11944 10.413 2.11944C13.1288 2.11944 13.5108 2.11944 14.5434 2.18139C15.1989 2.18891 15.8483 2.30763 16.4641 2.53248C16.9333 2.70663 17.3545 2.98977 17.6929 3.35857C18.0313 3.67576 18.2957 4.06356 18.4673 4.49444C18.6968 5.12323 18.8156 5.78704 18.8184 6.45639C18.8701 7.489 18.8804 7.87107 18.8804 10.5868C18.8804 13.3026 18.8701 13.6847 18.8184 14.7173ZM10.413 5.28955C9.36574 5.29159 8.34258 5.604 7.47281 6.18732C6.60303 6.77063 5.92567 7.59866 5.52632 8.56679C5.12696 9.53492 5.02353 10.5997 5.22909 11.6266C5.43465 12.6535 5.93998 13.5964 6.68123 14.3362C7.42248 15.076 8.36638 15.5795 9.39367 15.7831C10.421 15.9866 11.4855 15.8811 12.4529 15.4799C13.4202 15.0786 14.247 14.3997 14.8286 13.5288C15.4102 12.6579 15.7206 11.6341 15.7206 10.5868C15.722 9.88993 15.5855 9.19963 15.3192 8.55564C15.0528 7.91166 14.6617 7.32669 14.1685 6.83438C13.6752 6.34208 13.0895 5.95215 12.445 5.68703C11.8005 5.42191 11.1099 5.28682 10.413 5.28955V5.28955ZM10.413 14.0254C9.73291 14.0254 9.0681 13.8237 8.50262 13.4459C7.93715 13.0681 7.49642 12.531 7.23616 11.9027C6.9759 11.2744 6.90781 10.583 7.04049 9.91599C7.17316 9.24897 7.50066 8.63628 7.98155 8.15538C8.46245 7.67449 9.07515 7.34699 9.74217 7.21431C10.4092 7.08164 11.1006 7.14973 11.7289 7.40999C12.3572 7.67025 12.8942 8.11098 13.2721 8.67645C13.6499 9.24193 13.8516 9.90674 13.8516 10.5868C13.8516 11.0384 13.7626 11.4855 13.5898 11.9027C13.417 12.3199 13.1638 12.699 12.8444 13.0183C12.5251 13.3376 12.1461 13.5909 11.7289 13.7637C11.3117 13.9365 10.8646 14.0254 10.413 14.0254V14.0254Z" fill="white"/>
</svg>
