<svg width="123" height="36" viewBox="0 0 123 36" fill="none" xmlns="http://www.w3.org/2000/svg">
<g clip-path="url(#clip0_139_1174)">
<path d="M15.5032 2.89041C15.6398 3.0063 15.7962 3.09779 15.9655 3.16066C16.1583 3.22687 16.3621 3.25742 16.5664 3.25075C16.9635 3.27457 17.3543 3.14512 17.6542 2.89041C17.9064 2.63655 18.0474 2.2971 18.0474 1.94382C18.0474 1.59053 17.9064 1.25109 17.6542 0.997225C17.4 0.749492 17.0302 0.636885 16.5664 0.636885C16.3621 0.63021 16.1583 0.660762 15.9655 0.72697C15.7962 0.789842 15.6398 0.88133 15.5032 0.997225C15.3659 1.10915 15.2621 1.25501 15.2027 1.41949C15.1267 1.59008 15.0874 1.77403 15.0872 1.96C15.092 2.14594 15.1311 2.32951 15.2027 2.50192C15.2736 2.65064 15.376 2.78303 15.5032 2.89041Z" fill="black"/>
<path d="M20.5224 12.0618H17.8398V4.42285H12.45V6.45117H15.2727V12.0618H12.45V14.0675H20.5224V12.0618Z" fill="black"/>
<path d="M24.0832 13.3062C24.382 13.6426 24.7646 13.8986 25.1942 14.0494C25.646 14.2079 26.1239 14.2843 26.6041 14.2746C27.149 14.2795 27.685 14.1394 28.1542 13.8692C28.6362 13.5857 29.0473 13.201 29.3575 12.7432L29.502 14.0959H31.8134V4.42163H29.242V11.2061C29.0853 11.5261 28.8337 11.7929 28.5196 11.9718C28.1422 12.1639 27.7201 12.257 27.2946 12.2421C27.0353 12.2446 26.7773 12.2066 26.5304 12.1295C26.3259 12.0651 26.1478 11.9389 26.0219 11.7692C25.871 11.5796 25.7751 11.354 25.7445 11.1161C25.674 10.7899 25.6429 10.4568 25.6521 10.1237V4.42163H23.1066V10.1462C23.0974 10.7785 23.183 11.4088 23.3609 12.0169C23.5065 12.4899 23.7526 12.9278 24.0832 13.302" fill="black"/>
<path d="M35.072 12.8728C35.395 13.2981 35.8141 13.6454 36.297 13.8876C36.7981 14.1357 37.3544 14.2595 37.9164 14.2479C38.4209 14.2556 38.9202 14.1476 39.374 13.9327C39.8039 13.7191 40.1825 13.4193 40.4849 13.0529L40.6294 14.0677H42.9133V0.366455H40.3462V5.2831C40.058 4.95916 39.7032 4.69781 39.3046 4.51598C38.8756 4.32917 38.4094 4.23689 37.9395 4.24572C37.3696 4.23136 36.8051 4.3557 36.297 4.60747C35.8137 4.84849 35.3944 5.19539 35.072 5.6209C34.7098 6.0798 34.4495 6.60712 34.3078 7.16927C34.1251 7.82258 34.0395 8.49804 34.0535 9.17505V9.36505C34.0525 10.0265 34.138 10.6854 34.3078 11.3258C34.4592 11.8845 34.7185 12.41 35.072 12.8742V12.8728ZM36.5743 9.17926C36.5758 8.79317 36.615 8.40815 36.6914 8.02926C36.7502 7.70399 36.8676 7.39139 37.0381 7.10589C37.1901 6.84884 37.4043 6.63184 37.6621 6.47392C37.9416 6.31354 38.2627 6.2353 38.5867 6.24871C38.9684 6.23564 39.3458 6.32941 39.6745 6.51897C39.968 6.71434 40.2068 6.97802 40.3693 7.28607V11.2076C40.2092 11.5168 39.9698 11.7805 39.6745 11.9733C39.3458 12.1628 38.9684 12.2566 38.5867 12.2435C38.2626 12.2577 37.9413 12.1794 37.6621 12.0183C37.4105 11.8632 37.1973 11.6555 37.0381 11.4103C36.8676 11.1323 36.7502 10.8267 36.6914 10.508C36.6139 10.1374 36.5747 9.76018 36.5743 9.38193V9.17926Z" fill="black"/>
<path d="M47.3775 14.0454C47.8247 14.1931 48.2935 14.2692 48.7658 14.2706C49.0612 14.2753 49.3561 14.245 49.6441 14.1805C49.8959 14.1222 50.1437 14.047 50.385 13.9553C50.6005 13.8699 50.8026 13.7562 50.9863 13.6175C51.1631 13.4945 51.326 13.3529 51.4715 13.1952C51.4963 13.3631 51.535 13.5288 51.5872 13.6907C51.6229 13.832 51.677 13.9683 51.749 14.0961H54.3406V13.9384C54.1956 13.6614 54.0938 13.3649 54.0387 13.0587C53.9667 12.6346 53.9354 12.2048 53.9463 11.775V7.62268C53.9542 7.10934 53.8435 6.60089 53.6225 6.13488C53.4224 5.71758 53.121 5.35418 52.7441 5.07636C52.3409 4.78667 51.8861 4.57281 51.402 4.44576C50.8597 4.29795 50.2996 4.22173 49.7365 4.21915C49.1334 4.2149 48.5329 4.29888 47.9553 4.46829C47.4762 4.61008 47.0291 4.83937 46.6378 5.14392C46.2996 5.40639 46.0232 5.73664 45.8274 6.11233C45.6433 6.47708 45.5484 6.87836 45.55 7.28482H48.0998C48.0931 7.12294 48.1204 6.96139 48.18 6.81015C48.2397 6.65885 48.3303 6.52106 48.4465 6.40509C48.6776 6.17987 49.0706 6.08983 49.5791 6.08983C50.1571 6.08983 50.6209 6.23058 50.9213 6.49518C51.0752 6.63607 51.1964 6.80773 51.2763 6.99845C51.3558 7.18912 51.3925 7.39441 51.3836 7.60013V8.16315H49.9719C48.4234 8.16315 47.2663 8.43342 46.4804 8.99784C45.6945 9.56232 45.3001 10.3491 45.3001 11.364C45.2975 11.7577 45.3831 12.1472 45.5511 12.5054C45.719 12.8635 45.9651 13.1815 46.2724 13.4373C46.5979 13.7087 46.9748 13.9153 47.3818 14.0454H47.3775ZM48.0059 10.5743C48.0967 10.3883 48.232 10.2261 48.4003 10.1014C48.6075 9.95223 48.8433 9.84501 49.0937 9.78608C49.4249 9.70925 49.7643 9.67147 50.105 9.6735H51.4049V11.3358C51.325 11.4707 51.2237 11.5923 51.1045 11.6962C50.964 11.8191 50.8091 11.9249 50.6422 12.0115C50.4535 12.1136 50.2504 12.1894 50.0399 12.2367C49.805 12.3018 49.5616 12.3321 49.3176 12.3268C48.8322 12.3268 48.4624 12.2141 48.2313 11.989C48.1138 11.8824 48.0203 11.7534 47.9564 11.61C47.8925 11.4666 47.8597 11.312 47.86 11.1557C47.861 10.9518 47.9104 10.7509 48.0044 10.5687" fill="black"/>
<path d="M58.805 13.8876C59.306 14.1361 59.8621 14.2599 60.4242 14.2479C60.9287 14.2553 61.4282 14.1473 61.8821 13.9327C62.3116 13.7194 62.69 13.4195 62.9914 13.0529L63.1359 14.0678H65.4255V0.366455H62.8529V5.2831C62.5649 4.95853 62.2103 4.69708 61.8111 4.51598C61.3826 4.32933 60.9168 4.23705 60.4476 4.24572C59.8775 4.23107 59.3129 4.35542 58.805 4.60747C58.3213 4.84848 57.9012 5.19536 57.5785 5.6209C57.216 6.07961 56.9563 6.60698 56.8158 7.16927C56.633 7.82258 56.5476 8.49804 56.5615 9.17505V9.36505C56.5605 10.0265 56.6459 10.6854 56.8158 11.3258C56.9806 11.8793 57.2383 12.4025 57.5785 12.8742C57.9077 13.2945 58.3258 13.6408 58.805 13.889V13.8876ZM59.1054 9.17926C59.1074 8.79327 59.1456 8.40829 59.2211 8.02927C59.2797 7.70399 59.3973 7.3914 59.5677 7.10589C59.7206 6.84889 59.9351 6.63199 60.1933 6.47393C60.4724 6.31339 60.7936 6.23516 61.1179 6.24871C61.4993 6.23579 61.8766 6.32955 62.2054 6.51897C62.4988 6.71409 62.7372 6.97787 62.899 7.28607V11.2076C62.7391 11.5167 62.5003 11.7805 62.2054 11.9733C61.8766 12.1627 61.4993 12.2565 61.1179 12.2435C60.7936 12.2578 60.4724 12.1795 60.1933 12.0183C59.9411 11.8631 59.7275 11.6554 59.5677 11.4103C59.3973 11.1324 59.2797 10.8267 59.2211 10.508C59.1446 10.1373 59.1059 9.76009 59.1054 9.38193V9.17926Z" fill="black"/>
<path d="M76.4761 11.7693V7.62261C76.4831 7.10942 76.3728 6.60111 76.1523 6.13481C75.9522 5.71712 75.6503 5.35368 75.2725 5.07633C74.8697 4.78662 74.4154 4.57276 73.9318 4.44574C73.3895 4.29812 72.8294 4.2219 72.2663 4.21912C71.665 4.21532 71.0666 4.2993 70.4911 4.46826C70.0115 4.61005 69.5636 4.83932 69.1718 5.14389C68.8341 5.40637 68.5581 5.73667 68.3629 6.11231C68.1792 6.47706 68.0838 6.87834 68.0858 7.2848H70.6297C70.6227 7.12311 70.65 6.96175 70.7096 6.81071C70.7692 6.65966 70.8601 6.52211 70.9763 6.40647C71.2077 6.17985 71.6019 6.08976 72.1104 6.08976C72.6884 6.08976 73.1507 6.23056 73.4526 6.49516C73.6065 6.63605 73.7277 6.80771 73.8076 6.99843C73.8871 7.1891 73.9238 7.39434 73.9149 7.60011V8.16313H72.5032C70.9534 8.16313 69.7975 8.4348 69.0104 8.99782C68.2229 9.56084 67.8316 10.3491 67.8316 11.3639C67.8291 11.7575 67.9145 12.1469 68.0819 12.505C68.2497 12.863 68.4955 13.1812 68.8024 13.4373C69.1276 13.6972 69.4955 13.9027 69.8898 14.0454C70.3372 14.1932 70.806 14.2693 71.2782 14.2706C71.5736 14.2752 71.8686 14.245 72.1566 14.1805C72.4083 14.1222 72.6551 14.047 72.8964 13.9553C73.1114 13.8699 73.3135 13.7562 73.4973 13.6175C73.675 13.4948 73.8384 13.3532 73.9839 13.1952C74.0092 13.3631 74.0475 13.5288 74.0996 13.6907C74.1353 13.832 74.19 13.9683 74.2615 14.096H76.847V13.9384C76.7025 13.6615 76.6012 13.3649 76.5466 13.0587C76.4955 12.6327 76.4721 12.2039 76.4776 11.775L76.4761 11.7693ZM73.9104 11.3246C73.8305 11.4594 73.7292 11.581 73.61 11.6849C73.469 11.8078 73.3131 11.9136 73.1462 12.0002C72.9575 12.1021 72.7554 12.1779 72.5454 12.2254C72.3105 12.2905 72.0667 12.3209 71.8229 12.3155C71.3363 12.3155 70.9663 12.2028 70.7349 11.9777C70.6183 11.8708 70.5249 11.7418 70.4613 11.5984C70.3978 11.4551 70.365 11.3005 70.365 11.1444C70.3635 10.933 70.4132 10.7241 70.5095 10.5349C70.5994 10.3485 70.734 10.1861 70.9028 10.0619C71.1103 9.91253 71.3467 9.80527 71.5975 9.74668C71.9287 9.6698 72.2683 9.63201 72.6089 9.63405H73.9089L73.9104 11.3246Z" fill="black"/>
<path d="M81.8886 7.2173C82.0684 6.92396 82.3231 6.68137 82.6285 6.51353C82.9677 6.33186 83.3525 6.24607 83.7393 6.26577C84.0045 6.25827 84.2691 6.28865 84.5253 6.35585C84.7448 6.41183 84.9499 6.5115 85.1277 6.64866C85.3069 6.80503 85.4355 7.00901 85.4976 7.23559C85.6009 7.54054 85.6495 7.86044 85.6416 8.18151V14.0863H88.1859V8.14067C88.1974 7.53783 88.1115 6.93697 87.9317 6.36011C87.8011 5.90798 87.5518 5.49664 87.2092 5.16647C86.9103 4.85562 86.5364 4.62282 86.1213 4.48943C85.6818 4.34355 85.221 4.26751 84.7562 4.26421C84.1668 4.25658 83.5854 4.39666 83.0675 4.671C82.5471 4.93828 82.1007 5.32469 81.7675 5.79704L81.6518 4.42186H79.3403V14.0905H81.8886V7.2173Z" fill="black"/>
<path d="M96.669 4.4231H91.1418V6.45141H94.1018V12.062H91.1418V14.0678H99.5152V12.062H96.669V4.4231Z" fill="black"/>
<path d="M98.8666 0.726807H96.0681L94.3564 3.22806H96.3228L98.8666 0.726807Z" fill="black"/>
<path d="M110.247 11.7694V7.62268C110.254 7.10944 110.143 6.60114 109.923 6.13488C109.723 5.71758 109.422 5.35418 109.045 5.07636C108.641 4.787 108.187 4.57318 107.703 4.44576C107.161 4.29795 106.601 4.22173 106.037 4.21915C105.434 4.2149 104.834 4.29888 104.256 4.46829C103.777 4.61039 103.329 4.83964 102.937 5.14392C102.6 5.40692 102.324 5.73708 102.128 6.11233C101.944 6.47708 101.849 6.87836 101.851 7.28482H104.395C104.388 7.12298 104.415 6.96148 104.475 6.81039C104.535 6.65929 104.626 6.52184 104.743 6.40649C104.974 6.17987 105.367 6.08983 105.876 6.08983C106.454 6.08983 106.917 6.23058 107.218 6.49518C107.372 6.63607 107.493 6.80773 107.573 6.99845C107.652 7.18912 107.689 7.39441 107.68 7.60013V8.16315H106.268C104.72 8.16315 103.563 8.43482 102.777 8.99784C101.991 9.56086 101.597 10.3491 101.597 11.364C101.594 11.7577 101.68 12.1472 101.848 12.5054C102.015 12.8635 102.262 13.1815 102.569 13.4373C102.894 13.6969 103.261 13.9023 103.655 14.0454C104.102 14.1931 104.57 14.2692 105.042 14.2706C105.338 14.2754 105.633 14.2451 105.922 14.1805C106.173 14.1222 106.42 14.047 106.662 13.9553C106.877 13.8702 107.08 13.7566 107.264 13.6175C107.441 13.4945 107.604 13.3529 107.749 13.1952C107.774 13.3631 107.813 13.5288 107.865 13.6907C107.901 13.832 107.955 13.9683 108.027 14.0961H110.618V13.9384C110.473 13.6616 110.371 13.3651 110.316 13.0587C110.265 12.6327 110.242 12.2039 110.247 11.775V11.7694ZM107.703 11.3246C107.623 11.4594 107.522 11.5811 107.402 11.6849C107.099 11.9473 106.733 12.1329 106.338 12.2254C106.103 12.2905 105.86 12.3209 105.615 12.3155C105.13 12.3155 104.76 12.2029 104.528 11.9777C104.411 11.8709 104.317 11.7418 104.254 11.5985C104.19 11.4551 104.157 11.3006 104.158 11.1444C104.156 10.933 104.206 10.7242 104.302 10.5349C104.392 10.3484 104.528 10.186 104.697 10.062C104.904 9.9128 105.14 9.80558 105.39 9.7467C105.721 9.66982 106.061 9.63203 106.401 9.63407H107.701L107.703 11.3246Z" fill="black"/>
<path d="M121.535 14.0676H113.185V16.0059H121.535V14.0676Z" fill="black"/>
<path d="M1.00049 20.7607H3.52279V29.7298H1.00049V31.7356H8.70317V29.7298H6.11295V20.7607H8.70317V18.7324H1.00049V20.7607Z" fill="black"/>
<path d="M20.0365 22.8115C19.7388 22.5004 19.3651 22.268 18.9501 22.1359C18.5104 21.9897 18.0495 21.9132 17.5849 21.9093C16.9956 21.9008 16.4141 22.0405 15.8962 22.3147C15.3758 22.5821 14.9296 22.9685 14.596 23.4407L14.44 22.1134H12.1287V31.7806H14.6972V24.9074C14.8756 24.6133 15.1308 24.3705 15.4368 24.2036C15.7756 24.0215 16.1599 23.9353 16.5463 23.9545C16.8118 23.9476 17.077 23.978 17.3336 24.0446C17.5525 24.1016 17.757 24.2017 17.9346 24.3388C18.1146 24.494 18.2433 24.6978 18.3044 24.9243C18.4077 25.2292 18.4566 25.5492 18.4488 25.8702V31.7749H20.9942V25.8336C21.0057 25.2308 20.9199 24.6299 20.74 24.053C20.6191 23.5897 20.3801 23.1637 20.0451 22.8144" fill="black"/>
<path d="M42.5205 23.2169C42.1257 22.8005 41.6447 22.4703 41.1091 22.2486C40.4982 22.014 39.8458 21.8991 39.1893 21.9107C38.5293 21.9012 37.8743 22.0238 37.265 22.2711C36.6898 22.5129 36.1705 22.8653 35.7381 23.307C35.3069 23.7666 34.9695 24.3022 34.7442 24.8849C34.5057 25.5355 34.3883 26.2224 34.3975 26.9132V27.2736C34.3879 27.9019 34.5134 28.5252 34.7659 29.1034C34.9987 29.6668 35.354 30.1744 35.8074 30.5912C36.2638 31.0203 36.8043 31.3554 37.3965 31.5765C38.0598 31.8274 38.7669 31.9498 39.4782 31.9368C39.9384 31.9441 40.3976 31.8911 40.8433 31.7792C41.2455 31.6954 41.6343 31.559 41.999 31.3738C42.323 31.2237 42.6263 31.0346 42.9019 30.8108C43.1396 30.6214 43.3495 30.4011 43.526 30.1563L42.2533 28.8275C42.1076 29.0078 41.9363 29.167 41.7448 29.3005C41.5499 29.4348 41.3407 29.548 41.1207 29.6383C40.8877 29.7299 40.6457 29.7979 40.3984 29.841C40.1545 29.8858 39.9069 29.9084 39.6588 29.9086C39.328 29.9149 38.9988 29.8614 38.688 29.7509C38.3987 29.6507 38.1315 29.4978 37.9007 29.3005C37.4159 28.8904 37.1032 28.3206 37.0224 27.7001H43.7658V26.6416C43.7772 25.9853 43.6767 25.3317 43.4682 24.7076C43.2409 24.163 42.9205 23.6599 42.5205 23.2198V23.2169ZM41.2016 26.0152H37.0122C37.0732 25.7207 37.1662 25.4333 37.2896 25.158C37.5078 24.6825 37.8938 24.2989 38.3774 24.077C38.627 23.9772 38.8935 23.9237 39.1632 23.9193C39.4567 23.9108 39.7485 23.9646 40.0185 24.077C40.2591 24.1579 40.4744 24.2974 40.644 24.4824C40.8142 24.6583 40.9477 24.8648 41.0369 25.0904C41.1285 25.329 41.183 25.5794 41.1987 25.8336L41.2016 26.0152Z" fill="black"/>
<path d="M51.4941 18.0342H45.9426V20.0625H48.9272V29.7297H45.9426V31.7355H54.3404V29.7297H51.4941V18.0342Z" fill="black"/>
<path d="M62.3432 22.0908H56.9536V24.1191H59.775V29.7297H56.9536V31.7355H65.0261V29.7297H62.3432V22.0908Z" fill="black"/>
<path d="M61.0481 18.282C60.8435 18.2754 60.6399 18.3059 60.4473 18.3721C60.2779 18.435 60.1215 18.5265 59.985 18.6424C59.8469 18.7542 59.7427 18.9001 59.6831 19.0647C59.6066 19.2357 59.5674 19.4201 59.5674 19.6066C59.5723 19.792 59.6116 19.9751 59.6831 20.1471C59.7541 20.3057 59.8569 20.4492 59.985 20.5694C60.1215 20.6852 60.2779 20.7767 60.4473 20.8396C60.6399 20.9058 60.8435 20.9363 61.0481 20.9297C61.4453 20.9532 61.8356 20.8238 62.136 20.5694C62.3878 20.3155 62.5288 19.976 62.5288 19.6228C62.5288 19.2695 62.3878 18.93 62.136 18.6762C61.9935 18.5387 61.8232 18.4317 61.6355 18.3619C61.4483 18.2922 61.2482 18.2611 61.0481 18.2708" fill="black"/>
<path d="M87.3484 23.2169C86.9537 22.8005 86.4725 22.4703 85.9372 22.2486C85.3265 22.014 84.674 21.8991 84.0176 21.9107C83.3586 21.9018 82.7057 22.0244 82.0974 22.2711C81.5224 22.5133 81.003 22.8656 80.5705 23.307C80.1395 23.7666 79.8018 24.3022 79.5764 24.8849C79.338 25.5355 79.2209 26.2224 79.2298 26.9132V27.2736C79.2199 27.9021 79.346 28.5255 79.5997 29.1034C79.8316 29.6671 80.1862 30.1748 80.64 30.5912C81.0963 31.0203 81.6366 31.3554 82.229 31.5765C82.8924 31.8272 83.5995 31.9496 84.3105 31.9368C84.7708 31.9441 85.2301 31.8911 85.6755 31.7792C86.0778 31.6954 86.4666 31.559 86.8315 31.3738C87.1553 31.2237 87.4587 31.0346 87.7343 30.8108C87.9721 30.6214 88.1822 30.4011 88.3584 30.1563L87.0873 28.8275C86.9403 29.0075 86.769 29.1667 86.5773 29.3005C86.3822 29.4348 86.1731 29.548 85.9531 29.6383C85.7202 29.7299 85.4779 29.7979 85.2306 29.841C84.9913 29.8874 84.748 29.9124 84.5042 29.9156C84.1735 29.922 83.8443 29.8685 83.5334 29.7579C83.2444 29.6574 82.9773 29.5046 82.7459 29.3075C82.2612 28.8974 81.9484 28.3277 81.868 27.7071H88.5983V26.6486C88.6092 25.9908 88.5074 25.3357 88.2979 24.7104C88.0531 24.1746 87.7343 23.674 87.3499 23.2226L87.3484 23.2169ZM86.0311 26.018H81.8417C81.9027 25.7235 81.9956 25.4361 82.1192 25.1608C82.2325 24.9182 82.3889 24.697 82.5815 24.5077C82.7648 24.3351 82.9753 24.1926 83.2057 24.0854C83.4555 23.9858 83.7226 23.9323 83.9927 23.9278C84.2867 23.919 84.5792 23.9728 84.8493 24.0854C85.0896 24.1667 85.3041 24.3062 85.4735 24.4908C85.6438 24.6667 85.7773 24.8733 85.8662 25.0989C85.9581 25.3374 86.0127 25.5879 86.0281 25.8421L86.0311 26.018Z" fill="black"/>
<path d="M99.095 22.8115C98.7965 22.5008 98.4226 22.2685 98.0075 22.1359C97.5676 21.9895 97.1068 21.913 96.6425 21.9092C96.0531 21.9016 95.4711 22.0417 94.9537 22.316C94.4328 22.5833 93.9869 22.9697 93.6533 23.4421L93.4914 22.1133H91.1804V31.7805H93.7501V24.9074C93.9288 24.6136 94.1841 24.3709 94.4899 24.2036C94.8291 24.0213 95.2139 23.935 95.6007 23.9544C95.8659 23.9476 96.1306 23.978 96.3868 24.0445C96.6058 24.1015 96.8108 24.2016 96.9891 24.3387C97.1684 24.4943 97.297 24.6979 97.3585 24.9243C97.4623 25.2292 97.511 25.5491 97.503 25.8701V31.7749H100.047V25.8336C100.059 25.2307 99.9729 24.6299 99.7931 24.0529C99.673 23.5895 99.4346 23.1633 99.0994 22.8143" fill="black"/>
<path d="M122.159 26.6655C122.17 26.0076 122.068 25.3526 121.859 24.7272C121.673 24.1713 121.375 23.6576 120.98 23.2169C120.586 22.8004 120.104 22.4703 119.569 22.2485C118.958 22.0138 118.305 21.899 117.649 21.9107C116.99 21.9017 116.337 22.0244 115.729 22.271C115.154 22.5129 114.635 22.8653 114.203 23.307C113.771 23.7662 113.434 24.3018 113.208 24.8849C112.97 25.5355 112.852 26.2224 112.862 26.9132V27.2735C112.852 27.902 112.978 28.5255 113.231 29.1034C113.463 29.6671 113.818 30.1747 114.271 30.5912C114.728 31.02 115.268 31.355 115.86 31.5765C116.524 31.8272 117.231 31.9496 117.942 31.9369C118.402 31.9441 118.861 31.891 119.307 31.7792C119.71 31.695 120.098 31.5587 120.463 31.3738C120.786 31.2234 121.089 31.0342 121.365 30.8108C121.602 30.6213 121.812 30.4011 121.988 30.1563L120.717 28.8275C120.571 29.0074 120.4 29.1666 120.209 29.3005C120.013 29.4344 119.803 29.5477 119.583 29.6383C119.35 29.7298 119.108 29.7977 118.861 29.841C118.617 29.8858 118.368 29.9084 118.12 29.9085C117.789 29.9149 117.46 29.8615 117.149 29.7509C116.86 29.65 116.593 29.4972 116.362 29.3005C115.877 28.8904 115.564 28.3206 115.483 27.7H122.215V26.6641L122.159 26.6655ZM119.661 26.0124H115.472C115.533 25.7179 115.626 25.4305 115.749 25.1552C115.862 24.9122 116.02 24.6909 116.213 24.502C116.396 24.3289 116.607 24.1862 116.837 24.0798C117.087 23.98 117.353 23.9266 117.623 23.9221C117.917 23.9134 118.209 23.9672 118.48 24.0798C118.72 24.1606 118.934 24.3002 119.104 24.4851C119.274 24.6611 119.407 24.8676 119.497 25.0933C119.588 25.3317 119.643 25.5823 119.658 25.8365L119.661 26.0124Z" fill="black"/>
<path d="M73.9101 22.9919C73.6271 22.6423 73.2621 22.3642 72.8455 22.1811C72.3718 21.9802 71.8599 21.8803 71.3429 21.8883C70.7659 21.874 70.1944 21.9977 69.6775 22.2487C69.18 22.4879 68.7445 22.8345 68.4048 23.2621C68.0359 23.7256 67.7613 24.2535 67.596 24.8175C67.4038 25.468 67.3089 26.1421 67.3139 26.819V26.9992C67.3119 27.6644 67.4092 28.3264 67.6029 28.9642C67.7742 29.5239 68.0483 30.0486 68.4123 30.5125C68.7494 30.9341 69.1755 31.2802 69.6616 31.5274C70.178 31.7782 70.7491 31.9019 71.3261 31.8878C71.8032 31.8988 72.2775 31.8065 72.7139 31.6175C73.1072 31.4375 73.4607 31.1852 73.7557 30.8743V32.6098C73.7592 32.6488 73.7512 32.6878 73.7324 32.7224C73.7353 32.7844 73.7249 32.8464 73.7011 32.9039C73.6772 32.9615 73.641 33.0135 73.5948 33.0562C73.5486 33.099 73.4935 33.1315 73.4334 33.1516C73.3733 33.1717 73.3093 33.179 73.2457 33.1728H68.5896V35.2012H74.858C75.0507 35.2064 75.2424 35.1731 75.4216 35.1034C75.6009 35.0337 75.7633 34.929 75.8993 34.7958C76.1769 34.5241 76.2926 34.3735 76.2926 33.9386V22.0911H73.9811L73.9101 22.9919ZM73.7656 28.9642C73.6102 29.2604 73.3684 29.5052 73.0709 29.668C72.7288 29.8418 72.347 29.9271 71.9616 29.9157C71.6369 29.93 71.3151 29.8517 71.0356 29.6905C70.7769 29.5361 70.5559 29.3286 70.3881 29.0825C70.2103 28.8064 70.0847 28.5012 70.0186 28.1816C69.9312 27.8126 69.892 27.4342 69.9029 27.0555V26.8754C69.9024 26.4877 69.9511 26.1015 70.0474 25.7254C70.1214 25.3974 70.2545 25.0848 70.4402 24.802C70.607 24.5492 70.828 24.3341 71.0877 24.1714C71.3683 24.0129 71.689 23.9344 72.0133 23.9448C72.3917 23.9364 72.7656 24.0221 73.0997 24.1939C73.3977 24.3568 73.639 24.6016 73.7949 24.8977V28.9797L73.7656 28.9642Z" fill="black"/>
<path d="M107.01 19.7246H104.464V22.0907H102.198V23.9206H104.464V30.501C104.464 30.9078 104.609 31.088 104.859 31.3582C104.995 31.4914 105.157 31.596 105.336 31.6658C105.514 31.7355 105.706 31.7688 105.899 31.7636H110.666V29.7296H107.498C107.198 29.7296 107.036 29.572 107.013 29.2792V23.915H110.714V22.0851H107.013L107.01 19.7246Z" fill="black"/>
<path d="M28.1089 19.7246H25.5635V22.0907H23.2983V23.9206H25.5635V30.501C25.5635 30.9078 25.708 31.088 25.9564 31.3582C26.0924 31.4915 26.255 31.5962 26.4342 31.6659C26.6133 31.7356 26.8052 31.7689 26.998 31.7636H31.7652V29.7296H28.5972C28.5338 29.7358 28.4698 29.7285 28.4095 29.7084C28.3493 29.6883 28.2942 29.6557 28.248 29.613C28.2018 29.5703 28.1656 29.5183 28.1418 29.4607C28.1181 29.4031 28.1074 29.3412 28.1103 29.2792V23.915H31.8115V22.0851H28.1089V19.7246Z" fill="black"/>
<path d="M7.19963 5.99961H9.69734V5.66181C9.70117 5.52629 9.69347 5.39067 9.67425 5.25641C9.64937 4.72909 9.54818 4.20784 9.37374 3.70808C9.18971 3.14447 8.87495 2.62972 8.45382 2.20377C8.0327 1.77782 7.51653 1.45209 6.94534 1.25187C6.28562 1.01758 5.58742 0.903081 4.88535 0.91405C4.46511 0.913803 4.04627 0.961038 3.6372 1.05481C3.39161 1.12338 3.15042 1.2061 2.91489 1.30254C2.31302 1.58233 1.78366 1.99081 1.36627 2.49757C0.912715 3.04315 0.574438 3.67078 0.370926 4.3443C0.111774 5.1163 -0.0132188 5.92505 0.00110526 6.7372V8.47131C-0.00289912 9.27121 0.105988 10.0678 0.324702 10.8388C0.516574 11.5026 0.838371 12.124 1.27237 12.6687C1.69235 13.1735 2.22167 13.5816 2.82243 13.8637C2.938 13.9087 3.05358 13.9538 3.19226 14.0045C3.73858 14.1719 4.30831 14.2555 4.88101 14.2522C5.58325 14.2652 6.28185 14.1506 6.94102 13.9144C7.51181 13.7135 8.02763 13.3876 8.44866 12.9617C8.86969 12.5358 9.1847 12.0214 9.36942 11.4582C9.53472 10.983 9.63671 10.4891 9.67281 9.98867C9.69203 9.81667 9.69977 9.64366 9.6959 9.47069V9.15538H7.19963V10.0112C7.1534 10.7994 6.92081 11.3639 6.52789 11.7003C6.13492 12.0367 5.60331 12.2183 4.93158 12.2183C4.12259 12.2183 3.54475 11.903 3.17348 11.2949C2.80221 10.6868 2.61875 9.73955 2.61875 8.45442V6.67667C2.61586 6.13997 2.66422 5.60418 2.76321 5.07624C2.83612 4.65812 2.97398 4.25325 3.17203 3.87558C3.34418 3.56613 3.60062 3.30897 3.91312 3.13238C4.2331 2.96633 4.59073 2.88115 4.95324 2.88465C5.28482 2.87443 5.61518 2.928 5.92547 3.0423C6.18706 3.1288 6.42446 3.27337 6.61886 3.46457C6.80373 3.68155 6.9378 3.93517 7.01183 4.20777C7.11616 4.53739 7.17872 4.87821 7.19819 5.22264V5.98834L7.19963 5.99961Z" fill="black"/>
</g>
<defs>
<clipPath id="clip0_139_1174">
<rect width="122.649" height="34.8351" fill="white" transform="translate(0 0.366455)"/>
</clipPath>
</defs>
</svg>
