<svg width="539" height="209" viewBox="0 0 539 209" fill="none" xmlns="http://www.w3.org/2000/svg">
<path d="M47.6612 75.2642V32.4434H26.6597V75.2642H47.6612Z" fill="#75AADB"/>
<path d="M110.73 155.598V118.446H91.0269V155.598H110.73Z" fill="#CC0000"/>
<path d="M25.0103 32.342H38.645V72.7656H57.3241V87.2993H25.1975V32.3608L25.0103 32.342Z" fill="black"/>
<path d="M101.475 71.4688C99.3134 69.3647 96.4118 68.194 93.3953 68.2092C90.3789 68.2244 87.4892 69.4242 85.3491 71.55C83.2202 73.6947 82.0256 76.594 82.0256 79.6159C82.0256 82.6378 83.2202 85.5372 85.3491 87.6819C86.4003 88.7397 87.6502 89.5793 89.0269 90.1525C90.4036 90.7257 91.8801 91.0211 93.3714 91.0219C94.8743 91.0621 96.3694 90.7924 97.7635 90.2296C99.1577 89.6668 100.421 88.8229 101.475 87.7506L110.615 96.7905C108.09 99.3616 105.024 101.338 101.64 102.575C98.2561 103.813 94.6387 104.281 91.0511 103.945C87.4635 103.609 83.9959 102.477 80.9005 100.633C77.805 98.7883 75.1596 96.2771 73.1565 93.2819C71.1419 90.2861 69.8148 86.8818 69.2701 83.313C68.7253 79.7441 68.9766 76.099 70.0057 72.6386C71.0349 69.1782 72.8165 65.9883 75.223 63.2971C77.6295 60.606 80.6014 58.4804 83.9257 57.0724C88.365 55.2063 93.26 54.7061 97.9851 55.6357C102.71 56.5654 107.051 58.8827 110.452 62.2916L101.475 71.4688Z" fill="black"/>
<path d="M25.436 102.857H56.1017V113.208H38.3653V120.881H54.0727V131.407H38.3653V140.147H56.1017V150.317H25.436V102.857Z" fill="black"/>
<path d="M105.449 173.597L83.0681 151.123V173.597H70.6257V126.15H75.7075L98.1824 148.532V126.125H110.618V173.572L105.449 173.597Z" fill="black"/>
<path d="M57.3241 161.81H25.0103V174.483H57.3241V161.81Z" fill="#FFD700"/>
<path d="M110.124 32.3118H71.3489V46.8517H110.124V32.3118Z" fill="#008000"/>
<path d="M130.865 5.86035H5.22412V203.14H130.865V5.86035Z" stroke="black" stroke-width="9.98078" stroke-miterlimit="10"/>
<path d="M181.278 65.7939H188.919V87.376H199.382V95.1361H181.384V65.7939H181.278Z" fill="black"/>
<path d="M202.503 95.1361L216.02 65.7939H219.478L233.094 95.1361H225.446L223.667 91.3091H211.806L210.045 95.1361H202.503ZM214.758 84.8226H220.608L217.674 78.3362L214.758 84.8226Z" fill="black"/>
<path d="M261.948 75.5773C260.65 74.3139 258.908 73.6112 257.096 73.6205C255.285 73.6299 253.55 74.3506 252.265 75.6273C250.986 76.9139 250.268 78.6545 250.268 80.4687C250.268 82.283 250.986 84.0235 252.265 85.3102C252.896 85.9448 253.646 86.4485 254.472 86.7924C255.298 87.1363 256.184 87.3136 257.079 87.3142C257.98 87.3394 258.877 87.1789 259.713 86.8428C260.55 86.5066 261.309 86.0019 261.942 85.3601L267.429 90.7666C265.914 92.3087 264.075 93.4939 262.045 94.2361C260.014 94.9784 257.844 95.2589 255.692 95.0574C253.54 94.856 251.459 94.1775 249.602 93.0713C247.745 91.9652 246.157 90.4592 244.955 88.6627C243.743 86.8644 242.945 84.8204 242.617 82.6771C242.288 80.5339 242.438 78.3446 243.056 76.2663C243.674 74.1879 244.744 72.2719 246.189 70.6557C247.634 69.0396 249.419 67.7632 251.416 66.9183C254.079 65.797 257.016 65.4951 259.852 66.0511C262.688 66.6071 265.293 67.9958 267.336 70.0398L261.948 75.5773Z" fill="black"/>
<path d="M282.416 65.7932C284.304 65.7941 286.172 66.1741 287.91 66.9107C289.657 67.6518 291.24 68.7318 292.567 70.0884C293.908 71.4556 294.968 73.0716 295.689 74.8456C297.146 78.4495 297.146 82.479 295.689 86.083C294.968 87.8569 293.908 89.4729 292.567 90.8402C291.24 92.1968 289.657 93.2768 287.91 94.0179C285.285 95.1297 282.385 95.4212 279.592 94.854C276.798 94.2869 274.242 92.8876 272.259 90.8402C269.562 88.0607 268.053 84.3402 268.053 80.4674C268.053 76.5946 269.562 72.8741 272.259 70.0946C273.579 68.7365 275.158 67.6563 276.903 66.9176C278.647 66.1788 280.522 65.7966 282.416 65.7932V65.7932ZM282.416 73.4659C281.507 73.468 280.607 73.6519 279.769 74.0068C278.932 74.3617 278.174 74.8803 277.54 75.5323C276.238 76.8684 275.508 78.6607 275.508 80.5267C275.508 82.3928 276.238 84.185 277.54 85.5211C278.173 86.174 278.931 86.693 279.769 87.0475C280.606 87.4019 281.506 87.5845 282.416 87.5845C283.325 87.5845 284.226 87.4019 285.063 87.0475C285.901 86.693 286.659 86.174 287.292 85.5211C288.594 84.185 289.323 82.3928 289.323 80.5267C289.323 78.6607 288.594 76.8684 287.292 75.5323C286.658 74.8803 285.9 74.3617 285.062 74.0068C284.225 73.6519 283.325 73.468 282.416 73.4659V73.4659Z" fill="black"/>
<path d="M322.372 95.1354L308.337 81.2634V95.1354H300.521V65.7932H303.643L317.658 79.6652V65.7932H325.493V95.1354H322.372Z" fill="black"/>
<path d="M340.741 74.7599C340.744 74.3173 340.618 73.8835 340.379 73.5113C340.147 73.149 339.812 72.8642 339.417 72.6934C339.024 72.5238 338.588 72.4802 338.169 72.5686C337.747 72.6603 337.364 72.878 337.07 73.1929C336.768 73.5066 336.564 73.9014 336.483 74.3291C336.402 74.7589 336.445 75.203 336.608 75.6089C336.766 76.0119 337.04 76.3593 337.394 76.6078C337.744 76.8516 338.16 76.9824 338.587 76.9824C339.913 76.9861 341.219 77.3004 342.401 77.9001C343.604 78.5018 344.652 79.371 345.467 80.441C346.695 82.079 347.353 84.0746 347.34 86.1221C347.336 88.508 346.407 90.7995 344.749 92.515C343.948 93.3489 342.986 94.0113 341.921 94.4618C340.856 94.9124 339.711 95.1417 338.555 95.1359C337.399 95.13 336.256 94.8891 335.195 94.4279C334.135 93.9666 333.18 93.2945 332.388 92.4526C330.747 90.7206 329.841 88.4204 329.859 86.0347H336.458C336.455 86.4773 336.581 86.9111 336.82 87.2833C337.052 87.6456 337.387 87.9304 337.782 88.1012C338.175 88.2708 338.611 88.3144 339.03 88.226C339.451 88.1347 339.835 87.9169 340.129 87.6017C340.431 87.288 340.635 86.8932 340.716 86.4655C340.797 86.0357 340.754 85.5916 340.591 85.1857C340.433 84.7825 340.159 84.435 339.804 84.1868C339.454 83.943 339.038 83.8122 338.612 83.8122C336.889 83.8006 335.21 83.265 333.799 82.2765C332.364 81.2688 331.257 79.8621 330.615 78.231C329.961 76.5813 329.792 74.7792 330.128 73.0368C330.459 71.3053 331.285 69.7071 332.506 68.4357C333.706 67.185 335.255 66.3256 336.951 65.9697C338.628 65.6243 340.37 65.7985 341.946 66.4691C343.549 67.1555 344.91 68.3056 345.854 69.7717C346.818 71.2596 347.333 72.9933 347.34 74.7661L340.741 74.7599Z" fill="black"/>
<path d="M350.463 65.7939H373.562V73.4416H365.833V95.1361H358.104V73.4416H350.463V65.7939Z" fill="black"/>
<path d="M377.306 65.7932H384.798V95.1354H377.306V65.7932Z" fill="black"/>
<path d="M389.17 65.7939H412.27V73.4416H404.541V95.1361H396.812V73.4416H389.17V65.7939Z" fill="black"/>
<path d="M423.12 83.3992C423.12 84.4126 423.523 85.3844 424.239 86.1009C424.956 86.8174 425.927 87.22 426.941 87.22C427.954 87.22 428.926 86.8174 429.642 86.1009C430.359 85.3844 430.761 84.4126 430.761 83.3992V65.7939H438.49V83.574C438.49 86.6372 437.273 89.5749 435.107 91.7408C432.942 93.9068 430.004 95.1236 426.941 95.1236C423.878 95.1236 420.94 93.9068 418.774 91.7408C416.608 89.5749 415.391 86.6372 415.391 83.574V65.7939H423.12V83.3992Z" fill="black"/>
<path d="M461.24 75.577C460.621 74.9436 459.88 74.4424 459.061 74.1037C458.248 73.7688 457.375 73.6052 456.495 73.623C455.4 73.6359 454.326 73.9258 453.374 74.4658C452.417 75.0111 451.609 75.7828 451.02 76.7132C450.424 77.6554 450.06 78.726 449.959 79.8365C449.858 80.947 450.023 82.0656 450.44 83.0998C450.857 84.1353 451.521 85.0527 452.375 85.7719C453.207 86.4803 454.203 86.9696 455.272 87.1953C456.335 87.4066 457.434 87.3464 458.468 87.0205C459.514 86.7007 460.465 86.1257 461.234 85.3473L466.584 90.7663C464.625 92.8189 462.092 94.2331 459.317 94.8242C456.558 95.4051 453.687 95.1284 451.089 94.0314C448.465 92.9158 446.233 91.0446 444.677 88.6561C443.099 86.2312 442.254 83.4029 442.241 80.5097C442.229 77.6166 443.051 74.7813 444.609 72.3431C446.145 69.9405 448.362 68.0497 450.976 66.9117C453.565 65.7932 456.434 65.4926 459.199 66.0502C461.98 66.6166 464.526 68.0091 466.503 70.0457L461.24 75.577Z" fill="black"/>
<path d="M470.95 65.7932H478.442V95.1354H470.95V65.7932Z" fill="black"/>
<path d="M508.584 48.9375L512.161 52.3899L504.501 61.4235L500.923 57.9711L508.584 48.9375Z" fill="black"/>
<path d="M496.548 65.7932C498.435 65.7941 500.303 66.1741 502.041 66.9107C503.789 67.6518 505.372 68.7318 506.699 70.0884C508.039 71.4556 509.1 73.0716 509.82 74.8456C511.278 78.4495 511.278 82.479 509.82 86.083C509.1 87.8569 508.039 89.4729 506.699 90.8402C505.372 92.1968 503.789 93.2768 502.041 94.0179C499.417 95.1297 496.517 95.4212 493.723 94.854C490.93 94.2869 488.373 92.8876 486.39 90.8402C483.693 88.0607 482.185 84.3402 482.185 80.4674C482.185 76.5946 483.693 72.8741 486.39 70.0946C487.711 68.7365 489.29 67.6563 491.034 66.9176C492.779 66.1788 494.653 65.7966 496.548 65.7932ZM496.548 73.4659C495.638 73.468 494.738 73.6519 493.901 74.0068C493.064 74.3617 492.306 74.8803 491.672 75.5323C490.369 76.8684 489.64 78.6607 489.64 80.5267C489.64 82.3928 490.369 84.185 491.672 85.5211C492.305 86.174 493.063 86.693 493.9 87.0475C494.738 87.4019 495.638 87.5845 496.548 87.5845C497.457 87.5845 498.357 87.4019 499.195 87.0475C500.032 86.693 500.79 86.174 501.423 85.5211C502.726 84.185 503.455 82.3928 503.455 80.5267C503.455 78.6607 502.726 76.8684 501.423 75.5323C500.789 74.8803 500.031 74.3617 499.194 74.0068C498.357 73.6519 497.457 73.468 496.548 73.4659V73.4659Z" fill="black"/>
<path d="M535.935 95.1354L522.275 81.2634V95.1354H514.653V65.7932H517.718L531.384 79.6652V65.7932H539V95.1354H535.935Z" fill="black"/>
<path d="M182.495 108.633H200.294V114.876H190.018V119.483H199.133V125.814H190.018V131.07H200.294V137.182H182.495V108.633Z" fill="black"/>
<path d="M214.234 117.43C214.234 117.006 214.108 116.59 213.872 116.237C213.636 115.884 213.301 115.609 212.908 115.446C212.516 115.284 212.084 115.241 211.667 115.324C211.251 115.407 210.868 115.611 210.568 115.912C210.267 116.212 210.063 116.595 209.98 117.011C209.897 117.428 209.94 117.86 210.102 118.252C210.265 118.645 210.54 118.98 210.893 119.216C211.246 119.452 211.662 119.578 212.086 119.578C213.436 119.569 214.768 119.875 215.979 120.471C217.189 121.067 218.244 121.937 219.06 123.012C220.311 124.6 220.991 126.564 220.989 128.587C220.916 130.879 219.95 133.052 218.298 134.642C216.645 136.233 214.437 137.115 212.144 137.102C209.851 137.088 207.653 136.179 206.02 134.568C204.387 132.958 203.448 130.773 203.402 128.48H210.057C210.054 128.906 210.177 129.324 210.411 129.679C210.645 130.035 210.979 130.313 211.372 130.478C211.764 130.644 212.197 130.689 212.615 130.607C213.033 130.526 213.417 130.322 213.719 130.022C214.021 129.722 214.227 129.339 214.311 128.921C214.394 128.504 214.352 128.071 214.189 127.677C214.026 127.284 213.75 126.948 213.396 126.712C213.041 126.476 212.625 126.35 212.199 126.352C210.459 126.352 208.758 125.836 207.312 124.869C205.865 123.903 204.738 122.529 204.072 120.921C203.406 119.314 203.232 117.545 203.571 115.839C203.911 114.133 204.749 112.565 205.979 111.335C207.209 110.105 208.776 109.267 210.483 108.928C212.189 108.588 213.958 108.763 215.565 109.428C217.172 110.094 218.546 111.222 219.513 112.668C220.479 114.115 220.995 115.815 220.995 117.555H214.234V117.43Z" fill="black"/>
<path d="M272.19 156.119L250.033 133.844V156.106H237.722V109.134H242.754L265.017 131.29V109.134H277.328V156.119H272.19Z" fill="black"/>
<path d="M297.121 137.39C297.121 138.191 297.279 138.984 297.585 139.724C297.892 140.464 298.341 141.136 298.907 141.703C299.474 142.269 300.146 142.718 300.886 143.025C301.626 143.331 302.419 143.489 303.22 143.489C304.833 143.473 306.375 142.825 307.515 141.685C308.656 140.544 309.303 139.002 309.32 137.39V109.134H321.743V137.589C321.743 142.5 319.792 147.21 316.32 150.683C312.847 154.155 308.137 156.106 303.226 156.106C298.316 156.106 293.606 154.155 290.133 150.683C286.661 147.21 284.71 142.5 284.71 137.589V109.134H297.127L297.121 137.39Z" fill="black"/>
<path d="M329.345 109.134H358.581V119.304H341.762V126.901H356.639V137.284H341.762V145.955H358.581V156.019H329.364L329.345 109.134Z" fill="black"/>
<path d="M384.572 123.579C384.572 122.88 384.364 122.197 383.976 121.616C383.588 121.035 383.036 120.582 382.39 120.315C381.745 120.047 381.034 119.977 380.349 120.114C379.663 120.25 379.034 120.587 378.54 121.081C378.045 121.575 377.709 122.205 377.572 122.89C377.436 123.575 377.506 124.286 377.774 124.932C378.041 125.577 378.494 126.129 379.075 126.517C379.656 126.906 380.339 127.113 381.038 127.113C383.922 127.091 386.748 127.926 389.157 129.512C391.566 131.098 393.449 133.364 394.568 136.022C395.688 138.68 395.992 141.611 395.443 144.442C394.894 147.274 393.516 149.878 391.485 151.926C389.453 153.973 386.859 155.371 384.032 155.942C381.205 156.513 378.272 156.231 375.605 155.132C372.939 154.034 370.658 152.168 369.053 149.772C367.449 147.375 366.592 144.556 366.592 141.672H377.511C377.511 142.37 377.718 143.054 378.106 143.635C378.495 144.216 379.046 144.669 379.692 144.936C380.338 145.204 381.048 145.274 381.734 145.137C382.419 145.001 383.049 144.664 383.543 144.17C384.037 143.676 384.374 143.046 384.51 142.361C384.646 141.675 384.576 140.965 384.309 140.319C384.042 139.674 383.589 139.122 383.008 138.734C382.426 138.345 381.743 138.138 381.044 138.138C378.187 138.137 375.395 137.288 373.02 135.7C370.645 134.112 368.795 131.856 367.702 129.216C366.61 126.576 366.325 123.671 366.883 120.87C367.441 118.068 368.817 115.494 370.838 113.474C372.858 111.455 375.432 110.079 378.235 109.522C381.037 108.966 383.941 109.252 386.58 110.346C389.22 111.439 391.476 113.291 393.063 115.666C394.65 118.042 395.497 120.835 395.497 123.692H384.572V123.579Z" fill="black"/>
<path d="M401.378 109.026H438.411V121.356H426.007V156.142H413.689V121.356H401.484V109.026H401.378Z" fill="black"/>
<path d="M472.203 156.119L464.955 143.708H457.358V156.125H445.046V109.134H464.849C469.415 109.149 473.789 110.969 477.017 114.197C480.245 117.425 482.065 121.799 482.08 126.365C482.09 128.742 481.599 131.095 480.641 133.271C479.683 135.446 478.278 137.396 476.517 138.994L486.469 156.013H472.203V156.119ZM457.326 133.02H464.924C466.712 133.02 468.427 132.309 469.692 131.045C470.956 129.78 471.667 128.065 471.667 126.277C471.667 124.489 470.956 122.774 469.692 121.509C468.427 120.245 466.712 119.535 464.924 119.535H457.358L457.326 133.02Z" fill="black"/>
<path d="M488.715 156.118L510.659 109.133H516.222L538.378 156.118H526.067L523.177 150.019H503.917L501.132 156.118H488.715ZM508.73 139.53H518.363L513.656 129.148L508.73 139.53Z" fill="black"/>
<path d="M221.476 144.306H181.527V155.781H221.482L221.476 144.306Z" fill="#FFD700"/>
</svg>
