<svg width="301" height="118" viewBox="0 0 301 118" fill="none" xmlns="http://www.w3.org/2000/svg">
<path d="M94.3254 12.5434C94.3254 13.0313 94.2818 13.5105 94.1947 13.9811C94.125 14.4342 93.942 14.8698 93.6457 15.2881C93.3669 15.6889 92.9051 16.0548 92.2603 16.386C92.0686 16.4905 91.7898 16.6299 91.4238 16.8042C91.0753 16.9785 90.718 17.1876 90.3521 17.4316C89.9861 17.6755 89.6724 17.9544 89.411 18.2681C89.167 18.5643 89.0451 18.8954 89.0451 19.2614C89.0451 19.5228 89.1148 19.7493 89.2542 19.941C89.411 20.1327 89.6027 20.2808 89.8293 20.3854C90.0732 20.5074 90.3346 20.5684 90.6135 20.5684C91.0317 20.5684 91.3715 20.4638 91.6329 20.2547C91.9118 20.063 92.1383 19.8365 92.3126 19.5751C92.4869 19.3137 92.635 19.1045 92.757 18.9477L95.9199 21.1957C95.6237 21.8928 95.2054 22.494 94.6652 22.9994C94.125 23.5048 93.4889 23.8882 92.757 24.1496C92.0425 24.4284 91.267 24.5678 90.4305 24.5678C89.7683 24.5678 89.0973 24.472 88.4177 24.2803C87.7555 24.0886 87.1455 23.7836 86.5879 23.3654C86.0302 22.9471 85.5771 22.3982 85.2286 21.7186C84.8975 21.0389 84.7319 20.2111 84.7319 19.2352C84.7319 18.817 84.7668 18.4162 84.8365 18.0328C84.9062 17.6494 85.0195 17.2922 85.1763 16.961C85.3506 16.6125 85.5684 16.2901 85.8298 15.9939C86.1086 15.6802 86.4398 15.3926 86.8231 15.1312C87.3285 14.7827 87.8426 14.4864 88.3654 14.2425C88.9056 13.9985 89.3587 13.7545 89.7247 13.5105C90.0907 13.2491 90.2736 12.9267 90.2736 12.5434H94.3254ZM94.247 5.77305V10.06H90.1952V5.77305H94.247Z" fill="black"/>
<path d="M107.22 19.1307C105.809 19.1307 104.528 18.8693 103.378 18.3465C102.228 17.8237 101.234 17.1179 100.398 16.2291C99.5788 15.3229 98.9427 14.3122 98.4896 13.1969C98.054 12.0641 97.8361 10.8965 97.8361 9.69407C97.8361 8.45677 98.0714 7.28047 98.5419 6.16515C99.0124 5.03241 99.6659 4.03037 100.502 3.15903C101.356 2.28769 102.358 1.59934 103.509 1.09396C104.676 0.571155 105.948 0.309753 107.325 0.309753C108.737 0.309753 110.017 0.579869 111.168 1.1201C112.318 1.66033 113.302 2.38354 114.121 3.28973C114.941 4.19593 115.568 5.21539 116.004 6.34813C116.457 7.46345 116.683 8.61361 116.683 9.79863C116.683 11.0185 116.448 12.1861 115.977 13.3014C115.524 14.4167 114.871 15.4188 114.017 16.3075C113.18 17.1789 112.187 17.8672 111.037 18.3726C109.887 18.878 108.615 19.1307 107.22 19.1307ZM107.273 14.6084C108.005 14.6084 108.641 14.469 109.181 14.1902C109.721 13.9114 110.157 13.5367 110.488 13.0662C110.837 12.5956 111.089 12.0728 111.246 11.4977C111.42 10.9052 111.507 10.304 111.507 9.69407C111.507 9.06671 111.42 8.46549 111.246 7.8904C111.072 7.29789 110.81 6.77509 110.462 6.32199C110.113 5.8689 109.669 5.51165 109.129 5.25025C108.588 4.97142 107.961 4.832 107.247 4.832C106.515 4.832 105.879 4.97142 105.338 5.25025C104.816 5.52907 104.38 5.90375 104.031 6.37427C103.683 6.8448 103.421 7.37631 103.247 7.96882C103.09 8.54391 103.012 9.13642 103.012 9.74636C103.012 10.3737 103.099 10.9749 103.273 11.55C103.448 12.1251 103.709 12.6479 104.057 13.1184C104.406 13.5715 104.842 13.9375 105.364 14.2163C105.905 14.4777 106.541 14.6084 107.273 14.6084ZM105.182 11.1579H109.939L117.154 19H112.396L105.182 11.1579Z" fill="black"/>
<path d="M127.47 19.1568C125.989 19.1568 124.716 18.9128 123.653 18.4249C122.59 17.9369 121.719 17.266 121.039 16.4121C120.377 15.5582 119.889 14.5823 119.576 13.4844C119.262 12.3691 119.105 11.2015 119.105 9.98162V0.440454H124.202V9.98162C124.202 10.5916 124.263 11.1754 124.385 11.733C124.507 12.2907 124.699 12.7873 124.96 13.223C125.222 13.6587 125.553 14.0072 125.954 14.2686C126.372 14.5126 126.877 14.6346 127.47 14.6346C128.08 14.6346 128.594 14.5126 129.012 14.2686C129.43 14.0072 129.762 13.6587 130.005 13.223C130.267 12.7699 130.459 12.2645 130.581 11.7069C130.703 11.1492 130.764 10.5741 130.764 9.98162V0.440454H135.861V9.98162C135.861 11.2712 135.687 12.4736 135.338 13.589C135.007 14.7043 134.502 15.6802 133.822 16.5167C133.142 17.3531 132.271 18.0066 131.208 18.4772C130.162 18.9303 128.916 19.1568 127.47 19.1568Z" fill="black"/>
<path d="M152.543 14.5561V19H139.316V0.440454H152.307V4.88428H144.413V7.4983H151.157V11.6284H144.413V14.5561H152.543Z" fill="black"/>
<path d="M178.246 0.440454V19H173.149V11.733H166.927V19H161.83V0.440454H166.927V7.28918H173.149V0.440454H178.246Z" fill="black"/>
<path d="M186.245 0.440454H191.943L197.851 19H192.675L191.551 15.3665H186.611L185.513 19H180.311L186.245 0.440454ZM190.741 11.9683L189.094 5.43323L187.369 11.9683H190.741Z" fill="black"/>
<path d="M18.5564 80.4256V99.5476H13.3046V92.0604H6.89464V99.5476H1.64282V80.4256H6.89464V87.4819H13.3046V80.4256H18.5564Z" fill="black"/>
<path d="M26.7977 80.4256H32.669L38.7557 99.5476H33.4231L32.265 95.804H27.1748L26.0436 99.5476H20.684L26.7977 80.4256ZM31.4301 92.3028L29.7333 85.5697L27.9558 92.3028H31.4301Z" fill="black"/>
<path d="M52.2537 86.6739C52.2537 86.6739 52.1011 86.5841 51.7958 86.4046C51.4906 86.225 51.0866 86.0275 50.5839 85.8121C50.0811 85.5786 49.5335 85.3722 48.941 85.1926C48.3485 85.0131 47.7649 84.9233 47.1904 84.9233C46.7415 84.9233 46.3734 84.9951 46.0862 85.1387C45.7989 85.2824 45.6552 85.5248 45.6552 85.8659C45.6552 86.1891 45.7989 86.4495 46.0862 86.647C46.3734 86.8445 46.7774 87.024 47.2981 87.1856C47.8368 87.3472 48.4742 87.5447 49.2103 87.7781C50.3953 88.1372 51.4188 88.5502 52.2806 89.017C53.1424 89.4838 53.8068 90.0853 54.2736 90.8215C54.7404 91.5397 54.9739 92.5003 54.9739 93.7033C54.9739 94.8524 54.7674 95.8219 54.3544 96.612C53.9414 97.384 53.3848 98.0035 52.6846 98.4703C51.9844 98.9371 51.2033 99.2783 50.3415 99.4937C49.4796 99.6912 48.5998 99.79 47.7021 99.79C46.7864 99.79 45.8258 99.7002 44.8203 99.5207C43.8328 99.3232 42.8722 99.0628 41.9386 98.7396C41.0049 98.3985 40.152 98.0035 39.38 97.5546L41.6423 92.9491C41.6423 92.9491 41.8219 93.0569 42.181 93.2723C42.54 93.4878 43.0159 93.7302 43.6084 93.9995C44.2009 94.2688 44.8562 94.5112 45.5744 94.7267C46.3106 94.9421 47.0467 95.0499 47.7829 95.0499C48.3575 95.0499 48.7525 94.9781 48.9679 94.8344C49.2013 94.6728 49.318 94.4663 49.318 94.215C49.318 93.8379 49.1205 93.5506 48.7255 93.3531C48.3305 93.1377 47.8098 92.9402 47.1634 92.7606C46.535 92.5631 45.8348 92.3387 45.0627 92.0873C43.9495 91.7103 43.0338 91.2883 42.3156 90.8215C41.5974 90.3367 41.0677 89.7711 40.7266 89.1247C40.3855 88.4604 40.2149 87.6614 40.2149 86.7278C40.2149 85.3093 40.5471 84.1243 41.2114 83.1727C41.8757 82.2211 42.7465 81.5029 43.8238 81.0181C44.9191 80.5153 46.0951 80.264 47.352 80.264C48.2856 80.264 49.1834 80.3807 50.0452 80.6141C50.925 80.8296 51.742 81.0989 52.4961 81.4221C53.2681 81.7453 53.9414 82.0505 54.516 82.3378L52.2537 86.6739Z" fill="black"/>
<path d="M72.7274 85.0041H67.2332V99.5476H61.9813V85.0041H56.4602V80.4256H72.7274V85.0041Z" fill="black"/>
<path d="M77.8336 80.4256H83.7048L89.7916 99.5476H84.459L83.3009 95.804H78.2106L77.0795 99.5476H71.7199L77.8336 80.4256ZM82.466 92.3028L80.7692 85.5697L78.9917 92.3028H82.466Z" fill="black"/>
<path d="M106.812 81.174H117.771L129.132 116.865H119.178L117.017 109.878H107.516L105.404 116.865H95.4006L106.812 81.174ZM115.458 103.343L112.291 90.7755L108.973 103.343H115.458Z" fill="black"/>
<path d="M164.672 81.174V116.865H154.869V102.89H142.905V116.865H133.102V81.174H142.905V94.3447H154.869V81.174H164.672Z" fill="black"/>
<path d="M187.896 117.167C185.182 117.167 182.718 116.664 180.507 115.659C178.295 114.62 176.385 113.246 174.776 111.537C173.201 109.794 171.978 107.85 171.106 105.706C170.268 103.527 169.849 101.282 169.849 98.9695C169.849 96.59 170.302 94.3279 171.207 92.1831C172.112 90.0382 173.368 88.128 174.977 86.4523C176.619 84.7432 178.546 83.4027 180.758 82.4308C183.003 81.4589 185.45 80.973 188.097 80.973C190.812 80.973 193.275 81.4924 195.487 82.5313C197.699 83.5367 199.592 84.9107 201.167 86.6534C202.743 88.3961 203.949 90.3566 204.787 92.535C205.658 94.6798 206.094 96.8917 206.094 99.1705C206.094 101.516 205.641 103.762 204.737 105.907C203.865 108.052 202.608 109.979 200.966 111.688C199.358 113.363 197.447 114.704 195.236 115.709C193.024 116.681 190.577 117.167 187.896 117.167ZM179.803 99.07C179.803 100.276 179.97 101.449 180.306 102.589C180.641 103.695 181.143 104.7 181.814 105.605C182.484 106.476 183.322 107.18 184.327 107.716C185.366 108.219 186.589 108.47 187.997 108.47C189.404 108.47 190.628 108.202 191.666 107.666C192.705 107.13 193.543 106.409 194.18 105.505C194.85 104.566 195.336 103.544 195.638 102.438C195.973 101.299 196.14 100.142 196.14 98.9695C196.14 97.763 195.973 96.6068 195.638 95.5009C195.303 94.3949 194.8 93.4063 194.13 92.535C193.459 91.6301 192.605 90.9263 191.566 90.4236C190.527 89.9209 189.321 89.6696 187.947 89.6696C186.539 89.6696 185.316 89.9377 184.277 90.4739C183.271 91.0101 182.434 91.7307 181.763 92.6355C181.093 93.5068 180.59 94.5122 180.255 95.6517C179.954 96.7576 179.803 97.8971 179.803 99.07Z" fill="black"/>
<path d="M211.254 116.865V81.174H227.642C229.384 81.174 230.993 81.5259 232.468 82.2297C233.942 82.9335 235.216 83.8886 236.288 85.0951C237.361 86.268 238.182 87.5918 238.751 89.0664C239.355 90.5409 239.656 92.0323 239.656 93.5404C239.656 94.9144 239.455 96.2382 239.053 97.5117C238.651 98.7851 238.064 99.9581 237.294 101.031C236.523 102.069 235.601 102.974 234.529 103.745L242.069 116.865H231.311L225.028 105.907H221.056V116.865H211.254ZM221.056 97.3608H227.24C227.642 97.3608 228.027 97.21 228.396 96.9084C228.764 96.6068 229.066 96.1711 229.301 95.6014C229.569 95.0317 229.703 94.3447 229.703 93.5404C229.703 92.7025 229.552 92.0155 229.25 91.4793C228.982 90.9096 228.63 90.4739 228.195 90.1723C227.793 89.8707 227.39 89.7199 226.988 89.7199H221.056V97.3608Z" fill="black"/>
<path d="M254.426 81.174H265.384L276.745 116.865H266.792L264.63 109.878H255.129L253.018 116.865H243.014L254.426 81.174ZM263.072 103.343L259.905 90.7755L256.587 103.343H263.072Z" fill="black"/>
<path d="M282.425 103.846C282.425 102.874 282.492 101.952 282.626 101.081C282.794 100.209 283.163 99.3884 283.732 98.6176C284.302 97.8133 285.19 97.0927 286.397 96.456C286.765 96.2549 287.285 95.9868 287.955 95.6517C288.659 95.3165 289.363 94.9144 290.066 94.4452C290.77 93.976 291.357 93.4566 291.826 92.8869C292.328 92.2836 292.58 91.6301 292.58 90.9263C292.58 90.4236 292.429 89.988 292.127 89.6193C291.859 89.2172 291.491 88.9156 291.021 88.7145C290.586 88.5134 290.1 88.4129 289.564 88.4129C288.759 88.4129 288.089 88.6139 287.553 89.0161C287.05 89.3847 286.631 89.8204 286.296 90.3231C285.995 90.7923 285.71 91.1944 285.442 91.5296L279.359 87.2064C279.929 85.8324 280.733 84.6762 281.772 83.7378C282.811 82.7659 284.017 82.0286 285.391 81.5259C286.799 80.9897 288.307 80.7216 289.916 80.7216C291.189 80.7216 292.463 80.9059 293.736 81.2746C295.043 81.6432 296.233 82.2297 297.305 83.034C298.378 83.8383 299.232 84.894 299.869 86.201C300.539 87.508 300.874 89.0999 300.874 90.9766C300.874 91.7809 300.807 92.5517 300.673 93.289C300.539 94.0263 300.305 94.7301 299.969 95.4003C299.668 96.0371 299.249 96.6571 298.713 97.2603C298.21 97.83 297.59 98.3662 296.853 98.8689C295.881 99.5392 294.875 100.109 293.837 100.578C292.831 101.047 291.977 101.533 291.273 102.036C290.569 102.505 290.217 103.108 290.217 103.846H282.425ZM282.576 116.865V108.621H290.368V116.865H282.576Z" fill="black"/>
<path d="M24.5477 68.3235C21.6355 68.3235 18.9928 67.7842 16.6199 66.7056C14.2469 65.591 12.1975 64.1169 10.4718 62.2833C8.78192 60.4137 7.4696 58.3283 6.5348 56.0273C5.63595 53.6903 5.18652 51.2814 5.18652 48.8006C5.18652 46.2478 5.6719 43.8209 6.64266 41.5199C7.61341 39.2188 8.96169 37.1695 10.6875 35.3718C12.4492 33.5381 14.5166 32.0999 16.8895 31.0573C19.2984 30.0146 21.9231 29.4933 24.7634 29.4933C27.6757 29.4933 30.3183 30.0506 32.6913 31.1651C35.0642 32.2438 37.0956 33.7179 38.7855 35.5875C40.4753 37.4571 41.7697 39.5604 42.6685 41.8974C43.6033 44.1984 44.0707 46.5714 44.0707 49.0163C44.0707 51.5331 43.5853 53.942 42.6146 56.243C41.6798 58.5441 40.3315 60.6114 38.5698 62.4451C36.844 64.2428 34.7946 65.6809 32.4216 66.7595C30.0487 67.8022 27.424 68.3235 24.5477 68.3235ZM15.8648 48.9084C15.8648 50.2028 16.0446 51.4611 16.4042 52.6836C16.7637 53.8701 17.303 54.9487 18.0221 55.9194C18.7412 56.8542 19.64 57.6093 20.7186 58.1845C21.8332 58.7238 23.1455 58.9935 24.6556 58.9935C26.1656 58.9935 27.478 58.7059 28.5925 58.1306C29.7071 57.5553 30.606 56.7823 31.2891 55.8116C32.0082 54.8049 32.5295 53.7083 32.8531 52.5218C33.2126 51.2994 33.3924 50.0589 33.3924 48.8006C33.3924 47.5062 33.2126 46.2658 32.8531 45.0793C32.4935 43.8928 31.9542 42.8322 31.2352 41.8974C30.5161 40.9266 29.5992 40.1716 28.4847 39.6323C27.3701 39.093 26.0758 38.8233 24.6017 38.8233C23.0916 38.8233 21.7793 39.111 20.6647 39.6862C19.5861 40.2615 18.6872 41.0345 17.9681 42.0053C17.2491 42.9401 16.7098 44.0187 16.3502 45.2411C16.0266 46.4276 15.8648 47.65 15.8648 48.9084Z" fill="black"/>
<path d="M47.5033 48.5309C47.5033 46.1939 47.9348 43.9108 48.7977 41.6817C49.6965 39.4166 50.9909 37.3672 52.6807 35.5335C54.3705 33.6999 56.4199 32.2438 58.8288 31.1651C61.2737 30.0506 64.0242 29.4933 67.0802 29.4933C70.7475 29.4933 73.9475 30.2663 76.68 31.8123C79.4125 33.3224 81.4439 35.3358 82.7741 37.8526L74.7384 43.5693C74.271 42.3109 73.5879 41.3401 72.6891 40.657C71.8262 39.9739 70.8734 39.5065 69.8307 39.2548C68.824 38.9672 67.8353 38.8233 66.8645 38.8233C65.3545 38.8233 64.0421 39.1289 62.9276 39.7402C61.8489 40.3154 60.9501 41.0884 60.231 42.0592C59.5479 43.0299 59.0266 44.1086 58.667 45.295C58.3434 46.4815 58.1816 47.668 58.1816 48.8545C58.1816 50.1848 58.3794 51.4611 58.7749 52.6836C59.1704 53.906 59.7456 55.0026 60.5007 55.9734C61.2557 56.9082 62.1725 57.6452 63.2512 58.1845C64.3657 58.7238 65.6061 58.9935 66.9724 58.9935C67.9431 58.9935 68.9319 58.8497 69.9386 58.562C70.9453 58.2385 71.8621 57.7351 72.6891 57.052C73.516 56.3689 74.1452 55.452 74.5766 54.3015L83.1517 59.4249C82.3966 61.2945 81.1382 62.8945 79.3765 64.2248C77.6148 65.5551 75.6193 66.5798 73.3902 67.2989C71.161 67.982 68.9499 68.3235 66.7567 68.3235C63.9163 68.3235 61.3096 67.7663 58.9367 66.6517C56.5997 65.5012 54.5683 63.9911 52.8425 62.1215C51.1526 60.2159 49.8403 58.0946 48.9055 55.7576C47.9707 53.3847 47.5033 50.9758 47.5033 48.5309Z" fill="black"/>
<path d="M104.692 68.3235C101.636 68.3235 99.0113 67.8202 96.8181 66.8135C94.6249 65.8068 92.8272 64.4225 91.425 62.6608C90.0587 60.8991 89.052 58.8856 88.4049 56.6205C87.7577 54.3195 87.4341 51.9106 87.4341 49.3938V29.709H97.9506V49.3938C97.9506 50.6522 98.0765 51.8566 98.3282 53.0072C98.5798 54.1577 98.9753 55.1824 99.5146 56.0812C100.054 56.9801 100.737 57.6992 101.564 58.2385C102.427 58.7418 103.47 58.9935 104.692 58.9935C105.95 58.9935 107.011 58.7418 107.874 58.2385C108.737 57.6992 109.42 56.9801 109.923 56.0812C110.463 55.1464 110.858 54.1038 111.11 52.9532C111.361 51.8027 111.487 50.6162 111.487 49.3938V29.709H122.004V49.3938C122.004 52.0544 121.644 54.5352 120.925 56.8363C120.242 59.1373 119.199 61.1507 117.797 62.8765C116.395 64.6023 114.597 65.9506 112.404 66.9213C110.247 67.8561 107.676 68.3235 104.692 68.3235Z" fill="black"/>
<path d="M129.132 68V29.709H146.713C148.583 29.709 150.308 30.0865 151.89 30.8416C153.472 31.5966 154.839 32.6213 155.989 33.9156C157.14 35.174 158.021 36.5942 158.632 38.1762C159.279 39.7581 159.603 41.3581 159.603 42.976C159.603 44.4501 159.387 45.8703 158.955 47.2366C158.524 48.6028 157.895 49.8612 157.068 51.0117C156.241 52.1263 155.252 53.0971 154.102 53.924L162.191 68H150.65L143.909 56.243H139.648V68H129.132ZM139.648 47.0748H146.282C146.713 47.0748 147.126 46.913 147.522 46.5894C147.917 46.2658 148.241 45.7984 148.493 45.1872C148.78 44.576 148.924 43.8389 148.924 42.976C148.924 42.0772 148.762 41.3401 148.439 40.7648C148.151 40.1536 147.774 39.6862 147.306 39.3626C146.875 39.0391 146.443 38.8773 146.012 38.8773H139.648V47.0748Z" fill="black"/>
<path d="M166.603 68V29.709H184.184C186.054 29.709 187.78 30.0865 189.362 30.8416C190.944 31.5966 192.31 32.6213 193.461 33.9156C194.611 35.174 195.492 36.5942 196.103 38.1762C196.75 39.7581 197.074 41.3581 197.074 42.976C197.074 44.4501 196.858 45.8703 196.427 47.2366C195.995 48.6028 195.366 49.8612 194.539 51.0117C193.712 52.1263 192.724 53.0971 191.573 53.924L199.663 68H188.121L181.38 56.243H177.12V68H166.603ZM177.12 47.0748H183.753C184.184 47.0748 184.598 46.913 184.993 46.5894C185.389 46.2658 185.713 45.7984 185.964 45.1872C186.252 44.576 186.396 43.8389 186.396 42.976C186.396 42.0772 186.234 41.3401 185.91 40.7648C185.623 40.1536 185.245 39.6862 184.778 39.3626C184.346 39.0391 183.915 38.8773 183.483 38.8773H177.12V47.0748Z" fill="black"/>
<path d="M204.074 68V29.709H214.591V68H204.074Z" fill="black"/>
<path d="M222.27 68V29.709H236.993C241.236 29.709 244.777 30.5719 247.617 32.2977C250.494 33.9875 252.651 36.2886 254.089 39.2009C255.563 42.0772 256.3 45.2771 256.3 48.8006C256.3 52.6836 255.491 56.0632 253.873 58.9396C252.291 61.8159 250.044 64.045 247.132 65.627C244.256 67.209 240.876 68 236.993 68H222.27ZM245.622 48.8006C245.622 46.8231 245.28 45.0973 244.597 43.6232C243.914 42.1131 242.925 40.9446 241.631 40.1177C240.337 39.2907 238.791 38.8773 236.993 38.8773H232.786V58.8317H236.993C238.827 58.8317 240.373 58.4003 241.631 57.5374C242.925 56.6745 243.914 55.488 244.597 53.9779C245.28 52.4319 245.622 50.7061 245.622 48.8006Z" fill="black"/>
<path d="M279.211 68.3235C276.299 68.3235 273.656 67.7842 271.283 66.7056C268.91 65.591 266.861 64.1169 265.135 62.2833C263.445 60.4137 262.133 58.3283 261.198 56.0273C260.299 53.6903 259.85 51.2814 259.85 48.8006C259.85 46.2478 260.335 43.8209 261.306 41.5199C262.277 39.2188 263.625 37.1695 265.351 35.3718C267.113 33.5381 269.18 32.0999 271.553 31.0573C273.962 30.0146 276.587 29.4933 279.427 29.4933C282.339 29.4933 284.982 30.0506 287.355 31.1651C289.728 32.2438 291.759 33.7179 293.449 35.5875C295.139 37.4571 296.433 39.5604 297.332 41.8974C298.267 44.1984 298.734 46.5714 298.734 49.0163C298.734 51.5331 298.249 53.942 297.278 56.243C296.343 58.5441 294.995 60.6114 293.233 62.4451C291.507 64.2428 289.458 65.6809 287.085 66.7595C284.712 67.8022 282.087 68.3235 279.211 68.3235ZM270.528 48.9084C270.528 50.2028 270.708 51.4611 271.068 52.6836C271.427 53.8701 271.966 54.9487 272.686 55.9194C273.405 56.8542 274.303 57.6093 275.382 58.1845C276.497 58.7238 277.809 58.9935 279.319 58.9935C280.829 58.9935 282.141 58.7059 283.256 58.1306C284.371 57.5553 285.269 56.7823 285.953 55.8116C286.672 54.8049 287.193 53.7083 287.517 52.5218C287.876 51.2994 288.056 50.0589 288.056 48.8006C288.056 47.5062 287.876 46.2658 287.517 45.0793C287.157 43.8928 286.618 42.8322 285.899 41.8974C285.18 40.9266 284.263 40.1716 283.148 39.6323C282.034 39.093 280.739 38.8233 279.265 38.8233C277.755 38.8233 276.443 39.111 275.328 39.6862C274.25 40.2615 273.351 41.0345 272.632 42.0053C271.912 42.9401 271.373 44.0187 271.014 45.2411C270.69 46.4276 270.528 47.65 270.528 48.9084Z" fill="black"/>
<rect y="106.614" width="87.9797" height="8.39876" fill="#AB47BC"/>
</svg>
