<svg width="337" height="104" viewBox="0 0 337 104" fill="none" xmlns="http://www.w3.org/2000/svg">
<path d="M45.6355 31V0.325382H59.7199C61.2176 0.325382 62.6001 0.627809 63.8674 1.23266C65.1347 1.83751 66.2292 2.65838 67.1509 3.69527C68.0726 4.70335 68.7782 5.84105 69.2679 7.10835C69.7863 8.37566 70.0455 9.65737 70.0455 10.9535C70.0455 12.1344 69.8727 13.2721 69.5271 14.3666C69.1815 15.4611 68.6774 16.4691 68.015 17.3908C67.3525 18.2837 66.5605 19.0614 65.6388 19.7238L72.1193 31H62.8737L57.4733 21.5816H54.0602V31H45.6355ZM54.0602 14.2369H59.3742C59.7199 14.2369 60.0511 14.1073 60.3679 13.8481C60.6848 13.5889 60.944 13.2145 61.1456 12.7248C61.376 12.2352 61.4912 11.6447 61.4912 10.9535C61.4912 10.2334 61.3616 9.64296 61.1024 9.18213C60.872 8.69248 60.5695 8.31805 60.1951 8.05883C59.8495 7.79961 59.5039 7.67 59.1582 7.67H54.0602V14.2369Z" fill="black"/>
<path d="M97.5146 23.6553V31H75.6536V0.325382H97.1258V7.67H84.0783V11.9904H95.2248V18.8165H84.0783V23.6553H97.5146Z" fill="black"/>
<path d="M100.147 15.4034C100.147 13.5313 100.493 11.7023 101.184 9.91659C101.904 8.10204 102.941 6.4603 104.295 4.99137C105.649 3.52245 107.29 2.35595 109.22 1.49188C111.179 0.599005 113.382 0.152568 115.83 0.152568C118.768 0.152568 121.332 0.77182 123.52 2.01033C125.709 3.22003 127.337 4.83296 128.402 6.84913L121.965 11.4287C121.591 10.4206 121.043 9.64296 120.323 9.09572C119.632 8.54847 118.869 8.17404 118.034 7.97242C117.227 7.742 116.435 7.6268 115.657 7.6268C114.448 7.6268 113.396 7.87162 112.504 8.36126C111.639 8.8221 110.919 9.44135 110.343 10.219C109.796 10.9967 109.379 11.8607 109.09 12.8112C108.831 13.7617 108.702 14.7122 108.702 15.6627C108.702 16.7284 108.86 17.7508 109.177 18.7301C109.494 19.7094 109.955 20.5879 110.559 21.3655C111.164 22.1144 111.899 22.7049 112.763 23.1369C113.656 23.5689 114.649 23.785 115.744 23.785C116.522 23.785 117.314 23.6697 118.12 23.4393C118.927 23.1801 119.661 22.7769 120.323 22.2296C120.986 21.6824 121.49 20.9479 121.836 20.0262L128.705 24.1306C128.1 25.6283 127.092 26.91 125.681 27.9757C124.269 29.0414 122.671 29.8623 120.885 30.4383C119.099 30.9856 117.328 31.2592 115.571 31.2592C113.296 31.2592 111.207 30.8127 109.306 29.9199C107.434 28.9982 105.807 27.7885 104.424 26.2908C103.071 24.7642 102.019 23.0649 101.271 21.1927C100.522 19.2918 100.147 17.362 100.147 15.4034Z" fill="black"/>
<path d="M145.961 31.2592C143.513 31.2592 141.41 30.8559 139.653 30.0495C137.896 29.243 136.456 28.1341 135.333 26.7228C134.238 25.3115 133.432 23.6985 132.913 21.884C132.395 20.0406 132.136 18.1109 132.136 16.0947V0.325382H140.56V16.0947C140.56 17.1028 140.661 18.0677 140.863 18.9893C141.064 19.911 141.381 20.7319 141.813 21.452C142.245 22.172 142.792 22.7481 143.455 23.1801C144.146 23.5833 144.981 23.785 145.961 23.785C146.969 23.785 147.818 23.5833 148.51 23.1801C149.201 22.7481 149.748 22.172 150.151 21.452C150.584 20.7031 150.9 19.8678 151.102 18.9461C151.304 18.0245 151.404 17.074 151.404 16.0947V0.325382H159.829V16.0947C159.829 18.2261 159.541 20.2134 158.965 22.0568C158.418 23.9002 157.582 25.5131 156.459 26.8956C155.336 28.2781 153.896 29.3582 152.139 30.1359C150.411 30.8847 148.351 31.2592 145.961 31.2592Z" fill="black"/>
<path d="M165.539 31V0.325382H179.623C181.121 0.325382 182.504 0.627809 183.771 1.23266C185.038 1.83751 186.133 2.65838 187.054 3.69527C187.976 4.70335 188.682 5.84105 189.171 7.10835C189.69 8.37566 189.949 9.65737 189.949 10.9535C189.949 12.1344 189.776 13.2721 189.431 14.3666C189.085 15.4611 188.581 16.4691 187.919 17.3908C187.256 18.2837 186.464 19.0614 185.542 19.7238L192.023 31H182.777L177.377 21.5816H173.964V31H165.539ZM173.964 14.2369H179.278C179.623 14.2369 179.955 14.1073 180.271 13.8481C180.588 13.5889 180.848 13.2145 181.049 12.7248C181.28 12.2352 181.395 11.6447 181.395 10.9535C181.395 10.2334 181.265 9.64296 181.006 9.18213C180.776 8.69248 180.473 8.31805 180.099 8.05883C179.753 7.79961 179.407 7.67 179.062 7.67H173.964V14.2369Z" fill="black"/>
<path d="M214.135 10.3486C214.135 10.3486 213.89 10.2046 213.4 9.91659C212.911 9.62856 212.263 9.31174 211.456 8.96611C210.65 8.59168 209.771 8.26045 208.821 7.97242C207.87 7.6844 206.934 7.54039 206.012 7.54039C205.292 7.54039 204.702 7.6556 204.241 7.88602C203.78 8.11644 203.55 8.50527 203.55 9.05252C203.55 9.57096 203.78 9.98859 204.241 10.3054C204.702 10.6222 205.35 10.9103 206.185 11.1695C207.049 11.4287 208.072 11.7455 209.253 12.12C211.154 12.696 212.795 13.3585 214.178 14.1073C215.56 14.8562 216.626 15.8211 217.375 17.002C218.124 18.1541 218.498 19.695 218.498 21.6248C218.498 23.4681 218.167 25.0235 217.505 26.2908C216.842 27.5293 215.949 28.5229 214.826 29.2718C213.703 30.0207 212.45 30.5679 211.067 30.9135C209.685 31.2304 208.273 31.3888 206.833 31.3888C205.364 31.3888 203.823 31.2448 202.21 30.9567C200.626 30.6399 199.085 30.2223 197.588 29.7038C196.09 29.1566 194.722 28.5229 193.483 27.8029L197.112 20.4151C197.112 20.4151 197.4 20.5879 197.977 20.9335C198.553 21.2791 199.316 21.668 200.266 22.1C201.217 22.532 202.268 22.9209 203.42 23.2665C204.601 23.6121 205.782 23.785 206.963 23.785C207.885 23.785 208.518 23.6697 208.864 23.4393C209.238 23.1801 209.425 22.8489 209.425 22.4456C209.425 21.8408 209.109 21.3799 208.475 21.0631C207.841 20.7175 207.006 20.4007 205.969 20.1126C204.961 19.7958 203.838 19.4358 202.599 19.0326C200.814 18.4277 199.345 17.7508 198.193 17.002C197.04 16.2243 196.191 15.317 195.644 14.2802C195.096 13.2145 194.823 11.9328 194.823 10.435C194.823 8.15964 195.356 6.25868 196.421 4.73215C197.487 3.20562 198.884 2.05353 200.612 1.27586C202.369 0.469395 204.255 0.0661621 206.272 0.0661621C207.769 0.0661621 209.209 0.253378 210.592 0.62781C212.003 0.973437 213.314 1.40547 214.524 1.92392C215.762 2.44236 216.842 2.932 217.764 3.39284L214.135 10.3486Z" fill="black"/>
<path d="M236.911 31.2592C234.578 31.2592 232.461 30.8271 230.56 29.9631C228.659 29.0702 227.017 27.8893 225.635 26.4204C224.281 24.9226 223.23 23.2521 222.481 21.4088C221.761 19.5366 221.401 17.6068 221.401 15.6195C221.401 13.5745 221.79 11.6303 222.567 9.78698C223.345 7.94362 224.425 6.30189 225.808 4.86176C227.219 3.39284 228.875 2.24074 230.776 1.40547C232.706 0.570202 234.809 0.152568 237.084 0.152568C239.417 0.152568 241.534 0.599005 243.435 1.49188C245.336 2.35595 246.963 3.53685 248.317 5.03458C249.671 6.5323 250.707 8.21725 251.428 10.0894C252.176 11.9328 252.551 13.8337 252.551 15.7923C252.551 17.8084 252.162 19.7382 251.384 21.5816C250.635 23.4249 249.555 25.0811 248.144 26.55C246.762 27.9901 245.12 29.1422 243.219 30.0063C241.318 30.8415 239.215 31.2592 236.911 31.2592ZM229.955 15.7059C229.955 16.7428 230.099 17.7508 230.387 18.7301C230.675 19.6806 231.107 20.5447 231.683 21.3223C232.26 22.0712 232.98 22.6761 233.844 23.1369C234.737 23.5689 235.788 23.785 236.997 23.785C238.207 23.785 239.258 23.5545 240.151 23.0937C241.044 22.6329 241.764 22.0136 242.312 21.2359C242.888 20.4295 243.305 19.551 243.564 18.6005C243.852 17.6212 243.996 16.6276 243.996 15.6195C243.996 14.5826 243.852 13.5889 243.564 12.6384C243.276 11.6879 242.844 10.8383 242.268 10.0894C241.692 9.31174 240.958 8.70689 240.065 8.27485C239.172 7.84281 238.135 7.6268 236.954 7.6268C235.745 7.6268 234.693 7.85722 233.8 8.31805C232.936 8.77889 232.216 9.39814 231.64 10.1758C231.064 10.9247 230.632 11.7887 230.344 12.768C230.085 13.7185 229.955 14.6978 229.955 15.7059Z" fill="black"/>
<path d="M275.31 10.3486C275.31 10.3486 275.065 10.2046 274.576 9.91659C274.086 9.62856 273.438 9.31174 272.631 8.96611C271.825 8.59168 270.946 8.26045 269.996 7.97242C269.045 7.6844 268.109 7.54039 267.188 7.54039C266.468 7.54039 265.877 7.6556 265.416 7.88602C264.956 8.11644 264.725 8.50527 264.725 9.05252C264.725 9.57096 264.956 9.98859 265.416 10.3054C265.877 10.6222 266.525 10.9103 267.361 11.1695C268.225 11.4287 269.247 11.7455 270.428 12.12C272.329 12.696 273.971 13.3585 275.353 14.1073C276.736 14.8562 277.801 15.8211 278.55 17.002C279.299 18.1541 279.674 19.695 279.674 21.6248C279.674 23.4681 279.342 25.0235 278.68 26.2908C278.017 27.5293 277.125 28.5229 276.001 29.2718C274.878 30.0207 273.625 30.5679 272.243 30.9135C270.86 31.2304 269.449 31.3888 268.009 31.3888C266.54 31.3888 264.999 31.2448 263.386 30.9567C261.802 30.6399 260.261 30.2223 258.763 29.7038C257.265 29.1566 255.897 28.5229 254.659 27.8029L258.288 20.4151C258.288 20.4151 258.576 20.5879 259.152 20.9335C259.728 21.2791 260.491 21.668 261.442 22.1C262.392 22.532 263.443 22.9209 264.595 23.2665C265.776 23.6121 266.957 23.785 268.138 23.785C269.06 23.785 269.694 23.6697 270.039 23.4393C270.414 23.1801 270.601 22.8489 270.601 22.4456C270.601 21.8408 270.284 21.3799 269.65 21.0631C269.017 20.7175 268.181 20.4007 267.145 20.1126C266.136 19.7958 265.013 19.4358 263.775 19.0326C261.989 18.4277 260.52 17.7508 259.368 17.002C258.216 16.2243 257.366 15.317 256.819 14.2802C256.272 13.2145 255.998 11.9328 255.998 10.435C255.998 8.15964 256.531 6.25868 257.597 4.73215C258.662 3.20562 260.059 2.05353 261.787 1.27586C263.544 0.469395 265.431 0.0661621 267.447 0.0661621C268.945 0.0661621 270.385 0.253378 271.767 0.62781C273.179 0.973437 274.489 1.40547 275.699 1.92392C276.937 2.44236 278.017 2.932 278.939 3.39284L275.31 10.3486Z" fill="black"/>
<path d="M1.43921 57.5573V40.8052H8.65913C9.47708 40.8052 10.2321 40.9703 10.9242 41.3007C11.6163 41.631 12.214 42.0793 12.7174 42.6455C13.2207 43.1961 13.6061 43.8174 13.8735 44.5095C14.1567 45.2016 14.2982 45.9016 14.2982 46.6094C14.2982 47.6004 14.0623 48.5363 13.5904 49.4172C13.1342 50.298 12.4893 51.0216 11.6556 51.5879C10.8377 52.1384 9.87818 52.4137 8.7771 52.4137H6.04014V57.5573H1.43921ZM6.04014 48.4026H8.47038C8.65913 48.4026 8.84002 48.3476 9.01305 48.2375C9.18608 48.1273 9.32764 47.9386 9.43775 47.6712C9.56359 47.4038 9.62651 47.0499 9.62651 46.6094C9.62651 46.1375 9.55572 45.7758 9.41416 45.5241C9.28832 45.2567 9.12316 45.0758 8.91867 44.9814C8.72992 44.8713 8.54116 44.8162 8.3524 44.8162H6.04014V48.4026Z" fill="black"/>
<path d="M19.2599 40.8052H24.4035L29.7359 57.5573H25.0641L24.0496 54.2776H19.5902L18.5992 57.5573H13.9039L19.2599 40.8052ZM23.3181 51.2104L21.8317 45.3117L20.2745 51.2104H23.3181Z" fill="black"/>
<path d="M31.5996 57.5573V40.8052H39.2915C40.1094 40.8052 40.8644 40.9703 41.5565 41.3007C42.2486 41.631 42.8464 42.0793 43.3497 42.6455C43.8531 43.1961 44.2384 43.8174 44.5058 44.5095C44.789 45.2016 44.9305 45.9016 44.9305 46.6094C44.9305 47.2543 44.8362 47.8757 44.6474 48.4734C44.4587 49.0711 44.1834 49.6217 43.8216 50.125C43.4598 50.6126 43.0273 51.0373 42.5239 51.3991L46.0631 57.5573H41.0139L38.0645 52.4137H36.2006V57.5573H31.5996ZM36.2006 48.4026H39.1027C39.2915 48.4026 39.4723 48.3318 39.6454 48.1903C39.8184 48.0487 39.96 47.8442 40.0701 47.5768C40.1959 47.3094 40.2588 46.9869 40.2588 46.6094C40.2588 46.2162 40.188 45.8937 40.0465 45.6421C39.9206 45.3746 39.7555 45.1702 39.551 45.0286C39.3622 44.887 39.1735 44.8162 38.9847 44.8162H36.2006V48.4026Z" fill="black"/>
<path d="M51.8627 40.8052H57.0063L62.3387 57.5573H57.667L56.6524 54.2776H52.193L51.2021 57.5573H46.5068L51.8627 40.8052ZM55.921 51.2104L54.4345 45.3117L52.8773 51.2104H55.921Z" fill="black"/>
<path d="M24.6611 92.1498C24.6611 90.8474 24.9016 89.575 25.3825 88.3327C25.8834 87.0704 26.6047 85.9283 27.5465 84.9063C28.4882 83.8844 29.6304 83.0729 30.9729 82.4718C32.3354 81.8507 33.8682 81.5401 35.5714 81.5401C37.6152 81.5401 39.3985 81.9709 40.9214 82.8325C42.4442 83.6741 43.5763 84.7961 44.3177 86.1988L39.8393 89.3847C39.5789 88.6834 39.1982 88.1424 38.6972 87.7617C38.2163 87.381 37.6853 87.1205 37.1043 86.9802C36.5432 86.8199 35.9922 86.7398 35.4512 86.7398C34.6096 86.7398 33.8783 86.9101 33.2571 87.2507C32.656 87.5713 32.1551 88.0021 31.7543 88.5431C31.3736 89.0841 31.0831 89.6852 30.8827 90.3465C30.7024 91.0077 30.6122 91.6689 30.6122 92.3302C30.6122 93.0715 30.7224 93.7829 30.9428 94.4641C31.1632 95.1454 31.4838 95.7565 31.9046 96.2975C32.3254 96.8185 32.8363 97.2293 33.4374 97.5298C34.0586 97.8304 34.7499 97.9807 35.5113 97.9807C36.0523 97.9807 36.6033 97.9005 37.1644 97.7402C37.7254 97.5599 38.2364 97.2794 38.6972 96.8986C39.1581 96.5179 39.5087 96.007 39.7492 95.3658L44.5281 98.2211C44.1073 99.263 43.406 100.155 42.4242 100.896C41.4423 101.637 40.3303 102.209 39.088 102.609C37.8456 102.99 36.6134 103.18 35.3911 103.18C33.8081 103.18 32.3554 102.87 31.033 102.249C29.7306 101.607 28.5985 100.766 27.6367 99.7239C26.6949 98.6619 25.9636 97.4797 25.4426 96.1773C24.9216 94.8548 24.6611 93.5123 24.6611 92.1498Z" fill="black"/>
<path d="M56.5103 103.18C54.8872 103.18 53.4145 102.88 52.092 102.279C50.7696 101.657 49.6275 100.836 48.6657 99.8141C47.7239 98.7721 46.9926 97.61 46.4716 96.3276C45.9707 95.0252 45.7202 93.6827 45.7202 92.3001C45.7202 90.8774 45.9907 89.5249 46.5317 88.2426C47.0727 86.9602 47.8241 85.818 48.7859 84.8162C49.7677 83.7943 50.9199 82.9928 52.2423 82.4117C53.5848 81.8306 55.0475 81.5401 56.6305 81.5401C58.2535 81.5401 59.7262 81.8507 61.0487 82.4718C62.3712 83.0729 63.5033 83.8945 64.445 84.9364C65.3868 85.9783 66.1081 87.1505 66.609 88.4529C67.13 89.7353 67.3905 91.0578 67.3905 92.4203C67.3905 93.8229 67.12 95.1654 66.579 96.4478C66.058 97.7302 65.3066 98.8823 64.3248 99.9042C63.363 100.906 62.2209 101.708 60.8984 102.309C59.576 102.89 58.1132 103.18 56.5103 103.18ZM51.6713 92.3602C51.6713 93.0815 51.7715 93.7829 51.9718 94.4641C52.1722 95.1253 52.4728 95.7265 52.8735 96.2675C53.2742 96.7884 53.7752 97.2092 54.3763 97.5298C54.9975 97.8304 55.7288 97.9807 56.5704 97.9807C57.4119 97.9807 58.1433 97.8204 58.7645 97.4998C59.3856 97.1792 59.8865 96.7484 60.2673 96.2074C60.668 95.6463 60.9585 95.0352 61.1389 94.374C61.3392 93.6927 61.4394 93.0014 61.4394 92.3001C61.4394 91.5788 61.3392 90.8875 61.1389 90.2262C60.9385 89.565 60.6379 88.9739 60.2372 88.4529C59.8364 87.9119 59.3255 87.4912 58.7043 87.1906C58.0832 86.89 57.3618 86.7398 56.5403 86.7398C55.6988 86.7398 54.9674 86.9001 54.3462 87.2207C53.7451 87.5412 53.2442 87.972 52.8434 88.5131C52.4427 89.034 52.1421 89.6351 51.9418 90.3164C51.7614 90.9776 51.6713 91.6589 51.6713 92.3602Z" fill="black"/>
<path d="M76.3366 92.5105V103H70.4757V81.6603H75.0442L83.6101 92.5105V81.6603H89.471V103H84.8123L76.3366 92.5105Z" fill="black"/>
<path d="M106.66 88.6333C106.66 88.6333 106.49 88.5331 106.149 88.3327C105.809 88.1323 105.358 87.9119 104.797 87.6715C104.236 87.411 103.624 87.1806 102.963 86.9802C102.302 86.7798 101.651 86.6796 101.01 86.6796C100.509 86.6796 100.098 86.7598 99.7773 86.9201C99.4567 87.0804 99.2964 87.3509 99.2964 87.7316C99.2964 88.0923 99.4567 88.3828 99.7773 88.6032C100.098 88.8236 100.549 89.024 101.13 89.2043C101.731 89.3847 102.442 89.6051 103.264 89.8656C104.586 90.2663 105.728 90.7272 106.69 91.2481C107.652 91.7691 108.393 92.4404 108.914 93.2619C109.435 94.0634 109.696 95.1354 109.696 96.4779C109.696 97.7602 109.465 98.8423 109.004 99.7239C108.544 100.585 107.922 101.277 107.141 101.798C106.36 102.319 105.488 102.699 104.526 102.94C103.564 103.16 102.583 103.27 101.581 103.27C100.559 103.27 99.4868 103.17 98.3647 102.97C97.2627 102.75 96.1907 102.459 95.1487 102.098C94.1068 101.718 93.155 101.277 92.2934 100.776L94.8181 95.6363C94.8181 95.6363 95.0185 95.7565 95.4192 95.997C95.82 96.2374 96.351 96.5079 97.0122 96.8085C97.6734 97.109 98.4048 97.3795 99.2063 97.62C100.028 97.8604 100.849 97.9807 101.671 97.9807C102.312 97.9807 102.753 97.9005 102.993 97.7402C103.254 97.5599 103.384 97.3294 103.384 97.0489C103.384 96.6281 103.164 96.3075 102.723 96.0871C102.282 95.8467 101.701 95.6263 100.98 95.4259C100.278 95.2055 99.4968 94.955 98.6352 94.6745C97.3929 94.2537 96.371 93.7829 95.5695 93.2619C94.768 92.7209 94.1769 92.0897 93.7962 91.3684C93.4155 90.627 93.2252 89.7353 93.2252 88.6934C93.2252 87.1104 93.5958 85.788 94.3372 84.726C95.0786 83.664 96.0504 82.8626 97.2526 82.3215C98.4749 81.7605 99.7873 81.48 101.19 81.48C102.232 81.48 103.234 81.6102 104.196 81.8707C105.177 82.1112 106.089 82.4117 106.931 82.7724C107.792 83.1331 108.544 83.4737 109.185 83.7943L106.66 88.6333Z" fill="black"/>
<path d="M129.508 86.7698H123.377V103H117.516V86.7698H111.354V81.6603H129.508V86.7698Z" fill="black"/>
<path d="M132.244 103V81.6603H138.105V103H132.244Z" fill="black"/>
<path d="M159.005 86.7698H152.874V103H147.013V86.7698H140.852V81.6603H159.005V86.7698Z" fill="black"/>
<path d="M171.058 103.18C169.355 103.18 167.892 102.9 166.67 102.339C165.448 101.778 164.446 101.006 163.665 100.024C162.903 99.0426 162.342 97.9205 161.981 96.6582C161.621 95.3758 161.44 94.0333 161.44 92.6307V81.6603H167.301V92.6307C167.301 93.332 167.372 94.0033 167.512 94.6445C167.652 95.2856 167.872 95.8567 168.173 96.3576C168.474 96.8586 168.854 97.2593 169.315 97.5599C169.796 97.8404 170.377 97.9807 171.058 97.9807C171.76 97.9807 172.351 97.8404 172.832 97.5599C173.313 97.2593 173.693 96.8586 173.974 96.3576C174.274 95.8367 174.495 95.2556 174.635 94.6144C174.775 93.9732 174.845 93.312 174.845 92.6307V81.6603H180.706V92.6307C180.706 94.1135 180.506 95.496 180.105 96.7784C179.724 98.0608 179.143 99.1829 178.362 100.145C177.58 101.106 176.579 101.858 175.356 102.399C174.154 102.92 172.721 103.18 171.058 103.18Z" fill="black"/>
<path d="M183.506 92.1498C183.506 90.8474 183.747 89.575 184.228 88.3327C184.729 87.0704 185.45 85.9283 186.392 84.9063C187.334 83.8844 188.476 83.0729 189.818 82.4718C191.181 81.8507 192.714 81.5401 194.417 81.5401C196.461 81.5401 198.244 81.9709 199.767 82.8325C201.289 83.6741 202.422 84.7961 203.163 86.1988L198.685 89.3847C198.424 88.6834 198.043 88.1424 197.543 87.7617C197.062 87.381 196.531 87.1205 195.95 86.9802C195.389 86.8199 194.837 86.7398 194.296 86.7398C193.455 86.7398 192.724 86.9101 192.102 87.2507C191.501 87.5713 191 88.0021 190.6 88.5431C190.219 89.0841 189.928 89.6852 189.728 90.3465C189.548 91.0077 189.457 91.6689 189.457 92.3302C189.457 93.0715 189.568 93.7829 189.788 94.4641C190.009 95.1454 190.329 95.7565 190.75 96.2975C191.171 96.8185 191.682 97.2293 192.283 97.5298C192.904 97.8304 193.595 97.9807 194.357 97.9807C194.898 97.9807 195.449 97.9005 196.01 97.7402C196.571 97.5599 197.082 97.2794 197.543 96.8986C198.003 96.5179 198.354 96.007 198.594 95.3658L203.373 98.2211C202.953 99.263 202.251 100.155 201.269 100.896C200.288 101.637 199.176 102.209 197.933 102.609C196.691 102.99 195.459 103.18 194.236 103.18C192.653 103.18 191.201 102.87 189.878 102.249C188.576 101.607 187.444 100.766 186.482 99.7239C185.54 98.6619 184.809 97.4797 184.288 96.1773C183.767 94.8548 183.506 93.5123 183.506 92.1498Z" fill="black"/>
<path d="M206.061 103V81.6603H211.921V103H206.061Z" fill="black"/>
<path d="M225.819 103.18C224.196 103.18 222.723 102.88 221.401 102.279C220.078 101.657 218.936 100.836 217.974 99.8141C217.032 98.7721 216.301 97.61 215.78 96.3276C215.279 95.0252 215.029 93.6827 215.029 92.3001C215.029 90.8774 215.299 89.5249 215.84 88.2426C216.381 86.9602 217.133 85.818 218.094 84.8162C219.076 83.7943 220.228 82.9928 221.551 82.4117C222.893 81.8306 224.356 81.5401 225.939 81.5401C227.562 81.5401 229.035 81.8507 230.357 82.4718C231.68 83.0729 232.812 83.8945 233.754 84.9364C234.695 85.9783 235.417 87.1505 235.918 88.4529C236.439 89.7353 236.699 91.0578 236.699 92.4203C236.699 93.8229 236.428 95.1654 235.887 96.4478C235.367 97.7302 234.615 98.8823 233.633 99.9042C232.672 100.906 231.529 101.708 230.207 102.309C228.884 102.89 227.422 103.18 225.819 103.18ZM220.98 92.3602C220.98 93.0815 221.08 93.7829 221.28 94.4641C221.481 95.1253 221.781 95.7265 222.182 96.2675C222.583 96.7884 223.084 97.2092 223.685 97.5298C224.306 97.8304 225.037 97.9807 225.879 97.9807C226.72 97.9807 227.452 97.8204 228.073 97.4998C228.694 97.1792 229.195 96.7484 229.576 96.2074C229.976 95.6463 230.267 95.0352 230.447 94.374C230.648 93.6927 230.748 93.0014 230.748 92.3001C230.748 91.5788 230.648 90.8875 230.447 90.2262C230.247 89.565 229.946 88.9739 229.546 88.4529C229.145 87.9119 228.634 87.4912 228.013 87.1906C227.392 86.89 226.67 86.7398 225.849 86.7398C225.007 86.7398 224.276 86.9001 223.655 87.2207C223.054 87.5412 222.553 87.972 222.152 88.5131C221.751 89.034 221.451 89.6351 221.25 90.3164C221.07 90.9776 220.98 91.6589 220.98 92.3602Z" fill="black"/>
<path d="M245.645 92.5105V103H239.784V81.6603H244.353L252.919 92.5105V81.6603H258.779V103H254.121L245.645 92.5105Z" fill="black"/>
<path d="M267.974 81.6603H274.526L281.319 103H275.368L274.075 98.8222H268.395L267.132 103H261.151L267.974 81.6603ZM273.143 94.915L271.25 87.401L269.266 94.915H273.143Z" fill="black"/>
<path d="M283.693 103V81.6603H289.554V97.8905H299.232V103H283.693Z" fill="black"/>
<path d="M100.765 62.9487V69.9999H79.7776V40.5506H100.392V47.6019H87.8658V51.7496H98.5671V58.3031H87.8658V62.9487H100.765Z" fill="black"/>
<path d="M105.356 69.9999V40.5506H113.444V62.9487H126.8V69.9999H105.356Z" fill="black"/>
<path d="M139.379 69.9999V40.5506H152.072C153.509 40.5506 154.837 40.841 156.053 41.4217C157.27 42.0023 158.321 42.7904 159.206 43.7859C160.091 44.7537 160.768 45.846 161.238 47.0626C161.736 48.2793 161.985 49.5098 161.985 50.7542C161.985 52.4962 161.57 54.1415 160.74 55.69C159.938 57.2385 158.805 58.5105 157.339 59.506C155.901 60.4738 154.215 60.9577 152.279 60.9577H147.467V69.9999H139.379ZM147.467 53.9065H151.74C152.072 53.9065 152.39 53.8097 152.694 53.6161C152.998 53.4226 153.247 53.0908 153.44 52.6207C153.662 52.1506 153.772 51.5284 153.772 50.7542C153.772 49.9246 153.648 49.2886 153.399 48.8462C153.178 48.3761 152.887 48.0581 152.528 47.8922C152.196 47.6986 151.864 47.6019 151.532 47.6019H147.467V53.9065Z" fill="black"/>
<path d="M166.052 69.9999V40.5506H179.573C181.011 40.5506 182.338 40.841 183.555 41.4217C184.772 42.0023 185.823 42.7904 186.707 43.7859C187.592 44.7537 188.27 45.846 188.74 47.0626C189.238 48.2793 189.486 49.5098 189.486 50.7542C189.486 51.8879 189.321 52.9802 188.989 54.0309C188.657 55.0817 188.173 56.0495 187.537 56.9344C186.901 57.7916 186.141 58.5382 185.256 59.1742L191.477 69.9999H182.601L177.416 60.9577H174.14V69.9999H166.052ZM174.14 53.9065H179.241C179.573 53.9065 179.891 53.7821 180.195 53.5332C180.5 53.2843 180.748 52.9249 180.942 52.4548C181.163 51.9847 181.274 51.4178 181.274 50.7542C181.274 50.0629 181.149 49.496 180.901 49.0536C180.679 48.5835 180.389 48.224 180.03 47.9752C179.698 47.7263 179.366 47.6019 179.034 47.6019H174.14V53.9065Z" fill="black"/>
<path d="M207.779 70.2488C205.539 70.2488 203.507 69.834 201.682 69.0044C199.857 68.1472 198.28 67.0135 196.953 65.6032C195.654 64.1653 194.644 62.5615 193.925 60.7918C193.234 58.9944 192.888 57.1418 192.888 55.2338C192.888 53.2705 193.262 51.404 194.008 49.6343C194.755 47.8646 195.792 46.2884 197.119 44.9058C198.474 43.4956 200.064 42.3895 201.889 41.5876C203.742 40.7857 205.76 40.3847 207.945 40.3847C210.185 40.3847 212.217 40.8133 214.042 41.6705C215.867 42.5001 217.429 43.6338 218.729 45.0717C220.029 46.5096 221.024 48.1272 221.715 49.9246C222.434 51.6943 222.794 53.5194 222.794 55.3997C222.794 57.3353 222.421 59.188 221.674 60.9577C220.955 62.7274 219.918 64.3174 218.563 65.7277C217.236 67.1103 215.66 68.2163 213.835 69.0459C212.01 69.8478 209.991 70.2488 207.779 70.2488ZM201.101 55.3167C201.101 56.3122 201.239 57.28 201.516 58.2202C201.792 59.1327 202.207 59.9623 202.76 60.7089C203.313 61.4278 204.004 62.0085 204.834 62.4509C205.691 62.8657 206.7 63.0731 207.862 63.0731C209.023 63.0731 210.033 62.8519 210.89 62.4095C211.747 61.967 212.438 61.3725 212.964 60.6259C213.517 59.8517 213.918 59.0083 214.166 58.0958C214.443 57.1556 214.581 56.2016 214.581 55.2338C214.581 54.2383 214.443 53.2843 214.166 52.3718C213.89 51.4593 213.475 50.6436 212.922 49.9246C212.369 49.178 211.664 48.5973 210.807 48.1825C209.95 47.7678 208.954 47.5604 207.82 47.5604C206.659 47.5604 205.65 47.7816 204.792 48.224C203.963 48.6665 203.272 49.261 202.719 50.0076C202.166 50.7265 201.751 51.5561 201.474 52.4962C201.225 53.4088 201.101 54.3489 201.101 55.3167Z" fill="black"/>
<path d="M225.434 55.0264C225.434 53.229 225.766 51.4731 226.429 49.7587C227.121 48.0166 228.116 46.4405 229.416 45.0302C230.715 43.62 232.292 42.5001 234.144 41.6705C236.025 40.8133 238.14 40.3847 240.49 40.3847C243.311 40.3847 245.772 40.9792 247.873 42.1683C249.975 43.3296 251.537 44.8781 252.56 46.8138L246.38 51.2104C246.021 50.2426 245.495 49.496 244.804 48.9706C244.14 48.4452 243.408 48.0858 242.606 47.8922C241.831 47.671 241.071 47.5604 240.324 47.5604C239.163 47.5604 238.154 47.7954 237.297 48.2655C236.467 48.7079 235.776 49.3025 235.223 50.0491C234.697 50.7957 234.296 51.6252 234.02 52.5377C233.771 53.4502 233.646 54.3627 233.646 55.2753C233.646 56.2984 233.799 57.28 234.103 58.2202C234.407 59.1604 234.849 60.0037 235.43 60.7503C236.011 61.4693 236.716 62.0361 237.545 62.4509C238.403 62.8657 239.357 63.0731 240.407 63.0731C241.154 63.0731 241.914 62.9625 242.689 62.7413C243.463 62.4924 244.168 62.1053 244.804 61.5799C245.44 61.0545 245.924 60.3494 246.256 59.4645L252.851 63.4049C252.27 64.8428 251.302 66.0733 249.947 67.0964C248.592 68.1196 247.058 68.9076 245.343 69.4607C243.629 69.9861 241.928 70.2488 240.241 70.2488C238.057 70.2488 236.052 69.8202 234.227 68.963C232.43 68.0781 230.867 66.9167 229.54 65.4788C228.241 64.0133 227.231 62.3818 226.512 60.5844C225.793 58.7594 225.434 56.9067 225.434 55.0264Z" fill="black"/>
<path d="M277.547 62.9487V69.9999H256.559V40.5506H277.174V47.6019H264.647V51.7496H275.349V58.3031H264.647V62.9487H277.547Z" fill="black"/>
<path d="M299.973 50.1735C299.973 50.1735 299.738 50.0352 299.268 49.7587C298.798 49.4822 298.176 49.178 297.401 48.8462C296.627 48.4867 295.784 48.1687 294.871 47.8922C293.959 47.6157 293.06 47.4774 292.175 47.4774C291.484 47.4774 290.917 47.588 290.475 47.8092C290.032 48.0305 289.811 48.4038 289.811 48.9292C289.811 49.4269 290.032 49.8278 290.475 50.132C290.917 50.4362 291.539 50.7127 292.341 50.9616C293.171 51.2104 294.152 51.5146 295.286 51.8741C297.111 52.4271 298.687 53.0631 300.015 53.7821C301.342 54.501 302.365 55.4273 303.084 56.5611C303.803 57.6671 304.162 59.1465 304.162 60.9992C304.162 62.7689 303.844 64.2621 303.208 65.4788C302.572 66.6678 301.715 67.6218 300.637 68.3408C299.558 69.0597 298.355 69.5851 297.028 69.9169C295.701 70.2211 294.346 70.3732 292.963 70.3732C291.553 70.3732 290.074 70.2349 288.525 69.9584C287.004 69.6542 285.525 69.2533 284.087 68.7556C282.649 68.2302 281.336 67.6218 280.147 66.9305L283.631 59.8378C283.631 59.8378 283.907 60.0037 284.46 60.3356C285.013 60.6674 285.746 61.0407 286.659 61.4555C287.571 61.8702 288.581 62.2435 289.687 62.5754C290.82 62.9072 291.954 63.0731 293.088 63.0731C293.973 63.0731 294.581 62.9625 294.913 62.7413C295.272 62.4924 295.452 62.1744 295.452 61.7873C295.452 61.2066 295.148 60.7642 294.54 60.46C293.931 60.1282 293.129 59.824 292.134 59.5475C291.166 59.2433 290.088 58.8977 288.899 58.5105C287.184 57.9298 285.774 57.28 284.668 56.5611C283.562 55.8145 282.746 54.9434 282.221 53.948C281.695 52.9249 281.433 51.6943 281.433 50.2564C281.433 48.0719 281.944 46.2469 282.967 44.7814C283.99 43.3158 285.331 42.2097 286.991 41.4631C288.677 40.6889 290.489 40.3018 292.424 40.3018C293.862 40.3018 295.245 40.4815 296.572 40.841C297.927 41.1728 299.185 41.5876 300.346 42.0853C301.535 42.583 302.572 43.0531 303.457 43.4956L299.973 50.1735Z" fill="black"/>
<path d="M321.84 70.2488C319.6 70.2488 317.567 69.834 315.742 69.0044C313.917 68.1472 312.341 67.0135 311.014 65.6032C309.714 64.1653 308.705 62.5615 307.986 60.7918C307.295 58.9944 306.949 57.1418 306.949 55.2338C306.949 53.2705 307.322 51.404 308.069 49.6343C308.816 47.8646 309.853 46.2884 311.18 44.9058C312.535 43.4956 314.125 42.3895 315.95 41.5876C317.803 40.7857 319.821 40.3847 322.006 40.3847C324.245 40.3847 326.278 40.8133 328.103 41.6705C329.928 42.5001 331.49 43.6338 332.79 45.0717C334.089 46.5096 335.085 48.1272 335.776 49.9246C336.495 51.6943 336.855 53.5194 336.855 55.3997C336.855 57.3353 336.481 59.188 335.735 60.9577C335.016 62.7274 333.979 64.3174 332.624 65.7277C331.297 67.1103 329.721 68.2163 327.895 69.0459C326.07 69.8478 324.052 70.2488 321.84 70.2488ZM315.162 55.3167C315.162 56.3122 315.3 57.28 315.577 58.2202C315.853 59.1327 316.268 59.9623 316.821 60.7089C317.374 61.4278 318.065 62.0085 318.895 62.4509C319.752 62.8657 320.761 63.0731 321.923 63.0731C323.084 63.0731 324.093 62.8519 324.951 62.4095C325.808 61.967 326.499 61.3725 327.024 60.6259C327.577 59.8517 327.978 59.0083 328.227 58.0958C328.504 57.1556 328.642 56.2016 328.642 55.2338C328.642 54.2383 328.504 53.2843 328.227 52.3718C327.951 51.4593 327.536 50.6436 326.983 49.9246C326.43 49.178 325.725 48.5973 324.868 48.1825C324.01 47.7678 323.015 47.5604 321.881 47.5604C320.72 47.5604 319.711 47.7816 318.853 48.224C318.024 48.6665 317.332 49.261 316.779 50.0076C316.226 50.7265 315.812 51.5561 315.535 52.4962C315.286 53.4088 315.162 54.3489 315.162 55.3167Z" fill="black"/>
<rect y="64.002" width="61.9085" height="7.87242" fill="#75AADB"/>
</svg>
